<?xml version="1.0" encoding="UTF-8"?>
<svg version="1.1" xmlns="http://www.w3.org/2000/svg" width="673" height="68">
<path d="M0 0 C1.18100281 -0.0099852 2.36200562 -0.0199704 3.57879639 -0.03025818 C6.06991083 -0.04539676 8.56108569 -0.0524853 11.05224609 -0.05200195 C14.83404473 -0.05854989 18.6131978 -0.11304676 22.39453125 -0.16992188 C24.82551194 -0.17872803 27.25650499 -0.18467951 29.6875 -0.1875 C30.803526 -0.20905655 31.919552 -0.2306131 33.06939697 -0.25282288 C42.66462171 -0.17039385 50.3923427 3.12921464 58.046875 8.87890625 C64.83977721 15.837489 68.26163253 23.9372345 68.77734375 33.67578125 C68.45836438 43.55232766 65.04636675 52.10473046 58.359375 59.44140625 C52.03135639 65.20568155 44.17428686 68.58375819 35.64819336 68.6809082 C34.17031593 68.70016106 34.17031593 68.70016106 32.6625824 68.71980286 C31.60217239 68.72718979 30.54176239 68.73457672 29.44921875 68.7421875 C28.34896866 68.75025925 27.24871857 68.75833099 26.11512756 68.76664734 C23.78420582 68.78047565 21.45326393 68.7912034 19.12231445 68.79907227 C16.75115988 68.81056779 14.38003069 68.83098073 12.0090332 68.8605957 C8.57225051 68.90351652 5.13623708 68.91947805 1.69921875 68.9296875 C0.12985817 68.95594963 0.12985817 68.95594963 -1.47120667 68.98274231 C-12.8644842 68.94965261 -21.14652347 65.65767989 -29.296875 57.7265625 C-35.52497407 51.11501703 -38.45184866 43.57489495 -38.765625 34.50390625 C-38.38617046 24.40092913 -34.62625824 15.49714906 -27.28125 8.4921875 C-18.62481307 1.37301437 -10.95230292 0.03252664 0 0 Z " fill="#5E8D9C" transform="translate(39.390625,-0.50390625)"/>
<path d="M0 0 C-0.61840841 6.38525308 -2.00263722 12.28935572 -3.8125 18.4375 C-4.06064453 19.34693359 -4.30878906 20.25636719 -4.56445312 21.19335938 C-4.81775391 22.05638672 -5.07105469 22.91941406 -5.33203125 23.80859375 C-5.55608643 24.59032959 -5.7801416 25.37206543 -6.01098633 26.17749023 C-7 28 -7 28 -8.95581055 28.88696289 C-11 29 -11 29 -13.375 27 C-15.89193749 24.62306919 -15.89193749 24.62306919 -19.3125 25.25 C-20.199375 25.4975 -21.08625 25.745 -22 26 C-22 25.13375 -22 24.2675 -22 23.375 C-23.45805746 18.45405608 -26.80947254 16.69186502 -31 14 C-30.74829102 12.11352539 -30.74829102 12.11352539 -30 10 C-28.26928711 8.95092773 -28.26928711 8.95092773 -26.02734375 8.18359375 C-25.20943359 7.89419922 -24.39152344 7.60480469 -23.54882812 7.30664062 C-22.68708984 7.01982422 -21.82535156 6.73300781 -20.9375 6.4375 C-19.25907835 5.8529686 -17.58069259 5.26833415 -15.90234375 4.68359375 C-15.0810498 4.40499512 -14.25975586 4.12639648 -13.41357422 3.83935547 C-11.10879109 3.03783368 -8.83938569 2.17218531 -6.56640625 1.28515625 C-3 0 -3 0 0 0 Z " fill="#E8F5F7" transform="translate(70,19)"/>
<path d="M0 0 C-0.61840841 6.38525308 -2.00263722 12.28935572 -3.8125 18.4375 C-4.06064453 19.34693359 -4.30878906 20.25636719 -4.56445312 21.19335938 C-4.81775391 22.05638672 -5.07105469 22.91941406 -5.33203125 23.80859375 C-5.55608643 24.59032959 -5.7801416 25.37206543 -6.01098633 26.17749023 C-7 28 -7 28 -8.95581055 28.88696289 C-11 29 -11 29 -13.375 27 C-15.89193749 24.62306919 -15.89193749 24.62306919 -19.3125 25.25 C-20.199375 25.4975 -21.08625 25.745 -22 26 C-22 23.36 -22 20.72 -22 18 C-20.02 17.34 -18.04 16.68 -16 16 C-15.87625 17.1446875 -15.87625 17.1446875 -15.75 18.3125 C-15.1480261 21.52364466 -15.1480261 21.52364466 -11 24 C-9.35 19.05 -7.7 14.1 -6 9 C-7.093125 9.99 -8.18625 10.98 -9.3125 12 C-12.625 15 -12.625 15 -16 15 C-14.55746343 11.63408134 -12.66735273 9.48952921 -10 7 C-11.65 7 -13.3 7 -15 7 C-15 6.34 -15 5.68 -15 5 C-13.06532058 4.16013916 -11.12714871 3.32831973 -9.1875 2.5 C-8.10855469 2.0359375 -7.02960937 1.571875 -5.91796875 1.09375 C-3 0 -3 0 0 0 Z " fill="#F0F9FA" transform="translate(70,19)"/>
<path d="M0 0 C1 2 1 2 0.00390625 5.4765625 C-0.46900047 6.86197936 -0.94981644 8.24471547 -1.4375 9.625 C-1.68048828 10.33140625 -1.92347656 11.0378125 -2.17382812 11.765625 C-2.77587205 13.51273287 -3.38708017 15.25667786 -4 17 C-7.57104439 15.12050295 -9.54744301 13.82946843 -11 10 C-9.73232923 8.70522938 -8.46073776 7.41429661 -7.1875 6.125 C-6.47980469 5.40570313 -5.77210937 4.68640625 -5.04296875 3.9453125 C-3 2 -3 2 0 0 Z " fill="#678E9D" transform="translate(64,27)"/>
<path d="M0 0 C-3.96 3.3 -7.92 6.6 -12 10 C-14 9 -16 8 -18 7 C-18 6.34 -18 5.68 -18 5 C-15.37831689 3.96983978 -12.75326119 2.95061606 -10.125 1.9375 C-9.37863281 1.64294922 -8.63226563 1.34839844 -7.86328125 1.04492188 C-2.2265625 -1.11328125 -2.2265625 -1.11328125 0 0 Z " fill="#6E929D" transform="translate(62,26)"/>
<path d="M0 0 C1.36523593 3.10280894 0.89965502 4.30631624 -0.1875 7.625 C-2 11 -2 11 -6 13 C-5.01 9.04 -4.02 5.08 -3 1 C-2.34 1.66 -1.68 2.32 -1 3 C-0.67 2.01 -0.34 1.02 0 0 Z " fill="#DFEEF1" transform="translate(66,30)"/>
<path d="M0 0 C1 2 1 2 0.0625 5.125 C-0.288125 6.07375 -0.63875 7.0225 -1 8 C-3.66666667 8 -6.33333333 8 -9 8 C-6.03 5.36 -3.06 2.72 0 0 Z " fill="#7795A3" transform="translate(64,27)"/>
<path d="M0 0 C-3.96 3.465 -3.96 3.465 -8 7 C-8.33 6.34 -8.66 5.68 -9 5 C-9.99 4.67 -10.98 4.34 -12 4 C-9.94577945 1.94577945 -8.66990976 1.31862408 -6 0.3125 C-5.29875 0.04050781 -4.5975 -0.23148438 -3.875 -0.51171875 C-2 -1 -2 -1 0 0 Z " fill="#7A97A3" transform="translate(62,26)"/>
<path d="M0 0 C1.32 0.66 2.64 1.32 4 2 C3.01 3.485 3.01 3.485 2 5 C1.01 5 0.02 5 -1 5 C-0.67 3.35 -0.34 1.7 0 0 Z " fill="#6E959E" transform="translate(52,43)"/>
</svg>
