<?xml version="1.0" encoding="UTF-8"?>
<svg version="1.1" xmlns="http://www.w3.org/2000/svg" width="672" height="68">
<path d="M0 0 C1.60273018 -0.01913956 1.60273018 -0.01913956 3.23783875 -0.03866577 C4.38371964 -0.04089142 5.52960052 -0.04311707 6.71020508 -0.04541016 C7.90019608 -0.05206696 9.09018707 -0.05872375 10.3162384 -0.06558228 C12.83369402 -0.07570094 15.35117641 -0.08039954 17.86865234 -0.08007812 C21.69845497 -0.08443705 25.5270917 -0.12072822 29.35668945 -0.15869141 C31.80785741 -0.16456271 34.25903081 -0.16853 36.71020508 -0.17041016 C38.41384468 -0.19196671 38.41384468 -0.19196671 40.15190125 -0.21395874 C50.68155919 -0.15420143 58.78547654 2.59620783 66.49536133 9.86865234 C73.87605038 18.6015287 76.341543 28.14463983 75.54223633 39.29052734 C73.83570128 49.13925926 68.54951736 56.38024228 60.89439392 62.64476013 C53.30648764 67.95389733 44.89799386 68.88734722 35.88208008 68.78662109 C34.81155899 68.78807632 33.7410379 68.78953156 32.63807678 68.79103088 C30.39182797 68.78938255 28.1455666 68.77794218 25.89941406 68.75708008 C22.48493938 68.72807155 19.07201647 68.73650626 15.6574707 68.74951172 C13.46149971 68.74327427 11.26553356 68.73488329 9.06958008 68.72412109 C8.06201157 68.72705673 7.05444305 68.72999237 6.01634216 68.73301697 C-5.53158662 68.58119346 -13.75589704 65.62006805 -22.14526367 57.69677734 C-28.70041663 50.74831521 -31.57592325 41.75806338 -31.45776367 32.29052734 C-30.83104976 25.02736076 -28.3919004 19.36725547 -24.45776367 13.29052734 C-23.62245117 11.96021484 -23.62245117 11.96021484 -22.77026367 10.60302734 C-16.80266247 4.63542614 -8.51040892 0.06933067 0 0 Z " fill="#F37272" transform="translate(31.457763671875,-0.29052734375)"/>
<path d="M0 0 C3.0625 0.125 3.0625 0.125 5.0625 1.125 C7.88524537 1.2234342 10.67778097 1.26398292 13.5 1.25 C14.27666016 1.25386719 15.05332031 1.25773437 15.85351562 1.26171875 C19.17331172 1.25599989 21.89243506 1.18168831 25.0625 0.125 C25.3925 2.105 25.7225 4.085 26.0625 6.125 C22.38162647 8.57891569 19.61894412 8.35302759 15.375 8.25 C14.67310547 8.24097656 13.97121094 8.23195313 13.24804688 8.22265625 C11.51938475 8.19913704 9.79089855 8.16326713 8.0625 8.125 C8.0625 8.785 8.0625 9.445 8.0625 10.125 C9.11050781 10.11339844 10.15851562 10.10179687 11.23828125 10.08984375 C12.61718572 10.08046345 13.99609211 10.0713635 15.375 10.0625 C16.06529297 10.05412109 16.75558594 10.04574219 17.46679688 10.03710938 C20.6108025 10.02192094 23.05670019 10.12306673 26.0625 11.125 C25.7325 12.775 25.4025 14.425 25.0625 16.125 C20.4425 16.455 15.8225 16.785 11.0625 17.125 C12.94074891 19.00324891 16.10185276 18.51602397 18.625 18.6875 C19.82253906 18.77128906 21.02007812 18.85507812 22.25390625 18.94140625 C23.64416016 19.03228516 23.64416016 19.03228516 25.0625 19.125 C25.44468767 20.78114657 25.77645102 22.44957024 26.0625 24.125 C24.25855125 25.92894875 21.49572201 25.36205789 19.05859375 25.44140625 C17.84365234 25.48330078 16.62871094 25.52519531 15.37695312 25.56835938 C14.09755859 25.60767578 12.81816406 25.64699219 11.5 25.6875 C10.21673828 25.73068359 8.93347656 25.77386719 7.61132812 25.81835938 C4.42850147 25.924848 1.24559326 26.02685962 -1.9375 26.125 C-2.82070989 21.66571649 -2.99925451 19.24850902 -0.9375 15.125 C-1.5975 15.125 -2.2575 15.125 -2.9375 15.125 C-2.90494792 13.07421875 -2.87239583 11.0234375 -2.83984375 8.97265625 C-2.73188816 7.10767859 -2.73188816 7.10767859 -3.9375 6.125 C-4.0625 3.625 -4.0625 3.625 -3.9375 1.125 C-2.9375 0.125 -2.9375 0.125 0 0 Z " fill="#E77979" transform="translate(42.9375,20.875)"/>
<path d="M0 0 C1.65 0.33 3.3 0.66 5 1 C5.33 1.99 5.66 2.98 6 4 C11.61 4.33 17.22 4.66 23 5 C23 3.68 23 2.36 23 1 C23.66 1 24.32 1 25 1 C24.67 2.65 24.34 4.3 24 6 C19.38 6.33 14.76 6.66 10 7 C11.87824891 8.87824891 15.03935276 8.39102397 17.5625 8.5625 C18.76003906 8.64628906 19.95757812 8.73007812 21.19140625 8.81640625 C22.11824219 8.87699219 23.04507813 8.93757813 24 9 C24.38218767 10.65614657 24.71395102 12.32457024 25 14 C23.19605125 15.80394875 20.43322201 15.23705789 17.99609375 15.31640625 C16.17368164 15.37924805 16.17368164 15.37924805 14.31445312 15.44335938 C13.03505859 15.48267578 11.75566406 15.52199219 10.4375 15.5625 C8.51260742 15.62727539 8.51260742 15.62727539 6.54882812 15.69335938 C3.36600147 15.799848 0.18309326 15.90185962 -3 16 C-2.01 15.34 -1.02 14.68 0 14 C0.36558117 10.64496524 0.36558117 10.64496524 0.1875 6.875 C0.16042969 5.59367187 0.13335937 4.31234375 0.10546875 2.9921875 C0.05326172 1.51105469 0.05326172 1.51105469 0 0 Z " fill="#EA8181" transform="translate(44,31)"/>
<path d="M0 0 C1.32 0 2.64 0 4 0 C4 7.59 4 15.18 4 23 C2.68 23.33 1.36 23.66 0 24 C-1.15837626 19.94568308 -0.83691257 17.78187881 1 14 C0.34 14 -0.32 14 -1 14 C-0.91621094 13.39671875 -0.83242188 12.7934375 -0.74609375 12.171875 C-0.64425781 11.37265625 -0.54242188 10.5734375 -0.4375 9.75 C-0.33308594 8.96109375 -0.22867188 8.1721875 -0.12109375 7.359375 C0.00033688 4.9934363 -0.40261528 3.26905791 -1 1 C-0.67 0.67 -0.34 0.34 0 0 Z " fill="#FDE5E2" transform="translate(41,22)"/>
<path d="M0 0 C5.94 0 11.88 0 18 0 C18 1.32 18 2.64 18 4 C12.39 4 6.78 4 1 4 C0.67 2.68 0.34 1.36 0 0 Z " fill="#FCE0DD" transform="translate(49,32)"/>
<path d="M0 0 C5.61 0 11.22 0 17 0 C17 1.32 17 2.64 17 4 C11.06 4 5.12 4 -1 4 C-0.67 2.68 -0.34 1.36 0 0 Z " fill="#FEDFDC" transform="translate(50,23)"/>
<path d="M0 0 C5.61 0 11.22 0 17 0 C17 0.99 17 1.98 17 3 C11.39 3 5.78 3 0 3 C0 2.01 0 1.02 0 0 Z " fill="#FFF0EE" transform="translate(50,42)"/>
<path d="M0 0 C3.46464111 0.27173656 4.68165104 0.93690865 7.1875 3.25 C6.1975 4.735 6.1975 4.735 5.1875 6.25 C4.1975 6.25 3.2075 6.25 2.1875 6.25 C2.1875 4.6 2.1875 2.95 2.1875 1.25 C0.8675 1.58 -0.4525 1.91 -1.8125 2.25 C-1.4825 4.89 -1.1525 7.53 -0.8125 10.25 C-2.86869793 7.93677733 -3.77149829 6.69076838 -4.0625 3.5625 C-3.69625698 0.17475206 -3.45445912 0.30706303 0 0 Z " fill="#E88184" transform="translate(42.8125,20.75)"/>
<path d="M0 0 C1.65 0 3.3 0 5 0 C5 1.32 5 2.64 5 4 C4.01 4.33 3.02 4.66 2 5 C1.34 4.67 0.68 4.34 0 4 C0 2.68 0 1.36 0 0 Z " fill="#FEEEEC" transform="translate(40,32)"/>
</svg>
