<?xml version="1.0" encoding="UTF-8"?>
<svg version="1.1" xmlns="http://www.w3.org/2000/svg" width="672" height="68">
<path d="M0 0 C1.16072021 -0.0038269 2.32144043 -0.00765381 3.51733398 -0.01159668 C5.95785394 -0.01430418 8.39840349 -0.00702508 10.83886719 0.00976562 C14.55209701 0.03118998 18.26339211 0.00992208 21.9765625 -0.015625 C24.35937923 -0.01298152 26.74219476 -0.00785613 29.125 0 C30.77230103 -0.01214539 30.77230103 -0.01214539 32.45288086 -0.02453613 C43.01490422 0.10252641 50.90805595 3.02225548 58.5859375 10.3203125 C65.54068985 18.09973904 68.08988734 27.10111693 67.87109375 37.41015625 C66.98151578 46.40728032 63.01158039 54.22929692 56.5625 60.53125 C47.51582817 67.30898163 39.37359448 68.84315812 28.328125 68.8671875 C26.71741119 68.8771727 26.71741119 68.8771727 25.07415771 68.88735962 C22.80824488 68.89745492 20.54230249 68.90217761 18.27636719 68.90185547 C14.83738312 68.90621843 11.39969405 68.94254491 7.9609375 68.98046875 C5.75000434 68.98633983 3.53906515 68.99030727 1.328125 68.9921875 C0.31316956 69.00655853 -0.70178589 69.02092957 -1.74749756 69.03573608 C-12.27762206 68.96945772 -21.72281008 65.87373997 -29.4375 58.53125 C-37.20511762 50.02217798 -39.19111622 41.72651768 -38.78125 30.4453125 C-37.84597237 19.79590128 -32.53791085 13.49381191 -25.125 6.28125 C-17.06772025 1.03464923 -9.4694499 -0.06981731 0 0 Z " fill="#87933D" transform="translate(38.4375,-0.53125)"/>
<path d="M0 0 C3.14502521 2.60662841 5.49349215 4.9421587 6.99609375 8.80078125 C7.45072187 13.92481898 6.40518572 17.8386305 3.12109375 21.80078125 C0.60265021 24.53436821 -1.33901498 25.6982336 -5.16015625 25.93359375 C-5.93359375 25.93101563 -6.70703125 25.9284375 -7.50390625 25.92578125 C-8.27734375 25.92835937 -9.05078125 25.9309375 -9.84765625 25.93359375 C-12.00390625 25.80078125 -12.00390625 25.80078125 -15.00390625 24.80078125 C-15.390625 25.24550781 -15.77734375 25.69023438 -16.17578125 26.1484375 C-16.6965625 26.71433594 -17.21734375 27.28023437 -17.75390625 27.86328125 C-18.264375 28.43175781 -18.77484375 29.00023438 -19.30078125 29.5859375 C-21.00390625 30.80078125 -21.00390625 30.80078125 -23.20703125 30.484375 C-23.8 30.25878906 -24.39296875 30.03320312 -25.00390625 29.80078125 C-24.64764994 26.59447447 -24.46276446 25.1907235 -21.94921875 23.0546875 C-19.68188224 20.89095056 -19.68188224 20.89095056 -19.82421875 17.59375 C-19.92476562 16.40394531 -20.0253125 15.21414062 -20.12890625 13.98828125 C-20.37193683 6.21130283 -20.37193683 6.21130283 -17.25390625 2.48828125 C-12.94249114 -1.83402127 -5.33970612 -3.19549664 0 0 Z " fill="#F3F4E1" transform="translate(62.00390625,19.19921875)"/>
<path d="M0 0 C-0.48578543 3.12290635 -0.9986012 5.99580359 -2 9 C-0.68 9 0.64 9 2 9 C2.33 6.69 2.66 4.38 3 2 C3.99 2 4.98 2 6 2 C6.24535485 4.94425817 6.17577792 6.65769564 4.8125 9.3125 C3 11 3 11 0.3125 11.25 C-0.450625 11.1675 -1.21375 11.085 -2 11 C-1.01 13.97 -0.02 16.94 1 20 C0.34 20 -0.32 20 -1 20 C-1.0825 20.5775 -1.165 21.155 -1.25 21.75 C-2.2379616 24.71388479 -3.53822058 26.10091302 -6 28 C-8.25 27.75 -8.25 27.75 -10 27 C-9.64496293 23.8046664 -9.46300506 22.3930674 -6.95703125 20.265625 C-4.23051261 17.10917628 -4.69032168 15.09361994 -4.9375 11 C-5.31292662 4.55631399 -5.31292662 4.55631399 -3.62890625 1.5625 C-2 0 -2 0 0 0 Z " fill="#FAFBEB" transform="translate(47,22)"/>
<path d="M0 0 C1.20628008 2.33214148 2.1654738 4.49642139 3 7 C3.66 7.33 4.32 7.66 5 8 C5.66 6.02 6.32 4.04 7 2 C9.31 2 11.62 2 14 2 C12.81312222 5.37803676 11.81837811 7.74529751 9 10 C4.52953561 10.92925383 0.93213857 10.5437475 -3 8.25 C-4.95829554 6.04691751 -5.69025617 4.89094238 -6 2 C-4.02 1.34 -2.04 0.68 0 0 Z " fill="#929C5D" transform="translate(51,31)"/>
<path d="M0 0 C3.38186376 1.9427728 4.70264591 2.99357079 5.8125 6.75 C5.874375 7.4925 5.93625 8.235 6 9 C4.68 9 3.36 9 2 9 C1.67 7.35 1.34 5.7 1 4 C-0.70840281 5.63412443 -1.93453047 6.86906094 -3 9 C-3.66 9 -4.32 9 -5 9 C-5.33 6.69 -5.66 4.38 -6 2 C-6.99 2 -7.98 2 -9 2 C-9.33 4.31 -9.66 6.62 -10 9 C-11.32 9 -12.64 9 -14 9 C-13.72253508 5.67042093 -13.18903896 4.21195277 -10.9375 1.6875 C-7.14361659 -0.49196494 -4.27950651 -0.8559013 0 0 Z " fill="#8E9A56" transform="translate(59,22)"/>
<path d="M0 0 C0.66 0 1.32 0 2 0 C2.33 1.98 2.66 3.96 3 6 C2.01 6.66 1.02 7.32 0 8 C-1.20450304 10.55183404 -1.20450304 10.55183404 -2 13 C-2.99 12.67 -3.98 12.34 -5 12 C-6.22601777 9.44484147 -6.79596993 6.82241594 -7 4 C-5.625 2 -5.625 2 -4 1 C-4 2.32 -4 3.64 -4 5 C-3.34 5 -2.68 5 -2 5 C-1.34 3.35 -0.68 1.7 0 0 Z " fill="#F4F7E2" transform="translate(58,26)"/>
<path d="M0 0 C3.875 1.75 3.875 1.75 5 4 C5.25785684 8.55547083 4.99851462 11.8780636 3 16 C2.34 15.01 1.68 14.02 1 13 C1.33 12.34 1.66 11.68 2 11 C0.35 11 -1.3 11 -3 11 C-2.67 10.34 -2.34 9.68 -2 9 C-0.68 9 0.64 9 2 9 C1.484375 8.071875 0.96875 7.14375 0.4375 6.1875 C-1 3 -1 3 0 0 Z " fill="#FBFCEC" transform="translate(63,22)"/>
<path d="M0 0 C0 1.66666667 0 3.33333333 0 5 C0.66 5.66 1.32 6.32 2 7 C0.75 8.5625 0.75 8.5625 -1 10 C-3.1875 9.6875 -3.1875 9.6875 -5 9 C-4.5206753 4.68607774 -3.2542015 2.83430453 0 0 Z " fill="#ECF0D6" transform="translate(42,40)"/>
<path d="M0 0 C0.804375 0.4640625 0.804375 0.4640625 1.625 0.9375 C4.3984957 2.17827439 7.00042837 2.5909675 10 3 C8.02 3.99 8.02 3.99 6 5 C6.33 5.66 6.66 6.32 7 7 C4.36 6.67 1.72 6.34 -1 6 C-1 5.34 -1 4.68 -1 4 C-0.34 4 0.32 4 1 4 C0.67 2.68 0.34 1.36 0 0 Z " fill="#EBEFD2" transform="translate(47,38)"/>
<path d="M0 0 C1.26070809 2.9798555 0.99119908 4.02316031 -0.1875 7.125 C-1.99400788 9.99049526 -2.86809018 10.9200311 -6 12 C-6.99 11.34 -7.98 10.68 -9 10 C-7.8553125 9.38125 -7.8553125 9.38125 -6.6875 8.75 C-2.96798454 6.32798993 -1.3960808 4.1882424 0 0 Z " fill="#8F9955" transform="translate(68,34)"/>
<path d="M0 0 C-0.33 0.66 -0.66 1.32 -1 2 C-2.77734375 2.484375 -2.77734375 2.484375 -4.9375 2.75 C-5.64777344 2.84796875 -6.35804687 2.9459375 -7.08984375 3.046875 C-9 3 -9 3 -11 1 C-6.92630576 -1.03684712 -4.41062136 -1.0257259 0 0 Z " fill="#F8FAE8" transform="translate(63,42)"/>
<path d="M0 0 C0.33 0.66 0.66 1.32 1 2 C0.34 2 -0.32 2 -1 2 C-1.33 4.31 -1.66 6.62 -2 9 C-3.32 9 -4.64 9 -6 9 C-5.69381595 5.32579134 -5.24228216 4.21864487 -2.4375 1.6875 C-1.633125 1.130625 -0.82875 0.57375 0 0 Z " fill="#99A06A" transform="translate(51,22)"/>
<path d="M0 0 C3.37991574 0.3557806 6.04288438 1.35715799 9 3 C7.081875 3.4640625 7.081875 3.4640625 5.125 3.9375 C2.89898325 4.47605244 1.05260001 4.9737 -1 6 C-1.625 4.125 -1.625 4.125 -2 2 C-1.34 1.34 -0.68 0.68 0 0 Z " fill="#F1F3D9" transform="translate(48,19)"/>
<path d="M0 0 C2.31 0 4.62 0 7 0 C7 0.99 7 1.98 7 3 C4.37886292 3 2.49064888 2.68707555 0 2 C0 1.34 0 0.68 0 0 Z " fill="#859240" transform="translate(52,22)"/>
<path d="M0 0 C0.33 0 0.66 0 1 0 C1.33 3.96 1.66 7.92 2 12 C1.01 12.495 1.01 12.495 0 13 C-1.29676812 8.38926889 -0.71109139 4.66159911 0 0 Z " fill="#9DA56B" transform="translate(41,28)"/>
<path d="M0 0 C0.33 1.32 0.66 2.64 1 4 C1.66 4 2.32 4 3 4 C3 4.66 3 5.32 3 6 C2.01 6 1.02 6 0 6 C-0.33 6.66 -0.66 7.32 -1 8 C-1.625 5.6875 -1.625 5.6875 -2 3 C-1.34 2.01 -0.68 1.02 0 0 Z " fill="#E2E5D0" transform="translate(53,27)"/>
</svg>
