<?xml version="1.0" encoding="UTF-8"?>
<svg version="1.1" xmlns="http://www.w3.org/2000/svg" width="400" height="72">
<path d="M0 0 C5.64163077 -0.0988093 11.28275899 -0.17143996 16.92504883 -0.21972656 C18.84473441 -0.23985348 20.76435862 -0.2671579 22.68383789 -0.30175781 C25.44172296 -0.3502293 28.19879827 -0.37295742 30.95703125 -0.390625 C32.24623222 -0.42159271 32.24623222 -0.42159271 33.56147766 -0.45318604 C39.51865409 -0.4554341 39.51865409 -0.4554341 41.9909668 1.88378906 C42.32394775 2.58213867 42.65692871 3.28048828 43 4 C43.5878125 5.11375 43.5878125 5.11375 44.1875 6.25 C44.455625 6.8275 44.72375 7.405 45 8 C45.886875 7.21625 46.77375 6.4325 47.6875 5.625 C54.85243853 -0.3150193 63.09510364 -0.14814014 71.9921875 -0.09765625 C72.93812775 -0.0962413 73.88406799 -0.09482635 74.8586731 -0.09336853 C77.86414829 -0.08779484 80.86954753 -0.0752472 83.875 -0.0625 C85.91926975 -0.0574816 87.96354068 -0.05291929 90.0078125 -0.04882812 C95.00523736 -0.03783403 100.00260583 -0.02058757 105 0 C105.0154612 0.87656754 105.0154612 0.87656754 105.03123474 1.77084351 C105.13917841 7.83758003 105.25378606 13.90416436 105.37231445 19.97070312 C105.4157023 22.23662134 105.45737449 24.50257307 105.49731445 26.76855469 C105.55492385 30.02028518 105.61864502 33.27184636 105.68359375 36.5234375 C105.70030624 37.54118256 105.71701874 38.55892761 105.73423767 39.60751343 C105.7641555 41.01874985 105.7641555 41.01874985 105.79467773 42.45849609 C105.81799416 43.70425919 105.81799416 43.70425919 105.84178162 44.97518921 C105.87765197 47.06878436 105.87765197 47.06878436 107 49 C109.91652174 49.16681109 109.91652174 49.16681109 113 49 C115.45496426 46.54503574 115.26466611 45.83581235 115.31884766 42.45849609 C115.33871735 41.51767181 115.35858704 40.57684753 115.37905884 39.60751343 C115.39061005 38.58976837 115.40216125 37.57202332 115.4140625 36.5234375 C115.43342865 35.48305328 115.4527948 34.44266907 115.4727478 33.37075806 C115.53265727 30.0389228 115.57897452 26.70705321 115.625 23.375 C115.6631693 21.11977637 115.7022204 18.86456748 115.7421875 16.609375 C115.84003226 11.07299218 115.91951135 5.53677154 116 0 C123.26 0 130.52 0 138 0 C138.0093457 1.73080811 138.01869141 3.46161621 138.02832031 5.24487305 C138.06388578 10.97270186 138.11770767 16.70016571 138.18390274 22.42772198 C138.22336028 25.89934324 138.2555567 29.37071154 138.27099609 32.8425293 C138.28908061 36.83683778 138.33903842 40.83020143 138.390625 44.82421875 C138.39246796 46.68852791 138.39246796 46.68852791 138.39434814 48.59049988 C138.41406677 49.75132584 138.4337854 50.91215179 138.45410156 52.1081543 C138.46298401 53.12741501 138.47186646 54.14667572 138.48101807 55.19682312 C139.1283784 58.69341018 140.73074797 60.32283708 143 63 C143 63.99 143 64.98 143 66 C139.43765572 66.08741124 135.87558892 66.14052896 132.3125 66.1875 C131.30509766 66.21263672 130.29769531 66.23777344 129.25976562 66.26367188 C123.84357112 66.31729756 120.54248025 66.22542977 116 63 C114.39082023 63.70401615 112.78561699 64.42110192 111.21875 65.21484375 C105.34026115 67.29508364 97.6334807 67.02640897 91.875 64.625 C89 63 89 63 86 61 C86 60.34 86 59.68 86 59 C85.55011719 59.33773437 85.10023437 59.67546875 84.63671875 60.0234375 C74.35423652 67.15317468 62.32353188 66.2672059 50.3125 66.125 C48.8209696 66.11494292 47.32943258 66.10582192 45.83789062 66.09765625 C42.22512026 66.07587544 38.61260407 66.0414985 35 66 C34.01 62.04 33.02 58.08 32 54 C26.06 54 20.12 54 14 54 C13.690625 55.794375 13.38125 57.58875 13.0625 59.4375 C12.125 64.875 12.125 64.875 11 66 C9.5112814 66.08669432 8.018555 66.10703494 6.52734375 66.09765625 C5.62822266 66.09443359 4.72910156 66.09121094 3.80273438 66.08789062 C2.38444336 66.07532227 2.38444336 66.07532227 0.9375 66.0625 C-0.01189453 66.05798828 -0.96128906 66.05347656 -1.93945312 66.04882812 C-4.29303369 66.03700109 -6.64647581 66.01968094 -9 66 C-8.40905801 59.36145764 -7.19156462 53.18011076 -5.49609375 46.7421875 C-4.99795039 44.79820181 -4.49990647 42.85419063 -4.00195312 40.91015625 C-3.21886271 37.88358436 -2.43300716 34.85775648 -1.64477539 31.83251953 C-0.8797993 28.88751654 -0.12502087 25.94003514 0.62890625 22.9921875 C0.86638077 22.0941037 1.10385529 21.1960199 1.348526 20.27072144 C2.59547273 15.37870884 3.40956902 11.05286667 3 6 C1.5833253 4.2488427 1.5833253 4.2488427 0 3 C0 2.01 0 1.02 0 0 Z M23 19 C20.42718118 26.22839572 18.63304408 33.50652821 17 41 C20.96 41 24.92 41 29 41 C27.35 33.74 25.7 26.48 24 19 C23.67 19 23.34 19 23 19 Z " fill="#932A49" transform="translate(9,0)"/>
<path d="M0 0 C7.26 0 14.52 0 22 0 C22.01401855 2.59621216 22.01401855 2.59621216 22.02832031 5.24487305 C22.06388578 10.97270186 22.11770767 16.70016571 22.18390274 22.42772198 C22.22336028 25.89934324 22.2555567 29.37071154 22.27099609 32.8425293 C22.28908061 36.83683778 22.33903842 40.83020143 22.390625 44.82421875 C22.39185364 46.06709152 22.39308228 47.30996429 22.39434814 48.59049988 C22.41406677 49.75132584 22.4337854 50.91215179 22.45410156 52.1081543 C22.46298401 53.12741501 22.47186646 54.14667572 22.48101807 55.19682312 C23.1283784 58.69341018 24.73074797 60.32283708 27 63 C27 63.99 27 64.98 27 66 C23.43765572 66.08741124 19.87558892 66.14052896 16.3125 66.1875 C15.30509766 66.21263672 14.29769531 66.23777344 13.25976562 66.26367188 C7.84357112 66.31729756 4.54248025 66.22542977 0 63 C-1.60917977 63.70401615 -3.21438301 64.42110192 -4.78125 65.21484375 C-10.66359672 67.29644884 -18.36439391 66.97181406 -24.1875 64.75 C-26.99234055 63.00476588 -28.03259368 62.11719813 -29 59 C-27.515 58.505 -27.515 58.505 -26 58 C-26.66 56.35 -27.32 54.7 -28 53 C-25 52 -25 52 -24 52 C-24.33 50.35 -24.66 48.7 -25 47 C-24.01 47 -23.02 47 -22 47 C-22 46.01 -22 45.02 -22 44 C-20.02 43.505 -20.02 43.505 -18 43 C-22.455 41.02 -22.455 41.02 -27 39 C-27 38.67 -27 38.34 -27 38 C-23.7 38 -20.4 38 -17 38 C-19.64 37.34 -22.28 36.68 -25 36 C-25 35.34 -25 34.68 -25 34 C-21.04 34 -17.08 34 -13 34 C-13 23.11 -13 12.22 -13 1 C-12.67 1 -12.34 1 -12 1 C-12 16.18 -12 31.36 -12 47 C-11.34 47 -10.68 47 -10 47 C-9.67 47.66 -9.34 48.32 -9 49 C-6.08347826 49.16681109 -6.08347826 49.16681109 -3 49 C-0.54503574 46.54503574 -0.73533389 45.83581235 -0.68115234 42.45849609 C-0.66128265 41.51767181 -0.64141296 40.57684753 -0.62094116 39.60751343 C-0.60938995 38.58976837 -0.59783875 37.57202332 -0.5859375 36.5234375 C-0.56657135 35.48305328 -0.5472052 34.44266907 -0.5272522 33.37075806 C-0.46734273 30.0389228 -0.42102548 26.70705321 -0.375 23.375 C-0.3368307 21.11977637 -0.2977796 18.86456748 -0.2578125 16.609375 C-0.15996774 11.07299218 -0.08048865 5.53677154 0 0 Z " fill="#912849" transform="translate(125,0)"/>
<path d="M0 0 C3 0.125 3 0.125 4 1.125 C4.04080783 3.12458364 4.04254356 5.12545254 4 7.125 C5.32 7.125 6.64 7.125 8 7.125 C8.33 7.785 8.66 8.445 9 9.125 C9.474375 8.63 9.94875 8.135 10.4375 7.625 C14.16002963 5.44595827 17.77382564 5.55208552 22 6.125 C23.34011028 6.77793694 24.67455459 7.44278545 26 8.125 C28.19747131 7.82694993 28.19747131 7.82694993 30 7.125 C30 4.815 30 2.505 30 0.125 C32.31 0.125 34.62 0.125 37 0.125 C37 2.435 37 4.745 37 7.125 C38.32 7.125 39.64 7.125 41 7.125 C41 8.775 41 10.425 41 12.125 C39.68 12.125 38.36 12.125 37 12.125 C37 15.425 37 18.725 37 22.125 C38.32 22.125 39.64 22.125 41 22.125 C41 24.105 41 26.085 41 28.125 C33.58358663 28.48974164 33.58358663 28.48974164 31.25 27.03125 C29.37973696 24.17909887 29.71254206 21.8027505 29.8125 18.4375 C29.85310547 16.66826172 29.85310547 16.66826172 29.89453125 14.86328125 C29.92933594 13.95964844 29.96414063 13.05601563 30 12.125 C29.01 12.125 28.02 12.125 27 12.125 C27 17.405 27 22.685 27 28.125 C24.36 28.125 21.72 28.125 19 28.125 C17.9275 28.33125 16.855 28.5375 15.75 28.75 C12.67674986 29.16907957 11.50808236 28.88994685 9 27.125 C8.67 26.465 8.34 25.805 8 25.125 C7.67 26.115 7.34 27.105 7 28.125 C4.14647085 28.35889583 1.79715009 28.53326254 -1 28.125 C-3.648138 25.72512493 -3.9560461 23.85279474 -4.16796875 20.34375 C-4.1856727 17.59609698 -4.12976542 14.86929825 -4 12.125 C-4.99 12.125 -5.98 12.125 -7 12.125 C-7 10.475 -7 8.825 -7 7.125 C-6.01 7.125 -5.02 7.125 -4 7.125 C-4.020625 6.155625 -4.04125 5.18625 -4.0625 4.1875 C-3.98042553 0.16585106 -3.98042553 0.16585106 0 0 Z M16 11.125 C16 11.785 16 12.445 16 13.125 C12.04 12.795 8.08 12.465 4 12.125 C4 15.425 4 18.725 4 22.125 C4.99 22.125 5.98 22.125 7 22.125 C7.350625 21.361875 7.70125 20.59875 8.0625 19.8125 C11.03909634 15.68367282 15.19695756 15.23339441 20 14.125 C19.67 13.135 19.34 12.145 19 11.125 C18.01 11.125 17.02 11.125 16 11.125 Z M15 20.125 C15 21.115 15 22.105 15 23.125 C16.98491642 22.85823796 16.98491642 22.85823796 19 22.125 C19.33 21.135 19.66 20.145 20 19.125 C17.0745356 18.9013932 17.0745356 18.9013932 15 20.125 Z " fill="#9A3958" transform="translate(338,0.875)"/>
<path d="M0 0 C2.97 0 5.94 0 9 0 C11.97 7.92 14.94 15.84 18 24 C18.33 18.39 18.66 12.78 19 7 C22.47921735 6.97316799 25.95823039 6.9532433 29.4375 6.9375 C30.92733398 6.92493164 30.92733398 6.92493164 32.44726562 6.91210938 C33.86362305 6.90727539 33.86362305 6.90727539 35.30859375 6.90234375 C36.62041626 6.89448853 36.62041626 6.89448853 37.95874023 6.88647461 C40 7 40 7 41 8 C41.08685603 9.56172745 41.10702219 11.12729344 41.09765625 12.69140625 C41.09443359 13.63564453 41.09121094 14.57988281 41.08789062 15.55273438 C41.07532227 17.04256836 41.07532227 17.04256836 41.0625 18.5625 C41.05798828 19.55958984 41.05347656 20.55667969 41.04882812 21.58398438 C41.03700007 24.05604849 41.02051849 26.52799518 41 29 C38.36 29 35.72 29 33 29 C32.505 21.575 32.505 21.575 32 14 C30.68 14.33 29.36 14.66 28 15 C27.67 19.62 27.34 24.24 27 29 C21.39 29 15.78 29 10 29 C10 27.68 10 26.36 10 25 C6.7 25 3.4 25 0 25 C-0.33 26.32 -0.66 27.64 -1 29 C-3.97 29 -6.94 29 -10 29 C-7.24777233 19.12435954 -3.59469585 9.59242125 0 0 Z M4 10 C3.34 12.64 2.68 15.28 2 18 C3.65 18 5.3 18 7 18 C6.34 15.36 5.68 12.72 5 10 C4.67 10 4.34 10 4 10 Z " fill="#9C3D5B" transform="translate(174,0)"/>
<path d="M0 0 C0.33 0.66 0.66 1.32 1 2 C-0.11463924 4.78939871 -1.58628534 7.34393004 -3 10 C0.96 6.535 0.96 6.535 5 3 C5 7.47975746 2.66989505 9.46238906 0 13 C3.3 11.02 6.6 9.04 10 7 C8.768606 10.69418201 6.79208646 12.35109746 4 15 C5.093125 14.484375 6.18625 13.96875 7.3125 13.4375 C11 12 11 12 14 13 C11.03 14.98 8.06 16.96 5 19 C6.60875 18.4740625 6.60875 18.4740625 8.25 17.9375 C12 17 12 17 16 18 C13.03 19.32 10.06 20.64 7 22 C10.63 22 14.26 22 18 22 C14.87740563 25.12259437 11.28533288 25.14293342 7 26 C10.63 26.33 14.26 26.66 18 27 C18 27.66 18 28.32 18 29 C14.37 29 10.74 29 7 29 C7 29.66 7 30.32 7 31 C10.63 31.66 14.26 32.32 18 33 C18 33.33 18 33.66 18 34 C14.04 34 10.08 34 6 34 C9.3 35.32 12.6 36.64 16 38 C16 38.33 16 38.66 16 39 C14.58249437 38.88490339 13.16598831 38.75746342 11.75 38.625 C10.96109375 38.55539063 10.1721875 38.48578125 9.359375 38.4140625 C6.86120319 37.97564162 5.13656759 37.36176835 3 36 C2.608125 35.0925 2.21625 34.185 1.8125 33.25 C-2.30388417 25.86889735 -10.73079757 23.05534367 -18.30078125 20.17578125 C-20.8853209 19.04995428 -22.83335282 17.78581134 -25 16 C-24.25 11.25 -24.25 11.25 -22 9 C-19.5390625 8.76953125 -19.5390625 8.76953125 -16.625 8.8125 C-15.66851562 8.81894531 -14.71203125 8.82539063 -13.7265625 8.83203125 C-11.33405932 8.97942041 -9.28958203 9.32180627 -7 10 C-6.773125 9.46375 -6.54625 8.9275 -6.3125 8.375 C-4.56617944 5.21499137 -2.3597151 2.7323017 0 0 Z " fill="#F8BF28" transform="translate(93,5)"/>
<path d="M0 0 C2.31 0 4.62 0 7 0 C7.33 1.98 7.66 3.96 8 6 C11.63 6 15.26 6 19 6 C19.66 8.64 20.32 11.28 21 14 C22.41377341 11.36095629 23.37240135 8.92879371 24 6 C26.64 6 29.28 6 32 6 C30.3574072 12.42347265 28.49715633 18.76179293 26.4375 25.0625 C26.22778564 25.71742432 26.01807129 26.37234863 25.80200195 27.04711914 C24.84285234 29.93668515 24.18317532 31.81682468 22 34 C19.8359375 34.1953125 19.8359375 34.1953125 17.375 34.125 C16.55773437 34.10695312 15.74046875 34.08890625 14.8984375 34.0703125 C14.27195312 34.04710937 13.64546875 34.02390625 13 34 C13 32.35 13 30.7 13 29 C14.32 29 15.64 29 17 29 C15.35 23.06 13.7 17.12 12 11 C10.35 11 8.7 11 7 11 C7 14.63 7 18.26 7 22 C7.99 21.67 8.98 21.34 10 21 C11 22 11 22 11.125 24.5 C11 27 11 27 10 28 C3.74506001 28.46332889 3.74506001 28.46332889 1.28515625 26.93359375 C-0.69489406 23.95449071 -0.28442175 21.33399034 -0.1875 17.8125 C-0.16042969 16.54019531 -0.13335937 15.26789062 -0.10546875 13.95703125 C-0.07066406 12.98121094 -0.03585937 12.00539063 0 11 C-0.99 11 -1.98 11 -3 11 C-3 9.35 -3 7.7 -3 6 C-2.34 6 -1.68 6 -1 6 C-0.67 4.02 -0.34 2.04 0 0 Z " fill="#9C3C5A" transform="translate(308,38)"/>
<path d="M0 0 C2.29240007 0.05985379 4.58406206 0.14859027 6.875 0.25 C8.78925781 0.31960937 8.78925781 0.31960937 10.7421875 0.390625 C11.81726563 0.59171875 12.89234375 0.7928125 14 1 C15.1953125 2.921875 15.1953125 2.921875 16 5 C18.70993439 6.55002866 21.59009117 7.6938103 24.4765625 8.875 C25.311875 9.22046875 26.1471875 9.5659375 27.0078125 9.921875 C28.75928542 10.64337728 30.51190246 11.36210811 32.265625 12.078125 C33.09835938 12.42359375 33.93109375 12.7690625 34.7890625 13.125 C35.54912598 13.43695313 36.30918945 13.74890625 37.09228516 14.0703125 C39 15 39 15 41 17 C41.35617865 19.77819348 41.45204373 21.34400388 39.83984375 23.68359375 C37.1978715 25.57392209 35.42873255 24.98805321 32.25 24.625 C28.33799815 24.48257275 26.67833175 24.42341801 23.65625 26.9921875 C21.93120756 29.26160808 20.39873097 31.51774504 19 34 C18.34 33.67 17.68 33.34 17 33 C18.65 30.03 20.3 27.06 22 24 C20.906875 24.99 19.81375 25.98 18.6875 27 C15.375 30 15.375 30 12 30 C14.31 27.36 16.62 24.72 19 22 C15.53822635 23.15392455 12.99332502 24.93793165 10 27 C9.34 26.67 8.68 26.34 8 26 C10.64 23.69 13.28 21.38 16 19 C14.741875 19.515625 13.48375 20.03125 12.1875 20.5625 C8.375 22.125 8.375 22.125 5 21 C7.64 19.35 10.28 17.7 13 16 C9.37 16.66 5.74 17.32 2 18 C2 17.34 2 16.68 2 16 C4.31 15.01 6.62 14.02 9 13 C6.36 12.67 3.72 12.34 1 12 C1.33 11.34 1.66 10.68 2 10 C5.29419525 9.08776132 8.63015202 8.59718825 12 8 C5.07 7.505 5.07 7.505 -2 7 C-2 6.34 -2 5.68 -2 5 C4.435 4.505 4.435 4.505 11 4 C7.37 3.01 3.74 2.02 0 1 C0 0.67 0 0.34 0 0 Z M-4 5 C-2 7 -2 7 -1.875 10.125 C-1.91625 11.07375 -1.9575 12.0225 -2 13 C-3.76462683 9.91190305 -4 8.76687864 -4 5 Z " fill="#F8BF2A" transform="translate(40,27)"/>
<path d="M0 0 C0.99 0.66 1.98 1.32 3 2 C2.1875 3.9375 2.1875 3.9375 1 6 C-2.76624671 7.25541557 -4.37188934 6.37061958 -8 5 C-8 5.66 -8 6.32 -8 7 C-6.7625 7.0825 -5.525 7.165 -4.25 7.25 C-1.32316212 7.63469983 0.0069736 8.00442228 2.5625 9.625 C4 12 4 12 4.0625 15.5625 C3 19 3 19 1 20.9375 C-3.5957841 22.56517353 -8.37243971 23.23870699 -12.9140625 21.09765625 C-14.5625 20 -14.5625 20 -17 18 C-16.01 16.68 -15.02 15.36 -14 14 C-10.7 14.66 -7.4 15.32 -4 16 C-4 15.34 -4 14.68 -4 14 C-5.0725 13.896875 -6.145 13.79375 -7.25 13.6875 C-10.85618251 13.02636654 -12.53924816 12.65761199 -15 10 C-15 8.68 -15 7.36 -15 6 C-16.98 6.33 -18.96 6.66 -21 7 C-21 11.95 -21 16.9 -21 22 C-23.31 22 -25.62 22 -28 22 C-28 14.74 -28 7.48 -28 0 C-23.71 0 -19.42 0 -15 0 C-14.67 0.66 -14.34 1.32 -14 2 C-13.360625 1.484375 -12.72125 0.96875 -12.0625 0.4375 C-7.88315175 -1.52423489 -4.42752043 -1.10273449 0 0 Z " fill="#A8556F" transform="translate(292,44)"/>
<path d="M0 0 C2.52750327 1.06396737 3.92722406 2.1575325 6 4 C5.03432113 6.41419718 4.24128309 7.80863755 2.1875 9.4375 C0 10 0 10 -2.4375 8.625 C-3.283125 8.08875 -4.12875 7.5525 -5 7 C-7.70953551 6.74803871 -7.70953551 6.74803871 -10 7 C-10 7.99 -10 8.98 -10 10 C-9.40832031 10.04898437 -8.81664062 10.09796875 -8.20703125 10.1484375 C1.89345757 11.10411181 1.89345757 11.10411181 5.875 14.6875 C7.5742232 18.18034769 7.03604243 20.30909886 6 24 C3.8920453 26.62070044 2.23028056 28.46687842 -0.875 29.8125 C-7.09729948 30.36152642 -11.40206195 30.01427434 -17 27 C-18.9375 24.8125 -18.9375 24.8125 -20 23 C-18.3125 21.4375 -18.3125 21.4375 -16 20 C-13.30190224 20.25696169 -11.41649307 20.79175346 -9 22 C-7.00039988 22.039992 -4.99952758 22.04346799 -3 22 C-2.67 21.34 -2.34 20.68 -2 20 C-2.81984375 19.82984375 -3.6396875 19.6596875 -4.484375 19.484375 C-5.56203125 19.24203125 -6.6396875 18.9996875 -7.75 18.75 C-8.81734375 18.51796875 -9.8846875 18.2859375 -10.984375 18.046875 C-14.32491036 16.88720728 -15.83921544 15.77300685 -18 13 C-18.61984499 8.73856568 -18.49311964 6.75611678 -16.125 3.125 C-11.65519053 -1.34480947 -5.99734819 -0.60129663 0 0 Z " fill="#9E405E" transform="translate(326,0)"/>
<path d="M0 0 C2.64 0 5.28 0 8 0 C8.33 6.6 8.66 13.2 9 20 C11.31 20.66 13.62 21.32 16 22 C16.33 14.74 16.66 7.48 17 0 C19.64 0 22.28 0 25 0 C25.08745946 3.3956697 25.14054444 6.79104773 25.1875 10.1875 C25.21263672 11.14720703 25.23777344 12.10691406 25.26367188 13.09570312 C25.35598969 21.98898582 25.35598969 21.98898582 22 26 C18.26398962 29.18659709 14.88577152 29.46615074 10.1484375 29.28515625 C6.12160407 28.75068563 3.93434943 27.11671642 1.37890625 24.0625 C-0.68495541 19.47873927 -0.31744802 15.14884862 -0.1875 10.1875 C-0.17396484 9.20845703 -0.16042969 8.22941406 -0.14648438 7.22070312 C-0.11125312 4.81323375 -0.06199265 2.40690436 0 0 Z " fill="#9A3958" transform="translate(165,37)"/>
<path d="M0 0 C2.31 0 4.62 0 7 0 C7 2.31 7 4.62 7 7 C8.32 7 9.64 7 11 7 C11 8.65 11 10.3 11 12 C9.68 12 8.36 12 7 12 C7 15.3 7 18.6 7 22 C8.32 22 9.64 22 11 22 C11 23.98 11 25.96 11 28 C3.58358663 28.36474164 3.58358663 28.36474164 1.25 26.90625 C-0.62026304 24.05409887 -0.28745794 21.6777505 -0.1875 18.3125 C-0.16042969 17.13300781 -0.13335937 15.95351563 -0.10546875 14.73828125 C-0.07066406 13.83464844 -0.03585937 12.93101563 0 12 C-0.99 12 -1.98 12 -3 12 C-3 17.28 -3 22.56 -3 28 C-11.11111111 28 -11.11111111 28 -14 26 C-14.33 25.34 -14.66 24.68 -15 24 C-14.38125 23.938125 -13.7625 23.87625 -13.125 23.8125 C-10.72238859 23.171081 -10.72238859 23.171081 -9.75 20.4375 C-9.5025 19.633125 -9.255 18.82875 -9 18 C-9.66 18 -10.32 18 -11 18 C-11 17.34 -11 16.68 -11 16 C-11.99 15.67 -12.98 15.34 -14 15 C-13.01 14.67 -12.02 14.34 -11 14 C-11 12.68 -11 11.36 -11 10 C-11.99 10 -12.98 10 -14 10 C-14 9.34 -14 8.68 -14 8 C-14.66 7.67 -15.32 7.34 -16 7 C-10.66666667 7 -5.33333333 7 0 7 C0 4.69 0 2.38 0 0 Z " fill="#A44D69" transform="translate(368,1)"/>
<path d="M0 0 C3.47921735 -0.02683201 6.95823039 -0.0467567 10.4375 -0.0625 C11.92733398 -0.07506836 11.92733398 -0.07506836 13.44726562 -0.08789062 C14.39150391 -0.09111328 15.33574219 -0.09433594 16.30859375 -0.09765625 C17.62041626 -0.10551147 17.62041626 -0.10551147 18.95874023 -0.11352539 C21 0 21 0 22 1 C22.08685603 2.56172745 22.10702219 4.12729344 22.09765625 5.69140625 C22.09443359 6.63564453 22.09121094 7.57988281 22.08789062 8.55273438 C22.07951172 9.54595703 22.07113281 10.53917969 22.0625 11.5625 C22.05798828 12.55958984 22.05347656 13.55667969 22.04882812 14.58398438 C22.03700007 17.05604849 22.02051849 19.52799518 22 22 C19.36 22 16.72 22 14 22 C13.67 17.05 13.34 12.1 13 7 C11.68 7.33 10.36 7.66 9 8 C8.67 12.62 8.34 17.24 8 22 C2.39 22 -3.22 22 -9 22 C-8.505 20.515 -8.505 20.515 -8 19 C-8 19.66 -8 20.32 -8 21 C-4.535 20.505 -4.535 20.505 -1 20 C-0.67 13.4 -0.34 6.8 0 0 Z " fill="#AD5E76" transform="translate(193,7)"/>
<path d="M0 0 C3.72528805 3.25962704 4.91223813 4.91175277 5.3125 9.875 C5.209375 10.90625 5.10625 11.9375 5 13 C4.01 13.495 4.01 13.495 3 14 C3.66 14.33 4.32 14.66 5 15 C3.59505784 18.39527689 2.30238306 20.30647023 -1 22 C-4.81250147 22.6680955 -8.30374383 22.760148 -11.8828125 21.15625 C-15.06525639 18.88087949 -16.02936209 16.90049515 -17.125 13.1875 C-17.37555889 8.47162383 -15.80470451 4.74258341 -13 1 C-9.05723443 -1.73803164 -4.46049579 -1.52879896 0 0 Z M-8 5 C-8.33 5.99 -8.66 6.98 -9 8 C-6.69 8 -4.38 8 -2 8 C-2.33 7.01 -2.66 6.02 -3 5 C-4.65 5 -6.3 5 -8 5 Z M-9 13 C-8.67 13.99 -8.34 14.98 -8 16 C-6.02 16 -4.04 16 -2 16 C-1.67 15.01 -1.34 14.02 -1 13 C-3.64 13 -6.28 13 -9 13 Z " fill="#9F425F" transform="translate(257,44)"/>
<path d="M0 0 C2.87029869 1.79393668 4.49131638 2.98263276 6 6 C6.04022391 8.3329866 6.04320247 10.66706666 6 13 C5.01 13.495 5.01 13.495 4 14 C4.66 14.33 5.32 14.66 6 15 C5.77039733 18.2144374 4.91240233 19.08102784 2.5 21.3125 C-2.00950036 23.48672339 -5.23991201 23.43888591 -10 22 C-12.45243461 20.09936318 -13.62927427 18.74145145 -15 16 C-15.53118252 11.08003072 -15.75105553 7.22672403 -13.125 2.9375 C-9.14212168 -0.69394788 -5.20525336 -0.67425562 0 0 Z M-6.625 6.5 C-7.07875 6.995 -7.5325 7.49 -8 8 C-5.69 8 -3.38 8 -1 8 C-1.66 7.01 -2.32 6.02 -3 5 C-5.12364481 4.77390663 -5.12364481 4.77390663 -6.625 6.5 Z M-8 13 C-7.34 14.32 -6.68 15.64 -6 17 C-4.35 16.67 -2.7 16.34 -1 16 C-0.67 15.01 -0.34 14.02 0 13 C-2.64 13 -5.28 13 -8 13 Z " fill="#9C3D5B" transform="translate(394,7)"/>
<path d="M0 0 C3.64314398 2.12516732 5.42598016 4.13906344 7 8 C7.32592984 12.67166102 6.59286595 16.13764953 3.9375 20 C0.26163104 22.50271929 -2.56987327 23.3040283 -7 23 C-11.27111963 21.46884391 -13.62502402 19.83544971 -16 16 C-16.87667144 11.14276636 -16.71427993 7.16665722 -14.125 2.9375 C-9.91903889 -0.8973469 -5.47401903 -0.62929668 0 0 Z M-9 8 C-9.49329585 12.26472726 -9.49329585 12.26472726 -7.5 15.875 C-7.005 16.24625 -6.51 16.6175 -6 17 C-4.35 16.34 -2.7 15.68 -1 15 C-0.979375 13.700625 -0.95875 12.40125 -0.9375 11.0625 C-0.92589844 10.33160156 -0.91429687 9.60070312 -0.90234375 8.84765625 C-0.79438816 6.98267859 -0.79438816 6.98267859 -2 6 C-5.961168 5.60909667 -5.961168 5.60909667 -9 8 Z " fill="#9D3E5C" transform="translate(252,7)"/>
<path d="M0 0 C0.85464844 -0.01675781 1.70929688 -0.03351562 2.58984375 -0.05078125 C5.80478648 0.42155631 6.96220146 0.78076315 9.0625 3.3125 C9.70421871 6.53272593 9.75977305 9.72373925 9.8125 13 C9.84214844 13.89267578 9.87179687 14.78535156 9.90234375 15.70507812 C9.97301427 17.90764277 10.02571939 20.10915131 10.0625 22.3125 C8.09920247 22.28808594 6.13590495 22.26367188 4.17260742 22.23925781 C1.78054722 22.26411978 1.78054722 22.26411978 -1.625 23.0625 C-4.9375 23.3125 -4.9375 23.3125 -7.875 21.75 C-9.9375 19.3125 -9.9375 19.3125 -10.5 16.3125 C-9.9375 13.3125 -9.9375 13.3125 -8.4375 11 C-4.92581667 8.62961375 -2.14398707 8.59293247 2.0625 8.3125 C2.0625 7.3225 2.0625 6.3325 2.0625 5.3125 C1.546875 5.621875 1.03125 5.93125 0.5 6.25 C-2.60415423 7.60309287 -5.58865007 7.92609424 -8.9375 8.3125 C-8.625 5.4375 -8.625 5.4375 -7.9375 2.3125 C-4.73125113 0.17500075 -3.71291897 0.01675001 0 0 Z M-2.9375 14.3125 C-2.6075 15.3025 -2.2775 16.2925 -1.9375 17.3125 C-0.6175 16.6525 0.7025 15.9925 2.0625 15.3125 C2.0625 14.6525 2.0625 13.9925 2.0625 13.3125 C-0.8629644 13.0888932 -0.8629644 13.0888932 -2.9375 14.3125 Z " fill="#963151" transform="translate(289.9375,6.6875)"/>
<path d="M0 0 C2 2 2 2 2.22705078 4.06298828 C2.21657715 4.89040527 2.20610352 5.71782227 2.1953125 6.5703125 C2.18886719 7.46621094 2.18242187 8.36210938 2.17578125 9.28515625 C2.15902344 10.22230469 2.14226562 11.15945312 2.125 12.125 C2.11597656 13.06988281 2.10695312 14.01476563 2.09765625 14.98828125 C2.07404522 17.32577292 2.04111516 19.66276123 2 22 C-0.31 22 -2.62 22 -5 22 C-5 16.72 -5 11.44 -5 6 C-6.32 6.33 -7.64 6.66 -9 7 C-9.33 11.95 -9.66 16.9 -10 22 C-12.31 22 -14.62 22 -17 22 C-17 14.74 -17 7.48 -17 0 C-14.36 0 -11.72 0 -9 0 C-5.47955362 -1.17348213 -3.57539179 -0.83679382 0 0 Z " fill="#A6516B" transform="translate(209,44)"/>
<path d="M0 0 C2.578125 -0.0825 5.15625 -0.165 7.8125 -0.25 C8.62050049 -0.28641602 9.42850098 -0.32283203 10.26098633 -0.36035156 C13.33418812 -0.40815949 15.4652031 -0.38438527 18 1.4375 C19.53060477 5.35967473 19.31444135 9.08371986 19.1875 13.25 C19.16719727 14.51070312 19.16719727 14.51070312 19.14648438 15.796875 C19.11123464 17.86485938 19.0574302 19.93251271 19 22 C16.69 22 14.38 22 12 22 C11.67 17.05 11.34 12.1 11 7 C10.01 7 9.02 7 8 7 C7.67 11.95 7.34 16.9 7 22 C4.69 22 2.38 22 0 22 C0 14.74 0 7.48 0 0 Z " fill="#9D3F5D" transform="translate(260,7)"/>
<path d="M0 0 C6.27 0 12.54 0 19 0 C19 6 19 6 17.03125 8.5546875 C15.77828125 9.70324219 15.77828125 9.70324219 14.5 10.875 C13.24703125 12.04675781 13.24703125 12.04675781 11.96875 13.2421875 C11.3190625 13.82226562 10.669375 14.40234375 10 15 C12.97 15.33 15.94 15.66 19 16 C19 17.98 19 19.96 19 22 C12.4 22 5.8 22 -1 22 C-1 16 -1 16 0.96875 13.4453125 C1.8040625 12.67960937 2.639375 11.91390625 3.5 11.125 C4.3353125 10.34382813 5.170625 9.56265625 6.03125 8.7578125 C6.6809375 8.17773438 7.330625 7.59765625 8 7 C5.36 6.67 2.72 6.34 0 6 C0 4.02 0 2.04 0 0 Z " fill="#A04562" transform="translate(217,7)"/>
<path d="M0 0 C2.64 0 5.28 0 8 0 C8.66 2.64 9.32 5.28 10 8 C11.41377341 5.36095629 12.37240135 2.92879371 13 0 C15.64 0 18.28 0 21 0 C19.0827282 7.50931455 16.75950985 14.75803759 14 22 C11.69 22 9.38 22 7 22 C0 4.97969543 0 4.97969543 0 0 Z " fill="#A14763" transform="translate(221,44)"/>
<path d="M0 0 C2.31 0 4.62 0 7 0 C7.33 1.98 7.66 3.96 8 6 C11.63 6 15.26 6 19 6 C18.67 6.66 18.34 7.32 18 8 C16.02 8 14.04 8 12 8 C11.67 8.99 11.34 9.98 11 11 C9.68 11 8.36 11 7 11 C7 14.63 7 18.26 7 22 C7.99 21.67 8.98 21.34 10 21 C11 22 11 22 11.125 24.5 C11 27 11 27 10 28 C3.74506001 28.46332889 3.74506001 28.46332889 1.28515625 26.93359375 C-0.69489406 23.95449071 -0.28442175 21.33399034 -0.1875 17.8125 C-0.16042969 16.54019531 -0.13335937 15.26789062 -0.10546875 13.95703125 C-0.07066406 12.98121094 -0.03585937 12.00539063 0 11 C-0.99 11 -1.98 11 -3 11 C-3 9.35 -3 7.7 -3 6 C-2.34 6 -1.68 6 -1 6 C-0.67 4.02 -0.34 2.04 0 0 Z " fill="#A24764" transform="translate(308,38)"/>
<path d="M0 0 C2.31 0 4.62 0 7 0 C7 7.26 7 14.52 7 22 C4.69 22 2.38 22 0 22 C0 14.74 0 7.48 0 0 Z " fill="#9E425F" transform="translate(297,44)"/>
<path d="M0 0 C2.31 0 4.62 0 7 0 C7 7.26 7 14.52 7 22 C4.69 22 2.38 22 0 22 C0 14.74 0 7.48 0 0 Z " fill="#9F4360" transform="translate(213,44)"/>
<path d="M0 0 C1.62490954 -0.02698189 3.24994633 -0.04638757 4.875 -0.0625 C5.77992188 -0.07410156 6.68484375 -0.08570313 7.6171875 -0.09765625 C10 0 10 0 12 1 C12 7.27 12 13.54 12 20 C8.7 20 5.4 20 2 20 C1.67 19.01 1.34 18.02 1 17 C1.61875 16.938125 2.2375 16.87625 2.875 16.8125 C5.27761141 16.171081 5.27761141 16.171081 6.25 13.4375 C6.4975 12.633125 6.745 11.82875 7 11 C6.34 11 5.68 11 5 11 C5 10.34 5 9.68 5 9 C4.01 8.67 3.02 8.34 2 8 C2.99 7.67 3.98 7.34 5 7 C5 5.68 5 4.36 5 3 C4.01 3 3.02 3 2 3 C2 2.34 2 1.68 2 1 C1.34 0.67 0.68 0.34 0 0 Z " fill="#8D1F42" transform="translate(352,8)"/>
<path d="M0 0 C1.98 0 3.96 0 6 0 C6 6.6 6 13.2 6 20 C4.02 20 2.04 20 0 20 C0 13.4 0 6.8 0 0 Z " fill="#8E2143" transform="translate(208,8)"/>
<path d="M0 0 C2.64 0.33 5.28 0.66 8 1 C8 4 8 4 6 7 C5.5396236 10.19806665 5.5396236 10.19806665 5.375 13.6875 C5.30023438 14.86699219 5.22546875 16.04648437 5.1484375 17.26171875 C5.09945313 18.16535156 5.05046875 19.06898437 5 20 C3.35 20 1.7 20 0 20 C0 13.4 0 6.8 0 0 Z " fill="#8A1A3E" transform="translate(265,45)"/>
<path d="M0 0 C1.65 0 3.3 0 5 0 C5.33 1.32 5.66 2.64 6 4 C7.65 4 9.3 4 11 4 C7.25 6 7.25 6 5 6 C5 10.62 5 15.24 5 20 C3.35 20 1.7 20 0 20 C0 13.4 0 6.8 0 0 Z " fill="#8E2043" transform="translate(193,45)"/>
<path d="M0 0 C9.04090125 -0.77641328 9.04090125 -0.77641328 12.625 2.125 C14 5 14 5 14 11 C9.38 11 4.76 11 0 11 C0 10.01 0 9.02 0 8 C2.64 8 5.28 8 8 8 C8 7.34 8 6.68 8 6 C7.01 5.67 6.02 5.34 5 5 C5 4.34 5 3.68 5 3 C4.01 3 3.02 3 2 3 C2 2.34 2 1.68 2 1 C1.34 0.67 0.68 0.34 0 0 Z " fill="#912748" transform="translate(386,8)"/>
<path d="M0 0 C-0.99 0 -1.98 0 -3 0 C-3.33 1.32 -3.66 2.64 -4 4 C-3.34 4.33 -2.68 4.66 -2 5 C-2.66 5 -3.32 5 -4 5 C-3.01 6.32 -2.02 7.64 -1 9 C-1.99 9.495 -1.99 9.495 -3 10 C-3 10.66 -3 11.32 -3 12 C-1.68 12.33 -0.36 12.66 1 13 C-3.0680976 13.95719944 -5.17899254 14.43670609 -8.9375 12.4375 C-11 10 -11 10 -11.5625 7 C-10.88355363 3.37895268 -9.88564803 2.22607134 -7 0 C-3.86650268 -1.04449911 -3.01031744 -0.93423645 0 0 Z " fill="#A54E69" transform="translate(291,16)"/>
<path d="M0 0 C2.64 0 5.28 0 8 0 C8 0.99 8 1.98 8 3 C5.03 2.505 5.03 2.505 2 2 C2 8.27 2 14.54 2 21 C3.65 21 5.3 21 7 21 C7 16.71 7 12.42 7 8 C7.33 8 7.66 8 8 8 C8 12.62 8 17.24 8 22 C2.39 22 -3.22 22 -9 22 C-8.505 20.515 -8.505 20.515 -8 19 C-8 19.66 -8 20.32 -8 21 C-4.535 20.505 -4.535 20.505 -1 20 C-0.67 13.4 -0.34 6.8 0 0 Z " fill="#D0A2B0" transform="translate(193,7)"/>
<path d="M0 0 C0 0.33 0 0.66 0 1 C-1.98 1.33 -3.96 1.66 -6 2 C-6 2.66 -6 3.32 -6 4 C-5.01 4.33 -4.02 4.66 -3 5 C-3.99 5 -4.98 5 -6 5 C-6 5.66 -6 6.32 -6 7 C-7.2375 7.020625 -8.475 7.04125 -9.75 7.0625 C-10.44609375 7.07410156 -11.1421875 7.08570313 -11.859375 7.09765625 C-14 7 -14 7 -18 6 C-18 9.3 -18 12.6 -18 16 C-18.33 16 -18.66 16 -19 16 C-19 12.37 -19 8.74 -19 5 C-17.68 5 -16.36 5 -15 5 C-14.67 3.68 -14.34 2.36 -14 1 C-13.67 1.66 -13.34 2.32 -13 3 C-12.525625 2.505 -12.05125 2.01 -11.5625 1.5 C-7.79641649 -0.70453669 -4.26540621 -0.24608113 0 0 Z " fill="#BA798E" transform="translate(360,7)"/>
<path d="M0 0 C0.90105469 0.01804687 1.80210937 0.03609375 2.73046875 0.0546875 C3.41753906 0.07789063 4.10460937 0.10109375 4.8125 0.125 C4.8125 0.455 4.8125 0.785 4.8125 1.125 C2.8325 1.455 0.8525 1.785 -1.1875 2.125 C-1.1875 2.785 -1.1875 3.445 -1.1875 4.125 C-0.1975 4.455 0.7925 4.785 1.8125 5.125 C-1.72161321 7.24546792 -5.13143835 7.65699289 -9.1875 8.125 C-8.875 5.25 -8.875 5.25 -8.1875 2.125 C-4.87379 -0.08414 -3.8428979 -0.09981553 0 0 Z " fill="#AA5973" transform="translate(290.1875,6.875)"/>
<path d="M0 0 C2.64 0 5.28 0 8 0 C8 1.98 8 3.96 8 6 C5.36 6 2.72 6 0 6 C0 4.02 0 2.04 0 0 Z " fill="#E6CED6" transform="translate(207,0)"/>
<path d="M0 0 C0.33 1.32 0.66 2.64 1 4 C1.99 4 2.98 4 4 4 C5.26439145 6.52878289 5.29047383 8.62012127 5.5 11.4375 C5.73306642 14.56308718 6.00474943 17.01424829 7 20 C9.31 20 11.62 20 14 20 C14 20.33 14 20.66 14 21 C11.14647085 21.23389583 8.79715009 21.40826254 6 21 C3.351862 18.60012493 3.0439539 16.72779474 2.83203125 13.21875 C2.8143273 10.47109698 2.87023458 7.74429825 3 5 C2.01 5 1.02 5 0 5 C0 3.35 0 1.7 0 0 Z " fill="#C994A5" transform="translate(331,8)"/>
<path d="M0 0 C3.96 0.33 7.92 0.66 12 1 C12.33 2.65 12.66 4.3 13 6 C12.09507813 6.09087891 12.09507813 6.09087891 11.171875 6.18359375 C9.97304688 6.30927734 9.97304688 6.30927734 8.75 6.4375 C7.96109375 6.51871094 7.1721875 6.59992187 6.359375 6.68359375 C4.17635361 6.97634993 2.1226818 7.42064419 0 8 C0 7.34 0 6.68 0 6 C2.31 5.01 4.62 4.02 7 3 C4.36 2.67 1.72 2.34 -1 2 C-0.67 1.34 -0.34 0.68 0 0 Z " fill="#DF9A2D" transform="translate(42,37)"/>
<path d="M0 0 C2.31 0 4.62 0 7 0 C7 1.98 7 3.96 7 6 C4.69 6 2.38 6 0 6 C0 4.02 0 2.04 0 0 Z " fill="#AD5E77" transform="translate(297,37)"/>
<path d="M0 0 C2.31 0 4.62 0 7 0 C7 1.98 7 3.96 7 6 C4.69 6 2.38 6 0 6 C0 4.02 0 2.04 0 0 Z " fill="#AE5F78" transform="translate(213,37)"/>
<path d="M0 0 C1.67542976 0.28604898 3.34385343 0.61781233 5 1 C5.33 1.99 5.66 2.98 6 4 C5.01 5.485 5.01 5.485 4 7 C2.35 6.67 0.7 6.34 -1 6 C-1.042721 4.33388095 -1.04063832 2.66617115 -1 1 C-0.67 0.67 -0.34 0.34 0 0 Z " fill="#D5ACB9" transform="translate(150,0)"/>
<path d="M0 0 C0 0.99 0 1.98 0 3 C-0.66 3.66 -1.32 4.32 -2 5 C-2.46290221 7.66242821 -2.46290221 7.66242821 -2.625 10.625 C-2.69976562 11.62789062 -2.77453125 12.63078125 -2.8515625 13.6640625 C-2.90054688 14.43492188 -2.94953125 15.20578125 -3 16 C-5 14 -5 14 -5.265625 11.72265625 C-5.26046875 10.84480469 -5.2553125 9.96695312 -5.25 9.0625 C-5.25515625 8.18722656 -5.2603125 7.31195312 -5.265625 6.41015625 C-5 4 -5 4 -3 1 C-2.01 0.67 -1.02 0.34 0 0 Z " fill="#A14663" transform="translate(241,9)"/>
<path d="M0 0 C2.29239061 0.08678763 4.5839807 0.19495273 6.875 0.3125 C8.15117188 0.37050781 9.42734375 0.42851562 10.7421875 0.48828125 C11.81726563 0.65714844 12.89234375 0.82601563 14 1 C14.66 1.99 15.32 2.98 16 4 C10.39538469 3.57910004 5.27913453 3.08386889 0 1 C0 0.67 0 0.34 0 0 Z " fill="#EBAD2A" transform="translate(40,27)"/>
<path d="M0 0 C2.475 0.99 2.475 0.99 5 2 C4.1875 3.9375 4.1875 3.9375 3 6 C2.01 6.33 1.02 6.66 0 7 C-0.66 6.34 -1.32 5.68 -2 5 C-1.34 3.35 -0.68 1.7 0 0 Z " fill="#A8556F" transform="translate(290,44)"/>
<path d="M0 0 C1.32 0.33 2.64 0.66 4 1 C3.67 3.64 3.34 6.28 3 9 C-0.465 7.02 -0.465 7.02 -4 5 C-2.68 4.67 -1.36 4.34 0 4 C0 3.01 0 2.02 0 1 C0 0.67 0 0.34 0 0 Z " fill="#CA7B32" transform="translate(49,13)"/>
<path d="M0 0 C4.84659077 0.59104765 8.60748167 1.97944157 13 4 C13 4.33 13 4.66 13 5 C11.58249437 4.88490339 10.16598831 4.75746342 8.75 4.625 C7.96109375 4.55539063 7.1721875 4.48578125 6.359375 4.4140625 C3.914123 3.98492887 2.15163097 3.21399362 0 2 C0 1.34 0 0.68 0 0 Z " fill="#EDB12A" transform="translate(96,39)"/>
<path d="M0 0 C4.95 0 9.9 0 15 0 C10.5 4.5 10.5 4.5 7 5 C7.66 3.68 8.32 2.36 9 1 C6.36 1 3.72 1 1 1 C0.67 1.66 0.34 2.32 0 3 C0 2.01 0 1.02 0 0 Z " fill="#C48B9D" transform="translate(385,19)"/>
<path d="M0 0 C0 0.33 0 0.66 0 1 C-2.64 1 -5.28 1 -8 1 C-8.268125 1.61875 -8.53625 2.2375 -8.8125 2.875 C-10 5 -10 5 -13 7 C-13 3 -13 3 -11.5625 1.25 C-7.7641917 -0.60283332 -4.15339755 -0.23961909 0 0 Z " fill="#B2687F" transform="translate(394,7)"/>
<path d="M0 0 C1.37478516 0.01740234 1.37478516 0.01740234 2.77734375 0.03515625 C3.69644531 0.04417969 4.61554687 0.05320313 5.5625 0.0625 C6.27277344 0.07410156 6.98304687 0.08570313 7.71484375 0.09765625 C7.38484375 0.75765625 7.05484375 1.41765625 6.71484375 2.09765625 C4.9375 2.58203125 4.9375 2.58203125 2.77734375 2.84765625 C2.06707031 2.945625 1.35679688 3.04359375 0.625 3.14453125 C-1.28515625 3.09765625 -1.28515625 3.09765625 -3.28515625 1.09765625 C-2.28515625 0.09765625 -2.28515625 0.09765625 0 0 Z " fill="#9E373C" transform="translate(45.28515625,33.90234375)"/>
<path d="M0 0 C1.98 0 3.96 0 6 0 C6 1.32 6 2.64 6 4 C4.02 4 2.04 4 0 4 C0 2.68 0 1.36 0 0 Z " fill="#8C1E40" transform="translate(208,1)"/>
<path d="M0 0 C-1.28813342 0.83878455 -2.58063256 1.67086783 -3.875 2.5 C-4.59429687 2.9640625 -5.31359375 3.428125 -6.0546875 3.90625 C-8 5 -8 5 -10 5 C-10 4.01 -10 3.02 -10 2 C-3.375 -1.125 -3.375 -1.125 0 0 Z " fill="#E9AA2B" transform="translate(107,18)"/>
<path d="M0 0 C1.32 0 2.64 0 4 0 C4 1.65 4 3.3 4 5 C2.68 5.33 1.36 5.66 0 6 C-1 3 -1 3 0 0 Z " fill="#993856" transform="translate(272,45)"/>
<path d="M0 0 C4.05606165 0.46800711 7.46588679 0.87953208 11 3 C11 3.66 11 4.32 11 5 C9.53932801 4.54917531 8.08151968 4.08906463 6.625 3.625 C5.81289063 3.36976562 5.00078125 3.11453125 4.1640625 2.8515625 C2 2 2 2 0 0 Z " fill="#E8A92B" transform="translate(42,22)"/>
<path d="M0 0 C1.65 0.33 3.3 0.66 5 1 C4.01 1.495 4.01 1.495 3 2 C2.67 2.99 2.34 3.98 2 5 C0.68 4.67 -0.64 4.34 -2 4 C-1.34 2.68 -0.68 1.36 0 0 Z " fill="#8C1E41" transform="translate(286,44)"/>
<path d="M0 0 C0 0.66 0 1.32 0 2 C-3.3 2 -6.6 2 -10 2 C-6.80505194 -1.19494806 -4.22040044 -1.35655728 0 0 Z " fill="#9E363C" transform="translate(108,30)"/>
<path d="M0 0 C0.66 0.33 1.32 0.66 2 1 C1.67 1.99 1.34 2.98 1 4 C-1.06640625 4.73046875 -1.06640625 4.73046875 -3.5625 5.1875 C-4.38878906 5.34605469 -5.21507813 5.50460938 -6.06640625 5.66796875 C-7.02353516 5.83232422 -7.02353516 5.83232422 -8 6 C-5.54460659 3.45154504 -3.16995003 1.6256154 0 0 Z " fill="#972E3D" transform="translate(104,19)"/>
<path d="M0 0 C0.99 0 1.98 0 3 0 C2.34 1.98 1.68 3.96 1 6 C-0.32 5.34 -1.64 4.68 -3 4 C-1.6875 2 -1.6875 2 0 0 Z " fill="#B0637B" transform="translate(278,58)"/>
<path d="M0 0 C3.93673644 1.31224548 6.22719294 2.91910327 9 6 C6.03 5.01 3.06 4.02 0 3 C0 2.01 0 1.02 0 0 Z " fill="#EFB429" transform="translate(97,43)"/>
<path d="M0 0 C0.66 0 1.32 0 2 0 C1.67 0.99 1.34 1.98 1 3 C0.34 3 -0.32 3 -1 3 C-1 4.98 -1 6.96 -1 9 C-1.33 8.34 -1.66 7.68 -2 7 C-4.02463255 6.34786708 -4.02463255 6.34786708 -6 6 C-5.01 6 -4.02 6 -3 6 C-2.690625 5.195625 -2.38125 4.39125 -2.0625 3.5625 C-1 1 -1 1 0 0 Z " fill="#BB7A8F" transform="translate(348,17)"/>
<path d="M0 0 C-2.31 1.32 -4.62 2.64 -7 4 C-7.33 2.68 -7.66 1.36 -8 0 C-4.94736336 -0.98120464 -3.05263664 -0.98120464 0 0 Z " fill="#9B323C" transform="translate(54,43)"/>
<path d="M0 0 C2.64 0 5.28 0 8 0 C7.67 0.99 7.34 1.98 7 3 C4.69 2.67 2.38 2.34 0 2 C0 1.34 0 0.68 0 0 Z " fill="#9D363C" transform="translate(100,34)"/>
<path d="M0 0 C0 3 0 3 -2.5 5.6875 C-3.325 6.450625 -4.15 7.21375 -5 8 C-5.99 7.67 -6.98 7.34 -8 7 C-5.36 4.69 -2.72 2.38 0 0 Z " fill="#EEB22A" transform="translate(98,8)"/>
<path d="M0 0 C1.32 0.66 2.64 1.32 4 2 C-2.625 5.125 -2.625 5.125 -6 4 C-4.02 2.68 -2.04 1.36 0 0 Z " fill="#EBAE2A" transform="translate(51,44)"/>
<path d="M0 0 C0.99 0.33 1.98 0.66 3 1 C-1.625 5 -1.625 5 -5 5 C-3.35 3.35 -1.7 1.7 0 0 Z " fill="#EBAE2A" transform="translate(53,48)"/>
<path d="M0 0 C0.66 0.33 1.32 0.66 2 1 C-0.31 2.65 -2.62 4.3 -5 6 C-5 4.68 -5 3.36 -5 2 C-2.625 0.9375 -2.625 0.9375 0 0 Z " fill="#99313D" transform="translate(55,45)"/>
<path d="M0 0 C2.0625 0.4375 2.0625 0.4375 4 1 C3.319375 1.61875 3.319375 1.61875 2.625 2.25 C0.94049626 4.06408095 0.00734029 5.75285627 -1 8 C-1.04241723 5.66705225 -1.04092937 3.33297433 -1 1 C-0.67 0.67 -0.34 0.34 0 0 Z " fill="#973453" transform="translate(279,45)"/>
</svg>
