<?xml version="1.0" encoding="UTF-8"?>
<svg version="1.1" xmlns="http://www.w3.org/2000/svg" width="553" height="516">
<path d="M0 0 C182.49 0 364.98 0 553 0 C553 170.28 553 340.56 553 516 C370.51 516 188.02 516 0 516 C0 345.72 0 175.44 0 0 Z " fill="#FDFBFB" transform="translate(0,0)"/>
<path d="M0 0 C182.49 0 364.98 0 553 0 C553 170.28 553 340.56 553 516 C370.51 516 188.02 516 0 516 C0 345.72 0 175.44 0 0 Z M225.625 42.6875 C224.56684082 42.95022705 223.50868164 43.2129541 222.41845703 43.48364258 C192.90394742 51.0187426 165.94095744 64.16509422 142 83 C141.16984375 83.62519531 140.3396875 84.25039062 139.484375 84.89453125 C123.83854869 97.06084097 110.39311891 111.84641356 99 128 C98.56429687 128.60166992 98.12859375 129.20333984 97.6796875 129.82324219 C79.87000788 154.47544442 69.28476402 182.42643891 63 212 C62.82065918 212.82661133 62.64131836 213.65322266 62.45654297 214.50488281 C55.57601401 247.7801321 58.45890714 287.09939076 70 319 C70.27682617 319.7930957 70.55365234 320.58619141 70.83886719 321.40332031 C79.23352272 345.31674447 90.73427686 367.45320824 107 387 C108.21042969 388.485 108.21042969 388.485 109.4453125 390 C134.80167484 420.80400034 167.68890207 442.35649782 205 456 C205.76699219 456.28117676 206.53398437 456.56235352 207.32421875 456.85205078 C247.33251708 471.09769057 292.49700923 470.70279755 333 459 C333.6295459 458.82388184 334.2590918 458.64776367 334.90771484 458.46630859 C366.36464928 449.61042056 394.74213395 433.20749782 418.7265625 411.0859375 C420.8389424 409.1477745 422.99998072 407.28976729 425.1875 405.4375 C429.19615178 401.93293018 432.5839706 398.07377419 436 394 C436.71542969 393.195625 437.43085938 392.39125 438.16796875 391.5625 C477.66703822 346.199784 492.56432103 288.71979405 488.78466797 229.63378906 C486.42408166 202.10406718 477.08340946 175.20108499 464 151 C463.68063477 150.4013916 463.36126953 149.8027832 463.03222656 149.18603516 C453.93427962 132.24168625 442.13378602 117.00937175 429 103 C428.31043213 102.25943359 428.31043213 102.25943359 427.60693359 101.50390625 C418.88171263 92.20782227 409.34504258 84.42926777 399 77 C398.37899414 76.55027832 397.75798828 76.10055664 397.11816406 75.63720703 C372.3363033 57.86184194 343.85939644 46.65463606 314 41 C313.32652527 40.87238281 312.65305054 40.74476562 311.95916748 40.61328125 C300.54659823 38.50206583 289.49501196 37.54487484 277.89282227 37.66381836 C275.43407419 37.68753304 272.97641311 37.68432512 270.51757812 37.67773438 C255.30925307 37.70260869 240.40662772 38.96553407 225.625 42.6875 Z " fill="#FEFEFE" transform="translate(0,0)"/>
<path d="M0 0 C66.99 0 133.98 0 203 0 C203.061875 23.63625 203.12375 47.2725 203.1875 71.625 C203.21481201 79.06756348 203.24212402 86.51012695 203.27026367 94.17822266 C203.28381348 103.3190918 203.28381348 103.3190918 203.28633118 107.60848999 C203.28910795 110.58211079 203.30027705 113.55556828 203.31672668 116.52914429 C203.33751578 120.33843512 203.34343492 124.14749321 203.33921683 127.95683551 C203.34050795 129.99253904 203.35648759 132.02821768 203.37328625 134.06385231 C203.27313012 164.0388241 188.25528615 187.8614347 167.62109375 208.40625 C154.24478802 221.36741581 139.12477231 231.76601479 123 241 C122.15840332 241.4837207 121.31680664 241.96744141 120.44970703 242.46582031 C117.89570159 243.91799455 115.32722768 245.33951222 112.75 246.75 C111.96391357 247.1929541 111.17782715 247.6359082 110.36791992 248.09228516 C107.1061385 249.83194893 104.78076735 250.98448807 101.05078125 251.05859375 C96.62804915 249.52394535 92.56755581 247.50728591 88.4375 245.3125 C87.52436035 244.82990723 86.6112207 244.34731445 85.67041016 243.85009766 C71.24194241 236.05699711 57.26214882 226.92551648 45 216 C43.51306641 214.69289063 43.51306641 214.69289063 41.99609375 213.359375 C20.59141217 194.31883262 3.88051231 169.93410585 0 141 C-0.2634073 136.2669041 -0.2536676 131.54725761 -0.22705078 126.80786133 C-0.22643669 125.39478663 -0.22670751 123.98171132 -0.2277813 122.56863689 C-0.22822901 118.81708453 -0.2167182 115.06566224 -0.20256042 111.31414032 C-0.19108947 107.78148532 -0.19062981 104.24886044 -0.18920898 100.71618652 C-0.17875417 90.41494075 -0.15083163 80.11371869 -0.125 69.8125 C-0.08375 46.774375 -0.0425 23.73625 0 0 Z " fill="#B42020" transform="translate(173,146)"/>
<path d="M0 0 C0.75522949 0.28504395 1.51045898 0.57008789 2.28857422 0.86376953 C23.30458631 8.94882862 40.6217799 20.58349034 57 36 C57.90105469 36.82177734 57.90105469 36.82177734 58.8203125 37.66015625 C80.07037006 57.77358283 93.83201263 87.65075137 99 116 C99.25378418 117.27375488 99.25378418 117.27375488 99.51269531 118.57324219 C106.59809785 156.50993233 96.92244995 196.96404886 75.26586914 228.64208984 C71.22098705 234.37903543 66.81760112 239.69602242 62.0078125 244.81640625 C59.93597301 247.01608181 59.93597301 247.01608181 57.95703125 249.578125 C55.02059648 253.21203629 51.59574648 256.03437629 48 259 C46.64261719 260.13115234 46.64261719 260.13115234 45.2578125 261.28515625 C31.8942103 272.0134425 17.15968027 280.30997174 1 286 C-0.22074219 286.44988281 -1.44148437 286.89976562 -2.69921875 287.36328125 C-38.95602929 300.20660285 -80.08861189 297.35034796 -114.75244141 281.09130859 C-131.96581866 272.73330334 -146.62522231 261.72674552 -160 248 C-160.556875 247.48824219 -161.11375 246.97648438 -161.6875 246.44921875 C-182.95920427 226.421223 -195.08652168 197.37137481 -200 169 C-200.16701416 168.14575439 -200.33402832 167.29150879 -200.50610352 166.41137695 C-201.94153882 158.67075851 -202.34937993 151.17660365 -202.3125 143.3125 C-202.30831055 142.08370117 -202.30412109 140.85490234 -202.29980469 139.58886719 C-202.18196879 130.0642168 -201.21136369 121.24406966 -199 112 C-198.70566182 110.64873507 -198.41271443 109.29716651 -198.12109375 107.9453125 C-189.45926271 69.28171198 -164.7531719 36.02005424 -131.58813477 14.79370117 C-92.80279736 -9.38627905 -43.28897311 -16.38044102 0 0 Z M-152 37 C-152.061875 59.955625 -152.12375 82.91125 -152.1875 106.5625 C-152.21481201 113.78713135 -152.24212402 121.0117627 -152.27026367 128.45532227 C-152.28030244 134.98149658 -152.28030244 134.98149658 -152.28633118 141.50767517 C-152.28910469 144.39458764 -152.30026039 147.2813314 -152.31672668 150.16819763 C-152.33755035 153.86894399 -152.34342877 157.5694507 -152.33921683 161.2702502 C-152.34050492 163.24455076 -152.35646618 165.21882582 -152.37328625 167.19305515 C-152.26178301 199.69496162 -135.10672961 225.84525698 -112.86865234 248.17480469 C-108.82539798 252.12402988 -104.54786914 255.63937772 -100 259 C-98.98292969 259.77085937 -97.96585938 260.54171875 -96.91796875 261.3359375 C-84.73672441 270.40961106 -71.56278042 278.24994664 -58.125 285.3125 C-57.07570313 285.86550781 -56.02640625 286.41851562 -54.9453125 286.98828125 C-49.74884907 288.77327333 -46.20587102 287.20042928 -41.453125 284.91796875 C-39.71240431 284.02000855 -37.97832013 283.10910218 -36.25 282.1875 C-35.32695068 281.69830078 -34.40390137 281.20910156 -33.45288086 280.70507812 C0.65454984 262.29297286 35.90982557 234.27196479 48 196 C50.61162197 186.28888781 51.42332116 177.1270036 51.34057617 167.10009766 C51.33965431 165.6466086 51.34006249 164.1931182 51.34167194 162.73962975 C51.34234146 158.89288593 51.32512021 155.04642954 51.30384064 151.19975281 C51.28658931 147.57285791 51.28594234 143.94602833 51.28381348 140.3190918 C51.26815303 129.75435736 51.22626924 119.18967491 51.1875 108.625 C51.125625 84.98875 51.06375 61.3525 51 37 C-15.99 37 -82.98 37 -152 37 Z " fill="#FEFDFD" transform="translate(325,109)"/>
<path d="M0 0 C60.72 0 121.44 0 184 0 C184 22.77 184 45.54 184 69 C123.28 69 62.56 69 0 69 C0 46.23 0 23.46 0 0 Z " fill="#FDFBFB" transform="translate(183,156)"/>
<path d="M0 0 C0.84118378 -0.00012085 1.68236755 -0.0002417 2.54904175 -0.00036621 C22.1761282 0.03951069 41.30366826 2.09900132 60 8.375 C61.40042623 8.81187356 62.80151298 9.24663338 64.203125 9.6796875 C96.03503532 19.68419971 123.69117103 36.58547284 148 59.375 C148.49371094 59.83471191 148.98742187 60.29442383 149.49609375 60.76806641 C172.5412876 82.39807847 189.53024994 110.10126327 201 139.375 C201.47308594 140.56738281 201.94617188 141.75976562 202.43359375 142.98828125 C222.49022588 196.160225 216.76779414 255.19625738 194 306.375 C184.93248746 325.9287034 172.67034471 343.11508944 158.15625 358.99609375 C156.20384564 361.15010509 154.31722641 363.34527726 152.4375 365.5625 C148.92313291 369.57095044 145.11231789 372.99029602 141 376.375 C140.21858643 377.0249292 140.21858643 377.0249292 139.42138672 377.68798828 C116.06593876 397.05351987 90.79364228 410.8961701 62 420.375 C60.89785156 420.74496094 59.79570312 421.11492187 58.66015625 421.49609375 C47.37478155 425.01165896 35.66627554 426.63395925 24 428.375 C22.75992188 428.56964844 21.51984375 428.76429688 20.2421875 428.96484375 C-19.50871789 433.63813758 -60.41706859 425.02132279 -96 407.375 C-97.10263184 406.83987793 -97.10263184 406.83987793 -98.22753906 406.29394531 C-118.82068564 396.24110511 -136.39496317 382.02384791 -153 366.375 C-154.09828125 365.34052734 -154.09828125 365.34052734 -155.21875 364.28515625 C-192.906699 327.7188724 -214.44350796 272.75375854 -215.39546204 220.76257324 C-215.58060538 205.15089116 -215.32223352 189.68772052 -212 174.375 C-211.80132324 173.44010742 -211.60264648 172.50521484 -211.39794922 171.54199219 C-204.98555494 142.15545423 -193.77974525 114.76580546 -176 90.375 C-175.59571777 89.8166748 -175.19143555 89.25834961 -174.77490234 88.68310547 C-168.73221162 80.40823569 -162.08344841 72.77520663 -155 65.375 C-154.47954102 64.82199219 -153.95908203 64.26898438 -153.42285156 63.69921875 C-140.0551768 49.54051004 -124.86726549 38.0679193 -108 28.375 C-106.84105225 27.70621826 -106.84105225 27.70621826 -105.65869141 27.02392578 C-87.78940304 16.8561192 -69.00760375 9.85911907 -49.0625 4.9375 C-48.11793945 4.70248779 -47.17337891 4.46747559 -46.20019531 4.2253418 C-30.99905533 0.71388366 -15.54794044 -0.03474702 0 0 Z M-145 63.375 C-145.49854492 63.84631348 -145.99708984 64.31762695 -146.51074219 64.80322266 C-181.57093759 98.16901956 -207.60868162 147.68403749 -209.19287109 196.74853516 C-209.22575049 198.38693446 -209.25227217 200.02547001 -209.2734375 201.6640625 C-209.28614685 202.55212585 -209.2988562 203.44018921 -209.31195068 204.35516357 C-210.02676342 266.4871194 -190.50565104 319.57255195 -147 364.375 C-146.13483765 365.27085815 -146.13483765 365.27085815 -145.25219727 366.18481445 C-141.52031226 369.99211194 -137.6612487 373.43756684 -133.4375 376.6875 C-132.83454102 377.15406006 -132.23158203 377.62062012 -131.61035156 378.10131836 C-129.74660761 379.53446485 -127.87468835 380.95620967 -126 382.375 C-125.43361816 382.80748047 -124.86723633 383.23996094 -124.28369141 383.68554688 C-102.23060316 400.42036625 -76.69982099 411.39794876 -50 418.375 C-48.80761719 418.69082031 -47.61523438 419.00664062 -46.38671875 419.33203125 C-12.62351201 427.38600419 25.97202426 425.73437994 59 415.375 C60.16329834 415.01994385 60.16329834 415.01994385 61.35009766 414.65771484 C71.96799162 411.36879451 82.02974853 407.15338608 92.0625 402.375 C93.0848877 401.88894287 94.10727539 401.40288574 95.16064453 400.90209961 C115.71798834 390.86437329 133.91893675 376.52895193 150 360.375 C150.75651855 359.62234863 150.75651855 359.62234863 151.52832031 358.85449219 C171.63189944 338.6400732 185.58075187 313.68458553 196 287.375 C196.49113281 286.18003906 196.98226563 284.98507812 197.48828125 283.75390625 C201.65207363 273.01570486 203.92411328 261.67766173 206 250.375 C206.19126465 249.34407227 206.3825293 248.31314453 206.57958984 247.25097656 C208.14729868 237.74996427 208.30658857 228.39181837 208.26074219 218.79052734 C208.2500712 216.14266771 208.2606721 213.49549477 208.2734375 210.84765625 C208.28689652 196.00140274 207.40985993 181.26064234 203.75 166.8125 C203.53311523 165.9366626 203.31623047 165.0608252 203.09277344 164.15844727 C191.54777944 118.92686874 164.41208667 76.55811038 127 48.375 C126.44280273 47.941875 125.88560547 47.50875 125.31152344 47.0625 C48.92754533 -11.97825603 -61.86094058 -6.94312967 -145 63.375 Z " fill="#B62525" transform="translate(275,37.625)"/>
<path d="M0 0 C29.04 0 58.08 0 88 0 C88.66931504 7.36246545 89.15908213 14.46403684 89.16796875 21.8203125 C89.17296135 23.29647537 89.17296135 23.29647537 89.17805481 24.80245972 C89.18307663 26.86455829 89.18546462 28.92666485 89.18530273 30.98876953 C89.18749941 34.12415954 89.20573367 37.25920275 89.22460938 40.39453125 C89.22754238 42.41145715 89.2295278 44.42838469 89.23046875 46.4453125 C89.23765427 47.37054718 89.24483978 48.29578186 89.25224304 49.24905396 C89.17731188 70.79758755 78.60387295 89.82924844 64 105 C62.84745169 106.34845608 61.70126431 107.70238338 60.5625 109.0625 C49.07565848 122.10864127 34.22239076 131.96523903 19.5 141 C18.44329102 141.648479 18.44329102 141.648479 17.36523438 142.31005859 C13.5639976 144.59454133 9.70580955 146.68122861 5.73242188 148.65234375 C4.84292847 149.09441162 3.95343506 149.53647949 3.0369873 149.99194336 C2.36478149 150.32460205 1.69257568 150.65726074 1 151 C0.94941668 143.7734678 0.91431588 136.54698101 0.89013672 129.3203125 C0.88006017 126.86033421 0.86639869 124.40036794 0.84912109 121.94042969 C0.82494539 118.41077715 0.8135336 114.88128253 0.8046875 111.3515625 C0.79436493 110.24632233 0.78404236 109.14108215 0.77340698 108.00234985 C0.77325592 106.98144257 0.77310486 105.96053528 0.77294922 104.90869141 C0.768508 104.00712311 0.76406677 103.10555481 0.75949097 102.17666626 C1 100 1 100 3 98 C12.69905907 97.17736642 22.70035133 98.27095316 32.375 99 C33.70830005 99.0968137 35.04163341 99.1931697 36.375 99.2890625 C39.5836602 99.52157411 42.79188071 99.76014061 46 100 C46 93.73 46 87.46 46 81 C48.64 81 51.28 81 54 81 C54 77.37 54 73.74 54 70 C51.36 70 48.72 70 46 70 C46 63.73 46 57.46 46 51 C48.64 51 51.28 51 54 51 C54 47.7 54 44.4 54 41 C51.36 41 48.72 41 46 41 C46 34.4 46 27.8 46 21 C42.865 21.04125 39.73 21.0825 36.5 21.125 C24.26018463 21.201768 12.17277755 20.18966063 0 19 C0 12.73 0 6.46 0 0 Z " fill="#FEFCFC" transform="translate(278,234)"/>
<path d="M0 0 C29.04 0 58.08 0 88 0 C88 6.27 88 12.54 88 19 C72.9055896 20.78896716 58.19166095 21.22413926 43 21 C43 26.94 43 32.88 43 39 C40.36 39 37.72 39 35 39 C35 42.3 35 45.6 35 49 C37.64 49 40.28 49 43 49 C43 54.94 43 60.88 43 67 C40.36 67 37.72 67 35 67 C35 70.63 35 74.26 35 78 C37.64 78 40.28 78 43 78 C43 84.6 43 91.2 43 98 C45.00320312 97.9278125 47.00640625 97.855625 49.0703125 97.78125 C51.06298217 97.71157624 53.05565254 97.64192156 55.04833984 97.57275391 C57.06744276 97.50201647 59.08645762 97.42877926 61.10546875 97.35546875 C80.17691112 96.69783281 80.17691112 96.69783281 87 97 C88 98 88 98 88.12025452 100.05641174 C88.11803391 100.96020065 88.11581329 101.86398956 88.11352539 102.79516602 C88.11341209 104.32664024 88.11341209 104.32664024 88.11329651 105.88905334 C88.10813522 106.9994548 88.10297394 108.10985626 88.09765625 109.25390625 C88.0962413 110.38448959 88.09482635 111.51507294 88.09336853 112.67991638 C88.08775019 116.30747065 88.07519458 119.93496424 88.0625 123.5625 C88.05748736 126.01497307 88.05292405 128.4674471 88.04882812 130.91992188 C88.0377748 136.94663545 88.02101884 142.97331339 88 149 C70.22518851 141.49372273 54.57235864 130.56379162 40 118 C39.4858252 117.55962402 38.97165039 117.11924805 38.44189453 116.66552734 C18.23789599 99.21689538 3.40988036 76.88753162 0 50 C-0.23458087 45.9587983 -0.23597995 41.93751646 -0.1953125 37.890625 C-0.19329834 36.9197998 -0.19128418 35.94897461 -0.18920898 34.94873047 C-0.17888242 31.3824377 -0.150962 27.81621321 -0.125 24.25 C-0.08375 16.2475 -0.0425 8.245 0 0 Z " fill="#FEFCFC" transform="translate(183,234)"/>
<path d="M0 0 C0.94875 0.17144531 1.8975 0.34289062 2.875 0.51953125 C44.32912801 8.88592427 80.80898182 32.65332978 104.54394531 67.74658203 C129.014218 105.61724215 136.26746953 147.94531096 127 192 C120.04312024 219.94026561 106.06801841 244.48668533 86 265 C85.19046875 265.85980469 84.3809375 266.71960938 83.546875 267.60546875 C58.14413629 294.03251144 19.71505943 311.47782015 -16.921875 312.23828125 C-19.84376558 312.28038324 -22.76533992 312.30110042 -25.6875 312.3125 C-26.73077957 312.31842163 -26.73077957 312.31842163 -27.7951355 312.32446289 C-70.60260173 312.44070341 -108.642228 295.14154775 -139 265.375 C-157.74519506 246.59239816 -170.34332183 223.28681536 -178 198 C-178.44666016 196.53240234 -178.44666016 196.53240234 -178.90234375 195.03515625 C-182.42647611 182.81465748 -183.34841499 171.01254498 -183.31567383 158.3659668 C-183.31252676 155.83402866 -183.33600773 153.30327797 -183.36132812 150.77148438 C-183.52612541 108.45643399 -164.28056753 70.6895976 -135 41 C-100.88908564 7.25813726 -47.05166868 -9.82328721 0 0 Z M-135 49 C-135.56267578 49.53858643 -136.12535156 50.07717285 -136.70507812 50.63208008 C-157.69896801 71.10572159 -169.79992032 98.71835312 -176 127 C-176.24621094 128.09441406 -176.49242187 129.18882812 -176.74609375 130.31640625 C-183.43330492 167.16524575 -174.12013294 207.38614383 -153.9375 238.625 C-147.97722234 247.04869887 -141.45453456 254.86792622 -134 262 C-133.236875 262.78375 -132.47375 263.5675 -131.6875 264.375 C-102.2098351 293.16713781 -64.04117991 307.5906023 -22.95703125 307.15625 C12.85454075 306.31871567 47.05769862 292.31945715 74 269 C74.80308594 268.319375 75.60617187 267.63875 76.43359375 266.9375 C94.49509361 251.34308528 107.47379992 230.11327331 116 208 C116.66128906 206.30037109 116.66128906 206.30037109 117.3359375 204.56640625 C130.33544148 168.60111192 127.99934915 127.6597517 112.19140625 92.97265625 C104.84782937 77.42552852 95.68382666 63.60340552 84 51 C83.16597656 50.09507812 82.33195312 49.19015625 81.47265625 48.2578125 C65.50412839 31.64226163 45.46974373 19.96926189 24 12 C23.32259766 11.74492676 22.64519531 11.48985352 21.94726562 11.22705078 C-33.42827291 -9.17373841 -93.84930792 9.27552278 -135 49 Z " fill="#B62525" transform="translate(301,97)"/>
<path d="M0 0 C17.49 0 34.98 0 53 0 C53.061875 6.001875 53.12375 12.00375 53.1875 18.1875 C53.22846802 21.01671021 53.22846802 21.01671021 53.27026367 23.90307617 C53.27903042 25.40803386 53.28667391 26.91299869 53.29296875 28.41796875 C53.30831665 29.1912854 53.32366455 29.96460205 53.33947754 30.76135254 C53.34221063 36.41976361 52.14723928 39.53731578 48.484375 43.73828125 C44.14810464 47.67413025 39.46133557 50.7040789 34.375 53.5625 C33.74174805 53.9335083 33.10849609 54.3045166 32.45605469 54.68676758 C29.3822588 56.33802999 27.4910457 57.08023623 24.01171875 56.51171875 C20.30502437 54.65116009 16.87424688 52.56644323 13.4375 50.25 C12.46780273 49.62351562 12.46780273 49.62351562 11.47851562 48.984375 C6.66609103 45.77282817 2.63740559 42.27481117 0 37 C-0.086827 34.2286314 -0.11563205 31.482042 -0.09765625 28.7109375 C-0.09664917 27.98559814 -0.09564209 27.26025879 -0.09460449 26.51293945 C-0.08936769 23.80027691 -0.07540644 21.08763689 -0.0625 18.375 C-0.041875 12.31125 -0.02125 6.2475 0 0 Z " fill="#B52222" transform="translate(295,161)"/>
<path d="M0 0 C17.16 0 34.32 0 52 0 C52.0825 5.98125 52.165 11.9625 52.25 18.125 C52.28641602 20.00203613 52.32283203 21.87907227 52.36035156 23.81298828 C52.37204362 25.31541808 52.38223423 26.81786064 52.390625 28.3203125 C52.41108887 29.08851318 52.43155273 29.85671387 52.45263672 30.64819336 C52.45602079 35.90195963 51.47601663 38.83330397 48 43 C46.37182617 44.44384766 46.37182617 44.44384766 44.79296875 45.4140625 C44.20580078 45.78273437 43.61863281 46.15140625 43.01367188 46.53125 C42.1097168 47.07265625 42.1097168 47.07265625 41.1875 47.625 C40.59646484 47.99367187 40.00542969 48.36234375 39.39648438 48.7421875 C38.20725963 49.47880654 37.01041301 50.20326708 35.80615234 50.91503906 C34.57308792 51.65574443 33.36001777 52.43051801 32.16650391 53.23339844 C27.67388377 56.13602276 27.67388377 56.13602276 24.46484375 55.48828125 C23.24474609 54.75158203 23.24474609 54.75158203 22 54 C20.97003906 53.41605469 19.94007813 52.83210938 18.87890625 52.23046875 C3.04112932 42.47409969 3.04112932 42.47409969 0 35 C-0.24730222 32.17242265 -0.35261257 29.57531761 -0.29296875 26.7578125 C-0.28994751 26.07581787 -0.28692627 25.39382324 -0.28381348 24.69116211 C-0.26824081 22.16895182 -0.22635756 19.64695903 -0.1875 17.125 C-0.125625 11.47375 -0.06375 5.8225 0 0 Z " fill="#B52222" transform="translate(208,163)"/>
<path d="M0 0 C9.69479195 0.74575323 19.41257312 1.16250348 29.125 1.625 C29.125 22.745 29.125 43.865 29.125 65.625 C15.62884615 65.625 15.62884615 65.625 10.7734375 65.40625 C9.73832031 65.36113281 8.70320313 65.31601562 7.63671875 65.26953125 C6.60160156 65.22183594 5.56648438 65.17414063 4.5 65.125 C2.38282537 65.03095983 0.26563848 64.93719519 -1.8515625 64.84375 C-2.77018066 64.80185547 -3.68879883 64.75996094 -4.63525391 64.71679688 C-6.04764805 64.65890935 -7.46142008 64.625 -8.875 64.625 C-8.875 43.505 -8.875 22.385 -8.875 0.625 C-5.50233657 -0.49922114 -3.52762127 -0.31300237 0 0 Z " fill="#FCF7F7" transform="translate(287.875,260.375)"/>
<path d="M0 0 C0 20.79 0 41.58 0 63 C-21 65 -21 65 -37 65 C-37 43.88 -37 22.76 -37 1 C-9 -1 -9 -1 0 0 Z " fill="#FDF9F9" transform="translate(271,261)"/>
<path d="M0 0 C4.24323474 2.55177347 7.2007434 5.52936786 9.5625 9.875 C10.38924158 15.78029698 10.14074722 20.22177639 6.875 25.3125 C2.37076296 29.52298245 -1.25924722 32.18218894 -7.5625 32.5 C-12.02851867 32.26454663 -14.63655927 31.05056252 -18 28 C-21.67329781 23.1667134 -22.67453654 19.42823082 -22.37109375 13.359375 C-21.6517293 8.78573158 -19.69352498 6.27691784 -16.046875 3.52734375 C-10.95798604 0.33344316 -5.9764391 -1.66833459 0 0 Z " fill="#B52323" transform="translate(117,317)"/>
<path d="M0 0 C4.47764101 2.0273577 7.85032961 4.67613712 11.0625 8.375 C12.94817566 13.65489184 12.63038874 18.1654722 10.5 23.25 C8.03125383 27.68153022 4.77542515 29.54660974 0 31 C-6.53912534 32.08985422 -11.6007917 29.48336019 -17 26 C-20.01153124 22.89989431 -20.20002972 20.23679085 -20.375 16.0625 C-20.16070219 10.04430326 -18.45113558 6.66880591 -14.5 2.125 C-10.14513967 -1.19247425 -5.18857085 -1.01905541 0 0 Z " fill="#B62424" transform="translate(102,188)"/>
<path d="M0 0 C4.85940247 2.3397123 7.55829963 5.20703262 10 10 C11.1626578 14.43561915 11.37005454 17.86806846 9.9375 22.25 C6.10871028 27.68441121 0.92050848 31.14938481 -5 34 C-7.0065918 33.92919922 -7.0065918 33.92919922 -9 33 C-10.66333008 30.73095703 -10.66333008 30.73095703 -12.26953125 27.7578125 C-12.84767578 26.69175781 -13.42582031 25.62570312 -14.02148438 24.52734375 C-14.61251953 23.40457031 -15.20355469 22.28179687 -15.8125 21.125 C-16.42287109 20.00996094 -17.03324219 18.89492188 -17.66210938 17.74609375 C-20.96814161 11.56638524 -20.96814161 11.56638524 -22 9 C-20.47706728 4.43120183 -17.19071395 3.40005038 -13.0546875 1.24609375 C-8.56018498 -0.58734142 -4.75353099 -0.9690854 0 0 Z " fill="#B52222" transform="translate(364,399)"/>
<path d="M0 0 C6.97986607 1.78970925 12.79362063 5.52454998 17.5625 10.875 C19.71538026 15.55517447 19.9495604 19.41071091 18.19921875 24.18359375 C16.55566439 27.64203824 14.93332399 30.48044463 12 33 C6.09456629 34.9684779 0.41943274 34.95606616 -5.390625 32.66015625 C-8.31597476 31.18708321 -11.17498545 29.65655303 -14 28 C-12.60941509 25.01835683 -11.21154484 22.04018181 -9.8125 19.0625 C-9.42513672 18.23169922 -9.03777344 17.40089844 -8.63867188 16.54492188 C-5.97904088 10.89595357 -3.10201189 5.41848657 0 0 Z " fill="#B52121" transform="translate(189,398)"/>
<path d="M0 0 C5.93559113 0.04231073 10.73737819 0.47663233 15.4375 4.3125 C18.65792625 7.63753406 18.84408179 10.19695853 18.8125 14.75 C18.82023437 15.86246094 18.82796875 16.97492188 18.8359375 18.12109375 C18.2198631 23.0557289 16.52875222 25.3490521 12.8359375 28.609375 C8.39535786 30.83476893 4.94301888 30.76488196 0.0625 30.5625 C-1.18466797 30.53542969 -1.18466797 30.53542969 -2.45703125 30.5078125 C-4.49269074 30.46101573 -6.5277509 30.38928298 -8.5625 30.3125 C-8.77843533 8.50303118 -8.77843533 8.50303118 -7.5625 1.3125 C-5.66422956 -0.58577044 -2.53285826 0.0510332 0 0 Z " fill="#B42020" transform="translate(258.5625,419.6875)"/>
<path d="M0 0 C12.21 0 24.42 0 37 0 C37 12 37 12 34.25 15.375 C32.8594167 16.29088619 31.43845804 17.16130582 30 18 C29.11570313 18.6496875 28.23140625 19.299375 27.3203125 19.96875 C24.12648275 22.03584406 21.74906758 23.29676988 18 24 C12.91378694 22.20587109 9.13895143 19.48338597 5 16 C4.04996094 15.30519531 3.09992188 14.61039063 2.12109375 13.89453125 C0 11 0 11 0 0 Z " fill="#FEFCFC" transform="translate(216,187)"/>
<path d="M0 0 C2.61674293 0.37382042 4.0575701 1.04165724 6.21875 2.60546875 C8 5 8 5 7.734375 8.34765625 C7.40953125 9.57355469 7.0846875 10.79945313 6.75 12.0625 C5.43384624 16.97564006 5.43384624 16.97564006 5 22 C7.97 18.37 10.94 14.74 14 11 C19 13 19 13 20.3125 15.125 C20.6528125 16.053125 20.6528125 16.053125 21 17 C20.443125 17.60585938 19.88625 18.21171875 19.3125 18.8359375 C14.56608364 24.04737438 10.07145299 29.34138723 5.82421875 34.96875 C3.98338353 37.01850227 2.53009949 37.97232162 0 39 C-2.5625 37.6875 -2.5625 37.6875 -5 35 C-5.21955265 31.24980334 -4.61635821 27.69325756 -4 24 C-3.67 21.69 -3.34 19.38 -3 17 C-5.97 20.63 -8.94 24.26 -12 28 C-15.23475448 26.38262276 -16.70572021 25.52370777 -19 23 C-16.77113129 20.29142134 -14.54185055 17.58318208 -12.3125 14.875 C-11.37374023 13.73417969 -11.37374023 13.73417969 -10.41601562 12.5703125 C-6.95721343 8.36904491 -3.48904967 4.17618564 0 0 Z " fill="#B52222" transform="translate(159,376)"/>
<path d="M0 0 C7.14957541 3.73311396 13.55970652 8.14871351 20 13 C19.65805156 15.81157602 19.4425069 17.53040084 17.46875 19.625 C15.33134349 21.11779185 13.19074368 22.5861419 11 24 C10.22269531 24.515625 9.44539063 25.03125 8.64453125 25.5625 C4.19111347 28.30765535 4.19111347 28.30765535 2 29 C-1.94157998 27.92386589 -5.2030346 25.7542547 -8.625 23.5625 C-9.56601562 22.96566406 -10.50703125 22.36882812 -11.4765625 21.75390625 C-15.77727726 18.76470977 -15.77727726 18.76470977 -17 17 C-16.74990184 14.08465458 -16.45426684 12.47921962 -14.41772461 10.33081055 C-13.75264893 9.85426025 -13.08757324 9.37770996 -12.40234375 8.88671875 C-11.32436523 8.0987793 -11.32436523 8.0987793 -10.22460938 7.29492188 C-9.46986328 6.76447266 -8.71511719 6.23402344 -7.9375 5.6875 C-6.79958008 4.86282227 -6.79958008 4.86282227 -5.63867188 4.02148438 C-3.76771083 2.66827356 -1.88843366 1.3286627 0 0 Z " fill="#FDFBFB" transform="translate(320,181)"/>
<path d="M0 0 C2.97 0.33 5.94 0.66 9 1 C9.82065069 2.87144695 10.6311584 4.74734336 11.4375 6.625 C11.88996094 7.66914062 12.34242188 8.71328125 12.80859375 9.7890625 C13.95801705 12.88685251 14.57311223 15.73210054 15 19 C15.66 19 16.32 19 17 19 C16.98839844 18.43152344 16.97679687 17.86304687 16.96484375 17.27734375 C16.90776806 12.39329516 17.18043228 7.81496035 18 3 C20.64 3 23.28 3 26 3 C25.52798258 10.25416241 24.88381104 17.47271598 24 24.6875 C23.9170166 25.38230469 23.8340332 26.07710937 23.74853516 26.79296875 C23.12200227 31.75599546 23.12200227 31.75599546 22 34 C19.03 33.67 16.06 33.34 13 33 C11.02 27.39 9.04 21.78 7 16 C6.01 20.95 5.02 25.9 4 31 C1.69 31 -0.62 31 -3 31 C-2.51922524 20.54947491 -1.6872226 10.33628604 0 0 Z " fill="#B52323" transform="translate(289,54)"/>
<path d="M0 0 C2.74978436 1.27703243 4.96049247 2.65249228 7.2421875 4.64453125 C7.83386719 5.15693359 8.42554688 5.66933594 9.03515625 6.19726562 C9.64230469 6.73029297 10.24945313 7.26332031 10.875 7.8125 C12.08039367 8.86106288 13.28611986 9.90924364 14.4921875 10.95703125 C15.07452148 11.46443848 15.65685547 11.9718457 16.25683594 12.49462891 C18.80896112 14.69860704 21.40174584 16.85067966 24 19 C22.79618552 21.49361571 21.54571278 23.68143083 20 26 C14 25.33333333 8 24.66666667 2 24 C5.63 26.97 9.26 29.94 13 33 C11.68 34.98 10.36 36.96 9 39 C-0.09182619 34.97331707 -7.70061648 26.61450309 -15 20 C-13.92598892 17.08482708 -13.22189824 15.22189824 -11 13 C-8.1015625 13.2421875 -8.1015625 13.2421875 -4.625 13.875 C-0.9538391 14.52967655 2.25844104 15 6 15 C2.7 12.03 -0.6 9.06 -4 6 C-2 2 -2 2 0 0 Z " fill="#B52121" transform="translate(129,117)"/>
<path d="M0 0 C1.9375 1.875 1.9375 1.875 3 4 C3 4.99 3 5.98 3 7 C3.60328125 7.01417969 4.2065625 7.02835937 4.828125 7.04296875 C11.33369668 7.43120448 11.33369668 7.43120448 14.5625 10.1875 C16.28637429 13.56029751 16.61065674 15.25972745 16 19 C13.92985496 22.77062132 11.87857167 26.005306 8 28 C4.5625 28.5 4.5625 28.5 1 28 C-1.9375 25.75 -1.9375 25.75 -4 23 C-4 21.68 -4 20.36 -4 19 C-5.60875 19.12375 -5.60875 19.12375 -7.25 19.25 C-11 19 -11 19 -13.4375 17.5 C-15.20572185 14.67084504 -15.68135687 12.44144036 -15.53125 9.1015625 C-14.55489198 5.23920505 -11.91356373 2.60409194 -9 0 C-5.8168485 -1.59157575 -3.38676935 -0.77242108 0 0 Z " fill="#B42020" transform="translate(421,347)"/>
<path d="M0 0 C5.28064884 2.25973711 8.82276191 6.30158424 12 11 C12.94476078 14.21106194 12.69316118 15.59195755 12 19 C10.4375 21.5 10.4375 21.5 8 23 C4.25 23.25 4.25 23.25 1 23 C0.7525 23.825 0.505 24.65 0.25 25.5 C-1.18704811 29.52373471 -3.02354515 33.21979024 -5 37 C-7.46800047 35.84826645 -9.04783565 34.95216435 -11 33 C-10.67582137 29.19090105 -10.14418558 27.21627837 -8 24 C-8 22.35 -8 20.7 -8 19 C-11.96 22.465 -11.96 22.465 -16 26 C-18.04119788 24.38405168 -20.04072937 22.7143618 -22 21 C-22 20.34 -22 19.68 -22 19 C-20.44759659 17.60674046 -18.82970015 16.28619872 -17.1875 15 C-11.22245099 10.23570761 -5.59970979 5.1881257 0 0 Z " fill="#B42020" transform="translate(415,113)"/>
<path d="M0 0 C4.48135921 0.70295831 6.06163975 2.22528926 9.1875 5.5 C9.1875 6.82 9.1875 8.14 9.1875 9.5 C9.92355469 9.48839844 10.65960938 9.47679687 11.41796875 9.46484375 C12.39378906 9.45582031 13.36960937 9.44679687 14.375 9.4375 C15.33792969 9.42589844 16.30085938 9.41429687 17.29296875 9.40234375 C20.04326513 9.49513378 22.51229591 9.87888315 25.1875 10.5 C23.3125 15.25 23.3125 15.25 22.1875 17.5 C19.02734375 17.9140625 19.02734375 17.9140625 15.125 18.125 C13.83464844 18.19976562 12.54429688 18.27453125 11.21484375 18.3515625 C10.21582031 18.40054688 9.21679688 18.44953125 8.1875 18.5 C11.0893448 20.71358674 14.03322265 22.66000488 17.1875 24.5 C16.4375 29.25 16.4375 29.25 14.1875 31.5 C10.63637016 29.73946129 7.09486831 27.96102472 3.5612793 26.16552734 C2.35805867 25.5573487 1.15232655 24.95411245 -0.0559082 24.35595703 C-1.7925038 23.49515379 -3.51946725 22.61500399 -5.24609375 21.734375 C-6.28822021 21.21069336 -7.33034668 20.68701172 -8.40405273 20.14746094 C-10.8125 18.5 -10.8125 18.5 -11.72973633 16.46606445 C-11.85761103 13.42838011 -10.55278815 11.54550425 -9.0625 8.9375 C-8.53140625 7.98746094 -8.0003125 7.03742188 -7.453125 6.05859375 C-4.02731907 0.71596783 -4.02731907 0.71596783 0 0 Z " fill="#B52121" transform="translate(106.8125,152.5)"/>
<path d="M0 0 C2.91403905 0.06200083 4.00682166 0.3259555 6.109375 2.390625 C7.98709945 5.0909716 9.67464165 7.87181605 11.375 10.6875 C12.25403145 12.00386387 13.14123864 13.31479309 14.03515625 14.62109375 C14.49422363 15.29325928 14.95329102 15.9654248 15.42626953 16.65795898 C15.88372559 17.32770752 16.34118164 17.99745605 16.8125 18.6875 C21.375 25.37104756 21.375 25.37104756 21.375 27.6875 C18.41835481 29.1658226 15.63270263 28.74782783 12.375 28.6875 C11.715 27.0375 11.055 25.3875 10.375 23.6875 C6.745 24.3475 3.115 25.0075 -0.625 25.6875 C-0.625 27.9975 -0.625 30.3075 -0.625 32.6875 C-3.265 33.0175 -5.905 33.3475 -8.625 33.6875 C-8.88793528 26.69002878 -7.88254023 20.13492036 -6.6875 13.25 C-6.50509766 12.14978516 -6.32269531 11.04957031 -6.13476562 9.91601562 C-4.59859274 0.8721469 -4.59859274 0.8721469 0 0 Z " fill="#B52222" transform="translate(308.625,416.3125)"/>
<path d="M0 0 C1.98 1.65 3.96 3.3 6 5 C4.93261837 8.20214488 4.43506653 8.71028975 1.875 10.6640625 C1.25109375 11.14617187 0.6271875 11.62828125 -0.015625 12.125 C-0.67046875 12.62 -1.3253125 13.115 -2 13.625 C-3.29193414 14.6168392 -4.58361405 15.60900966 -5.875 16.6015625 C-7.421875 17.78878906 -7.421875 17.78878906 -9 19 C-10.27003323 20.05310277 -10.27003323 20.05310277 -10.1875 22.4375 C-10.26839983 25.16734675 -10.26839983 25.16734675 -8 27 C-3.11777875 26.86223009 -0.03237241 23.97849037 3.5625 21 C10.33085789 15.43060837 10.33085789 15.43060837 14 15 C17 18.625 17 18.625 17 22 C15.0173783 23.78585023 13.07634285 25.36089405 10.9375 26.9375 C10.37611328 27.36740234 9.81472656 27.79730469 9.23632812 28.24023438 C4.60520452 31.72813204 -0.23137853 35.35202476 -5.9375 36.6875 C-10.76186867 35.60447846 -13.71556456 32.58507027 -17 29 C-18.97316901 25.84292958 -19.00547342 24.30103794 -18.9375 20.5625 C-16.89317132 12.79405101 -10.47298394 8.7647017 -4.42578125 3.953125 C-1.99984814 2.07139213 -1.99984814 2.07139213 0 0 Z " fill="#B62424" transform="translate(135,347)"/>
<path d="M0 0 C2.64 0 5.28 0 8 0 C8.81834985 6.07917029 9.200873 12.18435308 9.375 18.3125 C9.41302734 18.99376953 9.45105469 19.67503906 9.49023438 20.37695312 C9.55525244 24.26656341 9.12399321 25.84511216 6.6640625 28.91796875 C1.88514463 32.65281219 -3.14237592 32.68307757 -9 32 C-12.6546673 29.86811074 -14.42373933 27.86655395 -16 24 C-17.09077675 16.40572416 -17.15564083 8.66098759 -17 1 C-14.36 1 -11.72 1 -9 1 C-8.91697632 1.88522339 -8.91697632 1.88522339 -8.83227539 2.78833008 C-8.57932313 5.46341208 -8.320973 8.13794603 -8.0625 10.8125 C-7.97548828 11.74126953 -7.88847656 12.67003906 -7.79882812 13.62695312 C-7.71181641 14.51962891 -7.62480469 15.41230469 -7.53515625 16.33203125 C-7.456604 17.15421143 -7.37805176 17.9763916 -7.29711914 18.82348633 C-7.04448955 21.17487422 -7.04448955 21.17487422 -6 24 C-4.02 24 -2.04 24 0 24 C0 16.08 0 8.16 0 0 Z " fill="#B52323" transform="translate(264,54)"/>
<path d="M0 0 C2.475 0.99 2.475 0.99 5 2 C5 6 5 6 3 9 C3.3121764 11.64632287 3.3121764 11.64632287 4 14 C4.598125 13.05125 5.19625 12.1025 5.8125 11.125 C8 8 8 8 11 6 C15.8987842 5.64222363 19.21191502 6.34326252 23 9.5 C23.66 10.325 24.32 11.15 25 12 C25.33 12.33 25.66 12.66 26 13 C26 17.95658153 25.63417496 20.9824211 22.0625 24.5625 C19.04372475 26.81577805 16.88177381 27.40824164 13.125 27.25 C6.78399436 26.17541737 1.53344721 22.87785593 -2.6953125 18.07421875 C-4.88607357 14.5913022 -5.26040891 11.0680094 -5 7 C-3.5111211 4.22075938 -2.21243017 2.21243017 0 0 Z " fill="#B52222" transform="translate(428,318)"/>
<path d="M0 0 C0.70125 0.19335938 1.4025 0.38671875 2.125 0.5859375 C7.73492134 2.125617 13.35010447 3.61417657 19 5 C18.67 7.31 18.34 9.62 18 12 C16.56206608 11.68950274 15.1246682 11.3765224 13.6875 11.0625 C12.88699219 10.88847656 12.08648437 10.71445312 11.26171875 10.53515625 C9 10 9 10 6 9 C5.67 10.65 5.34 12.3 5 14 C5.63808594 14.12117188 6.27617187 14.24234375 6.93359375 14.3671875 C8.17302734 14.61855469 8.17302734 14.61855469 9.4375 14.875 C10.26121094 15.03742188 11.08492187 15.19984375 11.93359375 15.3671875 C12.61550781 15.57601563 13.29742187 15.78484375 14 16 C14.33 16.66 14.66 17.32 15 18 C14.0625 20.625 14.0625 20.625 13 23 C9.7 22.34 6.4 21.68 3 21 C2.67 22.98 2.34 24.96 2 27 C4.97 27.33 7.94 27.66 11 28 C12.125 32.75 12.125 32.75 11 35 C-1.66970387 33.07289294 -1.66970387 33.07289294 -7 31 C-6.40281353 24.31558321 -5.18391933 18.05280622 -3.5 11.5625 C-3.27441406 10.66595703 -3.04882812 9.76941406 -2.81640625 8.84570312 C-1.14826949 2.29653898 -1.14826949 2.29653898 0 0 Z " fill="#B62424" transform="translate(222,412)"/>
<path d="M0 0 C3 1 3 1 5 5 C2.69 6.98 0.38 8.96 -2 11 C-1.67 11.99 -1.34 12.98 -1 14 C2.0831351 12.80100302 5.06279492 11.52299523 8 10 C9.5 11.3125 9.5 11.3125 11 13 C11 13.99 11 14.98 11 16 C6.65714286 20 6.65714286 20 4 20 C4.66 21.65 5.32 23.3 6 25 C7.0725 24.38125 8.145 23.7625 9.25 23.125 C11.79780984 21.6676321 14.35259355 20.27075509 17 19 C18.5 20.3125 18.5 20.3125 20 22 C20 22.99 20 23.98 20 25 C17.98828125 26.9375 17.98828125 26.9375 15.3125 29 C14.00732422 30.0209375 14.00732422 30.0209375 12.67578125 31.0625 C10.18620036 32.86517463 7.66132296 34.46554352 5 36 C-8.87664858 19.24498033 -8.87664858 19.24498033 -14 11 C-11.73870384 9.13301175 -9.46734272 7.28158953 -7.1875 5.4375 C-6.54490234 4.90447266 -5.90230469 4.37144531 -5.24023438 3.82226562 C-4.61826172 3.32275391 -3.99628906 2.82324219 -3.35546875 2.30859375 C-2.78465576 1.84251709 -2.21384277 1.37644043 -1.62573242 0.89624023 C-1.08924072 0.60048096 -0.55274902 0.30472168 0 0 Z " fill="#B52222" transform="translate(156,93)"/>
<path d="M0 0 C2.97 0.495 2.97 0.495 6 1 C5.44687265 5.02992782 4.8441938 9.02022924 4 13 C4.99 13 5.98 13 7 13 C7.226875 12.2575 7.45375 11.515 7.6875 10.75 C9.3214815 7.32641971 10.71297346 5.89917089 14 4 C19.46167441 4 22.7219954 5.71688019 27 9 C29 11 29 11 29.375 14.625 C29.28742771 19.40644688 27.40801745 22.95797072 25 27 C20.25 26.125 20.25 26.125 18 25 C19.875 21.125 19.875 21.125 21 20 C21.04092937 17.66702567 21.04241723 15.33294775 21 13 C17.99428144 13.38852558 17.99428144 13.38852558 15 15 C13.81724148 17.68310961 13.47288244 20.0681289 13 23 C6.93267948 21.96232949 1.5626148 20.66038099 -4 18 C-3.41632611 11.69632197 -1.95928381 6.01339937 0 0 Z " fill="#B62525" transform="translate(438,289)"/>
<path d="M0 0 C3.75730247 1.6281644 6.616823 4.01401917 9.75 6.625 C11.22726562 7.85089844 11.22726562 7.85089844 12.734375 9.1015625 C13.85585938 10.04128906 13.85585938 10.04128906 15 11 C14.01 12.65 13.02 14.3 12 16 C8.40608886 14.66511872 5.24509304 13.03977277 2 11 C1.34 12.32 0.68 13.64 0 15 C0.8971875 15.433125 0.8971875 15.433125 1.8125 15.875 C4 17 4 17 7 19 C6.01 21.475 6.01 21.475 5 24 C-0.04250428 24 -1.77905653 22.59750368 -6 20 C-6.99 22.475 -6.99 22.475 -8 25 C-7.4225 25.268125 -6.845 25.53625 -6.25 25.8125 C-3.9674132 27.01719859 -2.0262058 28.40798115 0 30 C-1.75 34.875 -1.75 34.875 -4 36 C-6.17899914 34.43159952 -8.34217244 32.84706156 -10.5 31.25 C-11.12003906 30.8065625 -11.74007813 30.363125 -12.37890625 29.90625 C-14.15625 28.578125 -14.15625 28.578125 -17 26 C-17 21.85214739 -16.89774596 21.36634745 -14.55078125 18.3203125 C-14.03193359 17.63839844 -13.51308594 16.95648438 -12.97851562 16.25390625 C-12.15383789 15.20009766 -12.15383789 15.20009766 -11.3125 14.125 C-10.51682617 13.08279297 -10.51682617 13.08279297 -9.70507812 12.01953125 C-6.56616293 7.92931292 -3.32711866 3.93822208 0 0 Z " fill="#B52222" transform="translate(389,90)"/>
<path d="M0 0 C3.465 1.485 3.465 1.485 7 3 C6.67 9.6 6.34 16.2 6 23 C10.29 18.71 14.58 14.42 19 10 C22.465 11.485 22.465 11.485 26 13 C24.64738766 16.10699073 23.24756433 17.87539092 20.625 20 C17.91468958 22.25941783 15.39692455 24.59004844 12.98046875 27.15625 C12.45694824 27.70667969 11.93342773 28.25710937 11.39404297 28.82421875 C10.35065664 29.9297766 9.31933509 31.04686332 8.30126953 32.17578125 C6.83203125 33.71875 6.83203125 33.71875 4 36 C0.39290785 35.95787338 -0.96544865 35.02303423 -4 33 C-2.64974619 7.94923858 -2.64974619 7.94923858 0 0 Z " fill="#B42020" transform="translate(351,68)"/>
<path d="M0 0 C3.78722316 2.37802384 6.11979608 4.94271785 8 9 C8.375 11.6875 8.375 11.6875 8 14 C5 16 5 16 2 16 C1.34 13.69 0.68 11.38 0 9 C-1.65 9 -3.3 9 -5 9 C-4.90460938 9.81984375 -4.80921875 10.6396875 -4.7109375 11.484375 C-4.60007812 12.56203125 -4.48921875 13.6396875 -4.375 14.75 C-4.20097656 16.35101563 -4.20097656 16.35101563 -4.0234375 17.984375 C-3.99948368 21.06643274 -4.30867527 22.47179141 -6 25 C-9.44576667 27.55241975 -12.84183583 27.5018474 -17 27 C-22.14106996 23.73739791 -24.09080591 20.72758226 -26 15 C-26 14.01 -26 13.02 -26 12 C-23.35261084 10.5393715 -22.10551666 10 -19 10 C-18.74605469 10.56589844 -18.49210937 11.13179687 -18.23046875 11.71484375 C-17.88628906 12.44832031 -17.54210937 13.18179688 -17.1875 13.9375 C-16.85105469 14.66839844 -16.51460938 15.39929688 -16.16796875 16.15234375 C-15.06399866 18.33029489 -15.06399866 18.33029489 -12 19 C-12.13019531 18.20335937 -12.26039063 17.40671875 -12.39453125 16.5859375 C-13.5019794 8.07825174 -13.5019794 8.07825174 -12.0234375 4.90234375 C-8.35258755 0.53381764 -5.59168966 -0.54820487 0 0 Z " fill="#B52323" transform="translate(440,145)"/>
<path d="M0 0 C12.54 0 25.08 0 38 0 C38 5.61 38 11.22 38 17 C32.41167691 13.9840796 27.21880177 10.85709911 22.140625 7.0390625 C20.04982548 5.82834232 20.04982548 5.82834232 17.6875 6.01953125 C13.88698767 7.40605537 10.96252773 9.63977421 7.75 12.0625 C1.09481583 17 1.09481583 17 0 17 C0 11.39 0 5.78 0 0 Z " fill="#FDFBFB" transform="translate(302,168)"/>
<path d="M0 0 C2.64 0.33 5.28 0.66 8 1 C7.67 1.99 7.34 2.98 7 4 C6.29863903 9.75686368 6.29863903 9.75686368 9.0625 14.5 C12.72999792 16.37276489 14.93187045 16.59172793 19 16 C21.66177841 14.84074462 21.66177841 14.84074462 23 12 C23.32396453 8.30892873 23.22932784 4.69472631 23 1 C25.31 1 27.62 1 30 1 C30.58747568 15.66513356 30.58747568 15.66513356 25.5 21.8125 C21.02919421 25.35188792 14.35299864 24.48537552 9 24 C4.83026988 22.77273901 1.97632264 20.40400081 -0.4375 16.8125 C-2.50128098 12.70265289 -2.71615698 8.50512704 -2 4 C-0.9765625 1.73046875 -0.9765625 1.73046875 0 0 Z " fill="#B52323" transform="translate(77,229)"/>
<path d="M0 0 C0.56879011 3.15994505 0.7797133 5.86585831 0 9 C-2.79143764 11.69349246 -5.54154995 13.12667289 -9 15 C-5.37 16.98 -1.74 18.96 2 21 C2 23.64 2 26.28 2 29 C-2.18011882 27.72752265 -5.7147779 26.10124353 -9.5 23.9375 C-16.22987993 20.46264993 -22.51658941 20.02214027 -30 20 C-30 17.36 -30 14.72 -30 12 C-29.40316406 12.05542969 -28.80632812 12.11085937 -28.19140625 12.16796875 C-18.23465302 12.24194166 -11.37660822 6.57919232 -3.61303711 0.99389648 C-2 0 -2 0 0 0 Z " fill="#B52323" transform="translate(472,228)"/>
<path d="M0 0 C0.66969591 2.4575448 1.3358768 4.91594924 2 7.375 C2.19078125 8.07367188 2.3815625 8.77234375 2.578125 9.4921875 C4 14.7734375 4 14.7734375 4 17 C1.35261084 18.4606285 0.10551666 19 -3 19 C-3.99 16.03 -4.98 13.06 -6 10 C-6.99 10 -7.98 10 -9 10 C-8.34 13.3 -7.68 16.6 -7 20 C-9.31 20.33 -11.62 20.66 -14 21 C-14.66 18.36 -15.32 15.72 -16 13 C-17.216875 13.33 -18.43375 13.66 -19.6875 14 C-22.87210604 14.80322213 -25.6972843 15.20641973 -29 15 C-29.33 12.36 -29.66 9.72 -30 7 C-26.60511062 6.01754027 -23.20893071 5.03961667 -19.8125 4.0625 C-18.85279297 3.78470703 -17.89308594 3.50691406 -16.90429688 3.22070312 C-15.97294922 2.95322266 -15.04160156 2.68574219 -14.08203125 2.41015625 C-13.22843018 2.16402588 -12.3748291 1.91789551 -11.49536133 1.66430664 C-7.52580075 0.60754367 -4.13173846 0 0 0 Z " fill="#B62525" transform="translate(112,290)"/>
<path d="M0 0 C0.83885377 3.43617708 1.67012919 6.87414337 2.5 10.3125 C2.73847656 11.28896484 2.97695313 12.26542969 3.22265625 13.27148438 C3.44824219 14.20927734 3.67382812 15.14707031 3.90625 16.11328125 C4.11572266 16.97735596 4.32519531 17.84143066 4.54101562 18.73168945 C5 21 5 21 5 24 C2.69 24.33 0.38 24.66 -2 25 C-2.33 22.36 -2.66 19.72 -3 17 C-3.69222656 17.29648438 -4.38445312 17.59296875 -5.09765625 17.8984375 C-8.18596388 19.07058118 -11.22118686 19.87490577 -14.4375 20.625 C-16.07525391 21.01558594 -16.07525391 21.01558594 -17.74609375 21.4140625 C-20.91092551 21.98396018 -23.79283006 22.10642193 -27 22 C-28.4606285 19.35261084 -29 18.10551666 -29 15 C-25.91882573 14.15854044 -22.83474379 13.32826938 -19.75 12.5 C-18.87730469 12.26152344 -18.00460937 12.02304688 -17.10546875 11.77734375 C-16.26113281 11.55175781 -15.41679687 11.32617188 -14.546875 11.09375 C-13.77182617 10.88427734 -12.99677734 10.67480469 -12.19824219 10.45898438 C-10 10 -10 10 -6 10 C-6.33 7.03 -6.66 4.06 -7 1 C-3 0 -3 0 0 0 Z " fill="#B62626" transform="translate(465,193)"/>
<path d="M0 0 C12.21 0 24.42 0 37 0 C37 2.97 37 5.94 37 9 C24.79 9 12.58 9 0 9 C0 6.03 0 3.06 0 0 Z " fill="#FEFDFD" transform="translate(216,170)"/>
<path d="M0 0 C1.25854492 1.76586914 1.25854492 1.76586914 2.48046875 4.03515625 C2.92197266 4.84404297 3.36347656 5.65292969 3.81835938 6.48632812 C4.27017578 7.33646484 4.72199219 8.18660156 5.1875 9.0625 C5.65091797 9.91650391 6.11433594 10.77050781 6.59179688 11.65039062 C7.73636254 13.76252727 8.87194884 15.87901067 10 18 C13.37462715 17.45276317 15.08235 16.9451 18 15 C18.99 15 19.98 15 21 15 C21.66 16.98 22.32 18.96 23 21 C20.73354942 22.34130761 18.46239903 23.67316234 16.1875 25 C15.54490234 25.3815625 14.90230469 25.763125 14.24023438 26.15625 C9.33984375 29 9.33984375 29 6 29 C3.97486136 25.50189506 1.96314915 21.99645407 -0.03637695 18.48364258 C-0.71858932 17.28948689 -1.40444814 16.09740677 -2.09399414 14.9074707 C-3.08392914 13.19771256 -4.05975568 11.47981011 -5.03515625 9.76171875 C-5.92279663 8.2142395 -5.92279663 8.2142395 -6.82836914 6.63549805 C-8 4 -8 4 -7 1 C-4.05697101 -0.96201933 -3.48011144 -1.16003715 0 0 Z " fill="#B52323" transform="translate(179,81)"/>
<path d="M0 0 C1.17461555 3.10121711 2.33830456 6.20642241 3.5 9.3125 C3.83386719 10.19357422 4.16773438 11.07464844 4.51171875 11.98242188 C4.82753906 12.82998047 5.14335937 13.67753906 5.46875 14.55078125 C5.76201172 15.33106689 6.05527344 16.11135254 6.35742188 16.9152832 C7 19 7 19 7 22 C12.445 20.515 12.445 20.515 18 19 C20 22 20 22 20 26 C17.75267898 26.84124316 15.50261215 27.67314832 13.25 28.5 C12.61578125 28.73847656 11.9815625 28.97695312 11.328125 29.22265625 C7.96713393 30.44801758 5.63128413 31 2 31 C0.57169148 27.19295001 -0.85236055 23.38433843 -2.27246094 19.57421875 C-2.75631411 18.27788194 -3.24133485 16.9819803 -3.72753906 15.68652344 C-4.42558589 13.82601495 -5.11910947 11.96381135 -5.8125 10.1015625 C-6.23144531 8.98088379 -6.65039062 7.86020508 -7.08203125 6.70556641 C-8 4 -8 4 -8 2 C-2.25 0 -2.25 0 0 0 Z " fill="#B52323" transform="translate(208,66)"/>
<path d="M0 0 C2.94803773 1.12214991 4.52177741 2.8342685 6.72631836 5.08349609 C7.5706543 5.9375 8.41499023 6.79150391 9.28491211 7.67138672 C10.15760742 8.56921875 11.03030273 9.46705078 11.92944336 10.39208984 C12.81760742 11.29378906 13.70577148 12.19548828 14.62084961 13.12451172 C16.81392651 15.35296082 18.9997038 17.58810577 21.17944336 19.82958984 C19.65371679 23.15594866 18.24599832 24.78521987 15.17944336 26.82958984 C13.8065918 25.43933594 13.8065918 25.43933594 12.40600586 24.02099609 C11.20561726 22.81122946 10.00508918 21.6016012 8.80444336 20.39208984 C8.20116211 19.78042969 7.59788086 19.16876953 6.97631836 18.53857422 C6.39624023 17.95527344 5.81616211 17.37197266 5.21850586 16.77099609 C4.68435059 16.231604 4.15019531 15.69221191 3.59985352 15.13647461 C2.19291948 13.72112008 2.19291948 13.72112008 0.17944336 12.82958984 C0.17944336 14.14958984 0.17944336 15.46958984 0.17944336 16.82958984 C-2.13055664 16.49958984 -4.44055664 16.16958984 -6.82055664 15.82958984 C-6.56518092 13.72349125 -6.29070291 11.6197023 -6.00805664 9.51708984 C-5.85723633 8.34533203 -5.70641602 7.17357422 -5.55102539 5.96630859 C-4.82055664 2.82958984 -4.82055664 2.82958984 -3.49633789 0.84912109 C-1.82055664 -0.17041016 -1.82055664 -0.17041016 0 0 Z " fill="#B62424" transform="translate(395.820556640625,368.17041015625)"/>
<path d="M0 0 C5.75 0.875 5.75 0.875 8 2 C6.8426853 7.89178395 5.2797774 13.58394302 3.5 19.3125 C3.17962769 20.35277344 3.17962769 20.35277344 2.8527832 21.4140625 C1.79967804 24.75545124 0.70373649 27.93169678 -1 31 C-3.31 30.67 -5.62 30.34 -8 30 C-7.33756276 23.42227814 -5.4097775 17.3542605 -3.4375 11.0625 C-2.9434668 9.46438477 -2.9434668 9.46438477 -2.43945312 7.83398438 C-1.631 5.22115762 -0.81773465 2.60993378 0 0 Z " fill="#B62525" transform="translate(330,62)"/>
<path d="M0 0 C0.33 1.98 0.66 3.96 1 6 C-7.91 9.63 -16.82 13.26 -26 17 C-29.08669204 13.91330796 -29.44855089 13.08072342 -30 9 C-25.94608573 7.29132539 -21.88069809 5.6118493 -17.8125 3.9375 C-16.66201172 3.45216797 -15.51152344 2.96683594 -14.32617188 2.46679688 C-13.21435547 2.01240234 -12.10253906 1.55800781 -10.95703125 1.08984375 C-9.93585205 0.66566162 -8.91467285 0.24147949 -7.86254883 -0.19555664 C-4.76816002 -1.06515247 -3.04772591 -0.9033019 0 0 Z " fill="#B52222" transform="translate(458,175)"/>
<path d="M0 0 C2.4375 1.125 2.4375 1.125 4 3 C4.5625 5.875 4.5625 5.875 4 9 C1.44975635 12.10164769 -0.17699247 13.72566416 -4 15 C-10.23321555 15.44522968 -10.23321555 15.44522968 -12.9375 13.875 C-14.55824231 11.01486651 -14.51742613 9.23391331 -14 6 C-9.52760956 0.70374816 -6.89420728 -0.47546257 0 0 Z " fill="#FDFAFA" transform="translate(116,325)"/>
<path d="M0 0 C3.66414787 0.08174608 5.53600007 0.30073533 8.875 1.9375 C10.6875 4.375 10.6875 4.375 11.25 7.9375 C10.6875 11.375 10.6875 11.375 9.25 13.375 C5.26006778 14.93204672 1.78410982 14.43195449 -2.3125 13.375 C-5.375 11.75 -5.375 11.75 -7.3125 9.375 C-7.75 5.75 -7.75 5.75 -7.3125 2.375 C-4.73850489 -0.19899511 -3.57680716 0.04840064 0 0 Z " fill="#FDFAFA" transform="translate(96.3125,196.625)"/>
<path d="M0 0 C0 2.64 0 5.28 0 8 C-10.89 8.495 -10.89 8.495 -22 9 C-22 6.36 -22 3.72 -22 1 C-14.64479068 0.36338219 -7.38395674 -0.12515181 0 0 Z " fill="#B82C2C" transform="translate(264,268)"/>
<path d="M0 0 C0.04241723 2.33294775 0.04092937 4.66702567 0 7 C-2.81916959 9.81916959 -10.34499678 8.98683411 -14.109375 9.0625 C-16.74038268 9.0625 -19.36940618 9.04501016 -22 9 C-22 6.36 -22 3.72 -22 1 C-19.27093526 0.83150207 -16.54176829 0.6651397 -13.8125 0.5 C-13.04357422 0.45230469 -12.27464844 0.40460938 -11.48242188 0.35546875 C-7.648496 0.12510411 -3.84309823 -0.0616128 0 0 Z " fill="#B82C2C" transform="translate(264,288)"/>
<path d="M0 0 C7.3905476 -0.14715692 14.64424835 0.29223008 22 1 C22 3.31 22 5.62 22 8 C18.52085059 8.02887814 15.04173169 8.04675687 11.5625 8.0625 C10.07266602 8.07506836 10.07266602 8.07506836 8.55273438 8.08789062 C7.60849609 8.09111328 6.66425781 8.09433594 5.69140625 8.09765625 C4.81685791 8.10289307 3.94230957 8.10812988 3.04125977 8.11352539 C1 8 1 8 0 7 C-0.04092937 4.66702567 -0.04241723 2.33294775 0 0 Z " fill="#B82A2A" transform="translate(286,268)"/>
<path d="M0 0 C6 0 6 0 8.875 2.0625 C11 5 11 5 11.625 8.5 C10.83397068 12.9297642 9.63525215 14.39210172 6 17 C4.02 17 2.04 17 0 17 C0 11.39 0 5.78 0 0 Z " fill="#FAF2F2" transform="translate(258,427)"/>
<path d="M0 0 C2.56630083 0.54195173 3.82007286 0.83868602 5.8125 2.625 C7.57711466 6.15422932 7.05307965 8.24840373 6 12 C3.8125 14.9375 3.8125 14.9375 1 17 C-2.20352299 17.37688506 -4.11138291 17.44430855 -7 16 C-6.40165275 11.85701333 -4.99335715 8.81805623 -2.9375 5.1875 C-2.11572266 3.72376953 -2.11572266 3.72376953 -1.27734375 2.23046875 C-0.85582031 1.49441406 -0.43429688 0.75835937 0 0 Z " fill="#FBF4F4" transform="translate(193,408)"/>
<path d="M0 0 C0 2.31 0 4.62 0 7 C-2.56204544 7.33719047 -5.12454318 7.66987153 -7.6875 8 C-8.40873047 8.09539062 -9.12996094 8.19078125 -9.87304688 8.2890625 C-13.60992871 8.76683735 -17.22291531 9.11919794 -21 9 C-21 6.36 -21 3.72 -21 1 C-18.81274749 0.83011631 -16.62518299 0.66424731 -14.4375 0.5 C-12.61025391 0.36078125 -12.61025391 0.36078125 -10.74609375 0.21875 C-7.15365784 0.00897272 -3.59752457 -0.03704015 0 0 Z " fill="#B52222" transform="translate(263,308)"/>
<path d="M0 0 C7.26 0.33 14.52 0.66 22 1 C22 3.31 22 5.62 22 8 C19.27076612 8.0270817 16.54180363 8.04687847 13.8125 8.0625 C13.04357422 8.07087891 12.27464844 8.07925781 11.48242188 8.08789062 C7.51473211 8.10491934 3.87428766 7.98604115 0 7 C0 4.69 0 2.38 0 0 Z " fill="#B31C1C" transform="translate(287,308)"/>
<path d="M0 0 C7.26 0 14.52 0 22 0 C22 2.31 22 4.62 22 7 C14.74 7 7.48 7 0 7 C0 4.69 0 2.38 0 0 Z " fill="#B62626" transform="translate(287,289)"/>
<path d="M0 0 C7.12208505 -0.60356653 7.12208505 -0.60356653 11 2.0625 C13.52975133 5.77807226 13.7878128 7.5882483 13 12 C10.5 14.9375 10.5 14.9375 8 17 C5.40771979 14.61853776 3.60121982 12.05051257 1.75 9.0625 C1.20859375 8.20785156 0.6671875 7.35320312 0.109375 6.47265625 C-1 4 -1 4 -0.671875 1.68359375 C-0.45015625 1.12800781 -0.2284375 0.57242187 0 0 Z " fill="#FCF7F7" transform="translate(353,407)"/>
<path d="M0 0 C1.25664978 2.90600261 2 4.79604584 2 8 C-0.31 8.66 -2.62 9.32 -5 10 C-6.76462683 6.91190305 -7 5.76687864 -7 2 C-4.35261084 0.5393715 -3.10551666 0 0 0 Z " fill="#B62525" transform="translate(342,431)"/>
<path d="M0 0 C2.35723489 2.53184488 3 3.47190093 3 7 C0.6875 8.75 0.6875 8.75 -2 10 C-5 9 -5 9 -7 6 C-7 5.01 -7 4.02 -7 3 C-4.46815512 0.64276511 -3.52809907 0 0 0 Z " fill="#B62626" transform="translate(386,408)"/>
<path d="M0 0 C4.55384615 -0.36923077 4.55384615 -0.36923077 6.8125 1.5 C7.204375 1.995 7.59625 2.49 8 3 C7.67 3.99 7.34 4.98 7 6 C4.03 5.505 4.03 5.505 1 5 C0.67 3.35 0.34 1.7 0 0 Z " fill="#F9EDED" transform="translate(439,333)"/>
<path d="M0 0 C1.65 0 3.3 0 5 0 C5 1.65 5 3.3 5 5 C3.125 5.625 3.125 5.625 1 6 C0.34 5.34 -0.32 4.68 -1 4 C-0.625 1.875 -0.625 1.875 0 0 Z " fill="#F9EDED" transform="translate(424,362)"/>
<path d="M0 0 C1.32 0.66 2.64 1.32 4 2 C3.34 3.65 2.68 5.3 2 7 C-0.475 6.01 -0.475 6.01 -3 5 C-1.125 1.125 -1.125 1.125 0 0 Z " fill="#F7E9E9" transform="translate(106,162)"/>
<path d="M0 0 C0.99 0.66 1.98 1.32 3 2 C2.67 3.65 2.34 5.3 2 7 C-0.475 6.01 -0.475 6.01 -3 5 C-1.125 1.125 -1.125 1.125 0 0 Z " fill="#F8EBEB" transform="translate(416,123)"/>
<path d="M0 0 C1.32 0.66 2.64 1.32 4 2 C3.67 3.32 3.34 4.64 3 6 C1.35 5.67 -0.3 5.34 -2 5 C-1.34 3.35 -0.68 1.7 0 0 Z " fill="#F5E2E2" transform="translate(414,353)"/>
<path d="M0 0 C2.50037734 2.17424117 3.43628586 3.73045798 4 7 C2.68 7 1.36 7 0 7 C0 4.69 0 2.38 0 0 Z " fill="#F8EBEB" transform="translate(310,427)"/>
</svg>
