<?xml version="1.0" encoding="UTF-8"?>
<svg version="1.1" xmlns="http://www.w3.org/2000/svg" width="396" height="75">
<path d="M0 0 C7.59 0 15.18 0 23 0 C23 4.29 23 8.58 23 13 C21.35 13 19.7 13 18 13 C18.09459403 17.23212139 18.20090028 21.46375025 18.31738281 25.6953125 C18.35531893 27.13045513 18.39022862 28.56568146 18.421875 30.00097656 C18.60397498 38.16133173 18.96062705 46.04620584 21 54 C26.59066702 55.14706465 26.59066702 55.14706465 31.9375 53.75 C34.25931761 52.08669291 34.25931761 52.08669291 35 49 C35.15370348 46.27116927 35.25728265 43.56302858 35.31640625 40.83203125 C35.33718735 40.03721848 35.35796844 39.2424057 35.37937927 38.42350769 C35.44472087 35.88659237 35.50368808 33.34957427 35.5625 30.8125 C35.60569986 29.09178628 35.64931463 27.37108292 35.69335938 25.65039062 C35.80038648 21.43369887 35.90169724 17.2169038 36 13 C34.68 13 33.36 13 32 13 C32 8.71 32 4.42 32 0 C39.59 0 47.18 0 55 0 C55 3.96 55 7.92 55 12 C53.35 12 51.7 12 50 12 C50.01571045 13.23041016 50.0314209 14.46082031 50.04760742 15.72851562 C50.10216262 20.32057067 50.13644281 24.91259741 50.16479492 29.50488281 C50.17982344 31.4873538 50.20025198 33.46979186 50.22631836 35.45214844 C50.26296383 38.31193193 50.27978604 41.17127344 50.29296875 44.03125 C50.30845261 44.90865845 50.32393646 45.78606689 50.33988953 46.69006348 C50.34177 53.66334337 49.2241762 59.21977975 44.75 64.8125 C37.13085132 70.87318645 29.54031437 71.03677398 20 70 C13.35260802 68.14251401 9.23437987 65.05427906 5.83984375 59.0625 C3.67514194 53.74639508 3.86804974 48.40383591 3.90234375 42.76171875 C3.90446617 41.44056816 3.90446617 41.44056816 3.90663147 40.09272766 C3.91221063 37.29094997 3.92475929 34.48925338 3.9375 31.6875 C3.94251769 29.78320428 3.94708013 27.87890731 3.95117188 25.97460938 C3.96217323 21.31637519 3.97942351 16.65820133 4 12 C2.68 12 1.36 12 0 12 C0 8.04 0 4.08 0 0 Z " fill="#0020A5" transform="translate(1,3)"/>
<path d="M0 0 C15.51 0 31.02 0 47 0 C47 6.27 47 12.54 47 19 C43.04 19 39.08 19 35 19 C35 16.69 35 14.38 35 12 C29.39 12 23.78 12 18 12 C18 17.28 18 22.56 18 28 C23.28 28 28.56 28 34 28 C34 31.96 34 35.92 34 40 C28.72 40 23.44 40 18 40 C18 45.61 18 51.22 18 57 C19.32 57 20.64 57 22 57 C22 60.96 22 64.92 22 69 C14.74 69 7.48 69 0 69 C0 65.04 0 61.08 0 57 C1.32 57 2.64 57 4 57 C4 42.15 4 27.3 4 12 C2.68 12 1.36 12 0 12 C0 8.04 0 4.08 0 0 Z " fill="#0020A5" transform="translate(57,3)"/>
<path d="M0 0 C4.3924631 -0.07482575 8.78457672 -0.12891683 13.17749023 -0.16479492 C14.66811598 -0.17977042 16.15869851 -0.20015819 17.64916992 -0.22631836 C37.10989087 -0.55903602 37.10989087 -0.55903602 43.9375 5.6875 C48.38776395 12.83489361 48.82315029 19.87869416 47 28 C44.42416599 34.07896826 40.13235086 39.27424204 33.93286133 41.86328125 C26.99179461 44.11233392 20.63084881 44.35941865 13.375 44.1875 C12.27542969 44.17396484 11.17585938 44.16042969 10.04296875 44.14648438 C7.36144668 44.111508 4.68099927 44.06243072 2 44 C2.33 42.68 2.66 41.36 3 40 C3.66 40 4.32 40 5 40 C4.505 22.675 4.505 22.675 4 5 C2.68 4.67 1.36 4.34 0 4 C0 2.68 0 1.36 0 0 Z M15 5 C15 16.22 15 27.44 15 39 C21.43246312 40.28649262 26.23550677 39.68273501 31.875 36.25 C37.29557332 30.51056942 37.52280882 24.85514619 37.35546875 17.29296875 C36.77469467 11.91283083 34.97353376 9.78851497 31 6.1875 C26.5389009 3.53872241 19.7233701 2.63831495 15 5 Z " fill="#0020A4" transform="translate(307,29)"/>
<path d="M0 0 C4.32326033 -0.0992011 8.64591024 -0.17162265 12.9699707 -0.21972656 C14.43948921 -0.23978825 15.90892841 -0.26704478 17.37817383 -0.30175781 C19.49580487 -0.35052141 21.61237687 -0.37302161 23.73046875 -0.390625 C25.00301514 -0.41157227 26.27556152 -0.43251953 27.58666992 -0.45410156 C31.57731488 0.07680464 33.17915793 1.18928487 36 4 C37.5547669 7.10953379 37.28644437 9.56266761 37 13 C34.84600395 17.00027838 32.6515794 19.391729 29 22 C30.76173949 24.63121001 32.53590875 27.25379979 34.3125 29.875 C34.81201172 30.62136719 35.31152344 31.36773437 35.82617188 32.13671875 C36.31279297 32.85214844 36.79941406 33.56757812 37.30078125 34.3046875 C37.74591064 34.96452637 38.19104004 35.62436523 38.6496582 36.30419922 C40.07371576 38.26968525 40.07371576 38.26968525 43 40 C43 41.32 43 42.64 43 44 C38.54446901 45.44503708 35.42296256 45.64393299 31 44 C25.06282224 37.83446925 18.70963134 28.49575888 17 20 C18.11375 19.7525 19.2275 19.505 20.375 19.25 C23.93116367 18.35498229 23.93116367 18.35498229 25.5 16.3125 C26.20700866 13.04258494 25.62603019 10.25535699 25 7 C22.03 6.01 19.06 5.02 16 4 C16 15.88 16 27.76 16 40 C17.65 40 19.3 40 21 40 C21 41.32 21 42.64 21 44 C14.07 44 7.14 44 0 44 C0 42.68 0 41.36 0 40 C1.65 40 3.3 40 5 40 C5 28.12 5 16.24 5 4 C3.35 4 1.7 4 0 4 C0 2.68 0 1.36 0 0 Z " fill="#0020A5" transform="translate(241,29)"/>
<path d="M0 0 C3.88145505 3.17573595 6.16703954 6.50111861 7.75 11.25 C8.38916577 19.40198306 8.75619433 27.40163866 3.75 34.25 C-2.11678261 40.25955829 -8.48755257 42.2065995 -16.6875 42.5625 C-22.87944744 42.39139264 -28.15439038 40.87991859 -33.0625 37.0625 C-39.04002406 29.37711193 -40.27637731 23.03813479 -39.25 13.25 C-38.0319133 8.02159709 -35.00862059 4.00862059 -31.25 0.25 C-21.14086327 -4.98508866 -10.07268123 -5.42375143 0 0 Z M-25.25 4.25 C-29.40175493 10.4776324 -29.77734315 17.22436877 -28.5625 24.4375 C-27.24492619 30.16182405 -25.24630741 33.91912839 -20.25 37.25 C-15.59070788 37.92915105 -11.53332624 37.90531553 -7.3125 35.75 C-2.57121371 30.00298632 -1.72795144 24.17371091 -1.96875 16.9296875 C-2.56865995 11.21387882 -4.08567678 7.5806551 -7.875 3.25 C-13.58318733 -0.13262953 -20.06494442 -0.32504904 -25.25 4.25 Z " fill="#0020A5" transform="translate(234.25,31.75)"/>
<path d="M0 0 C1.98 0 3.96 0 6 0 C7.61933194 3.62464269 9.23665425 7.25017526 10.85229492 10.87646484 C11.66549764 12.70064423 12.48018916 14.52415969 13.29492188 16.34765625 C13.82021484 17.52714844 14.34550781 18.70664062 14.88671875 19.921875 C15.41185059 21.09685547 15.93698242 22.27183594 16.47802734 23.48242188 C18.3726222 27.86120319 20.08012316 32.30471482 21.73754883 36.77832031 C22.79169367 39.18076555 22.79169367 39.18076555 25.1472168 39.82324219 C25.75863525 39.88157227 26.37005371 39.93990234 27 40 C27 41.32 27 42.64 27 44 C20.4 44 13.8 44 7 44 C7 42.68 7 41.36 7 40 C8.32 40 9.64 40 11 40 C10.01 37.36 9.02 34.72 8 32 C3.05 31.67 -1.9 31.34 -7 31 C-7.66 33.97 -8.32 36.94 -9 40 C-7.68 40 -6.36 40 -5 40 C-5 41.32 -5 42.64 -5 44 C-9.95 44 -14.9 44 -20 44 C-20 42.68 -20 41.36 -20 40 C-19.40977051 39.98678711 -18.81954102 39.97357422 -18.21142578 39.95996094 C-15.21746093 38.66030651 -14.6649557 36.74957766 -13.46359253 33.83111572 C-13.18427887 33.10825378 -12.90496521 32.38539185 -12.6171875 31.640625 C-12.31684601 30.89923279 -12.01650452 30.15784058 -11.70706177 29.39398193 C-10.7485027 27.01819324 -9.8116034 24.63451826 -8.875 22.25 C-8.23708569 20.65828891 -7.59777865 19.06713524 -6.95703125 17.4765625 C-5.28814362 13.32413272 -3.64210174 9.16309043 -2 5 C-1.33450575 3.33286484 -0.66841348 1.66596688 0 0 Z M0 13 C-1.65 17.29 -3.3 21.58 -5 26 C-1.37 26 2.26 26 6 26 C4.35 21.71 2.7 17.42 1 13 C0.67 13 0.34 13 0 13 Z " fill="#0020A5" transform="translate(368,29)"/>
<path d="M0 0 C10.89 0 21.78 0 33 0 C32.67 3.63 32.34 7.26 32 11 C31.01 11 30.02 11 29 11 C28.67 9.02 28.34 7.04 28 5 C24.04 5 20.08 5 16 5 C15.67 9.62 15.34 14.24 15 19 C18.3 19 21.6 19 25 19 C25.33 17.68 25.66 16.36 26 15 C26.99 15 27.98 15 29 15 C29 19.62 29 24.24 29 29 C28.01 29 27.02 29 26 29 C25.505 26.525 25.505 26.525 25 24 C21.7 23.67 18.4 23.34 15 23 C15.33 28.61 15.66 34.22 16 40 C17.98 40 19.96 40 22 40 C22 41.32 22 42.64 22 44 C14.74 44 7.48 44 0 44 C0 42.68 0 41.36 0 40 C1.65 40 3.3 40 5 40 C5 28.12 5 16.24 5 4 C3.35 4 1.7 4 0 4 C0 2.68 0 1.36 0 0 Z " fill="#0020A5" transform="translate(126,29)"/>
<path d="M0 0 C6.93 0 13.86 0 21 0 C21 1.32 21 2.64 21 4 C19.35 4 17.7 4 16 4 C16 15.22 16 26.44 16 38 C23.24696416 38.54615699 23.24696416 38.54615699 30 37 C30.65555119 34.47266765 30.65555119 34.47266765 31 32 C32.32 32 33.64 32 35 32 C34.85962479 33.81293089 34.71255111 35.6253443 34.5625 37.4375 C34.48128906 38.44683594 34.40007812 39.45617187 34.31640625 40.49609375 C34 43 34 43 33 44 C30.70848583 44.08790975 28.41427476 44.10694038 26.12109375 44.09765625 C25.09110008 44.09553383 25.09110008 44.09553383 24.04029846 44.09336853 C21.83932199 44.08775479 19.63844591 44.07520007 17.4375 44.0625 C15.94856917 44.05748676 14.45963676 44.05292355 12.97070312 44.04882812 C9.31376925 44.03778093 5.65689442 44.02050713 2 44 C2 43.01 2 42.02 2 41 C2.99 40.34 3.98 39.68 5 39 C5.26697888 36.37537756 5.34832984 33.98934067 5.29296875 31.3671875 C5.28872391 30.61535187 5.28447906 29.86351624 5.28010559 29.08889771 C5.2632917 26.68390315 5.22563624 24.27974191 5.1875 21.875 C5.17245659 20.24610584 5.15876758 18.61719856 5.14648438 16.98828125 C5.11337954 12.99186566 5.06158009 8.99607418 5 5 C3.35 4.67 1.7 4.34 0 4 C0 2.68 0 1.36 0 0 Z " fill="#0020A5" transform="translate(160,29)"/>
<path d="M0 0 C6.6 0 13.2 0 20 0 C20 1.32 20 2.64 20 4 C18.35 4 16.7 4 15 4 C15 15.88 15 27.76 15 40 C16.65 40 18.3 40 20 40 C20 41.32 20 42.64 20 44 C13.4 44 6.8 44 0 44 C0 42.68 0 41.36 0 40 C1.98 39.505 1.98 39.505 4 39 C4 27.78 4 16.56 4 5 C2.68 4.67 1.36 4.34 0 4 C0 2.68 0 1.36 0 0 Z " fill="#0020A4" transform="translate(286,29)"/>
<path d="M0 0 C1.32 0 2.64 0 4 0 C4 23.1 4 46.2 4 70 C2.68 70 1.36 70 0 70 C0 46.9 0 23.8 0 0 Z " fill="#FA4515" transform="translate(114,3)"/>
<path d="M0 0 C4.22797927 -0.88082902 4.22797927 -0.88082902 7 0 C10.07589556 3.04914864 12.55020182 6.43665719 15 10 C15.33 7.36 15.66 4.72 16 2 C15.34 2 14.68 2 14 2 C14 1.34 14 0.68 14 0 C16.31 0 18.62 0 21 0 C21 0.66 21 1.32 21 2 C20.34 2 19.68 2 19 2 C19 7.61 19 13.22 19 19 C13.41120602 17.8822412 12.91972815 17.26539871 9.6875 12.9375 C8.99011719 12.01839844 8.29273438 11.09929688 7.57421875 10.15234375 C7.05472656 9.44207031 6.53523437 8.73179688 6 8 C5.67 10.97 5.34 13.94 5 17 C5.66 17 6.32 17 7 17 C7 17.66 7 18.32 7 19 C4.69 19 2.38 19 0 19 C0 18.34 0 17.68 0 17 C0.66 17 1.32 17 2 17 C2 12.05 2 7.1 2 2 C1.34 2 0.68 2 0 2 C0 1.34 0 0.68 0 0 Z " fill="#0020A5" transform="translate(151,3)"/>
<path d="M0 0 C1.93742341 -0.02703381 3.87495479 -0.04641125 5.8125 -0.0625 C6.89144531 -0.07410156 7.97039062 -0.08570313 9.08203125 -0.09765625 C12 0 12 0 15 1 C16.25668449 6.52941176 16.25668449 6.52941176 14.875 9.0625 C14.58625 9.701875 14.2975 10.34125 14 11 C15.32827311 13.85578718 16.14643942 15.57321971 19 17 C19 17.66 19 18.32 19 19 C16.3125 19.4375 16.3125 19.4375 13 19 C10.95224699 16.88875077 9.46519774 14.54140493 8 12 C7.67 13.65 7.34 15.3 7 17 C7.66 17 8.32 17 9 17 C9 17.66 9 18.32 9 19 C6.03 19 3.06 19 0 19 C0 18.34 0 17.68 0 17 C0.66 17 1.32 17 2 17 C2 12.05 2 7.1 2 2 C1.34 2 0.68 2 0 2 C0 1.34 0 0.68 0 0 Z M7 3 C7 4.98 7 6.96 7 9 C8.32 8.34 9.64 7.68 11 7 C10.67 5.68 10.34 4.36 10 3 C9.01 3 8.02 3 7 3 Z " fill="#0020A5" transform="translate(234,3)"/>
<path d="M0 0 C4.95 0 9.9 0 15 0 C15 1.65 15 3.3 15 5 C14.34 5 13.68 5 13 5 C13 4.34 13 3.68 13 3 C11.35 3.33 9.7 3.66 8 4 C7.67 5.32 7.34 6.64 7 8 C8.32 8 9.64 8 11 8 C11 7.34 11 6.68 11 6 C11.66 6 12.32 6 13 6 C13 8.31 13 10.62 13 13 C12.34 13 11.68 13 11 13 C10.67 12.34 10.34 11.68 10 11 C9.01 10.67 8.02 10.34 7 10 C7 11.98 7 13.96 7 16 C8.98 16 10.96 16 13 16 C13 15.34 13 14.68 13 14 C13.66 14 14.32 14 15 14 C15 15.65 15 17.3 15 19 C10.38 19 5.76 19 1 19 C1.33 17.68 1.66 16.36 2 15 C2.06743348 12.91765408 2.08514472 10.83331443 2.0625 8.75 C2.05347656 7.67234375 2.04445312 6.5946875 2.03515625 5.484375 C2.02355469 4.66453125 2.01195312 3.8446875 2 3 C1.34 2.67 0.68 2.34 0 2 C0 1.34 0 0.68 0 0 Z " fill="#0020A4" transform="translate(214,3)"/>
<path d="M0 0 C3.3 0 6.6 0 10 0 C10 0.66 10 1.32 10 2 C9.01 2.495 9.01 2.495 8 3 C7.97301811 4.62490954 7.95361243 6.24994633 7.9375 7.875 C7.92589844 8.77992187 7.91429687 9.68484375 7.90234375 10.6171875 C7.83750743 13.0168585 7.83750743 13.0168585 9 15 C10.66611905 15.042721 12.33382885 15.04063832 14 15 C15.81115956 13.18884044 15.38199448 10.38721773 15.5625 7.9375 C15.64628906 6.83277344 15.73007813 5.72804688 15.81640625 4.58984375 C15.87699219 3.73519531 15.93757812 2.88054688 16 2 C15.01 1.67 14.02 1.34 13 1 C14 0 14 0 17.0625 -0.0625 C18.5165625 -0.0315625 18.5165625 -0.0315625 20 0 C19.74503693 2.60662244 19.47179707 5.20905522 19.1875 7.8125 C19.11724609 8.55048828 19.04699219 9.28847656 18.97460938 10.04882812 C18.6386394 13.01880269 18.35340523 15.45547834 16.70703125 17.9921875 C14.51081308 19.28881058 13.04112381 19.36755768 10.5 19.3125 C9.7265625 19.30863281 8.953125 19.30476563 8.15625 19.30078125 C6 19 6 19 3 17 C2.55859375 13.77734375 2.55859375 13.77734375 2.4375 9.9375 C2.35991501 7.6217055 2.23027085 5.30562333 2 3 C1.34 2.67 0.68 2.34 0 2 C0 1.34 0 0.68 0 0 Z " fill="#0020A6" transform="translate(126,3)"/>
<path d="M0 0 C1.21236328 0.02707031 1.21236328 0.02707031 2.44921875 0.0546875 C3.37154297 0.08949219 3.37154297 0.08949219 4.3125 0.125 C5.3125 3.125 5.3125 3.125 4.3125 6.125 C3.6525 6.125 2.9925 6.125 2.3125 6.125 C2.3125 5.135 2.3125 4.145 2.3125 3.125 C0.6625 3.455 -0.9875 3.785 -2.6875 4.125 C-2.6875 4.785 -2.6875 5.445 -2.6875 6.125 C-2.12160156 6.28355469 -1.55570312 6.44210938 -0.97265625 6.60546875 C1.23910073 7.30903292 3.26102697 8.03663957 5.3125 9.125 C6.67343431 12.073691 6.59332582 13.3473285 5.5 16.375 C4.3125 18.125 4.3125 18.125 2.3125 19.125 C0.81600638 19.24505453 -0.68624793 19.30031451 -2.1875 19.3125 C-2.9815625 19.32667969 -3.775625 19.34085938 -4.59375 19.35546875 C-6.6875 19.125 -6.6875 19.125 -8.6875 17.125 C-8.3125 15 -8.3125 15 -7.6875 13.125 C-7.0275 13.125 -6.3675 13.125 -5.6875 13.125 C-5.6875 14.115 -5.6875 15.105 -5.6875 16.125 C-3.7075 16.125 -1.7275 16.125 0.3125 16.125 C0.3125 15.135 0.3125 14.145 0.3125 13.125 C-2.3275 12.135 -4.9675 11.145 -7.6875 10.125 C-7.98046875 4.0703125 -7.98046875 4.0703125 -7.6875 2.125 C-4.48369983 -0.01086678 -3.66810033 -0.10632175 0 0 Z " fill="#0020A6" transform="translate(265.6875,2.875)"/>
<path d="M0 0 C0.7425 0.0825 1.485 0.165 2.25 0.25 C1.92 1.9 1.59 3.55 1.25 5.25 C-0.07 4.59 -1.39 3.93 -2.75 3.25 C-3.08 4.9 -3.41 6.55 -3.75 8.25 C-2.43 8.25 -1.11 8.25 0.25 8.25 C0.25 8.91 0.25 9.57 0.25 10.25 C-1.07 10.58 -2.39 10.91 -3.75 11.25 C-3.98074219 12.19101563 -4.21148437 13.13203125 -4.44921875 14.1015625 C-7.84954058 27.08460949 -7.84954058 27.08460949 -12.75 31.25 C-14.07 31.25 -15.39 31.25 -16.75 31.25 C-16.42 29.6 -16.09 27.95 -15.75 26.25 C-14.43 26.58 -13.11 26.91 -11.75 27.25 C-11.70101563 26.693125 -11.65203125 26.13625 -11.6015625 25.5625 C-11.08444423 20.28432735 -10.14537537 15.36637635 -8.75 10.25 C-9.74 9.92 -10.73 9.59 -11.75 9.25 C-10.08333333 7.58333333 -8.41666667 5.91666667 -6.75 4.25 C-6.09 3.486875 -5.43 2.72375 -4.75 1.9375 C-2.75 0.25 -2.75 0.25 0 0 Z " fill="#0020A7" transform="translate(369.75,0.75)"/>
<path d="M0 0 C2.97 0 5.94 0 9 0 C8.67 0.99 8.34 1.98 8 3 C8.92203709 5.36522558 9.91698965 7.70401807 11 10 C12.77706209 7.33440687 13.87548273 4.9719385 15 2 C14.34 2 13.68 2 13 2 C13 1.34 13 0.68 13 0 C15.31 0 17.62 0 20 0 C18.37003104 4.13822218 16.63344645 8.22768778 14.875 12.3125 C14.59785156 12.95767578 14.32070312 13.60285156 14.03515625 14.26757812 C13.35732446 15.84529005 12.67873926 17.42267826 12 19 C10.203125 18.93359375 10.203125 18.93359375 8 18 C6.71097601 15.66142667 5.7084493 13.52952895 4.75 11.0625 C4.481875 10.41603516 4.21375 9.76957031 3.9375 9.10351562 C2 4.34378986 2 4.34378986 2 2 C1.34 2 0.68 2 0 2 C0 1.34 0 0.68 0 0 Z " fill="#0020A4" transform="translate(190,3)"/>
<path d="M0 0 C5.94 0 11.88 0 18 0 C18 1.65 18 3.3 18 5 C17.01 5 16.02 5 15 5 C15 4.34 15 3.68 15 3 C13.68 3 12.36 3 11 3 C11.11344376 5.1464753 11.24106345 7.29220592 11.375 9.4375 C11.44460938 10.63246094 11.51421875 11.82742188 11.5859375 13.05859375 C11.72257812 14.02925781 11.85921875 14.99992187 12 16 C12.66 16.33 13.32 16.66 14 17 C14 17.66 14 18.32 14 19 C10.7 19 7.4 19 4 19 C4 18.34 4 17.68 4 17 C4.66 16.67 5.32 16.34 6 16 C6.46954261 12.95418731 6.46954261 12.95418731 6.625 9.4375 C6.69976562 8.23996094 6.77453125 7.04242188 6.8515625 5.80859375 C6.90054687 4.88175781 6.94953125 3.95492188 7 3 C5.68 3 4.36 3 3 3 C3 3.66 3 4.32 3 5 C2.01 5 1.02 5 0 5 C0 3.35 0 1.7 0 0 Z " fill="#0020A4" transform="translate(290,3)"/>
<path d="M0 0 C2.1875 -0.375 2.1875 -0.375 5 0 C6.99022836 1.83961648 8.38989899 3.79186148 10 6 C10.598125 5.01 11.19625 4.02 11.8125 3 C12.8953125 1.515 12.8953125 1.515 14 0 C14.99 0 15.98 0 17 0 C16.00790606 2.67102214 15.00824802 4.98746301 13.4375 7.375 C11.68594884 10.57348473 11.35324922 13.39685799 11 17 C11.66 17 12.32 17 13 17 C13 17.66 13 18.32 13 19 C10.03 19 7.06 19 4 19 C4 18.34 4 17.68 4 17 C4.66 17 5.32 17 6 17 C5.07934219 10.69280693 4.0022542 7.08078632 -1 3 C-0.67 2.01 -0.34 1.02 0 0 Z " fill="#0020A4" transform="translate(312,3)"/>
<path d="M0 0 C1 1 1 1 1.3125 4.75 C1.28250539 8.09139976 1.01454648 8.97721051 -0.875 11.9375 C-3.75389167 14.73171839 -4.46543492 14.98124333 -8.5625 15.125 C-12 15 -12 15 -13 14 C-13.57750191 9.41785372 -13.60577083 6.00265517 -11.1875 2 C-7.40374182 -1.45943605 -4.78077646 -1.03929923 0 0 Z M-7 2 C-8.83691257 5.78187881 -9.15837626 7.94568308 -8 12 C-7.01 12 -6.02 12 -5 12 C-3.16308743 8.21812119 -2.84162374 6.05431692 -4 2 C-4.99 2 -5.98 2 -7 2 Z " fill="#0020A5" transform="translate(355,9)"/>
<path d="M0 0 C2.97 0 5.94 0 9 0 C9 0.66 9 1.32 9 2 C8.34 2 7.68 2 7 2 C7 6.95 7 11.9 7 17 C7.66 17 8.32 17 9 17 C9 17.66 9 18.32 9 19 C6.03 19 3.06 19 0 19 C0 18.34 0 17.68 0 17 C0.66 17 1.32 17 2 17 C2 12.05 2 7.1 2 2 C1.34 2 0.68 2 0 2 C0 1.34 0 0.68 0 0 Z " fill="#0021A4" transform="translate(277,3)"/>
<path d="M0 0 C2.97 0 5.94 0 9 0 C9 0.66 9 1.32 9 2 C8.34 2 7.68 2 7 2 C7 6.95 7 11.9 7 17 C7.66 17 8.32 17 9 17 C9 17.66 9 18.32 9 19 C6.03 19 3.06 19 0 19 C0 18.34 0 17.68 0 17 C0.66 17 1.32 17 2 17 C2 12.05 2 7.1 2 2 C1.34 2 0.68 2 0 2 C0 1.34 0 0.68 0 0 Z " fill="#0020A4" transform="translate(177,3)"/>
</svg>
