<?xml version="1.0" encoding="UTF-8"?>
<svg version="1.1" xmlns="http://www.w3.org/2000/svg" width="745" height="594">
<path d="M0 0 C245.85 0 491.7 0 745 0 C745 196.02 745 392.04 745 594 C499.15 594 253.3 594 0 594 C0 397.98 0 201.96 0 0 Z " fill="#A4925A" transform="translate(0,0)"/>
<path d="M0 0 C0.87929169 0.00115814 1.75858337 0.00231628 2.66452026 0.00350952 C17.22881576 0.04136462 31.36060887 0.93329012 45.75 3.3125 C47.03519531 3.49425781 48.32039062 3.67601563 49.64453125 3.86328125 C73.28250588 7.76314912 97.51096894 17.66310559 117.75 30.3125 C118.08 21.0725 118.41 11.8325 118.75 2.3125 C137.89 2.3125 157.03 2.3125 176.75 2.3125 C176.75 35.3125 176.75 68.3125 176.75 102.3125 C167.448125 102.51875 158.14625 102.725 148.5625 102.9375 C144.19801636 103.07406006 144.19801636 103.07406006 139.74536133 103.21337891 C117.91698064 103.61115608 117.91698064 103.61115608 110.83203125 97.55859375 C109.09891045 95.8486499 107.3975521 94.10503669 105.75 92.3125 C98.19030216 86.71923906 89.4575375 82.54115849 81 78.5 C80.24444824 78.13898193 79.48889648 77.77796387 78.71044922 77.40600586 C68.77830998 72.78368322 58.94927142 69.66953935 48.1875 67.625 C47.12853516 67.41294922 46.06957031 67.20089844 44.97851562 66.98242188 C12.19927051 60.58006778 -21.34484216 64.93426352 -49.43359375 83.77734375 C-71.54357111 99.26615142 -87.69191932 120.04151355 -92.77612305 147.11401367 C-95.25790669 163.86509429 -94.43427984 180.90017851 -87.25 196.3125 C-86.78207031 197.35148438 -86.31414062 198.39046875 -85.83203125 199.4609375 C-73.75870075 223.60759851 -48.67301164 238.74961306 -23.88671875 247.1875 C12.10266621 258.32062875 51.6598986 258.30009062 85.6875 241 C108.38073314 227.99076866 122.60039613 209.33611356 129.75 184.3125 C122.16 184.3125 114.57 184.3125 106.75 184.3125 C106.75 186.6225 106.75 188.9325 106.75 191.3125 C105.43 197.9125 104.11 204.5125 102.75 211.3125 C86.25 211.3125 69.75 211.3125 52.75 211.3125 C52.75 180.9525 52.75 150.5925 52.75 119.3125 C170.89 119.3125 289.03 119.3125 410.75 119.3125 C410.75 149.6725 410.75 180.0325 410.75 211.3125 C394.25 211.3125 377.75 211.3125 360.75 211.3125 C356.75 187.3125 356.75 187.3125 356.75 183.3125 C332.66 183.3125 308.57 183.3125 283.75 183.3125 C283.75 226.2125 283.75 269.1125 283.75 313.3125 C294.31 313.3125 304.87 313.3125 315.75 313.3125 C315.75 332.1225 315.75 350.9325 315.75 370.3125 C268.89 370.3125 222.03 370.3125 173.75 370.3125 C173.75 351.5025 173.75 332.6925 173.75 313.3125 C183.98 313.3125 194.21 313.3125 204.75 313.3125 C204.75 270.4125 204.75 227.5125 204.75 183.3125 C197.82 183.3125 190.89 183.3125 183.75 183.3125 C183.75 220.2725 183.75 257.2325 183.75 295.3125 C163.62 295.3125 143.49 295.3125 122.75 295.3125 C122.42 291.3525 122.09 287.3925 121.75 283.3125 C120.57566406 283.89257812 119.40132813 284.47265625 118.19140625 285.0703125 C107.58582282 290.24642394 97.04948366 294.88557079 85.75 298.3125 C84.84475586 298.58803711 83.93951172 298.86357422 83.00683594 299.14746094 C54.55157009 307.59085276 23.8855946 312.52868783 -5.8125 312.625 C-6.58567566 312.62761841 -7.35885132 312.63023682 -8.15545654 312.63293457 C-21.8664952 312.63788734 -34.83746388 311.24649228 -48.25 308.3125 C-49.7391677 308.01871862 -51.22873013 307.72692832 -52.71875 307.4375 C-70.40148448 303.82836018 -87.49156863 297.0394794 -103.25 288.3125 C-103.86359375 287.97669922 -104.4771875 287.64089844 -105.109375 287.29492188 C-138.85572523 268.61390657 -167.44028821 238.77777717 -178.85498047 201.32763672 C-189.6798564 163.55475741 -184.14741165 127.73568136 -165.359375 93.63671875 C-161.22117199 86.39999137 -156.53600423 79.74960597 -151.25 73.3125 C-150.74404297 72.6952002 -150.23808594 72.07790039 -149.71679688 71.44189453 C-141.01365734 60.91346829 -131.96227742 51.82918009 -121.25 43.3125 C-120.28320312 42.51714844 -119.31640625 41.72179687 -118.3203125 40.90234375 C-96.76435458 23.59724267 -70.83889289 11.91149082 -44.1875 5.125 C-43.20628174 4.87468018 -42.22506348 4.62436035 -41.21411133 4.36645508 C-27.3811002 0.96598838 -14.18052642 -0.05773844 0 0 Z " fill="#FEFEFE" transform="translate(248.25,101.6875)"/>
<path d="M0 0 C24.09 0 48.18 0 73 0 C73 0.33 73 0.66 73 1 C49.24 1 25.48 1 1 1 C1 43.24 1 85.48 1 129 C11.56 129 22.12 129 33 129 C33 140.88 33 152.76 33 165 C45.87 165 58.74 165 72 165 C72 177.21 72 189.42 72 202 C59.13 202 46.26 202 33 202 C33 197.38 33 192.76 33 188 C-14.52 188 -62.04 188 -111 188 C-111 168.53 -111 149.06 -111 129 C-100.44 129 -89.88 129 -79 129 C-79 129.33 -79 129.66 -79 130 C-89.23 130 -99.46 130 -110 130 C-110 148.81 -110 167.62 -110 187 C-63.14 187 -16.28 187 32 187 C32 168.19 32 149.38 32 130 C21.44 130 10.88 130 0 130 C0 87.1 0 44.2 0 0 Z " fill="#B7A97D" transform="translate(532,285)"/>
<path d="M0 0 C12.87 0 25.74 0 39 0 C39 6.27 39 12.54 39 19 C26.13 19 13.26 19 0 19 C0 12.73 0 6.46 0 0 Z " fill="#AFA070" transform="translate(565,450)"/>
</svg>
