<?xml version="1.0" encoding="UTF-8"?>
<svg version="1.1" xmlns="http://www.w3.org/2000/svg" width="617" height="616">
<path d="M0 0 C203.61 0 407.22 0 617 0 C617 203.28 617 406.56 617 616 C413.39 616 209.78 616 0 616 C0 412.72 0 209.44 0 0 Z " fill="#FEFEFE" transform="translate(0,0)"/>
<path d="M0 0 C137.61 0 275.22 0 417 0 C417 199.08609272 417 199.08609272 406 244 C405.79294434 244.84788086 405.58588867 245.69576172 405.37255859 246.56933594 C404.13923901 251.45648833 402.62354539 256.22908792 401 261 C400.63422852 262.09425293 400.26845703 263.18850586 399.89160156 264.31591797 C393.92951618 282.04259928 387.31503727 299.21769852 379 316 C378.52449707 316.96341309 378.04899414 317.92682617 377.55908203 318.91943359 C367.93717188 338.25005363 356.95098845 356.71085365 344 374 C343.39575195 374.81041748 343.39575195 374.81041748 342.77929688 375.63720703 C336.50218499 384.03073026 329.84489657 392.06542128 323 400 C322.36191406 400.73992187 321.72382813 401.47984375 321.06640625 402.2421875 C319.38877014 404.17166275 317.69591168 406.08657118 316 408 C315.36408936 408.72074707 314.72817871 409.44149414 314.07299805 410.18408203 C308.39593941 416.56269694 302.48780772 422.66347892 296.4375 428.6875 C295.54353516 429.58533203 294.64957031 430.48316406 293.72851562 431.40820312 C288.64785459 436.48143085 283.47068724 441.35122821 278 446 C276.99049361 446.87715344 275.98135207 447.75472705 274.97265625 448.6328125 C266.2435584 456.10820099 257.19676053 463.11096884 248 470 C247.34708984 470.49032715 246.69417969 470.9806543 246.02148438 471.48583984 C236.89218511 478.32348916 227.53510462 484.74363311 218 491 C216.99066406 491.77472656 215.98132813 492.54945313 214.94140625 493.34765625 C212 495 212 495 209.10546875 494.98828125 C205.2777829 493.77016236 201.82590466 492.10367777 198.3125 490.1875 C197.57918457 489.79224121 196.84586914 489.39698242 196.09033203 488.98974609 C177.91888293 479.03515238 160.95342088 467.19940888 145 454 C143.99582031 453.16984375 142.99164063 452.3396875 141.95703125 451.484375 C127.13362769 439.13265813 112.34044914 425.98754999 99.87890625 411.21484375 C98.32907134 409.38790738 96.75213024 407.59917317 95.15234375 405.81640625 C86.71823716 396.35659933 79.21735395 386.41141697 72 376 C71.55027832 375.35562988 71.10055664 374.71125977 70.63720703 374.04736328 C43.52325876 335.02422153 22.03660915 288.61157703 12 242 C11.76619629 240.92427734 11.53239258 239.84855469 11.29150391 238.74023438 C8.40212254 225.26742006 5.82527309 211.74792148 3.75 198.125 C3.59909912 197.15498047 3.44819824 196.18496094 3.29272461 195.18554688 C-6.03999062 130.78718287 0 65.07110619 0 0 Z " fill="#A41C30" transform="translate(97,70)"/>
<path d="M0 0 C2.01104286 1.00187696 4.01577723 2.0083591 6.0012207 3.06028748 C11.89603516 5.98218469 16.67215581 6.50574166 23.1875 6.28515625 C24.13004639 6.27238144 25.07259277 6.25960663 26.04370117 6.2464447 C29.02985267 6.20454969 32.01447637 6.13619575 35 6.0625 C37.98544097 5.9941219 40.97037759 5.93217861 43.95629883 5.88926697 C45.80537941 5.86232854 47.65432997 5.82107451 49.50268555 5.76271057 C54.79390375 5.68104476 59.04454205 6.36451142 63.9987793 8.25144958 C66.01815996 9.00679268 67.86397907 9.68216882 70 10 C70.66 9.34 71.32 8.68 72 8 C78.59608495 6.35097876 85.53503814 6.68363187 92.234375 7.49609375 C96.9782696 8.04499851 101.66462892 8.19236135 106.4375 8.1875 C107.26717285 8.18669434 108.0968457 8.18588867 108.95166016 8.18505859 C115.76807232 8.1168811 122.30067101 7.71432319 128.5625 4.8125 C132.38417152 3.53860949 136.09256169 4.24000709 140 5 C140.99 5.495 140.99 5.495 142 6 C145.29547313 6.13300116 148.5846113 6.24786559 151.8828125 6.25390625 C156.27130788 6.40889029 159.56076834 7.09718304 162.89648438 10.26611328 C165.21331944 13.90641476 164.886838 18.1248088 164.875 22.3125 C164.9059375 23.70952148 164.9059375 23.70952148 164.9375 25.13476562 C164.98446018 27.4240742 165.00445527 29.71030978 165 32 C165.72445312 32.01417969 166.44890625 32.02835937 167.1953125 32.04296875 C176.09104888 32.48182508 176.09104888 32.48182508 179.6875 35.125 C182 38 182 38 182.6875 41.5 C181.82680898 45.88169975 180.49351084 47.2828249 177 50 C173.97692258 51.59109338 171.66711574 52.04438457 168.25 52.5 C167.1775 52.665 166.105 52.83 165 53 C163.79046605 55.41906791 163.84320092 57.02166308 163.79467773 59.72509766 C163.77473251 60.70596344 163.75478729 61.68682922 163.73423767 62.69741821 C163.71752518 63.75891083 163.70081268 64.82040344 163.68359375 65.9140625 C163.6524221 67.54122696 163.6524221 67.54122696 163.62062073 69.20126343 C163.55509366 72.67577621 163.49622553 76.15036624 163.4375 79.625 C163.39431779 81.97657058 163.3507036 84.32813326 163.30664062 86.6796875 C163.19940907 92.4530427 163.09764856 98.2264752 163 104 C164.33804688 104.07347656 164.33804688 104.07347656 165.703125 104.1484375 C166.87359375 104.22320312 168.0440625 104.29796875 169.25 104.375 C170.41015625 104.44460938 171.5703125 104.51421875 172.765625 104.5859375 C175.73725798 104.96636394 177.54931019 105.32382065 180 107 C181.8288519 111.02347418 182.48868809 114.60180719 182 119 C179.67087145 122.26077998 176.34867126 123.7164009 172.4921875 124.52734375 C170.7427075 124.80151599 168.9926984 125.07233244 167.2421875 125.33984375 C164.63962928 125.84559166 164.63962928 125.84559166 163 129 C162.69948843 131.07641048 162.69948843 131.07641048 162.7265625 133.34375 C162.7059375 134.17777344 162.6853125 135.01179687 162.6640625 135.87109375 C162.6380223 137.62359926 162.61979205 139.37623824 162.609375 141.12890625 C162.58617187 141.96292969 162.56296875 142.79695312 162.5390625 143.65625 C162.53084473 144.41744141 162.52262695 145.17863281 162.51416016 145.96289062 C161.78901524 148.83592444 160.47906714 149.44027033 158 151 C149.79950504 153.39178994 141.09807301 153.28290879 132.62876511 153.27439499 C130.46575949 153.27341127 128.30322635 153.28658177 126.14028931 153.30337524 C120.00046251 153.34911752 113.86069519 153.37425117 107.72070312 153.38085938 C103.93947623 153.38590539 100.1587583 153.41029323 96.37770462 153.44618607 C94.9513824 153.45589652 93.52498949 153.45836454 92.09864426 153.45301437 C84.3985021 153.42545693 77.98901299 153.7344486 70.97622681 157.09512329 C68.13560608 158.39578955 66.05876923 158.56907334 63 158 C62.28176056 157.33839874 61.56352112 156.67679749 60.82351685 155.99514771 C57.2293433 153.45544014 54.37075592 153.47534071 50.13623047 153.57763672 C49.36003357 153.5802652 48.58383667 153.58289368 47.78411865 153.58560181 C45.22797175 153.5985456 42.67303626 153.63938254 40.1171875 153.6796875 C38.337914 153.69223331 36.55862482 153.70271184 34.77932739 153.71121216 C30.10148382 153.73778653 25.42416499 153.78664205 20.74658203 153.84191895 C13.25271686 153.92824939 5.75870736 153.98756297 -1.73550034 154.0340004 C-4.3542283 154.05446413 -6.97253224 154.08855722 -9.59109497 154.12399292 C-11.1923993 154.13764655 -12.79370743 154.15086407 -14.39501953 154.16357422 C-15.12443756 154.17704895 -15.85385559 154.19052368 -16.6053772 154.20440674 C-20.31267542 154.22117907 -21.82571705 154.11618863 -25 152 C-26.4094695 146.82926048 -26.11457789 141.44495676 -26.0625 136.125 C-26.05798828 135.24585938 -26.05347656 134.36671875 -26.04882812 133.4609375 C-26.03712337 131.30726197 -26.01919069 129.15362183 -26 127 C-27.41152344 126.97873047 -27.41152344 126.97873047 -28.8515625 126.95703125 C-40.30235879 126.51843967 -40.30235879 126.51843967 -43.8125 123.875 C-46.48875729 120.35763328 -47.23699464 118.42389998 -47 114 C-44.6875 111.0625 -44.6875 111.0625 -42 109 C-41.34 109 -40.68 109 -40 109 C-40 108.01 -40 107.02 -40 106 C-34.06 105.505 -34.06 105.505 -28 105 C-26.9957566 99.19345773 -26.86955387 93.57634207 -26.90234375 87.69140625 C-26.90446617 86.24132423 -26.90446617 86.24132423 -26.90663147 84.76194763 C-26.91219779 81.69543268 -26.92474401 78.62899262 -26.9375 75.5625 C-26.94251935 73.47461043 -26.9470815 71.38671972 -26.95117188 69.29882812 C-26.96215618 64.1991902 -26.97939745 59.09960777 -27 54 C-28.10859375 53.84144531 -29.2171875 53.68289063 -30.359375 53.51953125 C-31.82309445 53.28496083 -33.286627 53.0492221 -34.75 52.8125 C-35.47960937 52.71130859 -36.20921875 52.61011719 -36.9609375 52.50585938 C-40.82269719 51.85638161 -42.5884022 51.3979859 -45.48046875 48.6015625 C-47.5437533 45.06904961 -47.63667729 43.03228947 -47 39 C-45.20104326 36.03271711 -43.15299143 33.57649572 -40 32 C-37.44842345 31.9283265 -34.92527029 31.90691558 -32.375 31.9375 C-31.31539062 31.94426758 -31.31539062 31.94426758 -30.234375 31.95117188 C-28.48954725 31.96296125 -26.744763 31.98089676 -25 32 C-25.01571045 31.37955811 -25.0314209 30.75911621 -25.04760742 30.11987305 C-25.10996214 27.30917472 -25.14899148 24.49862188 -25.1875 21.6875 C-25.21263672 20.71103516 -25.23777344 19.73457031 -25.26367188 18.72851562 C-25.27333984 17.79072266 -25.28300781 16.85292969 -25.29296875 15.88671875 C-25.3086792 15.02264404 -25.32438965 14.15856934 -25.34057617 13.26831055 C-24.92385564 10.49286222 -24.21724623 9.66982607 -22 8 C-17.76575555 6.58858518 -13.56982591 6.66854765 -9.12890625 6.4765625 C-5.77381821 5.96555034 -4.41643492 5.32285999 -2 3 C-1.34 2.01 -0.68 1.02 0 0 Z " fill="#2A2929" transform="translate(236,316)"/>
<path d="M0 0 C2.5 0.875 2.5 0.875 3.71875 2.890625 C5.42833471 5.21087621 5.42833471 5.21087621 8.75 5.4140625 C9.9875 5.44242187 11.225 5.47078125 12.5 5.5 C19.21009772 5.68173181 19.21009772 5.68173181 22.5 7.875 C23.38639389 10.53418166 23.67989025 12.35564641 23.81640625 15.10546875 C23.87924805 16.30913086 23.87924805 16.30913086 23.94335938 17.53710938 C23.98267578 18.37048828 24.02199219 19.20386719 24.0625 20.0625 C24.10568359 20.90748047 24.14886719 21.75246094 24.19335938 22.62304688 C24.29931518 24.70684433 24.4001502 26.79090103 24.5 28.875 C27.51844672 30.38422336 30.65334785 30.20907047 33.9921875 30.3984375 C36.9913148 30.96836512 38.39071862 31.66481905 40.5 33.875 C41.64413388 38.97231371 41.26287764 43.5333876 38.6875 48.0625 C35.1892984 50.05167346 33.72972233 50.07224536 29.80078125 49.98828125 C28.80860596 49.97192627 27.81643066 49.95557129 26.79418945 49.9387207 C26.03710693 49.91769287 25.28002441 49.89666504 24.5 49.875 C23.94059121 63.41090741 23.40590222 76.95255582 23.25 90.5 C23.22873047 91.42248535 23.20746094 92.3449707 23.18554688 93.29541016 C23.18103516 94.13894043 23.17652344 94.9824707 23.171875 95.8515625 C23.15785645 96.95105225 23.15785645 96.95105225 23.14355469 98.07275391 C23.26118164 98.66749512 23.37880859 99.26223633 23.5 99.875 C26.67871815 101.99414544 28.23329537 102.23012874 31.9375 102.6875 C35.65156883 103.32616263 37.21323277 103.64158481 40.1875 106.0625 C41.86023715 109.64693675 41.98983394 111.95632845 41.5 115.875 C39.84860695 119.4136994 38.78394771 120.68570153 35.5 122.875 C32.8359375 123.25390625 32.8359375 123.25390625 29.875 123.4375 C26.3749469 123.37775129 26.3749469 123.37775129 23.5 124.875 C23.33375201 126.30264529 23.22434875 127.73702316 23.140625 129.171875 C23.07617188 130.0484375 23.01171875 130.925 22.9453125 131.828125 C22.81626188 133.67612992 22.70141034 135.5251874 22.6015625 137.375 C22.53195312 138.25671875 22.46234375 139.1384375 22.390625 140.046875 C22.31376465 141.2548877 22.31376465 141.2548877 22.23535156 142.48730469 C21.04084625 146.36587771 19.93117859 147.58805112 16.5 149.875 C12.46366469 150.43038514 8.49394964 150.37746768 4.42626762 150.25082397 C2.34520343 150.18670227 0.26574031 150.15436573 -1.81614685 150.13012695 C-6.23231936 150.07312866 -10.64716522 149.97690156 -15.0625 149.875 C-20.18414468 149.75690011 -25.30503022 149.65500192 -30.42771721 149.5953064 C-32.47608578 149.5629396 -34.52211763 149.50043359 -36.56971741 149.43676758 C-38.43701759 149.41199341 -38.43701759 149.41199341 -40.34204102 149.38671875 C-41.43726578 149.36053467 -42.53249054 149.33435059 -43.66090393 149.30737305 C-47.45479525 150.06589439 -48.3194472 151.79213988 -50.5 154.875 C-54.45778178 156.2822113 -56.20395083 155.98037343 -60.1875 154.5625 C-63.5 152.875 -63.5 152.875 -66.5 150.875 C-68.44178213 150.55662137 -68.44178213 150.55662137 -70.578125 150.57202148 C-71.39748535 150.55537949 -72.2168457 150.53873749 -73.06103516 150.52159119 C-73.94839355 150.51317703 -74.83575195 150.50476288 -75.75 150.49609375 C-76.67731934 150.47909927 -77.60463867 150.4621048 -78.56005859 150.44459534 C-81.53996873 150.39144725 -84.51987151 150.35130627 -87.5 150.3125 C-95.16732435 150.19569011 -102.83400787 150.06065554 -110.5 149.875 C-111.43376465 149.85254211 -112.3675293 149.83008423 -113.32958984 149.8069458 C-115.99152814 149.73407612 -118.65160462 149.63887 -121.3125 149.53515625 C-122.11316895 149.5143248 -122.91383789 149.49349335 -123.73876953 149.47203064 C-125.95703125 149.37133789 -125.95703125 149.37133789 -129.5 148.875 C-131.70192224 145.57211664 -131.73959968 144.60037273 -131.6953125 140.76953125 C-131.68886719 139.78662109 -131.68242187 138.80371094 -131.67578125 137.79101562 C-131.65902344 136.76685547 -131.64226562 135.74269531 -131.625 134.6875 C-131.61597656 133.65173828 -131.60695312 132.61597656 -131.59765625 131.54882812 C-131.5740786 128.99065315 -131.5411703 126.43294252 -131.5 123.875 C-132.41523438 123.74222656 -133.33046875 123.60945313 -134.2734375 123.47265625 C-135.46195313 123.29605469 -136.65046875 123.11945313 -137.875 122.9375 C-139.05835938 122.76347656 -140.24171875 122.58945313 -141.4609375 122.41015625 C-144.5 121.875 -144.5 121.875 -146.5 120.875 C-146.5 120.215 -146.5 119.555 -146.5 118.875 C-147.16 118.875 -147.82 118.875 -148.5 118.875 C-150.10847182 115.65805636 -150.11309149 112.35362778 -149.5 108.875 C-147.32425584 106.18394802 -145.58934144 104.41967072 -142.5 102.875 C-138.54 102.875 -134.58 102.875 -130.5 102.875 C-131.16 85.385 -131.82 67.895 -132.5 49.875 C-136.46 49.545 -140.42 49.215 -144.5 48.875 C-147.75 47.3125 -147.75 47.3125 -149.5 44.875 C-150.07426711 40.35264652 -150.04603237 38.04152369 -148.125 33.9375 C-146.5 31.875 -146.5 31.875 -144.5 30.875 C-142.69129862 30.67120266 -140.87763408 30.50999005 -139.0625 30.375 C-135.93691282 30.14193358 -133.48575171 29.87025057 -130.5 28.875 C-130.51571045 28.28485107 -130.5314209 27.69470215 -130.54760742 27.08666992 C-130.60997939 24.41204414 -130.64899657 21.73757136 -130.6875 19.0625 C-130.71263672 18.13373047 -130.73777344 17.20496094 -130.76367188 16.24804688 C-130.77333984 15.35537109 -130.78300781 14.46269531 -130.79296875 13.54296875 C-130.8086792 12.72078857 -130.82438965 11.8986084 -130.84057617 11.05151367 C-130.5 8.875 -130.5 8.875 -129.19848633 7.10644531 C-126.03233937 4.81090912 -121.74086213 5.43915796 -117.94921875 5.43554688 C-115.71157837 5.40967723 -115.71157837 5.40967723 -112.5 4.875 C-110.69820184 2.95638044 -110.69820184 2.95638044 -109.5 0.875 C-105.30039082 0.27505583 -102.17661046 0.94270588 -98.28125 2.36328125 C-91.02383428 4.59607627 -83.58323521 4.40887026 -76.0625 4.5 C-73.87789346 4.53662294 -71.69345923 4.57722948 -69.50901794 4.62265015 C-67.54594718 4.66196864 -65.5826589 4.68994605 -63.61938477 4.71728516 C-60.5 4.875 -60.5 4.875 -57.5 5.875 C-57.5 6.535 -57.5 7.195 -57.5 7.875 C-55.89536551 7.56491116 -54.29130769 7.25183713 -52.6875 6.9375 C-51.79417969 6.76347656 -50.90085937 6.58945313 -49.98046875 6.41015625 C-47.38602829 5.89758847 -47.38602829 5.89758847 -44.5 4.875 C-42.32085429 4.82633421 -40.14016634 4.83802367 -37.9609375 4.8828125 C-36.65769531 4.89957031 -35.35445313 4.91632813 -34.01171875 4.93359375 C-31.95141542 4.96434455 -29.89154833 4.99962435 -27.83154297 5.04638672 C-18.26228771 5.25195363 -8.06422992 -0.4032115 0 0 Z " fill="#2C2A2A" transform="translate(261.5,122.125)"/>
<path d="M0 0 C5.00727683 0.51799415 9.22322933 1.3738653 14 3 C18.59900815 3.76827978 23.08794848 4.15608294 27.74609375 4.28125 C28.99583984 4.31863281 30.24558594 4.35601562 31.53320312 4.39453125 C32.82162109 4.42933594 34.11003906 4.46414062 35.4375 4.5 C49.7765043 4.88851291 49.7765043 4.88851291 54.84765625 5.59375 C55.88792969 5.7278125 56.92820312 5.861875 58 6 C58.33 5.67 58.66 5.34 59 5 C61.55921305 4.87677015 64.09555645 4.81385686 66.65625 4.7890625 C68.25261382 4.76095984 69.84896783 4.73229522 71.4453125 4.703125 C73.96190762 4.66210948 76.47832626 4.62522904 78.99511719 4.59863281 C92.8755909 5.22953486 92.8755909 5.22953486 105 0 C107.8125 -0.375 107.8125 -0.375 111 0 C111.85271484 1.22976562 111.85271484 1.22976562 112.72265625 2.484375 C114.85060345 5.35799188 114.85060345 5.35799188 118.6015625 5.6015625 C119.94235706 5.63323481 121.28392 5.64041471 122.625 5.625 C125.13691878 5.625 127.48891019 5.74712679 130 6 C132.05438106 9.0815716 132.26519155 9.90170438 132.37890625 13.4140625 C132.41306641 14.25710937 132.44722656 15.10015625 132.48242188 15.96875 C132.52206055 17.28359375 132.52206055 17.28359375 132.5625 18.625 C132.62218635 20.36733336 132.68577496 22.10953893 132.75390625 23.8515625 C132.77783447 24.62322754 132.8017627 25.39489258 132.82641602 26.18994141 C132.80820442 28.02032971 132.80820442 28.02032971 134 29 C136.45078225 29.24507823 138.90048334 29.38356043 141.359375 29.5234375 C144.5864571 30.10583989 146.46784368 30.9017998 149 33 C149.9687496 37.05165275 149.67200563 40.90584805 149 45 C147.1875 47.75 147.1875 47.75 144 49 C142.10199584 49.08525758 140.200493 49.1061237 138.30078125 49.078125 C137.30860596 49.0668457 136.31643066 49.05556641 135.29418945 49.04394531 C134.53710693 49.02944336 133.78002441 49.01494141 133 49 C132.80672851 56.08383029 132.6292437 63.16792815 132.46289062 70.25244141 C132.40438153 72.66399146 132.34221752 75.07545565 132.27636719 77.48681641 C132.18250871 80.94678111 132.10166753 84.40683864 132.0234375 87.8671875 C131.99124115 88.95055389 131.9590448 90.03392029 131.9258728 91.15011597 C131.89561508 92.65144577 131.89561508 92.65144577 131.86474609 94.18310547 C131.84253998 95.06690887 131.82033386 95.95071228 131.79745483 96.86129761 C131.79126907 99.21612835 131.79126907 99.21612835 134 101 C135.76045171 101.33167931 137.53450502 101.59355881 139.3125 101.8125 C143.03599099 102.45751419 144.95846651 102.97312539 148.1875 105.0625 C150.66555241 109.07865391 150.94867077 112.39463464 150 117 C147.60557901 120.2200834 144.6848524 122.73119954 140.625 123.37890625 C139.75875 123.43949219 138.8925 123.50007813 138 123.5625 C135.04658849 123.77785292 132.8317192 124.0560936 130 125 C130.02356567 125.87736816 130.02356567 125.87736816 130.04760742 126.77246094 C130.11010267 129.43154164 130.14903569 132.09046764 130.1875 134.75 C130.21263672 135.67039062 130.23777344 136.59078125 130.26367188 137.5390625 C130.27817383 138.87324219 130.27817383 138.87324219 130.29296875 140.234375 C130.31653442 141.45979004 130.31653442 141.45979004 130.34057617 142.70996094 C129.89884241 145.68018509 129.11818833 146.86786805 127 149 C124.17158508 149.48101807 124.17158508 149.48101807 120.69262695 149.45410156 C119.39150467 149.45379944 118.09038239 149.45349731 116.74983215 149.45318604 C115.32930898 149.43275932 113.90879204 149.41189533 112.48828125 149.390625 C111.0352608 149.38316369 109.58223028 149.37747024 108.12919617 149.37347412 C104.30667285 149.35820878 100.48475847 149.3189202 96.66247559 149.2746582 C92.76139565 149.23372432 88.86021722 149.21546719 84.95898438 149.1953125 C77.30571211 149.15242596 69.65294141 149.08416485 62 149 C61.67 149.99 61.34 150.98 61 152 C58.58257912 153.81306566 56.6645107 154.87428176 53.6875 155.4375 C49.65079639 154.7803622 44.94983285 152.94983285 42 150 C38.96402678 149.85125859 35.9482451 149.76453438 32.91015625 149.71875 C31.51137489 149.69113586 31.51137489 149.69113586 30.08433533 149.66296387 C27.07712336 149.60403297 24.06984807 149.55148168 21.0625 149.5 C13.37410381 149.36432615 5.68678584 149.2090119 -2 149 C-2.89712708 148.97647461 -3.79425415 148.95294922 -4.71856689 148.92871094 C-7.23133816 148.8550988 -9.74221597 148.75991425 -12.25390625 148.65625 C-12.99833481 148.63566528 -13.74276337 148.61508057 -14.50975037 148.59387207 C-17.35911497 148.45662919 -19.52036575 148.30146907 -21.96582031 146.7644043 C-23.33855198 144.42239962 -23.34220636 142.8213496 -23.29296875 140.11328125 C-23.28330078 139.17548828 -23.27363281 138.23769531 -23.26367188 137.27148438 C-23.23853516 136.29501953 -23.21339844 135.31855469 -23.1875 134.3125 C-23.16719727 132.83040039 -23.16719727 132.83040039 -23.14648438 131.31835938 C-23.11112661 128.87867383 -23.05731962 126.43926837 -23 124 C-27.95 122.68 -32.9 121.36 -38 120 C-38 119.34 -38 118.68 -38 118 C-38.66 118 -39.32 118 -40 118 C-41.12256131 115.75487738 -41.13413762 114.48543351 -41.125 112 C-41.12886719 110.948125 -41.12886719 110.948125 -41.1328125 109.875 C-41 108 -41 108 -40 106 C-39.34 106 -38.68 106 -38 106 C-38 105.34 -38 104.68 -38 104 C-34 102 -34 102 -23 101 C-22.67 83.51 -22.34 66.02 -22 48 C-26.29 48 -30.58 48 -35 48 C-40 45 -40 45 -41 43 C-41.04004365 38.85147825 -40.63527657 35.15504831 -38.625 31.5 C-34.98692415 29.42109951 -31.60197694 29.37006594 -27.4609375 29.17578125 C-24.99605866 29.15734258 -24.99605866 29.15734258 -23 28 C-22.98541748 27.40985107 -22.97083496 26.81970215 -22.95581055 26.21166992 C-22.88131156 23.53628771 -22.78466005 20.86215108 -22.6875 18.1875 C-22.66494141 17.25873047 -22.64238281 16.32996094 -22.61914062 15.37304688 C-22.58369141 14.48037109 -22.54824219 13.58769531 -22.51171875 12.66796875 C-22.48553467 11.84578857 -22.45935059 11.0236084 -22.43237305 10.17651367 C-21.90121088 7.50270752 -21.19412875 6.59079854 -19 5 C-15.56909337 4.65472868 -12.2467281 4.56360919 -8.8046875 4.56054688 C-4.41410205 4.49244744 -4.41410205 4.49244744 -1 1.96484375 C-0.67 1.31644531 -0.34 0.66804688 0 0 Z " fill="#2C2B2B" transform="translate(351,123)"/>
<path d="M0 0 C137.61 0 275.22 0 417 0 C417 199.08609272 417 199.08609272 406 244 C405.79294434 244.84788086 405.58588867 245.69576172 405.37255859 246.56933594 C404.13923901 251.45648833 402.62354539 256.22908792 401 261 C400.63422852 262.09425293 400.26845703 263.18850586 399.89160156 264.31591797 C393.92951618 282.04259928 387.31503727 299.21769852 379 316 C378.52449707 316.96341309 378.04899414 317.92682617 377.55908203 318.91943359 C367.93717188 338.25005363 356.95098845 356.71085365 344 374 C343.39575195 374.81041748 343.39575195 374.81041748 342.77929688 375.63720703 C336.50218499 384.03073026 329.84489657 392.06542128 323 400 C322.36191406 400.73992187 321.72382813 401.47984375 321.06640625 402.2421875 C319.38877014 404.17166275 317.69591168 406.08657118 316 408 C315.36408936 408.72074707 314.72817871 409.44149414 314.07299805 410.18408203 C308.39593941 416.56269694 302.48780772 422.66347892 296.4375 428.6875 C295.54353516 429.58533203 294.64957031 430.48316406 293.72851562 431.40820312 C288.64785459 436.48143085 283.47068724 441.35122821 278 446 C276.99049361 446.87715344 275.98135207 447.75472705 274.97265625 448.6328125 C266.2435584 456.10820099 257.19676053 463.11096884 248 470 C247.34708984 470.49032715 246.69417969 470.9806543 246.02148438 471.48583984 C236.89218511 478.32348916 227.53510462 484.74363311 218 491 C216.99066406 491.77472656 215.98132813 492.54945313 214.94140625 493.34765625 C212 495 212 495 209.10546875 494.98828125 C205.2777829 493.77016236 201.82590466 492.10367777 198.3125 490.1875 C197.57918457 489.79224121 196.84586914 489.39698242 196.09033203 488.98974609 C177.91888293 479.03515238 160.95342088 467.19940888 145 454 C143.99582031 453.16984375 142.99164063 452.3396875 141.95703125 451.484375 C127.13362769 439.13265813 112.34044914 425.98754999 99.87890625 411.21484375 C98.32907134 409.38790738 96.75213024 407.59917317 95.15234375 405.81640625 C86.71823716 396.35659933 79.21735395 386.41141697 72 376 C71.55027832 375.35562988 71.10055664 374.71125977 70.63720703 374.04736328 C43.52325876 335.02422153 22.03660915 288.61157703 12 242 C11.76619629 240.92427734 11.53239258 239.84855469 11.29150391 238.74023438 C8.40212254 225.26742006 5.82527309 211.74792148 3.75 198.125 C3.59909912 197.15498047 3.44819824 196.18496094 3.29272461 195.18554688 C-6.03999062 130.78718287 0 65.07110619 0 0 Z M6 5 C2.54965039 107.30982713 2.54965039 107.30982713 11.4375 210.125 C11.65212891 211.32817871 11.86675781 212.53135742 12.08789062 213.77099609 C13.67725457 222.54904845 15.3916689 231.28663908 17.50390625 239.95458984 C17.83257162 241.30968751 18.15300174 242.66681115 18.46484375 244.02587891 C31.06133214 298.82320598 57.42597757 350.73455912 92.625 394.375 C93.10251709 394.96821045 93.58003418 395.5614209 94.07202148 396.17260742 C102.41831739 406.34678242 111.6077313 415.79446157 120.90673828 425.09204102 C122.50453893 426.69204519 124.09411551 428.29993615 125.68359375 429.90820312 C132.1320991 436.39172602 138.81975953 442.32052969 146 448 C147.17413137 448.97620462 148.34523063 449.95608123 149.51171875 450.94140625 C165.31632151 464.0786901 182.79099404 475.48165598 201 485 C201.67160156 485.38091797 202.34320313 485.76183594 203.03515625 486.15429688 C203.72480469 486.53134766 204.41445313 486.90839844 205.125 487.296875 C205.74632812 487.64588867 206.36765625 487.99490234 207.0078125 488.35449219 C209.73251634 489.23734966 211.27781188 488.85178479 214 488 C216.47514157 486.63597986 216.47514157 486.63597986 218.921875 484.859375 C219.85636475 484.20751221 220.79085449 483.55564941 221.75366211 482.8840332 C222.74245361 482.17980225 223.73124512 481.47557129 224.75 480.75 C225.77552979 480.02707764 226.80105957 479.30415527 227.85766602 478.55932617 C236.74476179 472.25872665 245.46050929 465.76345944 254 459 C254.69206543 458.45214844 255.38413086 457.90429688 256.09716797 457.33984375 C263.74273438 451.26146861 271.2238251 445.07124177 278.375 438.4140625 C280.42692302 436.52702615 282.50526757 434.70744322 284.62109375 432.89453125 C289.49396799 428.64462592 294.05872932 424.09178649 298.6184082 419.51196289 C300.06025221 418.06475615 301.50737116 416.62297974 302.95507812 415.18164062 C308.18196717 409.95928438 313.24097436 404.65367276 318 399 C318.5458374 398.35554932 319.0916748 397.71109863 319.65405273 397.04711914 C356.05583386 353.7917356 382.06409573 306.03865126 399 252 C399.42181641 250.69399149 399.84368074 249.38799846 400.265625 248.08203125 C423.3809903 172.77363876 412 72.23402298 412 5 C278.02 5 144.04 5 6 5 Z " fill="#2E2A2A" transform="translate(97,70)"/>
<path d="M0 0 C1.557525 1.557525 1.13873484 3.05726037 1.15390015 5.22467041 C1.16250061 6.13596207 1.17110107 7.04725372 1.17996216 7.98616028 C1.18422211 8.99394028 1.18848206 10.00172028 1.19287109 11.04003906 C1.20513733 12.62291969 1.20513733 12.62291969 1.21765137 14.23777771 C1.24256343 17.74705426 1.25903661 21.2562902 1.2734375 24.765625 C1.27876118 25.96101646 1.28408485 27.15640793 1.28956985 28.38802338 C1.31632725 34.71554423 1.33569349 41.04304518 1.35009766 47.37060547 C1.36674783 53.91585139 1.41152207 60.46059402 1.4624691 67.00564957 C1.4960836 72.02934363 1.50766885 77.05291746 1.51332474 82.07671356 C1.5200537 84.48970128 1.53531806 86.90268063 1.55921555 89.31555939 C1.59074293 92.69158703 1.59092183 96.06624734 1.58349609 99.44238281 C1.59990143 100.44206589 1.61630676 101.44174896 1.63320923 102.47172546 C1.59078246 107.17711587 1.55632435 109.28544295 -1.41146851 113.09735107 C-4.88437054 115.65003909 -6.5408161 116.12761028 -10.78173828 116.17358398 C-11.77682404 116.18707382 -12.77190979 116.20056366 -13.79714966 116.21446228 C-15.41736526 116.23011986 -15.41736526 116.23011986 -17.0703125 116.24609375 C-19.3515661 116.27904848 -21.63281601 116.31225984 -23.9140625 116.34570312 C-27.51494657 116.39300578 -31.11581744 116.43739951 -34.71679688 116.47680664 C-38.18896664 116.51669742 -41.6608195 116.56821909 -45.1328125 116.62109375 C-46.20081085 116.6295079 -47.2688092 116.63792206 -48.36917114 116.64659119 C-54.24489898 116.74302509 -59.36468603 117.3114326 -65 119 C-66.21983748 116.56032503 -66.12051527 115.00095476 -66.11352539 112.27490234 C-66.11344986 111.29403656 -66.11337433 110.31317078 -66.11329651 109.30258179 C-66.10813522 108.24108917 -66.10297394 107.17959656 -66.09765625 106.0859375 C-66.0962413 105.00116119 -66.09482635 103.91638489 -66.09336853 102.79873657 C-66.08775802 99.32413 -66.07520372 95.84958719 -66.0625 92.375 C-66.05748635 90.02343843 -66.05292321 87.67187585 -66.04882812 85.3203125 C-66.03778518 79.54685314 -66.02103679 73.77343112 -66 68 C-64.02 67.01 -64.02 67.01 -62 66 C-58.31452768 71.68176982 -58.76003687 76.44100771 -59 83 C-54.71 83 -50.42 83 -46 83 C-45.67 82.34 -45.34 81.68 -45 81 C-45.5775 80.79375 -46.155 80.5875 -46.75 80.375 C-51.2031807 77.65361179 -53.03455366 73.52762705 -54.23828125 68.62890625 C-54.60710577 66.94241962 -54.96455565 65.25341792 -55.3125 63.5625 C-56.79945089 56.70456435 -58.57447931 50.11203618 -60.84912109 43.47338867 C-63.94627893 34.31613057 -65.65311479 25.94968695 -65.6875 16.25 C-65.69434814 15.26725098 -65.70119629 14.28450195 -65.70825195 13.27197266 C-65.53281485 6.51195577 -65.53281485 6.51195577 -63.21020508 4.28027344 C-59.6830561 2.23715301 -56.57613693 1.87476417 -52.54199219 1.93408203 C-51.22977692 1.94871994 -51.22977692 1.94871994 -49.89105225 1.96365356 C-48.95247375 1.97822601 -48.01389526 1.99279846 -47.046875 2.0078125 C-45.04557805 2.0253358 -43.04427563 2.0422434 -41.04296875 2.05859375 C-37.89844539 2.0894849 -34.75419744 2.12493799 -31.60986328 2.17138672 C-28.56799989 2.21394698 -25.52645619 2.23723208 -22.484375 2.2578125 C-21.08865265 2.28574387 -21.08865265 2.28574387 -19.66473389 2.3142395 C-15.25224965 2.33141513 -11.70937536 2.08924704 -7.59472656 0.42138672 C-3.99024472 -1.00385732 -3.39765592 -1.20414749 0 0 Z " fill="#FBFBFB" transform="translate(371,327)"/>
<path d="M0 0 C2.56695636 0.39491636 4.67123994 0.83561997 7 2 C14.74346231 2.96656294 22.4960625 3.06592589 30.28515625 2.95703125 C31.08239105 2.94686981 31.87962585 2.93670837 32.70101929 2.92623901 C35.99562166 2.88074474 39.28971782 2.83068399 42.58374023 2.75317383 C45.02597628 2.69873286 47.4674663 2.6696516 49.91015625 2.64453125 C51.01956322 2.60885796 51.01956322 2.60885796 52.15138245 2.57246399 C55.69427061 2.55447536 57.86149822 2.92127363 60.96191406 4.68359375 C63.41919783 7.47644334 63.65276303 8.73736594 63.69921875 12.41796875 C63.72205933 14.03384888 63.72205933 14.03384888 63.74536133 15.68237305 C63.72626709 16.83906494 63.70717285 17.99575684 63.6875 19.1875 C63.671427 20.98344604 63.671427 20.98344604 63.6550293 22.81567383 C63.31574152 35.37922775 60.54516007 47.00099669 57 59 C56.76023437 59.83789062 56.52046875 60.67578125 56.2734375 61.5390625 C52.30948573 75.3445497 52.30948573 75.3445497 49 81 C48.01 81.33 47.02 81.66 46 82 C46.33 82.99 46.66 83.98 47 85 C49.33294775 85.04241723 51.66702567 85.04092937 54 85 C55.6867675 83.3132325 55.24530779 81.05975646 55.375 78.75 C55.71786235 74.42768613 56.23292438 71.48892144 59 68 C62.875 68.875 62.875 68.875 64 70 C64.11371663 73.11679123 64.16419665 76.21056031 64.16796875 79.328125 C64.17296135 80.73985992 64.17296135 80.73985992 64.17805481 82.18011475 C64.18312968 84.17752594 64.18546296 86.17494565 64.18530273 88.17236328 C64.18748081 91.22312538 64.20560729 94.27352111 64.22460938 97.32421875 C64.22754489 99.26301959 64.22952863 101.20182216 64.23046875 103.140625 C64.23765427 104.05225403 64.24483978 104.96388306 64.25224304 105.90313721 C64.23618235 110.37836552 64.12582146 113.93687431 62 118 C55.22282764 117.90702165 48.44598905 117.7996322 41.66918945 117.68261719 C39.36780871 117.64453249 37.06637259 117.60964538 34.76489258 117.578125 C31.44071775 117.53202593 28.11691751 117.47410875 24.79296875 117.4140625 C23.7779277 117.40251129 22.76288666 117.39096008 21.71708679 117.37905884 C4.61431903 117.03236271 4.61431903 117.03236271 0.38017941 113.74075699 C-1.39645805 111.49996564 -1.37260595 110.27174973 -1.36749268 107.43197632 C-1.37306183 106.49532639 -1.37863098 105.55867645 -1.3843689 104.59364319 C-1.37515411 103.56806808 -1.36593933 102.54249298 -1.35644531 101.48583984 C-1.35848969 100.40436172 -1.36053406 99.32288361 -1.36264038 98.20863342 C-1.36565408 94.62589741 -1.34715516 91.04361897 -1.328125 87.4609375 C-1.32506871 84.97897455 -1.3231916 82.49700989 -1.32244873 80.01504517 C-1.31725161 74.14429394 -1.29797649 68.27371233 -1.27259898 62.40301669 C-1.24764375 56.3835046 -1.24159025 50.36406169 -1.2375679 44.3445034 C-1.23342128 39.21974458 -1.22361064 34.09501061 -1.21169281 28.97026443 C-1.20597644 26.50377223 -1.20122229 24.03727761 -1.19742584 21.57078171 C-1.190589 18.13226824 -1.17696969 14.69385337 -1.16113281 11.25537109 C-1.16001495 10.22574753 -1.15889709 9.19612396 -1.15774536 8.13529968 C-1.15203522 7.2042894 -1.14632507 6.27327911 -1.14044189 5.3140564 C-1.13746723 4.50032248 -1.13449257 3.68658855 -1.13142776 2.84819603 C-1 1 -1 1 0 0 Z " fill="#FBFBFB" transform="translate(237,326)"/>
<path d="M0 0 C-0.08384916 14.42088303 -0.17909473 28.841652 -0.28752708 43.26237202 C-0.33753856 49.95801613 -0.3841132 56.65364031 -0.421875 63.34936523 C-0.45866647 69.80738113 -0.50500969 76.26526344 -0.55806351 82.72316551 C-0.57664013 85.19077404 -0.59173591 87.65841124 -0.60334396 90.12606239 C-0.62015042 93.57417192 -0.64917212 97.02197329 -0.68115234 100.4699707 C-0.68331253 101.49711685 -0.68547272 102.524263 -0.68769836 103.58253479 C-0.69886185 104.52062988 -0.71002533 105.45872498 -0.7215271 106.42524719 C-0.72982324 107.64892738 -0.72982324 107.64892738 -0.73828697 108.89732838 C-1 111 -1 111 -3 114 C-7.9736898 115.86344647 -12.34242581 116.21958448 -17.62109375 116.125 C-18.32468521 116.11742676 -19.02827667 116.10985352 -19.75318909 116.10205078 C-22.72972429 116.06970768 -25.70568402 116.01337377 -28.68188477 115.95898438 C-30.86992784 115.92251299 -33.057879 115.89852129 -35.24609375 115.875 C-36.54216553 115.85179687 -37.8382373 115.82859375 -39.17358398 115.8046875 C-42.20941165 115.95964584 -44.47771948 116.29798757 -47.35961914 117.0703125 C-51 118 -51 118 -53 117 C-52.93198181 116.32377594 -52.86396362 115.64755188 -52.79388428 114.95083618 C-51.88952163 104.82764837 -51.7860668 94.7252713 -51.67670441 84.56800461 C-51.61447441 79.10111475 -51.52765043 73.63458603 -51.4453125 68.16796875 C-51.3424217 61.23951945 -51.24693947 54.31118952 -51.17675781 47.38232422 C-51.11908671 41.75185428 -51.03755398 36.12217893 -50.93981171 30.49226761 C-50.9070959 28.35131039 -50.88327611 26.21019823 -50.86847687 24.06904221 C-50.846787 21.08863767 -50.79470298 18.11022923 -50.73535156 15.13037109 C-50.73619751 14.24520813 -50.73704346 13.36004517 -50.73791504 12.44805908 C-50.67577108 10.18660945 -50.58327279 8.18564631 -50 6 C-44.98228309 1.75519738 -39.19538266 1.87525219 -32.87109375 1.75390625 C-31.49283168 1.72098935 -30.11457662 1.68777737 -28.73632812 1.65429688 C-26.58150696 1.60681651 -24.42671855 1.56230433 -22.27172852 1.52319336 C-20.17957058 1.48342212 -18.08795218 1.43192176 -15.99609375 1.37890625 C-14.75013428 1.3538501 -13.5041748 1.32879395 -12.22045898 1.30297852 C-9.08406081 1.20813915 -9.08406081 1.20813915 -6.87524414 -0.08618164 C-4.305894 -1.33824226 -2.71827833 -0.63555133 0 0 Z " fill="#FDFDFD" transform="translate(457,130)"/>
<path d="M0 0 C-0.0838482 14.55126602 -0.17909344 29.102419 -0.28752708 43.65352345 C-0.33767111 50.40969893 -0.38411376 57.16586217 -0.421875 63.92211914 C-0.45830583 70.43848559 -0.50500886 76.95473089 -0.55806351 83.47098351 C-0.57664049 85.96092094 -0.59173613 88.45088679 -0.60334396 90.94086647 C-0.62014981 94.42010778 -0.64917136 97.89904364 -0.68115234 101.37817383 C-0.68331253 102.41467072 -0.68547272 103.4511676 -0.68769836 104.51907349 C-0.69886185 105.46558273 -0.71002533 106.41209198 -0.7215271 107.38728333 C-0.72982324 108.62202503 -0.72982324 108.62202503 -0.73828697 109.88171101 C-1 112 -1 112 -3 115 C-10.67597588 117.90364631 -18.85655161 117.18783567 -26.9375 117.0625 C-29.0736879 117.03461876 -31.20979482 117.00989445 -33.34608459 116.99131775 C-35.28670434 116.97370573 -37.22722777 116.94627039 -39.16772461 116.91821289 C-43.493811 117.01053875 -47.71173978 117.45115776 -52 118 C-51.89012883 108.86018899 -51.77713813 99.72042246 -51.66066074 90.58069324 C-51.6066032 86.33205017 -51.55343739 82.08340075 -51.50268555 77.8347168 C-51.2156908 53.88229294 -50.71769525 29.94348164 -50 6 C-44.80129559 3.64733416 -40.78760749 2.55955489 -35.01953125 2.55859375 C-34.28425705 2.54538589 -33.54898285 2.53217804 -32.79142761 2.51856995 C-30.46507856 2.47800891 -28.13912048 2.45608979 -25.8125 2.4375 C-23.47528605 2.41365334 -21.13843687 2.38549293 -18.80143738 2.34571838 C-17.35357908 2.32149965 -15.90552785 2.3065288 -14.45747375 2.30210876 C-9.13791736 2.21973193 -5.27536239 -0.13557204 0 0 Z " fill="#FCFCFC" transform="translate(259,129)"/>
<path d="M0 0 C6.95998199 0.68458839 6.95998199 0.68458839 9.69213867 1.51318359 C12.82773699 2.17460146 15.82746011 2.12825834 19.03125 2.140625 C20.41277703 2.15894336 21.79428794 2.17851277 23.17578125 2.19921875 C25.34191408 2.22823165 27.5069997 2.25000157 29.67333984 2.25048828 C31.77274254 2.25382445 33.86976193 2.28835668 35.96875 2.328125 C37.22107422 2.3374707 38.47339844 2.34681641 39.76367188 2.35644531 C43 3 43 3 45.17289734 5.15428162 C47.31611867 8.49235586 47.4914144 10.24083837 47.4699707 14.17504883 C47.47285599 15.40824356 47.47574127 16.64143829 47.47871399 17.91200256 C47.46154161 19.26035155 47.44388319 20.60869442 47.42578125 21.95703125 C47.42117822 23.36709662 47.4182582 24.77716836 47.41691589 26.1872406 C47.4080799 29.95278797 47.37404627 33.71771248 47.33456421 37.48304749 C47.30519781 40.58343662 47.2906667 43.68381766 47.2764225 46.78430748 C47.16929737 69.86166375 46.81657402 92.93612731 46 116 C41.53805696 117.12581816 37.19606633 117.10605362 32.62890625 117.01953125 C31.82895737 117.00540695 31.02900848 116.99128265 30.20481873 116.97673035 C28.51790796 116.94371777 26.83105939 116.90737941 25.14428711 116.86791992 C22.57467095 116.81276126 20.00558015 116.78415016 17.43554688 116.75585938 C15.79163033 116.72039617 14.14774723 116.68333935 12.50390625 116.64453125 C11.35989098 116.63798271 11.35989098 116.63798271 10.19276428 116.63130188 C6.58098689 116.51685874 3.93186743 115.97480152 0.50732422 114.70825195 C-3.53935293 110.33728899 -2.75917681 105.76381912 -2.62109375 100.0234375 C-2.61538361 98.80913055 -2.60967346 97.59482361 -2.60379028 96.34371948 C-2.58199158 93.03850688 -2.53341254 89.73580279 -2.47209549 86.43122864 C-2.41435919 82.9995952 -2.38983086 79.56771811 -2.36108398 76.13574219 C-2.29598539 69.12277938 -2.18789285 62.11097065 -2.0682373 55.09875488 C-2.00112818 51.14504302 -1.94524269 47.19122376 -1.89160156 43.23730469 C-1.79585363 36.24127253 -1.68626807 29.24559247 -1.5625 22.25 C-1.54339569 21.16612 -1.52429138 20.08223999 -1.50460815 18.96551514 C-1.44815631 15.94037904 -1.38403525 12.91552955 -1.31640625 9.890625 C-1.29965851 8.99568329 -1.28291077 8.10074158 -1.26565552 7.17868042 C-1.11594814 1.11594814 -1.11594814 1.11594814 0 0 Z " fill="#F9F9F9" transform="translate(157,129)"/>
<path d="M0 0 C8.13689792 2.14116101 16.0385801 1.69982283 24.38378906 1.34228516 C26.35928743 1.26389236 28.33597165 1.21742625 30.3125 1.171875 C31.47201172 1.12659668 32.63152344 1.08131836 33.82617188 1.03466797 C36.84375 1.5546875 36.84375 1.5546875 39.00297546 3.72816467 C41.09716309 6.94380516 41.3361259 8.50594038 41.3137207 12.29907227 C41.31660095 13.43946457 41.3194812 14.57985687 41.32244873 15.75480652 C41.30498596 16.9894313 41.28752319 18.22405609 41.26953125 19.49609375 C41.266651 20.79206985 41.26377075 22.08804596 41.26080322 23.42329407 C41.25205694 26.93004596 41.21805202 30.43612674 41.17851639 33.94264984 C41.14884263 36.84059182 41.13358122 39.73853211 41.11856747 42.63658142 C41.06999417 51.94319767 40.96860425 61.24881017 40.84375 70.5546875 C40.82723389 71.79172424 40.81071777 73.02876099 40.79370117 74.30328369 C40.69063362 81.67934086 40.56276858 89.05457327 40.40625 96.4296875 C40.38696442 97.36056183 40.36767883 98.29143616 40.34780884 99.2505188 C40.29160206 101.82867667 40.22780192 104.40649467 40.16015625 106.984375 C40.14341858 107.73334549 40.12668091 108.48231598 40.10943604 109.25398254 C39.96022819 114.32173111 39.96022819 114.32173111 38.84375 116.5546875 C37.85375 116.2246875 36.86375 115.8946875 35.84375 115.5546875 C33.02742616 115.43622512 30.23132074 115.36946106 27.4140625 115.34375 C25.7148341 115.31568221 24.01561548 115.28701775 22.31640625 115.2578125 C19.64144151 115.21656098 16.96665935 115.17966691 14.29150391 115.15332031 C11.7069753 115.1256681 9.12327184 115.07980023 6.5390625 115.03125 C5.34508347 115.0263707 5.34508347 115.0263707 4.12698364 115.02139282 C3.00089188 114.99654312 3.00089188 114.99654312 1.85205078 114.97119141 C1.19713654 114.96310455 0.54222229 114.9550177 -0.13253784 114.94668579 C-3.29588921 114.33393643 -4.7571548 113.79930831 -7.15625 111.5546875 C-7.91756987 108.02719359 -7.78622545 104.52780235 -7.72387695 100.93286133 C-7.72460709 99.84002335 -7.72533722 98.74718536 -7.72608948 97.62123108 C-7.72259978 94.00089266 -7.68367077 90.38183303 -7.64453125 86.76171875 C-7.63520811 84.25494591 -7.62808965 81.74816398 -7.62309265 79.24137878 C-7.60593812 73.3126379 -7.56651281 67.38430887 -7.5163452 61.45577973 C-7.45498837 54.04416943 -7.42812368 46.63250233 -7.40039062 39.22070312 C-7.34673455 25.9984638 -7.26233247 12.77660477 -7.15625 -0.4453125 C-4.32596404 -1.86045548 -2.99840982 -0.91832653 0 0 Z " fill="#FCFCFC" transform="translate(361.15625,130.4453125)"/>
<path d="M0 0 C1.27875 -0.061875 2.5575 -0.12375 3.875 -0.1875 C4.95394531 -0.23970703 4.95394531 -0.23970703 6.0546875 -0.29296875 C6.69664062 -0.19628906 7.33859375 -0.09960938 8 0 C10.81883872 4.22825808 10.09786108 8.21940855 9.921875 13.10742188 C9.61151484 18.49547062 9.61151484 18.49547062 12 23 C14.61887976 23.78860649 16.94921481 24.33036579 19.625 24.75 C20.68460938 24.93755859 20.68460938 24.93755859 21.765625 25.12890625 C23.50773442 25.4349525 25.25358664 25.71955406 27 26 C27.625 28.375 27.625 28.375 28 31 C24.74163839 34.25836161 20.41427089 33.8867275 15.96875 34.4375 C12.89293142 34.73166199 12.89293142 34.73166199 11 37 C10.69992264 39.5823059 10.69992264 39.5823059 10.75708008 42.62719727 C10.75400345 43.80504288 10.75092682 44.98288849 10.74775696 46.19642639 C10.75494247 47.47351974 10.76212799 48.7506131 10.76953125 50.06640625 C10.76998947 51.37077133 10.77044769 52.67513641 10.7709198 54.01902771 C10.77248467 56.78056149 10.78077533 59.54196563 10.79418945 62.3034668 C10.81119601 65.85019954 10.81500333 69.39678996 10.81424427 72.94355869 C10.81458089 76.31786043 10.82341462 79.69211507 10.83203125 83.06640625 C10.83314407 84.34552383 10.8342569 85.62464142 10.83540344 86.94252014 C10.84178329 88.11721359 10.84816315 89.29190704 10.85473633 90.50219727 C10.85854813 91.54207291 10.86235992 92.58194855 10.86628723 93.65333557 C10.73640291 95.95831492 10.73640291 95.95831492 12 97 C15.29684855 97.28609016 18.59381125 97.44890147 21.8984375 97.62109375 C25 98 25 98 28 100 C28.375 103 28.375 103 28 106 C24.60554986 108.26296676 22.94286269 108.33376118 18.9375 108.5625 C14.81597077 108.70324708 14.81597077 108.70324708 11 110 C10.59740603 112.06668877 10.59740603 112.06668877 10.5078125 114.55078125 C10.44207031 115.47697266 10.37632812 116.40316406 10.30859375 117.35742188 C10.18695243 119.31532948 10.07227957 121.27368342 9.96484375 123.23242188 C9.89652344 124.16248047 9.82820313 125.09253906 9.7578125 126.05078125 C9.7077002 126.90325439 9.65758789 127.75572754 9.60595703 128.6340332 C8.78034829 131.85763284 7.62383293 132.95604151 5 135 C1.69187927 135.50120544 1.69187927 135.50120544 -2.29125977 135.50170898 C-3.01854279 135.50711197 -3.74582581 135.51251495 -4.49514771 135.51808167 C-6.89431705 135.53056886 -9.29228641 135.51408094 -11.69140625 135.49609375 C-13.3600216 135.49624872 -15.02863731 135.49773742 -16.69725037 135.50050354 C-20.19180237 135.50188746 -23.6859439 135.48932962 -27.18041992 135.46655273 C-31.66198919 135.43814584 -36.14287758 135.44091134 -40.62449741 135.45364285 C-44.06888151 135.4605935 -47.51310789 135.4528182 -50.95747185 135.44038582 C-52.61010064 135.43586687 -54.26274633 135.43553839 -55.91537666 135.43945122 C-58.22331665 135.44235806 -60.53031385 135.42588386 -62.83813477 135.40405273 C-64.8085952 135.39594826 -64.8085952 135.39594826 -66.81886292 135.38768005 C-70 135 -70 135 -71.94761658 133.6622467 C-73 132 -73 132 -73 129 C-70.26435774 127.63217887 -68.07127818 127.86018272 -65.0090332 127.84228516 C-63.75044998 127.83202301 -62.49186676 127.82176086 -61.19514465 127.81118774 C-60.52023294 127.80774982 -59.84532124 127.8043119 -59.14995766 127.80076981 C-57.03486922 127.78897376 -54.91998434 127.76951664 -52.80497742 127.74765015 C-46.79070889 127.68607705 -40.77645855 127.63210687 -34.76196289 127.59863281 C-31.08308673 127.57760676 -27.40457759 127.54223494 -23.72591209 127.49787521 C-22.32782521 127.48377099 -20.92967334 127.47500543 -19.53151894 127.47182083 C-9.21792551 127.79004996 -9.21792551 127.79004996 0 124 C1.32940903 118.07172859 1.14146901 112.05345102 1.12939453 106.00341797 C1.13114685 104.91802734 1.13289917 103.83263672 1.13470459 102.71435547 C1.13909228 99.14028304 1.13619637 95.5662604 1.1328125 91.9921875 C1.13348633 89.50310252 1.13445701 87.01401761 1.13571167 84.52493286 C1.13737276 78.64852349 1.13388149 72.77213211 1.1285609 66.89572537 C1.12480291 62.21188908 1.12613794 57.52807379 1.13037109 52.84423828 C1.13616438 46.37821977 1.13707835 39.91222155 1.13381577 33.44620132 C1.13314859 30.9830131 1.13396762 28.51982402 1.13629532 26.05663681 C1.13883299 22.61699883 1.13496567 19.17742608 1.12939453 15.73779297 C1.13243088 14.21032944 1.13243088 14.21032944 1.13552856 12.65200806 C1.13129883 11.24329437 1.13129883 11.24329437 1.12698364 9.80612183 C1.12660662 8.99389601 1.12622959 8.18167019 1.12584114 7.34483147 C0.99029374 4.81914062 0.55156123 2.46558344 0 0 Z " fill="#F7F7F7" transform="translate(386,330)"/>
<path d="M0 0 C2.875 -0.125 2.875 -0.125 6 0 C6.66 0.66 7.32 1.32 8 2 C7.2785807 3.14686279 7.2785807 3.14686279 6.54258728 4.31689453 C4.47970223 9.24227109 4.43494486 13.6377447 4.31860352 18.9296875 C4.28544572 19.9890451 4.25228792 21.04840271 4.21812534 22.13986206 C3.90322135 33.13382831 3.87268583 44.12748276 3.90234375 55.125 C3.90421673 57.2206214 3.90563645 59.31624324 3.90663147 61.41186523 C3.91038752 66.83670332 3.92015564 72.26151315 3.93133545 77.68634033 C3.94353477 84.24389563 3.94798483 90.80146056 3.95378876 97.35902405 C3.96337362 107.23936881 3.98257776 117.11965201 4 127 C38.155 127.495 38.155 127.495 73 128 C73.33 129.32 73.66 130.64 74 132 C67.02804369 138.97195631 36.48758466 135.29766275 26.94726562 135.35009766 C24.7072528 135.36688788 22.46729819 135.39446696 20.22753906 135.43212891 C16.95610549 135.48654239 13.68588549 135.5086849 10.4140625 135.5234375 C9.4110611 135.54610687 8.40805969 135.56877625 7.37466431 135.59213257 C4.81992959 135.58426894 2.49803996 135.53419158 0 135 C-3.54903593 131.16857556 -3.46592922 126.95458185 -3.5625 121.9375 C-3.55807673 115.6491036 -3.55807673 115.6491036 -6 110 C-9.43558715 108.28220642 -13.35899893 108.59553712 -17.15234375 108.37890625 C-20 108 -20 108 -23 106 C-23.5 103.5625 -23.5 103.5625 -23 101 C-19.03217244 97.90643953 -15.63140306 97.54352351 -10.6875 97.3125 C-9.43324219 97.24675781 -8.17898437 97.18101562 -6.88671875 97.11328125 C-5.93410156 97.07589844 -4.98148438 97.03851563 -4 97 C-3.97685409 89.34190448 -3.9590734 81.68381258 -3.94818783 74.02569008 C-3.94296394 70.46991365 -3.93587522 66.91416111 -3.92456055 63.35839844 C-3.91164086 59.27278409 -3.90676771 55.18719494 -3.90234375 51.1015625 C-3.89718246 49.82133209 -3.89202118 48.54110168 -3.88670349 47.22207642 C-3.88662796 46.04100311 -3.88655243 44.85992981 -3.88647461 43.64306641 C-3.884254 42.59937897 -3.88203339 41.55569153 -3.87974548 40.4803772 C-3.83295355 37.99794634 -3.83295355 37.99794634 -5 36 C-8.52808864 35.63943208 -12.03799031 35.55525627 -15.58203125 35.44140625 C-19.08001484 34.98966666 -20.47896349 34.38133172 -23 32 C-22.6875 29.625 -22.6875 29.625 -22 27 C-17.95714653 24.30476436 -14.57900108 24.62248656 -9.8125 24.44140625 C-6.72135782 23.95626866 -5.83845601 23.46135393 -4 21 C-2.27117481 17.54234962 -2.63270253 13.41259615 -2.48242188 9.5859375 C-2.29194383 5.93450926 -1.97652381 3.12082706 0 0 Z " fill="#F7F7F7" transform="translate(218,330)"/>
<path d="M0 0 C3.4375 0.25 3.4375 0.25 7 1 C9.0140956 4.0211434 9.26836596 4.80660017 9.4140625 8.23046875 C9.45273437 9.03291016 9.49140625 9.83535156 9.53125 10.66210938 C9.5621875 11.49548828 9.593125 12.32886719 9.625 13.1875 C9.66367187 14.03248047 9.70234375 14.87746094 9.7421875 15.74804688 C9.83636279 17.83167524 9.91926675 19.91580753 10 22 C10.65226562 22.02578125 11.30453125 22.0515625 11.9765625 22.078125 C17.77168479 22.45420963 21.70511379 22.93116043 26 27 C26.5 29.625 26.5 29.625 26 32 C23.14823555 34.85176445 20.90874928 34.37262338 16.9375 34.5625 C12.64773635 34.38816898 12.64773635 34.38816898 9 36 C7.62608525 46.71090516 7.81374045 57.62990354 7.81469727 68.40844727 C7.8124735 71.22101182 7.79413898 74.03320568 7.77539062 76.84570312 C7.77246247 78.64062367 7.77047381 80.43554606 7.76953125 82.23046875 C7.76234573 83.06789108 7.75516022 83.90531342 7.74775696 84.76811218 C7.76333344 88.69402335 7.77290234 90.65935351 10 94 C13.01041389 94.66264212 15.99106001 94.94990445 19.0546875 95.27734375 C22.51554831 96.12649395 23.85059928 97.19325828 26 100 C25.875 102.6875 25.875 102.6875 25 105 C22.0384304 106.4807848 19.16493705 106.35314037 15.875 106.5625 C14.59367187 106.64628906 13.31234375 106.73007813 11.9921875 106.81640625 C11.00476563 106.87699219 10.01734375 106.93757813 9 107 C7.22291663 113.04208347 6.64182673 118.75745603 6.34375 125.046875 C6 128 6 128 4 132 C-15.47 132.33 -34.94 132.66 -55 133 C-55 129 -55 129 -54 128 C-52.37420782 127.87718048 -50.74322996 127.82217496 -49.11303711 127.79467773 C-48.07203354 127.77473251 -47.03102997 127.75478729 -45.95848083 127.73423767 C-44.8262056 127.71752518 -43.69393036 127.70081268 -42.52734375 127.68359375 C-41.37456436 127.66281265 -40.22178497 127.64203156 -39.03407288 127.62062073 C-35.33527843 127.55500036 -31.63641041 127.49618245 -27.9375 127.4375 C-25.43684121 127.39432665 -22.93618999 127.35071276 -20.43554688 127.30664062 C-14.29044338 127.19930632 -8.14526596 127.09756357 -2 127 C-0.34793153 100.51358951 0.29590685 74.13663483 0.19561768 47.60144043 C0.18456455 43.88908626 0.18515612 40.17676715 0.18575573 36.46439934 C0.1854846 32.85449184 0.18001967 29.24460804 0.17275429 25.6347084 C0.16959361 23.93069765 0.16760636 22.22668427 0.16686058 20.52267075 C0.16469381 18.17375761 0.15595515 15.82496203 0.14526367 13.47607422 C0.14571686 12.78856079 0.14617004 12.10104736 0.14663696 11.3927002 C0.12266061 7.79217028 -0.28068346 4.51790543 -1 1 C-0.67 0.67 -0.34 0.34 0 0 Z " fill="#F4F4F4" transform="translate(272,133)"/>
<path d="M0 0 C5.5952381 0.5952381 5.5952381 0.5952381 8 3 C8.30297852 4.95532227 8.30297852 4.95532227 8.37890625 7.31640625 C8.41306641 8.16267578 8.44722656 9.00894531 8.48242188 9.88085938 C8.52206055 11.20827148 8.52206055 11.20827148 8.5625 12.5625 C8.62219399 14.31394692 8.68578412 16.06526689 8.75390625 17.81640625 C8.77783447 18.59443604 8.8017627 19.37246582 8.82641602 20.17407227 C8.80614889 22.01848649 8.80614889 22.01848649 10 23 C11.56037521 23.13223519 13.12367031 23.23068529 14.6875 23.3125 C19.61484191 23.73666143 22.19943669 24.89954046 26 28 C25.6875 30.375 25.6875 30.375 25 33 C20.7546526 35.8302316 16.84347452 35.43516669 11.8359375 35.65625 C10.90007812 35.7696875 9.96421875 35.883125 9 36 C7.69239107 38.61521785 7.88002452 40.53113401 7.88647461 43.45947266 C7.88655014 44.60050446 7.88662567 45.74153625 7.88670349 46.91714478 C7.89186478 48.15362762 7.89702606 49.39011047 7.90234375 50.6640625 C7.90446617 52.5575795 7.90446617 52.5575795 7.90663147 54.48934937 C7.91128922 57.84638299 7.92027592 61.203349 7.93133545 64.56036377 C7.9415623 67.98554906 7.94613182 71.41074134 7.95117188 74.8359375 C7.96221762 81.55731043 7.97896806 88.27865131 8 95 C8.97582031 95.10957031 9.95164062 95.21914062 10.95703125 95.33203125 C12.86548828 95.56986328 12.86548828 95.56986328 14.8125 95.8125 C16.70935547 96.03873047 16.70935547 96.03873047 18.64453125 96.26953125 C21.92008071 96.98260197 23.152547 97.27248758 25 100 C25.375 102.5625 25.375 102.5625 25 105 C21.36280395 107.42479736 19.14296518 107.38662577 14.8125 107.625 C12.90404297 107.73714844 12.90404297 107.73714844 10.95703125 107.8515625 C9.98121094 107.90054688 9.00539063 107.94953125 8 108 C6.55713849 112.57899852 6.659138 117.39784511 6.48242188 122.15625 C6.1479987 128.92043197 6.1479987 128.92043197 4 132 C1.37822221 133.3108889 -0.61524634 133.16083707 -3.55126953 133.20532227 C-4.71232208 133.22526749 -5.87337463 133.24521271 -7.0696106 133.26576233 C-8.32796722 133.28247482 -9.58632385 133.29918732 -10.8828125 133.31640625 C-12.16735321 133.33718735 -13.45189392 133.35796844 -14.77536011 133.37937927 C-18.19149359 133.43459049 -21.60768745 133.48400388 -25.02392578 133.53222656 C-28.50949481 133.58244857 -31.99497609 133.63813097 -35.48046875 133.69335938 C-42.32023642 133.80092928 -49.16008334 133.90237684 -56 134 C-55.67 132.35 -55.34 130.7 -55 129 C-37.84 128.67 -20.68 128.34 -3 128 C-1.33574755 124.6714951 -1.62803311 120.92531569 -1.46484375 117.2578125 C-1.42173065 116.33481857 -1.37861755 115.41182465 -1.334198 114.46086121 C-1.19393913 111.34919752 -1.06425405 108.23724217 -0.9375 105.125 C-0.89297699 104.05341644 -0.84845398 102.98183289 -0.80258179 101.8777771 C0.00611986 81.78558734 0.19381292 61.70723362 0.18803024 41.60164642 C0.18750064 39.31526003 0.18867422 37.02887868 0.18997192 34.74249268 C0.19093695 31.10982218 0.18520948 27.47722063 0.17382431 23.84456825 C0.16813125 21.85749999 0.16617924 19.87042212 0.16433716 17.88334656 C0.1342155 12.13500252 -0.10299261 6.67181515 -1 1 C-0.67 0.67 -0.34 0.34 0 0 Z " fill="#F8F8F8" transform="translate(471,132)"/>
<path d="M0 0 C-0.13277344 0.55945313 -0.26554687 1.11890625 -0.40234375 1.6953125 C-3.65235046 16.4508174 -3.17599836 31.63795417 -3.203125 46.6640625 C-3.20595238 47.72742199 -3.20877975 48.79078148 -3.21169281 49.88636398 C-3.22657094 55.49309275 -3.23587712 61.09979646 -3.24023438 66.70654297 C-3.24576076 72.49246469 -3.26990769 78.27815603 -3.29820633 84.0640049 C-3.3167918 88.52660822 -3.32203571 92.98915491 -3.32357025 97.45179367 C-3.32659706 99.58647319 -3.33462653 101.72115171 -3.34775543 103.855793 C-3.36476017 106.82803659 -3.3629515 109.79970053 -3.35644531 112.77197266 C-3.3656601 113.6519693 -3.37487488 114.53196594 -3.3843689 115.43862915 C-3.36042588 118.9203686 -3.2986924 121.37794393 -1.77815247 124.5446167 C0.53592299 126.43864257 1.83129488 126.50427361 4.80688477 126.51416016 C5.78121964 126.5274234 6.7555545 126.54068665 7.75941467 126.55435181 C8.80947189 126.54930634 9.85952911 126.54426086 10.94140625 126.5390625 C12.55933327 126.55675186 12.55933327 126.55675186 14.20994568 126.57479858 C17.66094333 126.61016366 21.11133566 126.61924046 24.5625 126.625 C28.01705353 126.64130977 31.47133393 126.66327668 34.92576599 126.69662476 C37.0769496 126.71634572 39.22825883 126.72557992 41.37953186 126.72354126 C42.35071457 126.73050018 43.32189728 126.73745911 44.32250977 126.74462891 C45.17949966 126.74588776 46.03648956 126.74714661 46.91944885 126.7484436 C49 127 49 127 51 129 C50.625 131.125 50.625 131.125 50 133 C42.75034756 133.04633306 35.50072703 133.08187408 28.25095654 133.10362434 C24.88461771 133.1140632 21.51838015 133.12822409 18.15209961 133.15087891 C14.28236185 133.17507811 10.41276824 133.18647192 6.54296875 133.1953125 C5.33352097 133.20563507 4.12407318 133.21595764 2.87797546 133.22659302 C1.19657219 133.22681961 1.19657219 133.22681961 -0.51879883 133.22705078 C-1.50697098 133.231492 -2.49514313 133.23593323 -3.51325989 133.24050903 C-6 133 -6 133 -9 131 C-9.36889648 129.09228516 -9.36889648 129.09228516 -9.37109375 126.7890625 C-9.39719727 125.53996094 -9.39719727 125.53996094 -9.42382812 124.265625 C-9.43290218 122.51303658 -9.43814521 120.76042392 -9.43945312 119.0078125 C-9.5149369 113.90578566 -9.5149369 113.90578566 -11.7578125 109.4296875 C-14.22379814 107.85729944 -15.54379904 107.54012064 -18.4375 107.5 C-22.73836416 107.22321171 -24.88850692 106.11149308 -28 103 C-27.6875 101.125 -27.6875 101.125 -27 99 C-23.71888625 96.81259083 -21.73165037 96.49044144 -17.875 95.9375 C-14.12083165 95.68226276 -14.12083165 95.68226276 -11 94 C-10.83900305 91.5810256 -10.74020141 89.1877579 -10.68359375 86.765625 C-10.6626767 86.02386017 -10.64175964 85.28209534 -10.62020874 84.51785278 C-10.55376912 82.09534486 -10.49503392 79.67273477 -10.4375 77.25 C-10.41698578 76.43331848 -10.39647156 75.61663696 -10.37533569 74.77520752 C-10.23508422 69.18375709 -10.11176038 63.59208861 -10 58 C-9.97518555 56.76926758 -9.95037109 55.53853516 -9.92480469 54.27050781 C-9.87243986 51.30523863 -9.83652074 48.3406162 -9.8125 45.375 C-9.79952881 44.53098633 -9.78655762 43.68697266 -9.77319336 42.81738281 C-9.77009534 40.87678446 -9.87333559 38.93646267 -10 37 C-12.80074838 34.19925162 -15.10468619 34.44700322 -19 34 C-25.77777778 33.22222222 -25.77777778 33.22222222 -28 31 C-28.125 28.375 -28.125 28.375 -28 26 C-23.55443631 23.37825731 -20.10291031 22.63479042 -15.05078125 22.50390625 C-12.88895332 22.14011267 -12.88895332 22.14011267 -11.2578125 20.46875 C-9.20932412 16.44811443 -9.56450081 12.17240209 -9.56054688 7.75585938 C-9.47264167 4.49124192 -9.41357617 2.49422821 -7.27734375 -0.05859375 C-4.43828542 -1.23220105 -2.8958218 -0.88483444 0 0 Z " fill="#F7F7F7" transform="translate(342,133)"/>
<path d="M0 0 C-0.309375 0.99 -0.61875 1.98 -0.9375 3 C-4.35698183 16.90235139 -3.14876693 32.39273851 -3.1328125 46.60546875 C-3.13348773 48.74538687 -3.13445957 50.88530492 -3.13571167 53.02522278 C-3.13717484 57.47523744 -3.13507657 61.92523185 -3.13037109 66.37524414 C-3.1246362 72.07572864 -3.12798513 77.77616644 -3.13394356 83.47664928 C-3.13755407 87.88009495 -3.13640898 92.28352949 -3.13381577 96.68697548 C-3.13314983 98.79011351 -3.13396325 100.89325255 -3.13629532 102.99638939 C-3.13883402 105.9249478 -3.13496571 108.85342971 -3.12939453 111.78198242 C-3.13141876 112.64589096 -3.13344299 113.5097995 -3.13552856 114.39988708 C-3.13270874 115.19981079 -3.12988892 115.9997345 -3.12698364 116.82389832 C-3.1264181 117.85878026 -3.1264181 117.85878026 -3.12584114 118.9145689 C-3.01709987 121.50685136 -3.01709987 121.50685136 -2 126 C14.83 126.33 31.66 126.66 49 127 C49.66 128.32 50.32 129.64 51 131 C49.28435166 132.71564834 47.02783909 132.13637489 44.68579102 132.14526367 C43.55113907 132.15164352 42.41648712 132.15802338 41.24745178 132.16459656 C40.01208176 132.16570938 38.77671173 132.1668222 37.50390625 132.16796875 C36.24488998 132.17129715 34.98587372 132.17462555 33.68870544 132.17805481 C31.01956665 132.18312943 28.35052959 132.18589414 25.68139648 132.18530273 C22.25687285 132.1852011 18.83255649 132.19885201 15.40808201 132.21607494 C12.14836436 132.22985116 8.88864908 132.22928326 5.62890625 132.23046875 C4.39556046 132.23765427 3.16221466 132.24483978 1.89149475 132.25224304 C0.18478859 132.2476281 0.18478859 132.2476281 -1.55639648 132.24291992 C-2.56153793 132.24434494 -3.56667938 132.24576996 -4.60227966 132.24723816 C-7 132 -7 132 -9 130 C-9.23950195 128.09228516 -9.23950195 128.09228516 -9.23828125 125.7890625 C-9.25439453 124.95632813 -9.27050781 124.12359375 -9.28710938 123.265625 C-9.30396063 121.51309411 -9.30927393 119.76041221 -9.30273438 118.0078125 C-9.39216437 112.7465074 -9.39216437 112.7465074 -12.22265625 108.43359375 C-15.107656 106.94443073 -16.90754004 106.51129495 -20.125 106.4375 C-24.57327956 106.32257484 -24.57327956 106.32257484 -26.80859375 104.6328125 C-28 103 -28 103 -27.9375 100.4375 C-27 98 -27 98 -25.2265625 96.87890625 C-22.19229708 95.6811699 -19.35056986 95.56158987 -16.12109375 95.34375 C-13.70479457 95.10252039 -13.70479457 95.10252039 -11 93 C-10.56100687 90.49722362 -10.56100687 90.49722362 -10.65942383 87.54052734 C-10.65965042 86.39949554 -10.65987701 85.25846375 -10.66011047 84.08285522 C-10.67559433 82.84637238 -10.69107819 81.60988953 -10.70703125 80.3359375 C-10.71339851 78.4424205 -10.71339851 78.4424205 -10.71989441 76.51065063 C-10.73386863 73.15338649 -10.76082698 69.79673068 -10.79400635 66.43963623 C-10.82468648 63.01449852 -10.8383953 59.58929799 -10.85351562 56.1640625 C-10.88665359 49.4425395 -10.93690461 42.72130489 -11 36 C-15.21504076 33.74567876 -18.80675162 33.59749321 -23.5390625 33.34375 C-26 33 -26 33 -28 31 C-28.125 28.375 -28.125 28.375 -28 26 C-23.55443631 23.37825731 -20.10291031 22.63479042 -15.05078125 22.50390625 C-12.88895332 22.14011267 -12.88895332 22.14011267 -11.2578125 20.46875 C-9.20932412 16.44811443 -9.56450081 12.17240209 -9.56054688 7.75585938 C-9.41772856 2.45188246 -9.41772856 2.45188246 -7.13671875 -0.015625 C-4.37846586 -1.28633748 -2.85316431 -0.8718002 0 0 Z " fill="#F9F9F9" transform="translate(144,133)"/>
<path d="M0 0 C3.33285926 -0.14685185 6.66487345 -0.23457648 10 -0.3125 C10.93457031 -0.35439453 11.86914062 -0.39628906 12.83203125 -0.43945312 C19.52242339 -0.55641802 23.83534779 0.66376318 29 5 C31.96274471 8.42567357 32.53962571 11.47255667 32.3515625 16.01171875 C31.5453023 20.5715681 28.9184611 23.35290241 25.25 25.9375 C22.67337729 27.85708242 22.67337729 27.85708242 22.57421875 31.1796875 C23.10398893 35.93303828 24.79058909 38.41061693 27.5625 42.1875 C32.05720054 48.37681518 32.05720054 48.37681518 31.77734375 51.42578125 C31.39255859 52.20501953 31.39255859 52.20501953 31 53 C27.79451821 52.69811387 26.37343394 52.40587206 24.15625 49.99609375 C23.6096875 49.15175781 23.063125 48.30742187 22.5 47.4375 C21.91089844 46.53902344 21.32179688 45.64054687 20.71484375 44.71484375 C19.86599609 43.37099609 19.86599609 43.37099609 19 42 C18.48566406 41.21753906 17.97132813 40.43507812 17.44140625 39.62890625 C14 34.31568697 14 34.31568697 14 32 C13.01 32.495 13.01 32.495 12 33 C11.94597726 35.10388569 11.90719744 37.20816714 11.875 39.3125 C11.85179687 40.48425781 11.82859375 41.65601563 11.8046875 42.86328125 C11.74679382 46.16393661 11.74679382 46.16393661 14 49 C13.67 50.32 13.34 51.64 13 53 C9.04 53 5.08 53 1 53 C0.67 51.68 0.34 50.36 0 49 C0.46615723 48.266604 0.93231445 47.53320801 1.41259766 46.77758789 C3.53254151 43.06817522 3.43117121 39.71439034 3.3984375 35.55859375 C3.40274277 34.3515554 3.40274277 34.3515554 3.40713501 33.12013245 C3.40917018 31.42488905 3.40367866 29.72962188 3.39111328 28.03442383 C3.37503001 25.44233713 3.39099054 22.85180455 3.41015625 20.25976562 C3.40817413 18.60937157 3.4043311 16.95897847 3.3984375 15.30859375 C3.40754654 14.14909462 3.40754654 14.14909462 3.4168396 12.96617126 C3.35978782 8.59624205 2.89409629 6.27298244 0 3 C0 2.01 0 1.02 0 0 Z " fill="#262626" transform="translate(363,165)"/>
<path d="M0 0 C2.75700579 0.2852075 3.7905529 0.75570605 5.61543274 2.88420105 C7.65182724 7.46685733 7.39351907 11.70466747 7.34057617 16.6652832 C7.34101425 17.7389061 7.34145233 18.81252899 7.34190369 19.91868591 C7.33981578 23.46290348 7.31648392 27.00664644 7.29296875 30.55078125 C7.28737282 33.00985963 7.28310271 35.46894137 7.28010559 37.92802429 C7.26865666 44.3971583 7.23918874 50.86608994 7.20599365 57.33514404 C7.17529401 63.93759422 7.16160046 70.54007713 7.14648438 77.14257812 C7.11431936 90.09513838 7.06369964 103.04755842 7 116 C6.01 116 5.02 116 4 116 C-0.96869998 110.92254974 -1.57403657 106.93158731 -1.5920105 99.95480347 C-1.56938141 98.78378082 -1.54675232 97.61275818 -1.5234375 96.40625 C-1.51909698 95.16569855 -1.51475647 93.92514709 -1.51028442 92.64700317 C-1.49316218 89.29112146 -1.45365812 85.93699609 -1.40322876 82.5815506 C-1.35602161 79.10055954 -1.33728453 75.61940357 -1.31445312 72.13818359 C-1.25227207 63.75809273 -1.1339963 55.37921411 -1 47 C-0.98005981 45.73546997 -0.96011963 44.47093994 -0.9395752 43.16809082 C-0.70655567 28.77663351 -0.39655746 14.38786389 0 0 Z " fill="#F5F5F5" transform="translate(377,331)"/>
<path d="M0 0 C2.39608103 0.95843241 3.73634494 1.57555298 5.11763 3.79922485 C6.08088393 6.20173776 6.24769477 7.88307143 6.24291992 10.46240234 C6.24595123 11.35082321 6.24898254 12.23924408 6.25210571 13.15458679 C6.24496552 14.12193253 6.23782532 15.08927826 6.23046875 16.0859375 C6.2304184 17.11133133 6.23036804 18.13672516 6.23031616 19.19319153 C6.2266718 22.58724519 6.20765214 25.98100699 6.1875 29.375 C6.17993897 31.73217674 6.17270062 34.08935453 6.16577148 36.4465332 C6.09677077 54.02840426 5.86568296 71.60824622 5.5625 89.1875 C5.54303314 90.37696228 5.52356628 91.56642456 5.50350952 92.79193115 C5.44682133 96.14657951 5.38303328 99.50100474 5.31640625 102.85546875 C5.29131485 104.35954033 5.29131485 104.35954033 5.26571655 105.89399719 C5.24578644 106.80578232 5.22585632 107.71756744 5.20532227 108.65698242 C5.18977798 109.45198654 5.1742337 110.24699066 5.15821838 111.06608582 C5 113 5 113 4 115 C2.125 114.8125 2.125 114.8125 0 114 C-2.78898256 109.24596237 -2.28083353 103.97487865 -2.25878906 98.6418457 C-2.2622937 97.60069611 -2.26579834 96.55954651 -2.26940918 95.48684692 C-2.27820321 92.04975699 -2.27238674 88.61287323 -2.265625 85.17578125 C-2.26697201 82.78875184 -2.26891284 80.40172269 -2.27142334 78.01469421 C-2.27437119 73.01554753 -2.27008663 68.01647236 -2.26074219 63.01733398 C-2.24932939 56.59763325 -2.2559209 50.17809939 -2.26788712 43.75840473 C-2.27509902 38.83176912 -2.27282119 33.90517338 -2.26763153 28.97853661 C-2.26629414 26.61055672 -2.26794586 24.24257326 -2.27259064 21.87459755 C-2.27764686 18.572957 -2.26995912 15.27159072 -2.25878906 11.9699707 C-2.26283752 10.98448746 -2.26688599 9.99900421 -2.27105713 8.98365784 C-2.26541748 8.08781982 -2.25977783 7.19198181 -2.25396729 6.26899719 C-2.25321323 5.48828008 -2.25245918 4.70756296 -2.25168228 3.90318775 C-2 2 -2 2 0 0 Z " fill="#F7F7F7" transform="translate(264,134)"/>
<path d="M0 0 C2.32309767 0.92923907 3.71976249 1.57649328 5.1184082 3.69018555 C6.24818493 6.6502569 6.24211472 9.03498804 6.23046875 12.20703125 C6.23032524 13.1751046 6.23032524 13.1751046 6.23017883 14.16273499 C6.22636226 16.37948896 6.20708506 18.59583268 6.1875 20.8125 C6.18051792 22.41227015 6.17402684 24.01204249 6.16796875 25.61181641 C6.01589059 55.40864796 5.46360442 85.2067078 5 115 C2.20762621 114.71113375 1.174782 114.19385059 -0.72673035 112.08488464 C-2.57996645 107.59485412 -2.40987498 103.45456688 -2.37231445 98.6418457 C-2.37596512 97.60069611 -2.37961578 96.55954651 -2.38337708 95.48684692 C-2.39147541 92.04965853 -2.37788076 88.6129425 -2.36328125 85.17578125 C-2.36276268 82.78875224 -2.36328027 80.4017228 -2.36479187 78.01469421 C-2.36470219 73.01550918 -2.35427813 68.01648554 -2.33618164 63.01733398 C-2.3134579 56.59762226 -2.31295746 50.17814563 -2.31969929 43.75840473 C-2.32303387 38.83176062 -2.31641943 33.90517049 -2.30657005 28.97853661 C-2.30271171 26.61055979 -2.30157245 24.24257698 -2.3031559 21.87459755 C-2.30352511 18.57293787 -2.29094785 15.27158454 -2.2746582 11.9699707 C-2.27713562 10.98448746 -2.27961304 9.99900421 -2.28216553 8.98365784 C-2.27508072 8.08781982 -2.26799591 7.19198181 -2.26069641 6.26899719 C-2.25864354 5.48828008 -2.25659067 4.70756296 -2.25447559 3.90318775 C-2 2 -2 2 0 0 Z " fill="#F8F8F8" transform="translate(462,134)"/>
<path d="M0 0 C0.66 0 1.32 0 2 0 C2.1169017 14.10810757 2.20468875 28.21613983 2.25906086 42.32463264 C2.28515656 48.87577231 2.3205555 55.42658664 2.37719727 61.97753906 C2.43151593 68.29935785 2.46142073 74.62086366 2.47438622 80.9428978 C2.48362619 83.35507001 2.50166968 85.76722505 2.52865028 88.17926407 C2.56493692 91.55754894 2.56994526 94.93453995 2.56762695 98.31298828 C2.58560333 99.31064713 2.60357971 100.30830597 2.62210083 101.3361969 C2.58784297 105.94850898 2.47152986 109.02701212 -0.53547668 112.66793823 C-1.34876938 113.43751862 -2.16206207 114.207099 -3 115 C-3.66 114.67 -4.32 114.34 -5 114 C-5.1942655 52.40418091 -5.1942655 52.40418091 -4.73654175 27.11901855 C-4.70399939 25.25671277 -4.67638495 23.39431398 -4.65383911 21.53186035 C-4.62110449 18.97513874 -4.56947224 16.41954365 -4.51171875 13.86328125 C-4.50532379 13.12976944 -4.49892883 12.39625763 -4.49234009 11.64051819 C-4.35315384 6.88364233 -3.42550749 3.42550749 0 0 Z " fill="#F5F5F5" transform="translate(149,135)"/>
<path d="M0 0 C0.66 0 1.32 0 2 0 C2.07014303 13.97778953 2.12281449 27.95555169 2.15543652 41.93348122 C2.17109333 48.42397795 2.19233225 54.91435646 2.22631836 61.40478516 C2.2589107 67.66822853 2.2768529 73.93155817 2.28463173 80.1950798 C2.29017541 82.58489141 2.30100079 84.97469679 2.31719017 87.36445999 C2.33896228 90.71137197 2.34196695 94.05781377 2.34057617 97.40478516 C2.35675491 98.88724731 2.35675491 98.88724731 2.3732605 100.3996582 C2.34952545 105.67718554 2.0233897 109.46381597 -1 114 C-3.1875 115.375 -3.1875 115.375 -5 116 C-5.12016696 90.65956144 -5.04049915 65.32238819 -4.68161011 39.98422241 C-4.64295243 37.24648424 -4.60876031 34.50874704 -4.57839966 31.77090454 C-4.53506843 27.90696936 -4.47548047 24.04337971 -4.4140625 20.1796875 C-4.40250626 19.0202211 -4.39095001 17.8607547 -4.37904358 16.66615295 C-4.35917892 15.5953801 -4.33931427 14.52460724 -4.31884766 13.42138672 C-4.30552399 12.49059296 -4.29220032 11.55979919 -4.2784729 10.60079956 C-3.82867903 6.39994658 -2.32759542 3.49139313 0 0 Z " fill="#F5F5F5" transform="translate(230,332)"/>
<path d="M0 0 C0.66 0 1.32 0 2 0 C2.09352161 14.10814476 2.16375132 28.21624133 2.20724869 42.32463264 C2.22812505 48.8757108 2.25644436 55.42658074 2.30175781 61.97753906 C2.34521266 68.29934613 2.36913673 74.6209529 2.37950897 80.9428978 C2.3869009 83.35505197 2.40133548 85.76719515 2.42292023 88.17926407 C2.45194837 91.55741332 2.4559561 94.93473441 2.45410156 98.31298828 C2.46848267 99.31064713 2.48286377 100.30830597 2.49768066 101.3361969 C2.46309786 107.15627443 1.95367852 110.60233688 -2 115 C-2.66 115 -3.32 115 -4 115 C-5.3514983 112.2970034 -5.11773985 110.20953491 -5.10864258 107.18237305 C-5.10708664 105.94743607 -5.1055307 104.71249908 -5.10392761 103.44013977 C-5.09684326 102.06816497 -5.08953733 100.69619131 -5.08203125 99.32421875 C-5.07748969 97.89092599 -5.07324928 96.45763225 -5.06929016 95.02433777 C-5.05669485 91.15206625 -5.03650518 87.2798708 -5.01386261 83.40764618 C-5.00007579 81.0131628 -4.98787882 78.61867573 -4.97601318 76.22418213 C-4.92980261 67.24844342 -4.86132638 58.273176 -4.76426506 49.29783821 C-4.71890712 45.08618842 -4.67964567 40.87465907 -4.65356445 36.6628418 C-4.62758758 32.48903114 -4.58733576 28.31558741 -4.53681374 24.14200401 C-4.52023654 22.57480037 -4.50866568 21.00753485 -4.50238609 19.44025612 C-4.49277267 17.27462947 -4.46478694 15.1099688 -4.43237305 12.94458008 C-4.42126999 11.71983475 -4.41016693 10.49508942 -4.39872742 9.23323059 C-3.92926735 5.42643782 -2.73279661 2.73279661 0 0 Z " fill="#F8F8F8" transform="translate(347,135)"/>
<path d="M0 0 C1.4783226 2.95664519 1.06032783 5.74229737 1 9 C0.01 8.67 -0.98 8.34 -2 8 C-2 7.34 -2 6.68 -2 6 C-5.3 5.67 -8.6 5.34 -12 5 C-13.50156874 8.00313748 -13.09281204 10.79067522 -13.0625 14.125 C-13.05347656 15.40632813 -13.04445312 16.68765625 -13.03515625 18.0078125 C-13.02355469 18.99523437 -13.01195312 19.98265625 -13 21 C-10.08347826 21.16681109 -10.08347826 21.16681109 -7 21 C-6.34 20.34 -5.68 19.68 -5 19 C-2.875 19.375 -2.875 19.375 -1 20 C-1 22.31 -1 24.62 -1 27 C-3.3125 27.625 -3.3125 27.625 -6 28 C-6.99 27.34 -7.98 26.68 -9 26 C-11.64632287 26.3121764 -11.64632287 26.3121764 -14 27 C-14.02689449 29.95839355 -14.04678741 32.91654427 -14.0625 35.875 C-14.07087891 36.71675781 -14.07925781 37.55851562 -14.08789062 38.42578125 C-14.09111328 39.23144531 -14.09433594 40.03710938 -14.09765625 40.8671875 C-14.10289307 41.61081543 -14.10812988 42.35444336 -14.11352539 43.12060547 C-14.11786636 45.09132568 -14.11786636 45.09132568 -13 47 C-6.27126055 47.89961997 -6.27126055 47.89961997 -0.2265625 45.6640625 C0.93114434 44.16956822 1.97438322 42.58805179 3 41 C3.66 41 4.32 41 5 41 C5.08131463 42.43655854 5.13933559 43.8744483 5.1875 45.3125 C5.23970703 46.51326172 5.23970703 46.51326172 5.29296875 47.73828125 C5 50 5 50 3.82373047 51.63452148 C1.28754948 53.53343183 -0.33602565 53.27387546 -3.47265625 53.109375 C-4.53677734 53.05910156 -5.60089844 53.00882813 -6.69726562 52.95703125 C-7.80779297 52.88871094 -8.91832031 52.82039063 -10.0625 52.75 C-11.17689453 52.69714844 -12.29128906 52.64429688 -13.43945312 52.58984375 C-21.67983031 52.16008484 -21.67983031 52.16008484 -24 51 C-23.83773926 50.19892822 -23.67547852 49.39785645 -23.50830078 48.57250977 C-22.89979041 44.29569311 -22.85664704 40.15291217 -22.8671875 35.83984375 C-22.86623077 34.97235001 -22.86527405 34.10485626 -22.86428833 33.21107483 C-22.8636104 31.38477506 -22.86543757 29.55847282 -22.86962891 27.73217773 C-22.87498916 24.94314146 -22.86966741 22.15426573 -22.86328125 19.36523438 C-22.86394197 17.58593715 -22.86522301 15.80664002 -22.8671875 14.02734375 C-22.86516327 13.19702133 -22.86313904 12.36669891 -22.86105347 11.51121521 C-22.87707672 7.54075063 -23.01549425 3.87594145 -24 0 C-20.56296699 -0.19682269 -17.12536573 -0.38085152 -13.6875 -0.5625 C-12.71103516 -0.61857422 -11.73457031 -0.67464844 -10.72851562 -0.73242188 C-9.32182617 -0.80493164 -9.32182617 -0.80493164 -7.88671875 -0.87890625 C-7.02264404 -0.9260376 -6.15856934 -0.97316895 -5.26831055 -1.02172852 C-3 -1 -3 -1 0 0 Z " fill="#292929" transform="translate(239,165)"/>
<path d="M0 0 C1.32 0.33 2.64 0.66 4 1 C4 4.63 4 8.26 4 12 C0 12 0 12 -2.4375 10 C-4.81524996 7.8161719 -4.81524996 7.8161719 -7.625 7.5625 C-10.02374696 7.8516574 -10.02374696 7.8516574 -11.875 9.1875 C-13.22342506 10.98985392 -13.22342506 10.98985392 -12.9375 13.4375 C-11.1082411 18.43747432 -7.07253195 20.68363702 -2.625 23.25 C2.38185123 26.40445051 6.60265022 29.44062853 9 35 C9.83158182 40.38638226 8.19207795 44.17268234 5.0625 48.5 C3.40096794 50.55752373 2.36829103 51.81585449 0 53 C-1.64255791 53.12114921 -3.29052478 53.17540767 -4.9375 53.1875 C-6.25041016 53.20876953 -6.25041016 53.20876953 -7.58984375 53.23046875 C-10 53 -10 53 -13 51 C-15.00800456 51.28112064 -17.01014051 51.61067967 -19 52 C-20 51 -20 51 -20.09765625 48.27734375 C-20.08605469 47.17519531 -20.07445312 46.07304687 -20.0625 44.9375 C-20.05347656 43.83277344 -20.04445313 42.72804688 -20.03515625 41.58984375 C-20.02355469 40.73519531 -20.01195312 39.88054687 -20 39 C-18.68 39 -17.36 39 -16 39 C-14.59886384 40.95309888 -13.26660533 42.95708818 -12 45 C-8.22278431 47.51814379 -5.43706862 47.73797399 -1 47 C1.23608998 45.51869332 1.23608998 45.51869332 2 43 C2.13707436 39.84728961 1.79448792 37.93213477 -0.28515625 35.4921875 C-3.6422864 32.46045295 -7.24637824 30.26043329 -11.1875 28.0625 C-15.97125414 25.26651585 -17.99791895 23.18720999 -20 18 C-20.6064358 12.9752462 -20.13210096 9.99612882 -17 6 C-14.72769582 3.52719839 -13.19756583 2.09487757 -9.78125 1.82421875 C-8.21461038 1.85728095 -6.64812027 1.93205882 -5.0859375 2.0546875 C-2.68864808 2.17716207 -2.68864808 2.17716207 0 0 Z " fill="#282828" transform="translate(352,358)"/>
<path d="M0 0 C0.62003906 0.16242188 1.24007812 0.32484375 1.87890625 0.4921875 C6.24094077 1.20190526 10.52586104 1.14427883 14.9375 1.125 C15.81857422 1.12886719 16.69964844 1.13273437 17.60742188 1.13671875 C22.18542071 1.12986032 26.49611775 0.93490801 31 0 C31.0270043 1.45823212 31.04639787 2.91660675 31.0625 4.375 C31.07410156 5.18710937 31.08570313 5.99921875 31.09765625 6.8359375 C31 9 31 9 30 11 C27.5625 10.625 27.5625 10.625 25 10 C24.67 9.34 24.34 8.68 24 8 C21.97536745 7.34786708 21.97536745 7.34786708 20 7 C19.95059501 12.64166991 19.91427807 18.28321413 19.89013672 23.92504883 C19.88007361 25.84466749 19.86642184 27.76427081 19.84912109 29.68383789 C19.82488636 32.44160752 19.81352008 35.19917464 19.8046875 37.95703125 C19.79436493 38.81649857 19.78404236 39.67596588 19.77340698 40.56147766 C19.77325592 41.36208115 19.77310486 42.16268463 19.77294922 42.98754883 C19.76628738 44.04344963 19.76628738 44.04344963 19.75949097 45.12068176 C19.90112227 47.3333238 19.90112227 47.3333238 22 50 C22 51.32 22 52.64 22 54 C17.38 54 12.76 54 8 54 C9 48 9 48 10 45 C10.15434158 42.05282827 10.2575603 39.12501135 10.31640625 36.17578125 C10.3475779 34.88367989 10.3475779 34.88367989 10.37937927 33.56547546 C10.44474909 30.81456456 10.50370132 28.06355844 10.5625 25.3125 C10.60569717 23.44725579 10.64931185 21.5820212 10.69335938 19.71679688 C10.80041763 15.14462876 10.90172054 10.5723649 11 6 C5.53475356 7.37757684 2.73398892 8.70025519 -1 13 C-1.66 12.34 -2.32 11.68 -3 11 C-2.64626043 7.0204298 -1.60725491 3.64311114 0 0 Z " fill="#212121" transform="translate(252,357)"/>
<path d="M0 0 C4.95 0 9.9 0 15 0 C16 5 16 5 15.31640625 8.03515625 C14.84031785 14.00095534 16.93840717 18.86977864 18.9375 24.4375 C19.32357422 25.55060547 19.70964844 26.66371094 20.10742188 27.81054688 C21.05816573 30.54540266 22.02261334 33.27457654 23 36 C23.66 36 24.32 36 25 36 C30.62205553 18.80797421 30.62205553 18.80797421 30 1 C32.31 1 34.62 1 37 1 C37.625 2.75 37.625 2.75 38 5 C37.56880859 5.81404297 37.56880859 5.81404297 37.12890625 6.64453125 C35.5517005 9.93537923 35.01526866 13.38238545 34.3125 16.9375 C32.77904497 24.26595314 30.75006682 31.33814893 28.375 38.4375 C28.07376221 39.34298584 27.77252441 40.24847168 27.4621582 41.18139648 C26.21769495 44.82393938 25.15069563 47.77395655 23 51 C21.12109375 50.76171875 21.12109375 50.76171875 19 50 C17.91015625 48.20703125 17.91015625 48.20703125 17.0625 45.8125 C16.7325 44.90242188 16.4025 43.99234375 16.0625 43.0546875 C15.711875 42.04664063 15.36125 41.03859375 15 40 C14.608125 38.95070312 14.21625 37.90140625 13.8125 36.8203125 C11.93883666 31.74971108 10.16638747 26.71477664 8.74609375 21.5 C8.53718506 20.74146729 8.32827637 19.98293457 8.11303711 19.20141602 C7.71443553 17.72939992 7.33029732 16.25336438 6.96313477 14.77319336 C5.6293591 9.84331059 3.62117614 7.48236438 0 4 C0 2.68 0 1.36 0 0 Z " fill="#252525" transform="translate(160,165)"/>
<path d="M0 0 C1.79158489 -0.02696365 3.58328473 -0.04637917 5.375 -0.0625 C6.37273437 -0.07410156 7.37046875 -0.08570313 8.3984375 -0.09765625 C11 0 11 0 13 1 C13.125 3.375 13.125 3.375 13 6 C12.34 6.66 11.68 7.32 11 8 C10.79979908 10.95485221 10.7202801 13.81389695 10.734375 16.76953125 C10.73150482 18.07926155 10.73150482 18.07926155 10.72857666 19.41545105 C10.72721407 21.26565844 10.73091568 23.11587537 10.73925781 24.96606445 C10.74991791 27.790748 10.73938507 30.61478995 10.7265625 33.43945312 C10.72788484 35.23698057 10.73044876 37.03450761 10.734375 38.83203125 C10.73032654 39.67490189 10.72627808 40.51777252 10.72210693 41.38618469 C10.75641567 45.70719457 10.99071854 49.06274614 13 53 C12 54 12 54 8.83984375 54.09765625 C7.55207031 54.08605469 6.26429688 54.07445312 4.9375 54.0625 C3.64714844 54.05347656 2.35679687 54.04445312 1.02734375 54.03515625 C0.02832031 54.02355469 -0.97070312 54.01195312 -2 54 C-1.22800523 49.36803136 -1.22800523 49.36803136 0.02246094 47.34960938 C1.47596664 43.8559683 1.28504847 40.3799513 1.265625 36.65625 C1.26753845 35.85014282 1.2694519 35.04403564 1.27142334 34.21350098 C1.27278194 32.51228523 1.2691082 30.811059 1.26074219 29.10986328 C1.25003788 26.50920271 1.26064828 23.90923289 1.2734375 21.30859375 C1.27211585 19.65364431 1.26955333 17.9986953 1.265625 16.34375 C1.26967346 15.56761353 1.27372192 14.79147705 1.27789307 13.99182129 C1.24427838 10.11249339 0.98613962 7.34996896 -1 4 C-0.625 1.75 -0.625 1.75 0 0 Z " fill="#2C2C2C" transform="translate(420,165)"/>
<path d="M0 0 C4.23090117 0.30220723 6.25186236 3.02285089 9 6 C8.67 6.99 8.34 7.98 8 9 C-14.44 9 -36.88 9 -60 9 C-60 7.68 -60 6.36 -60 5 C-56.92540446 2.95026964 -56.36889243 2.75435645 -52.91845703 2.8046875 C-51.69039841 2.81459717 -51.69039841 2.81459717 -50.43753052 2.82470703 C-49.1110701 2.84960205 -49.1110701 2.84960205 -47.7578125 2.875 C-46.83845917 2.88257324 -45.91910583 2.89014648 -44.97189331 2.89794922 C-41.04353692 2.93051694 -37.1155992 2.9861685 -33.1875 3.04101562 C-16.98010807 3.39775272 -16.98010807 3.39775272 -1 1 C-0.67 0.67 -0.34 0.34 0 0 Z " fill="#F9F9F9" transform="translate(371,444)"/>
<path d="M0 0 C0.99 0 1.98 0 3 0 C4.50823408 3.01646816 4.13859095 6.12890927 4.12939453 9.43701172 C4.13114685 10.2049707 4.13289917 10.97292969 4.13470459 11.76416016 C4.13912573 14.31935858 4.13617902 16.87448828 4.1328125 19.4296875 C4.1334867 21.21737684 4.1344577 23.0050661 4.13571167 24.79275513 C4.13718999 28.55732081 4.13503434 32.32186284 4.13037109 36.08642578 C4.12474757 40.85316351 4.12790423 45.61984401 4.13394356 50.38657951 C4.13760936 54.09152635 4.13638219 57.79646033 4.13381577 61.50140762 C4.1331591 63.25442639 4.13392958 65.00744642 4.13629532 66.76046371 C4.14614841 76.13596738 4.01812491 85.4960522 3.61669922 94.86376953 C3.58635653 95.69093916 3.55601383 96.51810879 3.52475166 97.37034416 C3.30325104 101.91241258 2.69396388 105.72043588 1 110 C0.67 110 0.34 110 0 110 C0 73.7 0 37.4 0 0 Z " fill="#2B2B2B" transform="translate(269,137)"/>
<path d="M0 0 C0.33 0 0.66 0 1 0 C1.33 7.92 1.66 15.84 2 24 C4.041875 24.268125 6.08375 24.53625 8.1875 24.8125 C12.79458909 25.41747129 16.31632699 26.05710219 20 29 C20.8125 31.15625 20.8125 31.15625 21 33.5 C21.0825 34.2734375 21.165 35.046875 21.25 35.84375 C21 38 21 38 19.75 39.65625 C15.51760667 42.90612345 11.42327049 43.54807587 6.2421875 44.33984375 C3.63962928 44.84559166 3.63962928 44.84559166 2 48 C1.69948843 50.07641048 1.69948843 50.07641048 1.7265625 52.34375 C1.7059375 53.17777344 1.6853125 54.01179688 1.6640625 54.87109375 C1.6380223 56.62359926 1.61979205 58.37623824 1.609375 60.12890625 C1.43211819 66.50030386 1.43211819 66.50030386 -0.7734375 69.05078125 C-4.22881552 70.52386346 -7.26184809 70.68848734 -11 71 C-10.67 70.01 -10.34 69.02 -10 68 C-8.01276732 67.29618843 -6.01222047 66.6288189 -4 66 C-2.81879086 63.63758172 -2.75311722 61.91482701 -2.5703125 59.28125 C-2.49683594 58.34925781 -2.42335938 57.41726563 -2.34765625 56.45703125 C-2.19926164 54.48624672 -2.05863008 52.51486221 -1.92578125 50.54296875 C-1.84972656 49.61097656 -1.77367187 48.67898438 -1.6953125 47.71875 C-1.63359863 46.86216797 -1.57188477 46.00558594 -1.50830078 45.12304688 C-1 43 -1 43 2 41 C4.84765625 40.62109375 4.84765625 40.62109375 8.0625 40.4375 C12.18402923 40.29675292 12.18402923 40.29675292 16 39 C16 37.02 16 35.04 16 33 C12.34965773 31.17482887 7.99640885 31.58830887 3.96875 31.37890625 C1 31 1 31 -1 29 C-1.24291992 26.21850586 -1.24291992 26.21850586 -1.23046875 22.71484375 C-1.22853516 21.46251953 -1.22660156 20.21019531 -1.22460938 18.91992188 C-1.20624023 16.94862305 -1.20624023 16.94862305 -1.1875 14.9375 C-1.18685547 13.61943359 -1.18621094 12.30136719 -1.18554688 10.94335938 C-1.14009123 1.14009123 -1.14009123 1.14009123 0 0 Z " fill="#232323" transform="translate(397,397)"/>
<path d="M0 0 C1.07596436 0.64888184 2.15192871 1.29776367 3.26049805 1.96630859 C8.70397643 4.67346551 13.85087607 4.5674021 19.83203125 4.5390625 C20.94559494 4.55085541 22.05915863 4.56264832 23.20646667 4.57479858 C26.7419554 4.60993561 30.27685117 4.61922004 33.8125 4.625 C37.36582425 4.64133602 40.91888494 4.66332051 44.47209167 4.69662476 C46.67784308 4.71627845 48.88371582 4.7255871 51.08955383 4.72354126 C52.08456406 4.73050018 53.07957428 4.73745911 54.10473633 4.74462891 C54.97995438 4.74588776 55.85517242 4.74714661 56.75691223 4.7484436 C59 5 59 5 62 7 C61.67 7.99 61.34 8.98 61 10 C38.98604462 10.19940177 17.00286532 9.61970617 -5 9 C-4.32084333 4.68914241 -3.3222714 2.89359122 0 0 Z " fill="#F7F7F7" transform="translate(235,443)"/>
<path d="M0 0 C2.5 1.8125 2.5 1.8125 4 4 C4 4.99 4 5.98 4 7 C-13.49 7 -30.98 7 -49 7 C-49.33 5.68 -49.66 4.36 -50 3 C-46.28483569 0.5232238 -43.48156931 0.76155215 -39.19140625 0.83984375 C-38.0467112 0.8476461 -38.0467112 0.8476461 -36.87889099 0.85560608 C-34.43990022 0.87341439 -32.00132988 0.90457207 -29.5625 0.9375 C-27.12728121 0.96515928 -24.69212441 0.98988204 -22.25682068 1.00868225 C-20.7420053 1.02089118 -19.2272212 1.03844735 -17.71253967 1.06199646 C-11.67974003 1.11903621 -6.0169052 -0.91239956 0 0 Z " fill="#F6F6F6" transform="translate(261,250)"/>
<path d="M0 0 C2.4375 1.8125 2.4375 1.8125 4 4 C4 4.99 4 5.98 4 7 C-13.49 7 -30.98 7 -49 7 C-49 3 -49 3 -47 1 C-44.2376997 0.83686832 -41.57677522 0.79278991 -38.81640625 0.83984375 C-38.0050975 0.84504532 -37.19378876 0.85024689 -36.3578949 0.85560608 C-33.75924986 0.87345282 -31.160995 0.90461981 -28.5625 0.9375 C-25.96761302 0.96511795 -23.37278269 0.98983919 -20.77781677 1.00868225 C-19.16176819 1.02093453 -17.54574953 1.03853354 -15.92982483 1.06199646 C-10.40105522 1.11118406 -5.53867782 -0.48584893 0 0 Z " fill="#F8F8F8" transform="translate(460,249)"/>
<path d="M0 0 C0.99 0.33 1.98 0.66 3 1 C5.62131622 1.12978801 8.22105978 1.2091326 10.84375 1.24609375 C12.4153704 1.2790202 13.98698485 1.31223204 15.55859375 1.34570312 C18.03397693 1.39318364 20.5093339 1.43764765 22.98486328 1.47680664 C25.37557454 1.51648551 27.76580378 1.56802479 30.15625 1.62109375 C30.89693726 1.6295079 31.63762451 1.63792206 32.40075684 1.64659119 C36.12346431 1.73627242 37.82429641 1.88286428 41 4 C40.67 5.32 40.34 6.64 40 8 C15.25 7.505 15.25 7.505 -10 7 C-10 2 -10 2 -8.9375 0.125 C-5.85593844 -1.66429381 -3.37523055 -0.72326369 0 0 Z " fill="#F0F0F0" transform="translate(359,248)"/>
<path d="M0 0 C8 1 8 1 11.3203125 1.5078125 C18.65113169 2.42715812 26.09152989 2.33842724 33.47119141 2.47680664 C35.48879227 2.5163628 37.50613364 2.5685288 39.5234375 2.62109375 C41.316604 2.65867798 41.316604 2.65867798 43.14599609 2.69702148 C46 3 46 3 48 5 C47.625 7.125 47.625 7.125 47 9 C43.10392646 9.07492449 39.7570287 8.95031229 36 8 C33.09331688 7.84861775 30.20541364 7.74356343 27.296875 7.68359375 C26.04019012 7.6524221 26.04019012 7.6524221 24.75811768 7.62062073 C22.08882644 7.5553745 19.41943902 7.49635642 16.75 7.4375 C14.93749016 7.39429106 13.12498995 7.35067601 11.3125 7.30664062 C6.87509791 7.19971871 2.43759932 7.09838134 -2 7 C-2.33 6.01 -2.66 5.02 -3 4 C-2.67 3.34 -2.34 2.68 -2 2 C-1.34 2 -0.68 2 0 2 C0 1.34 0 0.68 0 0 Z " fill="#FAFAFA" transform="translate(152,248)"/>
<path d="M0 0 C3.97038121 0.52938416 4.38863383 0.61810694 6.6875 3.5625 C8.96907464 7.30972192 9.46977628 10.10136716 8.75 14.5 C6.72333762 18.20390021 5.26955484 20.15363011 1.75 22.5 C-1.4375 22.125 -1.4375 22.125 -4.25 21.5 C-4.27888146 18.18751813 -4.29675799 14.87506833 -4.3125 11.5625 C-4.32087891 10.61697266 -4.32925781 9.67144531 -4.33789062 8.69726562 C-4.34111328 7.79814453 -4.34433594 6.89902344 -4.34765625 5.97265625 C-4.35289307 5.14000244 -4.35812988 4.30734863 -4.36352539 3.44946289 C-4.17050512 0.13491048 -3.39282959 0.52197378 0 0 Z " fill="#FAFAFA" transform="translate(379.25,168.5)"/>
<path d="M0 0 C2.01104286 1.00187696 4.01577723 2.0083591 6.0012207 3.06028748 C11.89603516 5.98218469 16.67215581 6.50574166 23.1875 6.28515625 C24.13004639 6.27238144 25.07259277 6.25960663 26.04370117 6.2464447 C29.02985267 6.20454969 32.01447637 6.13619575 35 6.0625 C37.98544097 5.9941219 40.97037759 5.93217861 43.95629883 5.88926697 C45.80537941 5.86232854 47.65432997 5.82107451 49.50268555 5.76271057 C54.79390375 5.68104476 59.04454205 6.36451142 63.9987793 8.25144958 C66.01815996 9.00679268 67.86397907 9.68216882 70 10 C70.66 9.34 71.32 8.68 72 8 C78.49961136 6.37509716 85.34907159 6.66141607 91.9453125 7.50390625 C98.30500634 8.24394335 104.66909068 8.10668624 111.0625 8.0625 C112.30966797 8.05798828 113.55683594 8.05347656 114.84179688 8.04882812 C117.89458221 8.03713163 120.94726498 8.02074086 124 8 C124 8.33 124 8.66 124 9 C120.37789056 9.83038457 117.02945473 10.1285125 113.31640625 10.1328125 C112.23020996 10.13450439 111.14401367 10.13619629 110.02490234 10.13793945 C108.88230957 10.13366943 107.7397168 10.12939941 106.5625 10.125 C105.39412598 10.1252417 104.22575195 10.1254834 103.02197266 10.12573242 C96.9260704 10.10410973 90.9398474 9.91435509 84.875 9.3125 C79.34795074 8.81253148 75.97007951 9.56184779 71 12 C67.31212107 13.22929298 66.69406682 12.61233007 63.25 11.0625 C54.36909676 7.71339475 45.38303497 8.79978716 36.08984375 9.34375 C34.52206177 9.42749878 34.52206177 9.42749878 32.92260742 9.51293945 C30.86051014 9.62639844 28.79925142 9.75681498 26.73950195 9.90698242 C16.20959463 10.50542153 7.55732217 8.20344558 -1 2 C-0.67 1.34 -0.34 0.68 0 0 Z " fill="#672B34" transform="translate(236,316)"/>
<path d="M0 0 C0.495 1.485 0.495 1.485 1 3 C-1.05233685 5.2477975 -2.00667261 6.0022242 -5 7 C-7.48377292 6.99158043 -9.94943749 6.87113016 -12.4296875 6.7421875 C-15.918038 7.09208284 -17.43251523 7.54983439 -20 10 C-20.72688244 13.34522241 -20.69945816 16.6496411 -20.6875 20.0625 C-20.70404993 21.88681143 -20.72840826 23.71107388 -20.76171875 25.53515625 C-20.76131592 26.343479 -20.76091309 27.15180176 -20.76049805 27.98461914 C-21 30 -21 30 -23 32 C-26.26366681 32.0623347 -29.47994189 31.86545371 -32.73828125 31.6796875 C-36.75198116 32.07384725 -38.26963711 33.06961052 -41 36 C-41.80342377 38.33130794 -41.80342377 38.33130794 -41.8125 40.75 C-41.86019531 41.54921875 -41.90789062 42.3484375 -41.95703125 43.171875 C-41.97121094 43.77515625 -41.98539063 44.3784375 -42 45 C-44 43 -44 43 -44.4375 39.75 C-43.86414033 34.8354885 -42.45097494 33.45097494 -39 30 C-35.93466836 28.46733418 -32.73245728 28.89723529 -29.375 28.9375 C-28.31539062 28.94426758 -28.31539062 28.94426758 -27.234375 28.95117188 C-25.48954725 28.96296125 -23.744763 28.98089676 -22 29 C-22.01571045 28.37955811 -22.0314209 27.75911621 -22.04760742 27.11987305 C-22.10996214 24.30917472 -22.14899148 21.49862188 -22.1875 18.6875 C-22.21263672 17.71103516 -22.23777344 16.73457031 -22.26367188 15.72851562 C-22.27333984 14.79072266 -22.28300781 13.85292969 -22.29296875 12.88671875 C-22.3086792 12.02264404 -22.32438965 11.15856934 -22.34057617 10.26831055 C-21.92385564 7.49286222 -21.21724623 6.66982607 -19 5 C-14.73773505 3.57924502 -10.50149052 3.66785658 -6.03125 3.4765625 C-2.84954577 2.97634611 -1.89171879 2.52679582 0 0 Z " fill="#642831" transform="translate(233,319)"/>
<path d="M0 0 C4.12222416 3.71808453 5.78441918 8.46692533 6.25 13.9375 C6 16 6 16 5 17 C3.48071962 17.07179964 1.95832518 17.08392007 0.4375 17.0625 C-0.38878906 17.05347656 -1.21507812 17.04445313 -2.06640625 17.03515625 C-3.02353516 17.01775391 -3.02353516 17.01775391 -4 17 C-6.47372672 12.73969287 -5.93657366 9.59543269 -4.78125 5.02734375 C-3.77147796 2.4069853 -2.49720534 1.24860267 0 0 Z " fill="#F4F4F4" transform="translate(302,373)"/>
<path d="M0 0 C3.3665914 1.43080134 4.67385744 2.90186865 6.5 6.0625 C6.35384044 9.78956873 6.15788293 11.40461707 3.5 14.0625 C0.0625 14.4375 0.0625 14.4375 -3.5 14.0625 C-6.12541413 11.86053976 -6.4445448 10.44276421 -6.9375 7.0625 C-6.5 4.0625 -6.5 4.0625 -4.8125 1.625 C-2.5 0.0625 -2.5 0.0625 0 0 Z " fill="#F5F5F5" transform="translate(206.5,256.9375)"/>
<path d="M0 0 C2.69575499 3.05518899 3.01395669 4.58827768 2.875 8.6875 C2 12 2 12 -1 14 C-3.68344433 13.79874167 -5.49251493 13.29749125 -7.8125 11.9375 C-9.74260331 8.78838407 -9.66991155 5.58030509 -9 2 C-6.26654495 -1.3408895 -3.93486517 -1.61430366 0 0 Z " fill="#F4F4F4" transform="translate(409,257)"/>
<path d="M0 0 C2.875 0.3125 2.875 0.3125 6 1 C8.08940868 4.13411302 8.27364412 4.97450472 8.25 8.5625 C8.25515625 9.34753906 8.2603125 10.13257813 8.265625 10.94140625 C8 13 8 13 6 15 C3.0625 15.375 3.0625 15.375 0 15 C-2.80872754 12.65939372 -2.98435997 11.14597363 -3.375 7.5 C-2.99007552 3.90737156 -2.45622327 2.55856591 0 0 Z " fill="#F5F5F5" transform="translate(301,453)"/>
<path d="M0 0 C2.31 0 4.62 0 7 0 C7.625 1.75 7.625 1.75 8 4 C7.34971004 5.34139673 6.68101989 6.67394037 6 8 C5.61989248 9.34835882 5.2874705 10.71093171 5 12.08203125 C4.7525 13.23348633 4.7525 13.23348633 4.5 14.40820312 C4.2525 15.59833008 4.2525 15.59833008 4 16.8125 C2.84683855 22.27650328 1.60056206 27.6481206 0 33 C-0.99 32.34 -1.98 31.68 -3 31 C-2.52643104 26.73787932 -1.68543613 22.96188527 -0.375 18.875 C1.47223595 12.45875534 0.86408282 6.54829025 0 0 Z " fill="#282828" transform="translate(190,166)"/>
<path d="M0 0 C0.33 0 0.66 0 1 0 C1.05068569 7.04749482 1.08572754 14.09494268 1.10986328 21.14257812 C1.11992445 23.54038245 1.13357479 25.9381745 1.15087891 28.3359375 C1.1751218 31.78128082 1.18648198 35.22646199 1.1953125 38.671875 C1.20563507 39.74491882 1.21595764 40.81796265 1.22659302 41.92352295 C1.22674408 42.92425842 1.22689514 43.9249939 1.22705078 44.95605469 C1.231492 45.83541687 1.23593323 46.71477905 1.24050903 47.62078857 C1 50 1 50 -1 54 C-5.29 54 -9.58 54 -14 54 C-14 53.34 -14 52.68 -14 52 C-8.06 51.505 -8.06 51.505 -2 51 C-1.02725026 45.21542771 -0.78930874 39.55083219 -0.68359375 33.69140625 C-0.66281265 32.72468491 -0.64203156 31.75796356 -0.62062073 30.76194763 C-0.55561009 27.69553242 -0.49646723 24.62903678 -0.4375 21.5625 C-0.3942686 19.4746013 -0.35065288 17.38671051 -0.30664062 15.29882812 C-0.19997885 10.19929967 -0.09857691 5.09969089 0 0 Z " fill="#5B2B32" transform="translate(210,370)"/>
<path d="M0 0 C1.22589844 0.15275391 1.22589844 0.15275391 2.4765625 0.30859375 C3.41628906 0.43427734 3.41628906 0.43427734 4.375 0.5625 C4.375 0.8925 4.375 1.2225 4.375 1.5625 C3.68792969 1.67207031 3.00085938 1.78164063 2.29296875 1.89453125 C1.39191406 2.05308594 0.49085938 2.21164062 -0.4375 2.375 C-1.33082031 2.52582031 -2.22414062 2.67664063 -3.14453125 2.83203125 C-5.89595838 3.64229404 -6.97424316 4.23450959 -8.625 6.5625 C-9.19823807 8.83411255 -9.19823807 8.83411255 -9.3125 11.25 C-9.41111328 12.46236328 -9.41111328 12.46236328 -9.51171875 13.69921875 C-9.54910156 14.31410156 -9.58648437 14.92898438 -9.625 15.5625 C-11.625 13.5625 -11.625 13.5625 -12.0625 10.3125 C-11.48914033 5.3979885 -10.07597494 4.01347494 -6.625 0.5625 C-4.10446405 -0.69776798 -2.7707902 -0.35624445 0 0 Z " fill="#6C2F38" transform="translate(200.625,348.4375)"/>
<path d="M0 0 C0 0.33 0 0.66 0 1 C-0.7734375 1.10957031 -1.546875 1.21914063 -2.34375 1.33203125 C-9.51401696 2.40824798 -9.51401696 2.40824798 -16.3125 4.8125 C-20.113132 6.03643234 -20.59662144 6.14123855 -24 4.6875 C-24.99 4.130625 -25.98 3.57375 -27 3 C-25.3125 1.875 -25.3125 1.875 -23 1 C-20.25 1.875 -20.25 1.875 -18 3 C-17.34 2.34 -16.68 1.68 -16 1 C-10.72805845 -0.31798539 -5.39478968 -0.09595476 0 0 Z " fill="#622A32" transform="translate(324,323)"/>
<path d="M0 0 C0.66 0.33 1.32 0.66 2 1 C1.01 5.29 0.02 9.58 -1 14 C-1.99 13.34 -2.98 12.68 -4 12 C-2.84965035 3.45454545 -2.84965035 3.45454545 -2 1 C-1.34 0.67 -0.68 0.34 0 0 Z " fill="#3F3F3F" transform="translate(191,185)"/>
<path d="M0 0 C0 0.33 0 0.66 0 1 C-0.83144531 1.19335938 -1.66289062 1.38671875 -2.51953125 1.5859375 C-3.60621094 1.84632813 -4.69289062 2.10671875 -5.8125 2.375 C-6.89144531 2.63023437 -7.97039062 2.88546875 -9.08203125 3.1484375 C-12.15533343 3.88732881 -12.15533343 3.88732881 -15 6 C-15 5.01 -15 4.02 -15 3 C-10.58899923 -0.96990069 -5.56703067 -0.29186374 0 0 Z " fill="#782632" transform="translate(227,323)"/>
<path d="M0 0 C0.33 0 0.66 0 1 0 C1.125 3.375 1.125 3.375 1 7 C0.34 7.66 -0.32 8.32 -1 9 C-1.66 9 -2.32 9 -3 9 C-2.25 2.25 -2.25 2.25 0 0 Z " fill="#333333" transform="translate(193,177)"/>
<path d="M0 0 C2.49361571 1.20381448 4.68143083 2.45428722 7 4 C7 4.66 7 5.32 7 6 C4.33333333 4.66666667 1.66666667 3.33333333 -1 2 C-0.67 1.34 -0.34 0.68 0 0 Z " fill="#702A34" transform="translate(236,316)"/>
</svg>
