<?xml version="1.0" encoding="UTF-8"?>
<svg version="1.1" xmlns="http://www.w3.org/2000/svg" width="1747" height="744">
<path d="M0 0 C576.51 0 1153.02 0 1747 0 C1747 245.52 1747 491.04 1747 744 C1170.49 744 593.98 744 0 744 C0 498.48 0 252.96 0 0 Z " fill="#10294B" transform="translate(0,0)"/>
<path d="M0 0 C84.15 0 168.3 0 255 0 C255 33 255 66 255 100 C236.52 100 218.04 100 199 100 C199 156.76 199 213.52 199 272 C217.81 272 236.62 272 256 272 C256 305.33 256 338.66 256 373 C171.52 373 87.04 373 0 373 C0 339.67 0 306.34 0 272 C18.48 272 36.96 272 56 272 C56 215.24 56 158.48 56 100 C37.52 100 19.04 100 0 100 C0 67 0 34 0 0 Z " fill="#F05735" transform="translate(167,182)"/>
<path d="M0 0 C0.96421875 -0.020625 1.9284375 -0.04125 2.921875 -0.0625 C9.93402602 -0.10009867 15.97185443 1.07662138 22.625 3.25 C23.77871094 3.62640625 24.93242188 4.0028125 26.12109375 4.390625 C46.99336202 12.26276868 62.64719719 25.5153353 72.4375 45.6875 C73.19188431 47.53155053 73.92088823 49.38617472 74.625 51.25 C75.2128125 52.6421875 75.2128125 52.6421875 75.8125 54.0625 C82.03883949 71.35788748 80.83383184 93.43088304 73.625 110.25 C73.36267578 110.87535645 73.10035156 111.50071289 72.83007812 112.14501953 C69.25904409 120.43247321 64.66993207 127.54775493 58.625 134.25 C58.03332031 134.93449219 57.44164062 135.61898437 56.83203125 136.32421875 C42.43871401 151.94511102 21.61390836 159.17608973 0.85546875 160.48828125 C-20.49474546 161.07958293 -41.52497773 155.05977901 -57.375 140.25 C-58.21417969 139.50105469 -59.05335937 138.75210938 -59.91796875 137.98046875 C-69.96377671 128.57297234 -76.20929423 117.29175023 -80.375 104.25 C-80.63466553 103.45851563 -80.89433105 102.66703125 -81.16186523 101.8515625 C-83.34842278 94.66558294 -83.88340547 87.9882823 -83.8125 80.5 C-83.80347656 79.35547363 -83.79445313 78.21094727 -83.78515625 77.03173828 C-83.39447549 57.88566803 -76.33682811 40.41579238 -63.375 26.25 C-62.78460937 25.56808594 -62.19421875 24.88617188 -61.5859375 24.18359375 C-45.55551937 6.75477745 -22.96296376 0.12181944 0 0 Z " fill="#FDFDFD" transform="translate(1291.375,298.75)"/>
<path d="M0 0 C84.15 0 168.3 0 255 0 C255 33 255 66 255 100 C236.52 100 218.04 100 199 100 C199 156.76 199 213.52 199 272 C217.81 272 236.62 272 256 272 C256 305.33 256 338.66 256 373 C171.52 373 87.04 373 0 373 C0 339.67 0 306.34 0 272 C18.48 272 36.96 272 56 272 C56 215.24 56 158.48 56 100 C37.52 100 19.04 100 0 100 C0 67 0 34 0 0 Z M14 14 C14 37.76 14 61.52 14 86 C29.19732348 86.17034659 29.19732348 86.17034659 44.39501953 86.29785156 C46.30764155 86.32723035 48.22024211 86.35805775 50.1328125 86.390625 C51.11693115 86.39175293 52.1010498 86.39288086 53.11499023 86.39404297 C58.86573181 86.51357676 62.54802086 86.97375414 67 91 C69.41192073 94.56776679 69.28352539 98.15311814 69.26069641 102.31210327 C69.26643473 103.41956419 69.26643473 103.41956419 69.27228898 104.54939806 C69.28261117 107.02437808 69.27862834 109.49912576 69.2746582 111.97412109 C69.27900514 113.74820674 69.28418823 115.5222905 69.29014587 117.29637146 C69.30354984 122.11665278 69.30411293 126.93685575 69.30158257 131.75715208 C69.3005137 135.78054011 69.30539416 139.80391223 69.310188 143.82729685 C69.32128826 153.31944695 69.32171783 162.81155748 69.31567383 172.30371094 C69.30963414 182.09669296 69.32194374 191.8895313 69.3432439 201.6824888 C69.36085712 210.08939702 69.36686165 218.49625949 69.36360615 226.90318549 C69.36179253 231.92463627 69.36443729 236.94598459 69.37832069 241.96741867 C69.39088967 246.69031032 69.38896373 251.41297799 69.37590981 256.13586617 C69.37354236 257.86846174 69.37628475 259.60107303 69.38453293 261.33365059 C69.39498813 263.70067028 69.38691002 266.06693675 69.3742218 268.43392944 C69.38159609 269.11798556 69.38897037 269.80204167 69.39656812 270.50682676 C69.34548156 275.04354778 68.41828394 278.16445554 66 282 C60.35078341 285.43669401 54.96467328 285.46840324 48.47265625 285.51171875 C47.59508667 285.52835571 46.71751709 285.54499268 45.81335449 285.56213379 C42.56330862 285.61957594 39.31286065 285.65209652 36.0625 285.6875 C25.1415625 285.8421875 25.1415625 285.8421875 14 286 C14 309.76 14 333.52 14 358 C88.91 358 163.82 358 241 358 C241 334.24 241 310.48 241 286 C226.50593533 285.79022354 226.50593533 285.79022354 212.01147461 285.61206055 C210.18341053 285.57975087 208.35536486 285.54637437 206.52734375 285.51171875 C205.59152466 285.50547485 204.65570557 285.49923096 203.69152832 285.49279785 C198.08045128 285.37022037 193.79367699 285.05107226 189 282 C183.63536904 274.39234364 184.4352718 265.98085098 184.48242188 257.0625 C184.47699637 255.34032602 184.46987131 253.61815669 184.46118164 251.89599609 C184.44299623 247.23480783 184.449996 242.57397498 184.46269798 237.91278076 C184.47285047 233.02647977 184.46342606 228.14020848 184.45715332 223.25390625 C184.44988346 215.0494238 184.45944725 206.84508554 184.47851562 198.640625 C184.50028308 189.16563867 184.49323124 179.69099667 184.47121 170.21601868 C184.45303715 162.06969768 184.4505069 153.92348012 184.46096468 145.77714539 C184.46718924 140.9166398 184.46806381 136.05629587 184.45481873 131.19580078 C184.44323339 126.62542667 184.45133481 122.05549496 184.47439575 117.48516846 C184.47966854 115.81146986 184.47819362 114.1377338 184.46934509 112.46405029 C184.39385156 96.72962982 184.39385156 96.72962982 189 90 C193.37476405 85.85459351 199.07417528 86.52422946 204.76953125 86.48828125 C205.6884314 86.47164429 206.60733154 86.45500732 207.55407715 86.43786621 C210.97332068 86.38020921 214.39295309 86.34784977 217.8125 86.3125 C229.2903125 86.1578125 229.2903125 86.1578125 241 86 C241 62.24 241 38.48 241 14 C166.09 14 91.18 14 14 14 Z " fill="#FBFAFB" transform="translate(167,182)"/>
<path d="M0 0 C32 0 32 0 39.5 7.1875 C41.15649414 9.67114258 41.15649414 9.67114258 42.22265625 11.89453125 C45.18785612 17.56513344 48.97917205 22.36814216 52.9375 27.375 C54.30528143 29.16062436 55.66858458 30.94968815 57.02734375 32.7421875 C57.69362793 33.62100586 58.35991211 34.49982422 59.04638672 35.40527344 C62.64195526 40.18079236 66.17197721 45.00414653 69.70410156 49.82666016 C74.73437546 56.67873206 79.87636276 63.44240766 85.05664062 70.18164062 C90.82636866 77.70710961 96.38672315 85.34553157 102 93 C102.33 62.31 102.66 31.62 103 0 C113.89 0 124.78 0 136 0 C136 50.82 136 101.64 136 154 C107 154 107 154 98.9375 146 C97.05786133 143.3059082 97.05786133 143.3059082 95.83203125 140.98828125 C93.26755213 136.39538075 90.35511203 132.32843627 87.125 128.1875 C86.14305095 126.87708034 85.16395117 125.56452148 84.1875 124.25 C80.53716172 119.36744092 76.82842542 114.52983019 73.125 109.6875 C67.38758646 102.18148177 61.7488821 94.61123273 56.1730957 86.98461914 C51.42149384 80.5111159 46.51358513 74.16776109 41.52880859 67.87231445 C40.97918457 67.17452881 40.42956055 66.47674316 39.86328125 65.7578125 C39.38157471 65.1508252 38.89986816 64.54383789 38.40356445 63.91845703 C36.78944491 61.71220353 35.40646017 59.34410029 34 57 C33.67 89.01 33.34 121.02 33 154 C22.11 154 11.22 154 0 154 C0 103.18 0 52.36 0 0 Z " fill="#FDFEFE" transform="translate(1040,302)"/>
<path d="M0 0 C1.05058594 0.01087646 2.10117188 0.02175293 3.18359375 0.03295898 C21.29919155 0.40201137 39.97555836 5.64370601 54.25 17.375 C54.95389959 18.68905768 55.62658835 20.02090246 56.25 21.375 C54.00669826 24.62967039 51.75420382 27.87787306 49.5 31.125 C48.54867188 32.50558594 48.54867188 32.50558594 47.578125 33.9140625 C46.959375 34.80351562 46.340625 35.69296875 45.703125 36.609375 C45.13754883 37.42631836 44.57197266 38.24326172 43.98925781 39.08496094 C42.23544044 41.39417022 40.34582167 43.37553795 38.25 45.375 C37.6209375 44.98828125 36.991875 44.6015625 36.34375 44.203125 C22.39235708 35.7146269 9.099453 29.44050482 -7.75 31.375 C-12.59638116 32.79063444 -16.08974981 35.01972314 -18.75 39.375 C-19.5648225 43.88955711 -19.38115196 48.0225315 -17.4375 52.1875 C-10.25601515 58.03289465 -0.85386402 60.42533187 7.9375 62.8125 C35.05047395 70.47923024 35.05047395 70.47923024 46.25 78.375 C46.89324219 78.82359375 47.53648438 79.2721875 48.19921875 79.734375 C55.21477125 85.15202509 59.30361712 92.82513546 61.25 101.375 C62.77063475 116.2745082 60.72909102 129.3962009 51.25 141.375 C42.24529626 151.56453318 29.83010805 158.10774217 16.25 159.375 C12.16593637 159.5417337 8.08708612 159.5600701 4 159.5625 C2.93136719 159.57474609 1.86273437 159.58699219 0.76171875 159.59960938 C-21.90694782 159.64092529 -42.31228669 150.4593069 -59.75 136.375 C-59.27138155 131.99298219 -56.36307421 129.28040224 -53.5625 126.125 C-52.56079216 124.97153301 -51.56078412 123.81658762 -50.5625 122.66015625 C-49.83740234 121.82121826 -49.83740234 121.82121826 -49.09765625 120.96533203 C-46.48693398 117.88449057 -44.12023729 114.64208383 -41.75 111.375 C-38.21605287 111.99344075 -36.09350604 113.41565294 -33.25 115.5625 C-19.4504728 125.46880756 -4.70616392 129.83708839 12.25 128.375 C17.1352029 127.17168362 20.9655167 125.41481981 24.875 122.25 C26.88043253 118.05682289 27.21766657 113.92872502 26.25 109.375 C23.49748852 104.92142303 20.14882677 102.91398216 15.4375 100.9375 C14.75171875 100.64166016 14.0659375 100.34582031 13.359375 100.04101562 C6.35579188 97.16696175 -0.89001472 95.44470027 -8.22631836 93.64477539 C-23.47039954 89.81253525 -39.41485446 83.71092219 -48.75 70.375 C-54.70221673 59.55607719 -55.33212292 46.90512058 -53.1015625 34.87890625 C-49.59176137 23.34455981 -42.32097487 13.87092906 -31.9609375 7.71875 C-21.53684146 2.22387767 -11.76210311 -0.16685863 0 0 Z " fill="#FCFDFD" transform="translate(1525.75,298.625)"/>
<path d="M0 0 C11.22 0 22.44 0 34 0 C34 40.59 34 81.18 34 123 C59.08 123 84.16 123 110 123 C110 133.23 110 143.46 110 154 C73.7 154 37.4 154 0 154 C0 103.18 0 52.36 0 0 Z " fill="#FCFDFD" transform="translate(831,302)"/>
<path d="M0 0 C11.22 0 22.44 0 34 0 C34 40.59 34 81.18 34 123 C59.08 123 84.16 123 110 123 C110 133.23 110 143.46 110 154 C73.7 154 37.4 154 0 154 C0 103.18 0 52.36 0 0 Z " fill="#FCFDFD" transform="translate(696,302)"/>
<path d="M0 0 C9.10345985 7.16416647 16.24759239 18.46597171 18 30 C18.98858455 45.62601379 17.2071764 60.48118478 6.91796875 72.8984375 C-1.15981538 81.74945148 -10.37345643 87.69418069 -22.63671875 88.37109375 C-32.73852208 88.6166306 -41.07547171 88.2662757 -50 83 C-50.87914062 82.50371094 -51.75828125 82.00742187 -52.6640625 81.49609375 C-63.73285336 74.55719918 -69.11432687 64.15732065 -73 52 C-73.20109375 51.37867188 -73.4021875 50.75734375 -73.609375 50.1171875 C-76.17885571 36.19060204 -73.36632114 22.12192536 -65.6875 10.27734375 C-49.64833756 -11.3681 -22.12357149 -14.98803686 0 0 Z " fill="#112A4C" transform="translate(1317,339)"/>
<path d="M0 0 C11.22 0 22.44 0 34 0 C34 51.15 34 102.3 34 155 C22.78 155 11.56 155 0 155 C0 103.85 0 52.7 0 0 Z " fill="#FAFAFB" transform="translate(1403,301)"/>
<path d="M0 0 C10.89 0 21.78 0 33 0 C33 50.82 33 101.64 33 154 C22.11 154 11.22 154 0 154 C0 103.18 0 52.36 0 0 Z " fill="#FFFFFF" transform="translate(967,302)"/>
<path d="M0 0 C10.89 0 21.78 0 33 0 C33 50.82 33 101.64 33 154 C22.11 154 11.22 154 0 154 C0 103.18 0 52.36 0 0 Z " fill="#FFFFFF" transform="translate(623,302)"/>
<path d="M0 0 C7.62987035 6.57670176 12.43381722 13.28605166 13.48046875 23.578125 C13.87236815 32.86614083 11.40321576 39.77327894 5.47265625 46.91796875 C1.78440883 50.79781344 -1.7715621 53.20141087 -6.77734375 55.04296875 C-7.87046875 55.45546875 -8.96359375 55.86796875 -10.08984375 56.29296875 C-20.23838248 58.35707832 -28.08437407 56.90610388 -37.00390625 51.7578125 C-43.45515315 47.42073828 -46.24031197 41.8489522 -49.08984375 34.79296875 C-51.10016199 23.82759651 -50.14256206 15.38705303 -43.77734375 6.04296875 C-33.29584913 -6.09992828 -13.33708044 -9.39785837 0 0 Z " fill="#FAFAFB" transform="translate(1491.77734375,200.95703125)"/>
<path d="M0 0 C7.363125 -0.0928125 7.363125 -0.0928125 14.875 -0.1875 C16.40237793 -0.21481201 17.92975586 -0.24212402 19.50341797 -0.27026367 C28.30279126 -0.32370116 36.32513533 0.01604383 43.9375 4.875 C48.61253985 9.69170773 50.12693702 14.29113083 50.25 20.875 C50.16334248 26.24776655 49.20494375 29.78484818 45.3125 33.6953125 C40.50726744 38 40.50726744 38 38 38 C41.26542755 44.35816421 45.09834509 50.02758476 49.42578125 55.71484375 C51 58 51 58 51 60 C45.84569224 60.59702406 41.13877321 60.85911379 36 60 C31.93736352 56.67784406 30.06295043 52.26151868 27.8671875 47.58984375 C26.7144089 45.36893113 25.83109612 43.71469392 24 42 C20.18220853 41.00899881 16.99631309 41 13 41 C13 47.27 13 53.54 13 60 C8.71 60 4.42 60 0 60 C0 40.2 0 20.4 0 0 Z " fill="#FBFCFC" transform="translate(1018,196)"/>
<path d="M0 0 C13 0 13 0 17.3828125 4.06640625 C18.67355958 5.8681573 19.91968971 7.70251022 21.125 9.5625 C22.12176758 10.98405396 22.12176758 10.98405396 23.13867188 12.43432617 C24.4822038 14.35391198 25.80897669 16.28534396 27.11816406 18.22851562 C29.30179584 21.44447151 31.59031379 24.56828282 33.91552734 27.68261719 C35.96586003 30.43871925 37.97956706 33.22190471 40 36 C40.33 24.45 40.66 12.9 41 1 C44.96 1 48.92 1 53 1 C53 20.8 53 40.6 53 61 C42 61 42 61 39.30078125 58.89453125 C38.64464844 57.87746094 37.98851562 56.86039063 37.3125 55.8125 C36.50914494 54.63231695 35.70293108 53.45407699 34.89453125 52.27734375 C34.45189941 51.6107373 34.00926758 50.94413086 33.55322266 50.25732422 C30.38968752 45.65970619 26.90808003 41.29243247 23.5 36.875 C22.11254065 35.06145677 20.72699637 33.24644614 19.34375 31.4296875 C18.74755859 30.64835449 18.15136719 29.86702148 17.53710938 29.06201172 C16.30685681 27.41164432 15.14182498 25.71273747 14 24 C13.67 35.88 13.34 47.76 13 60 C8.71 60 4.42 60 0 60 C0 40.2 0 20.4 0 0 Z " fill="#F9FAFA" transform="translate(707,196)"/>
<path d="M0 0 C14.85 0 29.7 0 45 0 C45 3.96 45 7.92 45 12 C34.44 12 23.88 12 13 12 C13 16.29 13 20.58 13 25 C22.57 25 32.14 25 42 25 C42 28.96 42 32.92 42 37 C32.43 37 22.86 37 13 37 C13 41.29 13 45.58 13 50 C23.56 50 34.12 50 45 50 C45 53.63 45 57.26 45 61 C30.15 61 15.3 61 0 61 C0 40.87 0 20.74 0 0 Z " fill="#FAFAFB" transform="translate(937,196)"/>
<path d="M0 0 C4.62 0 9.24 0 14 0 C14.01458252 1.21582764 14.02916504 2.43165527 14.04418945 3.68432617 C14.10225098 8.20399078 14.1794836 12.72316127 14.26245117 17.24243164 C14.29566354 19.19677702 14.32370695 21.15121747 14.34643555 23.10571289 C14.38004933 25.91854282 14.43236854 28.73050447 14.48828125 31.54296875 C14.49467117 32.41398727 14.5010611 33.2850058 14.50764465 34.18241882 C14.62177961 38.91334316 14.89503442 42.18530184 18 46 C22.25442291 48.83628194 26.00689181 48.51845373 31 48 C34.93491592 46.3604517 36.38929195 44.8669077 38 41 C38.32097828 38.98576875 38.32097828 38.98576875 38.31884766 36.87402344 C38.33871735 36.07349548 38.35858704 35.27296753 38.37905884 34.44818115 C38.39061005 33.59387512 38.40216125 32.73956909 38.4140625 31.859375 C38.43342865 30.97719299 38.4527948 30.09501099 38.4727478 29.18609619 C38.53242848 26.37416184 38.57888283 23.5621863 38.625 20.75 C38.66319038 18.84112819 38.70224273 16.93227341 38.7421875 15.0234375 C38.83812058 10.34909704 38.92219416 5.67467591 39 1 C43.29 1 47.58 1 52 1 C52.12441814 6.94067917 52.21472356 12.88058531 52.2746582 18.82226562 C52.2996658 20.83965278 52.3336834 22.85695059 52.37719727 24.87402344 C52.83566261 46.68618627 52.83566261 46.68618627 47 54 C41.85663646 59.27871521 35.64516195 61.35890814 28.43994141 61.51879883 C27.67601074 61.51259521 26.91208008 61.5063916 26.125 61.5 C25.3314209 61.49572998 24.5378418 61.49145996 23.72021484 61.48706055 C15.95506916 61.26130174 11.05625581 59.1366836 5.625 53.5625 C0.62069511 45.67109614 -0.15490211 39.00115612 -0.09765625 29.8828125 C-0.0962413 29.02565643 -0.09482635 28.16850037 -0.09336853 27.28536987 C-0.08780022 24.5652101 -0.07525364 21.84513462 -0.0625 19.125 C-0.0574809 17.27343869 -0.05291871 15.42187609 -0.04882812 13.5703125 C-0.03784117 9.04684285 -0.02059852 4.52343568 0 0 Z " fill="#F7F8F9" transform="translate(617,196)"/>
<path d="M0 0 C2.83460569 1.43759835 5.54389354 2.93351507 8.2109375 4.66015625 C8.2109375 8.0733686 7.54226284 9.0548851 5.7109375 11.84765625 C5.246875 12.56308594 4.7828125 13.27851563 4.3046875 14.015625 C3.94375 14.55832031 3.5828125 15.10101563 3.2109375 15.66015625 C2.5509375 15.39203125 1.8909375 15.12390625 1.2109375 14.84765625 C0.2209375 14.45578125 -0.7690625 14.06390625 -1.7890625 13.66015625 C-2.41683594 13.39589844 -3.04460937 13.13164062 -3.69140625 12.859375 C-7.84060854 11.17898789 -11.23988701 10.03981414 -15.7890625 10.66015625 C-18.13167858 12.03942398 -18.13167858 12.03942398 -19.7890625 13.66015625 C-19.62130333 16.10683657 -19.62130333 16.10683657 -18.7890625 18.66015625 C-16.94835396 19.96402058 -16.94835396 19.96402058 -14.5390625 20.66015625 C-13.641875 20.98371094 -12.7446875 21.30726563 -11.8203125 21.640625 C-9.69645358 22.35496415 -7.57134328 23.06558847 -5.4453125 23.7734375 C2.33864908 26.51389186 7.44719753 29.1326763 11.2109375 36.66015625 C11.7347951 41.9159079 11.87599122 46.3054172 9.5234375 51.09765625 C5.21070848 55.87662624 1.22122444 59.37154457 -5.29296875 59.99609375 C-6.64556255 60.02612914 -7.99863899 60.03833287 -9.3515625 60.03515625 C-10.06103027 60.03354492 -10.77049805 60.03193359 -11.50146484 60.03027344 C-20.33461096 59.82647771 -27.76322326 56.97700757 -34.7890625 51.66015625 C-34.28384028 47.2815637 -31.61079028 44.84364401 -28.7890625 41.66015625 C-26.08661909 42.69344344 -23.72395975 43.70247304 -21.2890625 45.28515625 C-15.9573489 47.37975802 -10.45653287 47.26291208 -4.7890625 46.66015625 C-2.50177516 44.82131744 -2.50177516 44.82131744 -2.6640625 42.03515625 C-2.7053125 41.25140625 -2.7465625 40.46765625 -2.7890625 39.66015625 C-7.90243763 37.17613939 -12.92776965 35.2946796 -18.4140625 33.78515625 C-24.7049486 31.91628482 -29.49026872 29.47335809 -32.9453125 23.7421875 C-34.91449964 18.88303591 -34.14280639 13.88785564 -32.7265625 8.97265625 C-26.15861132 -2.25642158 -11.73907877 -4.81724408 0 0 Z " fill="#F9FAFB" transform="translate(1134.7890625,197.33984375)"/>
<path d="M0 0 C15.18 0 30.36 0 46 0 C46 4.29 46 8.58 46 13 C35.44 13 24.88 13 14 13 C14 16.96 14 20.92 14 25 C23.24 25 32.48 25 42 25 C42 28.96 42 32.92 42 37 C32.76 37 23.52 37 14 37 C14 44.92 14 52.84 14 61 C9.38 61 4.76 61 0 61 C0 40.87 0 20.74 0 0 Z " fill="#F0F2F4" transform="translate(1540,196)"/>
<path d="M0 0 C4.62 0 9.24 0 14 0 C17.76371618 8.81591178 21.12782824 17.71025022 24.3125 26.75 C24.77118256 28.04437783 25.23016549 29.33864925 25.68945312 30.6328125 C26.79590857 33.75418154 27.89936726 36.8765741 29 40 C31.29944074 36.55083889 32.59601872 32.98681129 34.00390625 29.12109375 C34.28725327 28.35322037 34.57060028 27.58534698 34.86253357 26.79420471 C35.76621283 24.3433097 36.66457708 21.89050913 37.5625 19.4375 C38.46494562 16.98128261 39.36849078 14.5254762 40.2731781 12.07008362 C40.83562175 10.54259694 41.3965897 9.01456592 41.95594788 7.48594666 C43.8897482 2.2205036 43.8897482 2.2205036 45 0 C49.62 0 54.24 0 59 0 C56.87012707 7.49149939 54.27818576 14.65838332 51.3671875 21.87890625 C50.92988312 22.97218735 50.49257874 24.06546844 50.04202271 25.19187927 C49.12464126 27.48266901 48.2051675 29.77262186 47.28369141 32.06176758 C45.86739996 35.58138683 44.45861497 39.10394344 43.05078125 42.62695312 C42.15668785 44.85694643 41.2621719 47.08677038 40.3671875 49.31640625 C39.94428436 50.37356339 39.52138123 51.43072052 39.08566284 52.51991272 C38.49967819 53.97294044 38.49967819 53.97294044 37.90185547 55.45532227 C37.55782684 56.31118423 37.21379822 57.1670462 36.85934448 58.04884338 C36 60 36 60 35 61 C32.98035801 61.07244053 30.95832876 61.08377188 28.9375 61.0625 C27.83277344 61.05347656 26.72804688 61.04445313 25.58984375 61.03515625 C24.73519531 61.02355469 23.88054688 61.01195312 23 61 C20.14387704 53.78681003 17.2923036 46.57183983 14.44648075 39.35458088 C13.12482614 36.00316336 11.8016286 32.65237258 10.47485352 29.30297852 C9.19384664 26.06895665 7.91696022 22.83333581 6.64288139 19.5965786 C5.9206074 17.76478688 5.19410633 15.93466372 4.46754456 14.10456848 C4.02716354 12.98378403 3.58678253 11.86299957 3.13305664 10.70825195 C2.74444962 9.72452103 2.35584259 8.7407901 1.95545959 7.72724915 C1 5 1 5 0 0 Z " fill="#F9FAFB" transform="translate(845,196)"/>
<path d="M0 0 C5.3958093 -1.37146373 10.79153896 -2.47716645 16 0 C21.31114509 5.64148495 24.63548808 12.93107657 27.94702148 19.86694336 C28.82398944 21.93100841 28.82398944 21.93100841 30 23 C30.38857178 22.3387915 30.77714355 21.67758301 31.17749023 20.99633789 C32.92925859 18.01746643 34.68334712 15.03996787 36.4375 12.0625 C37.04916016 11.02158203 37.66082031 9.98066406 38.29101562 8.90820312 C38.87431641 7.91884766 39.45761719 6.92949219 40.05859375 5.91015625 C40.86768188 4.53549194 40.86768188 4.53549194 41.69311523 3.13305664 C43 1 43 1 44 0 C46.53049402 -0.07313567 49.03304837 -0.09247527 51.5625 -0.0625 C52.62887695 -0.05573242 52.62887695 -0.05573242 53.71679688 -0.04882812 C55.47790013 -0.03700864 57.23896036 -0.01907263 59 0 C54.81715871 7.98882344 50.17083183 15.55103885 45.1875 23.0625 C43.84681421 25.09449676 42.50692769 27.12702118 41.16796875 29.16015625 C40.29047974 30.48478882 40.29047974 30.48478882 39.39526367 31.83618164 C37.17486782 35.27964068 36.83430203 37.35465927 36.68359375 41.4453125 C36.62075195 43.05986328 36.62075195 43.05986328 36.55664062 44.70703125 C36.51732422 45.83496094 36.47800781 46.96289062 36.4375 48.125 C36.37272461 49.82849609 36.37272461 49.82849609 36.30664062 51.56640625 C36.20034055 54.37745261 36.09964603 57.1887099 36 60 C31.71 60 27.42 60 23 60 C23.06703125 58.48792969 23.1340625 56.97585937 23.203125 55.41796875 C23.47132738 40.29975917 20.66956183 31.24010909 11.63525391 19.23144531 C8.95939645 15.58000651 6.6181442 11.7300175 4.25 7.875 C3.82017822 7.19308594 3.39035645 6.51117188 2.94750977 5.80859375 C0 1.12277777 0 1.12277777 0 0 Z " fill="#FBFCFC" transform="translate(1307,196)"/>
<path d="M0 0 C16.5 0 33 0 50 0 C50 4.29 50 8.58 50 13 C44.06 13 38.12 13 32 13 C32 28.84 32 44.68 32 61 C27.71 61 23.42 61 19 61 C19 45.16 19 29.32 19 13 C12.73 13 6.46 13 0 13 C0 8.71 0 4.42 0 0 Z " fill="#F8F8F9" transform="translate(1227,196)"/>
<path d="M0 0 C3.67125 -0.061875 7.3425 -0.12375 11.125 -0.1875 C12.84420654 -0.22846802 12.84420654 -0.22846802 14.59814453 -0.27026367 C20.10858701 -0.31519363 24.3246822 -0.28805137 29 3 C31.44031962 6.66047942 31.73696072 9.74105256 31 14 C29 16.5 29 16.5 27 18 C27.804375 18.804375 28.60875 19.60875 29.4375 20.4375 C33 24 33 24 33.375 27.75 C33.34890183 31.38417034 33.07014285 31.91324437 30.625 34.9375 C26.78237193 37.95670777 24.95529282 38.1211422 20.1171875 38.09765625 C19.06644043 38.09515869 18.01569336 38.09266113 16.93310547 38.09008789 C15.59393066 38.08098389 14.25475586 38.07187988 12.875 38.0625 C8.62625 38.041875 4.3775 38.02125 0 38 C0 25.46 0 12.92 0 0 Z " fill="#F8F9FA" transform="translate(750,501)"/>
<path d="M0 0 C4.05727426 2.66701945 6.60896401 5.86139524 8.25 10.4375 C9.19470016 16.58957175 9.30239087 22.46356606 6.1875 28 C2.95074357 32.28847561 -0.58368321 34.94907879 -5.953125 35.77734375 C-11.16414275 35.99890063 -15.19057079 35.10433595 -19.75 32.4375 C-24.97475147 27.44862896 -26.90520375 23.5469303 -27.1875 16.25 C-27.13091171 10.60374617 -26.38690163 7.23710204 -22.58203125 3.03125 C-15.55984459 -3.07760322 -8.46419994 -4.09439607 0 0 Z " fill="#132C4D" transform="translate(1482.75,209.5625)"/>
<path d="M0 0 C3.67125 -0.061875 7.3425 -0.12375 11.125 -0.1875 C12.84420654 -0.22846802 12.84420654 -0.22846802 14.59814453 -0.27026367 C21.54855332 -0.32693455 26.0953207 0.32463749 31.375 5.1875 C33.52738484 8.91278145 33.71695892 11.79213394 33 16 C31.50753576 19.19813766 29.73024573 21.74457962 27 24 C26.34 24 25.68 24 25 24 C25.5775 24.92683594 26.155 25.85367188 26.75 26.80859375 C27.50011664 28.01815684 28.25011031 29.22779619 29 30.4375 C29.3815625 31.04916016 29.763125 31.66082031 30.15625 32.29101562 C33 36.88671875 33 36.88671875 33 38 C29.48810455 38.63595692 26.48671481 38.85017139 23 38 C19.96436502 35.05506061 17.87233889 31.78187657 16 28 C16 27.34 16 26.68 16 26 C13.69 26 11.38 26 9 26 C9 29.96 9 33.92 9 38 C6.03 38 3.06 38 0 38 C0 25.46 0 12.92 0 0 Z " fill="#F8F8F9" transform="translate(687,501)"/>
<path d="M0 0 C3.63 0 7.26 0 11 0 C12.33858524 2.28874173 13.67101014 4.58069656 15 6.875 C15.3815625 7.52597656 15.763125 8.17695313 16.15625 8.84765625 C19 13.7734375 19 13.7734375 19 16 C19.66 16 20.32 16 21 16 C21.26683594 15.28328125 21.53367187 14.5665625 21.80859375 13.828125 C23.01880493 10.95536141 24.44166252 8.41024431 26.0625 5.75 C26.58972656 4.87859375 27.11695313 4.0071875 27.66015625 3.109375 C29 1 29 1 30 0 C32.97 0 35.94 0 39 0 C39 12.87 39 25.74 39 39 C36.03 39 33.06 39 30 39 C29.67 31.74 29.34 24.48 29 17 C26.03 21.29 23.06 25.58 20 30 C15.80866346 25.80866346 13.13651229 21.03025556 10 16 C9.67 23.59 9.34 31.18 9 39 C6.03 39 3.06 39 0 39 C0 26.13 0 13.26 0 0 Z " fill="#F5F6F7" transform="translate(1248,501)"/>
<path d="M0 0 C8 0 8 0 10.46875 2.01953125 C11.47421875 3.40205078 11.47421875 3.40205078 12.5 4.8125 C13.24121094 5.80507813 13.98242188 6.79765625 14.74609375 7.8203125 C15.86177734 9.39425781 15.86177734 9.39425781 17 11 C18.16208984 12.57394531 18.16208984 12.57394531 19.34765625 14.1796875 C21.25481037 16.76964988 23.13051334 19.38271867 25 22 C25.33 14.74 25.66 7.48 26 0 C28.64 0 31.28 0 34 0 C34 12.87 34 25.74 34 39 C27 39 27 39 25.19897461 37.75 C24.77108643 37.1725 24.34319824 36.595 23.90234375 36 C23.41056641 35.35933594 22.91878906 34.71867188 22.41210938 34.05859375 C21.92548828 33.37925781 21.43886719 32.69992187 20.9375 32 C20.44701172 31.35160156 19.95652344 30.70320312 19.45117188 30.03515625 C18.51485831 28.79247991 17.58706405 27.54329362 16.67163086 26.28515625 C14.14641818 22.83313482 11.5662296 19.42163947 9 16 C8.67 23.59 8.34 31.18 8 39 C5.36 39 2.72 39 0 39 C0 26.13 0 13.26 0 0 Z " fill="#FCFCFC" transform="translate(880,501)"/>
<path d="M0 0 C8 0 8 0 10.46875 2.01953125 C11.47421875 3.40205078 11.47421875 3.40205078 12.5 4.8125 C13.24121094 5.80507813 13.98242188 6.79765625 14.74609375 7.8203125 C15.86177734 9.39425781 15.86177734 9.39425781 17 11 C18.16208984 12.57394531 18.16208984 12.57394531 19.34765625 14.1796875 C21.25481037 16.76964988 23.13051334 19.38271867 25 22 C25.33 14.74 25.66 7.48 26 0 C28.64 0 31.28 0 34 0 C34 12.87 34 25.74 34 39 C27 39 27 39 24.96777344 37.41113281 C24.43700195 36.68249023 23.90623047 35.95384766 23.359375 35.203125 C22.76382812 34.4090625 22.16828125 33.615 21.5546875 32.796875 C20.95914062 31.95640625 20.36359375 31.1159375 19.75 30.25 C19.13898438 29.425 18.52796875 28.6 17.8984375 27.75 C16.76046673 26.20951555 15.63146763 24.66233243 14.51464844 23.10644531 C13.47802061 21.66479075 12.4061467 20.24801401 11.30566406 18.85449219 C10 17 10 17 10 15 C9.34 15 8.68 15 8 15 C8 22.92 8 30.84 8 39 C5.36 39 2.72 39 0 39 C0 26.13 0 13.26 0 0 Z " fill="#FCFCFD" transform="translate(1550,501)"/>
<path d="M0 0 C0.99 0.66 1.98 1.32 3 2 C1.79618552 4.49361571 0.54571278 6.68143083 -1 9 C-1.66 8.690625 -2.32 8.38125 -3 8.0625 C-6.68128776 6.75871059 -10.06950452 5.8077057 -14 6 C-18.07239489 8.03619745 -20.34953291 9.76922521 -22 14 C-22.34050529 18.88057582 -21.66327491 22.18366164 -18.5625 26 C-14.74096572 28.9826609 -12.82047845 29.18903837 -8 29 C-6.32546201 28.708776 -4.65449105 28.38929201 -3 28 C-3 26.02 -3 24.04 -3 22 C-5.97 22 -8.94 22 -12 22 C-12 19.36 -12 16.72 -12 14 C-6.39 14 -0.78 14 5 14 C5 19.61 5 25.22 5 31 C-3.14915869 35.65666211 -8.70215753 37.97073722 -18 37 C-23.7595827 34.93524394 -27.31726475 31.37903949 -30.8125 26.4375 C-32.87620607 20.46361401 -33.29403262 14.37970874 -31.00390625 8.3984375 C-24.0549637 -3.37342551 -11.79256666 -5.70017635 0 0 Z " fill="#F5F6F7" transform="translate(1514,503)"/>
<path d="M0 0 C3.17625 -0.061875 6.3525 -0.12375 9.625 -0.1875 C11.1092749 -0.22846802 11.1092749 -0.22846802 12.62353516 -0.27026367 C19.13835097 -0.33150057 23.3867546 0.66183306 28.375 5.125 C30.6579241 9.16401955 30.64118546 12.46361286 30 17 C28.5477834 21.52749881 26.52846939 24.08886941 22.25 26.3203125 C17.58522957 27.7294619 12.81937096 27.21660094 8 27 C8 30.96 8 34.92 8 39 C5.36 39 2.72 39 0 39 C0 26.13 0 13.26 0 0 Z " fill="#FBFBFC" transform="translate(1320,501)"/>
<path d="M0 0 C2.97 0 5.94 0 9 0 C9 4.95 9 9.9 9 15 C13.95 15 18.9 15 24 15 C24 10.05 24 5.1 24 0 C26.97 0 29.94 0 33 0 C33 12.87 33 25.74 33 39 C30.03 39 27.06 39 24 39 C24 33.72 24 28.44 24 23 C19.05 23 14.1 23 9 23 C9 28.28 9 33.56 9 39 C6.03 39 3.06 39 0 39 C0 26.13 0 13.26 0 0 Z " fill="#F4F5F6" transform="translate(1118,501)"/>
<path d="M0 0 C2.05078125 0.03255208 4.1015625 0.06510417 6.15234375 0.09765625 C10.12585862 7.7600065 13.6068394 15.58623542 16.96484375 23.53515625 C17.46693359 24.70498047 17.96902344 25.87480469 18.48632812 27.08007812 C19.19692383 28.7574707 19.19692383 28.7574707 19.921875 30.46875 C20.56539917 31.98359985 20.56539917 31.98359985 21.22192383 33.52905273 C22.15234375 36.09765625 22.15234375 36.09765625 22.15234375 39.09765625 C19.18234375 39.09765625 16.21234375 39.09765625 13.15234375 39.09765625 C12.16234375 36.45765625 11.17234375 33.81765625 10.15234375 31.09765625 C4.87234375 31.09765625 -0.40765625 31.09765625 -5.84765625 31.09765625 C-6.83765625 33.73765625 -7.82765625 36.37765625 -8.84765625 39.09765625 C-11.81765625 39.09765625 -14.78765625 39.09765625 -17.84765625 39.09765625 C-15.49175414 31.58512923 -12.57404107 24.34464109 -9.54931641 17.08349609 C-8.71349137 15.07563996 -7.88380057 13.06532324 -7.0546875 11.0546875 C-6.52509751 9.77719531 -5.99516256 8.49984606 -5.46484375 7.22265625 C-4.74723877 5.49402344 -4.74723877 5.49402344 -4.01513672 3.73046875 C-2.41757901 0.12777902 -2.41757901 0.12777902 0 0 Z " fill="#F7F8F9" transform="translate(1390.84765625,500.90234375)"/>
<path d="M0 0 C2.05078125 0.03255208 4.1015625 0.06510417 6.15234375 0.09765625 C10.12585862 7.7600065 13.6068394 15.58623542 16.96484375 23.53515625 C17.46693359 24.70498047 17.96902344 25.87480469 18.48632812 27.08007812 C19.19692383 28.7574707 19.19692383 28.7574707 19.921875 30.46875 C20.56539917 31.98359985 20.56539917 31.98359985 21.22192383 33.52905273 C22.15234375 36.09765625 22.15234375 36.09765625 22.15234375 39.09765625 C19.18234375 39.09765625 16.21234375 39.09765625 13.15234375 39.09765625 C12.16234375 36.45765625 11.17234375 33.81765625 10.15234375 31.09765625 C4.87234375 31.09765625 -0.40765625 31.09765625 -5.84765625 31.09765625 C-6.83765625 33.73765625 -7.82765625 36.37765625 -8.84765625 39.09765625 C-11.81765625 39.09765625 -14.78765625 39.09765625 -17.84765625 39.09765625 C-15.49175414 31.58512923 -12.57404107 24.34464109 -9.54931641 17.08349609 C-8.71349137 15.07563996 -7.88380057 13.06532324 -7.0546875 11.0546875 C-6.52509751 9.77719531 -5.99516256 8.49984606 -5.46484375 7.22265625 C-4.74723877 5.49402344 -4.74723877 5.49402344 -4.01513672 3.73046875 C-2.41757901 0.12777902 -2.41757901 0.12777902 0 0 Z " fill="#F7F8F9" transform="translate(1197.84765625,500.90234375)"/>
<path d="M0 0 C2.05078125 0.03255208 4.1015625 0.06510417 6.15234375 0.09765625 C10.12585862 7.7600065 13.6068394 15.58623542 16.96484375 23.53515625 C17.46693359 24.70498047 17.96902344 25.87480469 18.48632812 27.08007812 C19.19692383 28.7574707 19.19692383 28.7574707 19.921875 30.46875 C20.56539917 31.98359985 20.56539917 31.98359985 21.22192383 33.52905273 C22.15234375 36.09765625 22.15234375 36.09765625 22.15234375 39.09765625 C19.18234375 39.09765625 16.21234375 39.09765625 13.15234375 39.09765625 C12.16234375 36.45765625 11.17234375 33.81765625 10.15234375 31.09765625 C4.87234375 31.09765625 -0.40765625 31.09765625 -5.84765625 31.09765625 C-6.83765625 33.73765625 -7.82765625 36.37765625 -8.84765625 39.09765625 C-11.81765625 39.09765625 -14.78765625 39.09765625 -17.84765625 39.09765625 C-15.49175414 31.58512923 -12.57404107 24.34464109 -9.54931641 17.08349609 C-8.71349137 15.07563996 -7.88380057 13.06532324 -7.0546875 11.0546875 C-6.52509751 9.77719531 -5.99516256 8.49984606 -5.46484375 7.22265625 C-4.74723877 5.49402344 -4.74723877 5.49402344 -4.01513672 3.73046875 C-2.41757901 0.12777902 -2.41757901 0.12777902 0 0 Z " fill="#F7F8F9" transform="translate(960.84765625,500.90234375)"/>
<path d="M0 0 C2.97 0 5.94 0 9 0 C11.28327842 5.2307419 13.56181756 10.46351203 15.8359375 15.69824219 C16.61066985 17.47973663 17.38670751 19.26066401 18.1640625 21.04101562 C19.27945933 23.59618489 20.39018717 26.15333885 21.5 28.7109375 C21.84998047 29.50994476 22.19996094 30.30895203 22.56054688 31.13217163 C25 36.77225659 25 36.77225659 25 39 C22.03 39 19.06 39 16 39 C14.515 34.545 14.515 34.545 13 30 C7.39 30 1.78 30 -4 30 C-4.99 32.97 -5.98 35.94 -7 39 C-9.64 39 -12.28 39 -15 39 C-14.40075009 34.02317874 -12.82697821 29.7551764 -10.83984375 25.1953125 C-10.53051407 24.4713327 -10.22118439 23.74735291 -9.90248108 23.00143433 C-8.92031138 20.70658969 -7.92907087 18.41579591 -6.9375 16.125 C-6.26697361 14.56275933 -5.59704535 13.00026178 -4.92773438 11.4375 C-3.29206294 7.6219927 -1.64824905 3.81008983 0 0 Z " fill="#F8F8F9" transform="translate(826,501)"/>
<path d="M0 0 C4.29 0 8.58 0 13 0 C13 19.8 13 39.6 13 60 C8.71 60 4.42 60 0 60 C0 40.2 0 20.4 0 0 Z " fill="#FEFEFE" transform="translate(1182,197)"/>
<path d="M0 0 C4.29 0 8.58 0 13 0 C13 19.8 13 39.6 13 60 C8.71 60 4.42 60 0 60 C0 40.2 0 20.4 0 0 Z " fill="#FDFDFE" transform="translate(799,197)"/>
<path d="M0 0 C2.64 0 5.28 0 8 0 C8.01981934 0.73637695 8.03963867 1.47275391 8.06005859 2.23144531 C8.15537828 5.57132056 8.26502996 8.91057639 8.375 12.25 C8.4059375 13.40886719 8.436875 14.56773437 8.46875 15.76171875 C8.50742187 16.87675781 8.54609375 17.99179687 8.5859375 19.140625 C8.6173584 20.16704102 8.6487793 21.19345703 8.68115234 22.25097656 C9.00003151 25.00027167 9.50284815 26.68942447 11 29 C14.01868434 30.50934217 16.67297229 30.17510672 20 30 C23.24849977 28.27773504 23.24849977 28.27773504 24 25 C24.14939774 23.08234406 24.24810283 21.16053478 24.31640625 19.23828125 C24.35830078 18.12001953 24.40019531 17.00175781 24.44335938 15.84960938 C24.48267578 14.68236328 24.52199219 13.51511719 24.5625 12.3125 C24.60568359 11.13365234 24.64886719 9.95480469 24.69335938 8.74023438 C24.79951176 5.82694117 24.90156242 2.91356243 25 0 C27.97 0 30.94 0 34 0 C34.11735877 3.97891352 34.18763654 7.9573746 34.25 11.9375 C34.30027344 13.61295898 34.30027344 13.61295898 34.3515625 15.32226562 C34.43391488 22.34280583 33.83059262 27.98312995 30 34 C25.62059893 38.27258641 22.12784122 39.16018193 16.125 39.25 C14.58199219 39.28867187 14.58199219 39.28867187 13.0078125 39.328125 C7.78063151 38.75788707 4.38879273 35.87290598 1 32 C-0.13917218 28.58248347 -0.11338481 25.96512063 -0.09765625 22.36328125 C-0.09443359 21.06455078 -0.09121094 19.76582031 -0.08789062 18.42773438 C-0.07953531 17.05598892 -0.07107037 15.68424413 -0.0625 14.3125 C-0.05748335 12.92903805 -0.05292073 11.54557437 -0.04882812 10.16210938 C-0.03702529 6.77469605 -0.02056019 3.38736967 0 0 Z " fill="#F8F9FA" transform="translate(623,501)"/>
<path d="M0 0 C2.2470331 1.23457681 3.46852932 2.70296917 4.69921875 4.93359375 C3.37921875 6.58359375 2.05921875 8.23359375 0.69921875 9.93359375 C-0.08453125 9.60359375 -0.86828125 9.27359375 -1.67578125 8.93359375 C-6.28787813 7.66129116 -10.54850046 7.24887405 -15.30078125 7.93359375 C-17.87715596 9.81874598 -18.89745553 11.12694232 -20.30078125 13.93359375 C-20.65095431 19.27373285 -20.7690835 22.59821594 -17.30078125 26.93359375 C-14.96914883 29.26522617 -13.70492014 29.87209435 -10.42578125 30.37109375 C-6.56512966 29.83060253 -4.47460888 28.12000834 -1.30078125 25.93359375 C2.11080131 27.07078794 2.81776476 27.97702319 4.69921875 30.93359375 C4.69921875 31.59359375 4.69921875 32.25359375 4.69921875 32.93359375 C3.08984375 34.1875 3.08984375 34.1875 0.94921875 35.49609375 C0.253125 35.93050781 -0.44296875 36.36492188 -1.16015625 36.8125 C-5.46817328 39.068706 -9.47229898 39.40086623 -14.30078125 38.93359375 C-21.32618489 36.32477668 -25.80541172 33.30049042 -29.55078125 26.74609375 C-31.41462554 19.75667767 -30.90116156 13.26529705 -27.30078125 6.93359375 C-19.96021638 -2.08481452 -10.5846425 -4.34614987 0 0 Z " fill="#F5F6F7" transform="translate(1083.30078125,502.06640625)"/>
<path d="M0 0 C2.701875 -0.061875 5.40375 -0.12375 8.1875 -0.1875 C9.02949951 -0.21481201 9.87149902 -0.24212402 10.73901367 -0.27026367 C15.32319574 -0.32093869 18.29360873 0.00557089 22 3 C24.32579101 6.48868651 24.41865457 7.89718519 24 12 C22.03958731 15.71446615 19.94027454 16.78190438 16 18 C13.18156537 18.13802324 10.49667223 18.18976313 7.6875 18.125 C3.8821875 18.063125 3.8821875 18.063125 0 18 C0 12.06 0 6.12 0 0 Z " fill="#1D3555" transform="translate(1031,208)"/>
<path d="M0 0 C2.64 0 5.28 0 8 0 C8 12.87 8 25.74 8 39 C5.36 39 2.72 39 0 39 C0 26.13 0 13.26 0 0 Z " fill="#FDFEFE" transform="translate(1443,501)"/>
<path d="M0 0 C10.35011895 -0.36964711 10.35011895 -0.36964711 13.328125 1.32421875 C15 3 15 3 15.5 6 C15 9 15 9 13.328125 10.67578125 C9.12442223 13.06681353 4.73374023 12.16906215 0 12 C0 8.04 0 4.08 0 0 Z " fill="#1D3555" transform="translate(696,508)"/>
<path d="M0 0 C5.94 0 11.88 0 18 0 C18 2.97 18 5.94 18 9 C15.18743719 9.02684312 12.37512759 9.04676188 9.5625 9.0625 C8.76005859 9.07087891 7.95761719 9.07925781 7.13085938 9.08789062 C5.08704779 9.0965143 3.04316098 9.0522815 1 9 C0.67 8.67 0.34 8.34 0 8 C0 5.36 0 2.72 0 0 Z " fill="#DBDFE4" transform="translate(1009,518)"/>
<path d="M0 0 C8.24615385 -0.49230769 8.24615385 -0.49230769 12.0625 2 C12.701875 2.66 13.34125 3.32 14 4 C13.6875 6.875 13.6875 6.875 13 10 C8.61501596 12.92332269 5.2225328 12.1356502 0 12 C0 8.04 0 4.08 0 0 Z " fill="#1B3353" transform="translate(1328,509)"/>
<path d="M0 0 C2.31243792 -0.02685412 4.6249627 -0.04632841 6.9375 -0.0625 C8.22527344 -0.07410156 9.51304687 -0.08570313 10.83984375 -0.09765625 C14 0 14 0 15 1 C15.04080783 2.99958364 15.04254356 5.00045254 15 7 C12.11584117 8.44207941 9.58278472 8.09394887 6.375 8.0625 C5.18648437 8.05347656 3.99796875 8.04445313 2.7734375 8.03515625 C1.85820313 8.02355469 0.94296875 8.01195312 0 8 C0 5.36 0 2.72 0 0 Z " fill="#122B4D" transform="translate(759,524)"/>
<path d="M0 0 C1.93719378 -0.05406122 3.87481921 -0.09282025 5.8125 -0.125 C6.89144531 -0.14820313 7.97039063 -0.17140625 9.08203125 -0.1953125 C12 0 12 0 15 2 C14.75 3.875 14.75 3.875 14 6 C10.88870062 8.03648687 8.41596268 8.2214727 4.75 8.125 C3.85796875 8.10695313 2.9659375 8.08890625 2.046875 8.0703125 C1.03367187 8.03550781 1.03367187 8.03550781 0 8 C0 5.36 0 2.72 0 0 Z " fill="#1D3555" transform="translate(758,509)"/>
<path d="M0 0 C2.80561393 1.40280696 3.00680507 3.0509005 4.125 5.9375 C4.47820312 6.83339844 4.83140625 7.72929688 5.1953125 8.65234375 C6 11 6 11 6 13 C2.7 13 -0.6 13 -4 13 C-3.40895235 8.15340923 -2.02055843 4.39251833 0 0 Z " fill="#2D4361" transform="translate(1199,511)"/>
<path d="M0 0 C2.80561393 1.40280696 3.00680507 3.0509005 4.125 5.9375 C4.47820312 6.83339844 4.83140625 7.72929688 5.1953125 8.65234375 C6 11 6 11 6 13 C2.7 13 -0.6 13 -4 13 C-3.40895235 8.15340923 -2.02055843 4.39251833 0 0 Z " fill="#2C4260" transform="translate(1392,511)"/>
<path d="M0 0 C2.7053871 4.05808065 5 8.04889399 5 13 C1.7 13 -1.6 13 -5 13 C-2.05357143 3.89285714 -2.05357143 3.89285714 0 0 Z " fill="#2B415F" transform="translate(830,511)"/>
<path d="M0 0 C3.86248624 3.34316036 4.54212374 7.20983513 6 12 C2.7 12 -0.6 12 -4 12 C-3.33501617 7.61110675 -1.81242323 4.0188515 0 0 Z " fill="#283F5D" transform="translate(962,512)"/>
</svg>
