<?xml version="1.0" encoding="UTF-8"?>
<svg version="1.1" xmlns="http://www.w3.org/2000/svg" width="800" height="500">
<path d="M0 0 C264 0 528 0 800 0 C800 165 800 330 800 500 C536 500 272 500 0 500 C0 335 0 170 0 0 Z " fill="#FEFEFE" transform="translate(0,0)"/>
<path d="M0 0 C10.89 0 21.78 0 33 0 C33 2.97 33 5.94 33 9 C30.69 9 28.38 9 26 9 C26 30.78 26 52.56 26 75 C30.29 75 34.58 75 39 75 C39 58.5 39 42 39 25 C37.02 25 35.04 25 33 25 C33 22.03 33 19.06 33 16 C43.23 16 53.46 16 64 16 C64 18.97 64 21.94 64 25 C61.69 25 59.38 25 57 25 C57.02442673 25.71472977 57.04885345 26.42945953 57.07402039 27.16584778 C57.29565537 33.94584671 57.46250615 40.72529594 57.56993389 47.50800037 C57.62703165 50.99447069 57.70426278 54.47791704 57.82983398 57.96264648 C58.72603601 83.52383482 58.72603601 83.52383482 53.55813599 89.96151733 C49.75051224 93.63389873 45.77790589 95.51722614 40.55078125 96.07421875 C38.80139771 96.00268262 37.05341623 95.87370121 35.3125 95.6875 C34.40822266 95.63787109 33.50394531 95.58824219 32.57226562 95.53710938 C30.37792022 95.40939615 28.18779804 95.21213713 26 95 C26 99.62 26 104.24 26 109 C28.31 109 30.62 109 33 109 C33 112.63 33 116.26 33 120 C22.11 120 11.22 120 0 120 C0 116.04 0 112.08 0 108 C2.31 108 4.62 108 7 108 C7 103.71 7 99.42 7 95 C5.68386719 95.12761719 4.36773437 95.25523437 3.01171875 95.38671875 C1.23715242 95.49000039 -0.53760172 95.59008933 -2.3125 95.6875 C-3.17423828 95.77966797 -4.03597656 95.87183594 -4.92382812 95.96679688 C-10.58945722 96.19847688 -14.55678571 94.69446167 -19.125 91.34375 C-24.27674082 86.37499301 -24.72126522 80.78903599 -25.03092957 73.88679504 C-25.09816497 67.88028219 -24.97156204 61.89574519 -24.75531006 55.89453125 C-24.64178718 52.40893954 -24.59233683 48.92246311 -24.53710938 45.43554688 C-24.41992906 38.62153016 -24.2327747 31.81102332 -24 25 C-26.31 25 -28.62 25 -31 25 C-31 22.03 -31 19.06 -31 16 C-20.77 16 -10.54 16 0 16 C0 18.97 0 21.94 0 25 C-1.98 25 -3.96 25 -6 25 C-6 41.5 -6 58 -6 75 C-1.71 75 2.58 75 7 75 C7 53.22 7 31.44 7 9 C4.69 9 2.38 9 0 9 C0 6.03 0 3.06 0 0 Z " fill="#961D20" transform="translate(382,141)"/>
<path d="M0 0 C3.99974981 -0.11710979 7.99905281 -0.18755489 12 -0.25 C13.12535156 -0.28351563 14.25070313 -0.31703125 15.41015625 -0.3515625 C22.46884159 -0.43412022 27.01514069 0.17361454 33 4 C37.94437174 8.94437174 39.29625336 14.51207485 39.4375 21.375 C39.33925727 27.52920506 38.13656617 31.43628841 34 36 C29.42729427 40.14733776 27.01066863 41.12621808 20.8984375 41.09765625 C19.08085937 41.09282227 19.08085937 41.09282227 17.2265625 41.08789062 C15.95554688 41.07951172 14.68453125 41.07113281 13.375 41.0625 C12.09625 41.05798828 10.8175 41.05347656 9.5 41.04882812 C6.33328708 41.03701203 3.16666644 41.02053815 0 41 C0 40.34 0 39.68 0 39 C1.65 39 3.3 39 5 39 C5 26.79 5 14.58 5 2 C3.35 2 1.7 2 0 2 C0 1.34 0 0.68 0 0 Z " fill="#323030" transform="translate(137,317)"/>
<path d="M0 0 C4.04152915 -0.08746928 8.08281305 -0.14054982 12.125 -0.1875 C13.26710938 -0.21263672 14.40921875 -0.23777344 15.5859375 -0.26367188 C22.49785224 -0.3239502 27.65951771 -0.22913288 32.875 4.8125 C34.4320063 7.84001225 34.54907201 9.63693396 34 13 C31.37632897 16.20670904 28.84788585 18.4323428 25 20 C25.928125 20.4125 26.85625 20.825 27.8125 21.25 C31.03389138 23.01860703 32.15960825 23.91841381 34 27 C34.51171875 29.796875 34.51171875 29.796875 34.6875 32.75 C34.78611328 34.22726562 34.78611328 34.22726562 34.88671875 35.734375 C34.94279297 36.85585938 34.94279297 36.85585938 35 38 C35.99 38.33 36.98 38.66 38 39 C38 39.66 38 40.32 38 41 C36.58506449 41.10884119 35.16767057 41.18597617 33.75 41.25 C32.96109375 41.29640625 32.1721875 41.3428125 31.359375 41.390625 C28.04929914 40.8425992 26.97097189 39.67963594 25 37 C24.49609375 34.08984375 24.49609375 34.08984375 24.4375 30.9375 C24.42175764 26.85837227 24.42175764 26.85837227 22.91015625 23.19140625 C20.37148843 21.42937215 20.37148843 21.42937215 14 21 C14 26.94 14 32.88 14 39 C15.65 39 17.3 39 19 39 C19 39.66 19 40.32 19 41 C12.73 41 6.46 41 0 41 C0 40.34 0 39.68 0 39 C1.65 39 3.3 39 5 39 C5 27.12 5 15.24 5 3 C3.35 3 1.7 3 0 3 C0 2.01 0 1.02 0 0 Z " fill="#444042" transform="translate(549,317)"/>
<path d="M0 0 C5 0 5 0 7.2890625 2.1328125 C8.05992188 3.12023437 8.83078125 4.10765625 9.625 5.125 C10.04450928 5.65327393 10.46401855 6.18154785 10.89624023 6.72583008 C12.27858914 8.47303971 13.63869883 10.23635766 15 12 C16.01797089 13.2941976 17.03752756 14.58714931 18.05859375 15.87890625 C19.99697452 18.33319164 21.92633996 20.7940566 23.84765625 23.26171875 C25.35118188 25.19532152 25.35118188 25.19532152 27 27 C27.33 19.08 27.66 11.16 28 3 C26.35 3 24.7 3 23 3 C23 2.01 23 1.02 23 0 C26.96 0 30.92 0 35 0 C35 0.99 35 1.98 35 3 C33.68 3 32.36 3 31 3 C31 15.54 31 28.08 31 41 C26 41 26 41 24.3659668 39.68994141 C23.89843994 39.08327637 23.43091309 38.47661133 22.94921875 37.8515625 C22.41901123 37.18012207 21.88880371 36.50868164 21.3425293 35.81689453 C20.79636963 35.09356934 20.25020996 34.37024414 19.6875 33.625 C19.1200708 32.89780762 18.5526416 32.17061523 17.96801758 31.42138672 C16.83106756 29.96372535 15.69969928 28.50169149 14.57421875 27.03515625 C13.20080708 25.25960418 11.80265117 23.51322807 10.375 21.78125 C5 15.25446429 5 15.25446429 5 13 C4.34 13 3.68 13 3 13 C3 21.58 3 30.16 3 39 C4.65 39 6.3 39 8 39 C8 39.66 8 40.32 8 41 C4.04 41 0.08 41 -4 41 C-4 40.34 -4 39.68 -4 39 C-2.68 39 -1.36 39 0 39 C0 26.13 0 13.26 0 0 Z " fill="#272526" transform="translate(96,317)"/>
<path d="M0 0 C10.56 0 21.12 0 32 0 C32.9681648 3.8726592 33.07622858 7.03611362 33 11 C32.34 11 31.68 11 31 11 C30.525625 10.030625 30.05125 9.06125 29.5625 8.0625 C28.29806053 5.19522563 28.29806053 5.19522563 27 4 C22.67509147 3.5347708 18.34064463 3.29499527 14 3 C14 8.28 14 13.56 14 19 C15.98 18.67 17.96 18.34 20 18 C21.45291273 15.53744315 21.45291273 15.53744315 22 13 C22.66 13 23.32 13 24 13 C24 18.28 24 23.56 24 29 C23.34 29 22.68 29 22 29 C21.34 27.02 20.68 25.04 20 23 C18.02 22.67 16.04 22.34 14 22 C14 27.61 14 33.22 14 39 C16.083125 38.731875 18.16625 38.46375 20.3125 38.1875 C21.48425781 38.03667969 22.65601563 37.88585937 23.86328125 37.73046875 C27.04190188 36.99024203 28.14481902 36.60728137 30 34 C31.20049407 30.89992799 31.20049407 30.89992799 32 28 C32.66 28 33.32 28 34 28 C34 32.29 34 36.58 34 41 C22.78 41 11.56 41 0 41 C0 40.34 0 39.68 0 39 C1.65 39 3.3 39 5 39 C5 27.12 5 15.24 5 3 C3.35 3 1.7 3 0 3 C0 2.01 0 1.02 0 0 Z " fill="#272526" transform="translate(508,317)"/>
<path d="M0 0 C3.96 0 7.92 0 12 0 C12 0.99 12 1.98 12 3 C10.35 3 8.7 3 7 3 C7 15.87 7 28.74 7 42 C1.37441687 40.87488337 1.37441687 40.87488337 -1.12109375 37.68359375 C-1.66443359 37.00103516 -2.20777344 36.31847656 -2.76757812 35.61523438 C-3.59418945 34.53725586 -3.59418945 34.53725586 -4.4375 33.4375 C-4.98470703 32.74591797 -5.53191406 32.05433594 -6.09570312 31.34179688 C-9.81187507 26.62291818 -13.41010623 21.81521358 -17 17 C-17.99 15.68 -18.98 14.36 -20 13 C-20 21.25 -20 29.5 -20 38 C-18.68 38.33 -17.36 38.66 -16 39 C-16 39.66 -16 40.32 -16 41 C-19.96 41 -23.92 41 -28 41 C-28 40.34 -28 39.68 -28 39 C-26.02 38.505 -26.02 38.505 -24 38 C-23.67 25.79 -23.34 13.58 -23 1 C-18 1 -18 1 -15.45703125 3.38671875 C-14.55976894 4.47417172 -13.67910134 5.57545876 -12.8125 6.6875 C-12.34416748 7.26459717 -11.87583496 7.84169434 -11.39331055 8.4362793 C-9.90978125 10.27657213 -8.45208591 12.13482068 -7 14 C-6.51144531 14.62422852 -6.02289063 15.24845703 -5.51953125 15.89160156 C-2.6468312 19.57104513 0.17906916 23.27964194 3 27 C3.33 19.08 3.66 11.16 4 3 C2.68 3 1.36 3 0 3 C0 2.01 0 1.02 0 0 Z " fill="#242324" transform="translate(278,317)"/>
<path d="M0 0 C3.96 0 7.92 0 12 0 C12 0.99 12 1.98 12 3 C10.68 3 9.36 3 8 3 C8 15.54 8 28.08 8 41 C6.02 41.495 6.02 41.495 4 42 C-1.43796499 35.55937336 -6.79116883 29.06502135 -12 22.4375 C-12.46833252 21.84243652 -12.93666504 21.24737305 -13.41918945 20.63427734 C-15.37337299 18.13696629 -17.2400375 15.63994376 -19 13 C-19.33 21.58 -19.66 30.16 -20 39 C-18.35 39 -16.7 39 -15 39 C-15 39.66 -15 40.32 -15 41 C-18.96 41 -22.92 41 -27 41 C-27 40.34 -27 39.68 -27 39 C-25.02 38.505 -25.02 38.505 -23 38 C-22.67 25.79 -22.34 13.58 -22 1 C-17 1 -17 1 -15.3659668 2.31005859 C-14.89843994 2.91672363 -14.43091309 3.52338867 -13.94921875 4.1484375 C-13.41901123 4.82003906 -12.88880371 5.49164063 -12.3425293 6.18359375 C-11.52328979 7.26833984 -11.52328979 7.26833984 -10.6875 8.375 C-10.1200708 9.10074219 -9.5526416 9.82648438 -8.96801758 10.57421875 C-7.83068297 12.03011048 -6.69931071 13.49068142 -5.57421875 14.95605469 C-3.48415842 17.66976205 -1.33845691 20.33434983 0.8125 23 C1.864375 24.32 2.91625 25.64 4 27 C4.33 19.08 4.66 11.16 5 3 C3.35 3 1.7 3 0 3 C0 2.01 0 1.02 0 0 Z " fill="#252324" transform="translate(423,317)"/>
<path d="M0 0 C0.99 0.33 1.98 0.66 3 1 C4.11914062 3.37329102 4.11914062 3.37329102 5.15625 6.50390625 C5.53910156 7.63763672 5.92195313 8.77136719 6.31640625 9.93945312 C6.90228516 11.73286133 6.90228516 11.73286133 7.5 13.5625 C8.28044769 15.89740374 9.06167988 18.23204543 9.84375 20.56640625 C10.21113281 21.67773926 10.57851563 22.78907227 10.95703125 23.93408203 C11.83599779 26.51789799 12.77874671 29.05240438 13.78125 31.58984375 C15 35 15 35 15 39 C16.65 39 18.3 39 20 39 C20 39.66 20 40.32 20 41 C14.06 41 8.12 41 2 41 C2 40.34 2 39.68 2 39 C3.65 39 5.3 39 7 39 C6.01 36.69 5.02 34.38 4 32 C-0.29 32 -4.58 32 -9 32 C-9.66 34.31 -10.32 36.62 -11 39 C-9.68 39 -8.36 39 -7 39 C-7 39.66 -7 40.32 -7 41 C-10.96 41 -14.92 41 -19 41 C-19 40.34 -19 39.68 -19 39 C-18.3797998 38.91492188 -17.75959961 38.82984375 -17.12060547 38.7421875 C-14.88899465 38.20349329 -14.88899465 38.20349329 -13.90673828 36.3203125 C-13.63071777 35.59585938 -13.35469727 34.87140625 -13.0703125 34.125 C-12.75263916 33.31200439 -12.43496582 32.49900879 -12.10766602 31.66137695 C-11.78338623 30.78312256 -11.45910645 29.90486816 -11.125 29 C-10.78202881 28.10821045 -10.43905762 27.2164209 -10.08569336 26.29760742 C-7.53812719 19.61757278 -5.12135695 12.88623312 -2.81494141 6.11914062 C-1.09744237 1.09744237 -1.09744237 1.09744237 0 0 Z " fill="#2A2627" transform="translate(311,317)"/>
<path d="M0 0 C0.66 0 1.32 0 2 0 C2.98330602 2.60822003 3.965553 5.21683182 4.9465332 7.82592773 C5.77532086 10.02923436 6.60589413 12.23187013 7.43823242 14.43383789 C9.2179587 19.1598249 10.99156174 23.87831212 12.5703125 28.67578125 C13.18519531 30.53783203 13.18519531 30.53783203 13.8125 32.4375 C14.14894531 33.50871094 14.48539063 34.57992187 14.83203125 35.68359375 C15.77059161 38.1826569 15.77059161 38.1826569 18.13671875 38.84765625 C18.75160156 38.89792969 19.36648437 38.94820313 20 39 C20 39.66 20 40.32 20 41 C14.06 41 8.12 41 2 41 C2 40.34 2 39.68 2 39 C3.65 39 5.3 39 7 39 C6.01 36.69 5.02 34.38 4 32 C-0.29 32 -4.58 32 -9 32 C-9.66 34.31 -10.32 36.62 -11 39 C-9.68 39 -8.36 39 -7 39 C-7 39.66 -7 40.32 -7 41 C-10.96 41 -14.92 41 -19 41 C-19 40.34 -19 39.68 -19 39 C-18.08432251 38.91842651 -18.08432251 38.91842651 -17.15014648 38.83520508 C-14.77653045 38.17574082 -14.77653045 38.17574082 -13.70727539 35.69018555 C-13.34110107 34.6825415 -12.97492676 33.67489746 -12.59765625 32.63671875 C-12.18193359 31.52103516 -11.76621094 30.40535156 -11.33789062 29.25585938 C-10.91701172 28.07830078 -10.49613281 26.90074219 -10.0625 25.6875 C-9.22173784 23.39911952 -8.37929623 21.11135537 -7.53515625 18.82421875 C-6.91664795 17.13498291 -6.91664795 17.13498291 -6.28564453 15.41162109 C-4.32788562 10.2164591 -2.18067509 5.10490749 0 0 Z " fill="#292426" transform="translate(226,317)"/>
<path d="M0 0 C1.47583955 0.0001591 2.95168467 0.00585225 4.42749023 0.01586914 C5.20293686 0.01728409 5.97838348 0.01869904 6.77732849 0.02015686 C9.26361893 0.02577194 11.74982059 0.03832693 14.23608398 0.05102539 C15.91772331 0.05603845 17.59936405 0.06060169 19.28100586 0.06469727 C23.41189965 0.07574626 27.54272674 0.09302094 31.67358398 0.11352539 C32.16858398 6.54852539 32.16858398 6.54852539 32.67358398 13.11352539 C31.68358398 13.11352539 30.69358398 13.11352539 29.67358398 13.11352539 C29.38483398 11.99977539 29.09608398 10.88602539 28.79858398 9.73852539 C27.98117069 6.11061448 27.98117069 6.11061448 25.67358398 4.11352539 C23.36358398 3.78352539 21.05358398 3.45352539 18.67358398 3.11352539 C18.67358398 14.99352539 18.67358398 26.87352539 18.67358398 39.11352539 C20.32358398 39.11352539 21.97358398 39.11352539 23.67358398 39.11352539 C23.67358398 39.77352539 23.67358398 40.43352539 23.67358398 41.11352539 C17.40358398 41.11352539 11.13358398 41.11352539 4.67358398 41.11352539 C4.67358398 40.45352539 4.67358398 39.79352539 4.67358398 39.11352539 C6.32358398 39.11352539 7.97358398 39.11352539 9.67358398 39.11352539 C9.67358398 27.23352539 9.67358398 15.35352539 9.67358398 3.11352539 C3.30184807 3.5187438 3.30184807 3.5187438 0.86108398 5.30102539 C-0.75072081 7.7611485 -1.51393877 10.30110416 -2.32641602 13.11352539 C-2.98641602 13.11352539 -3.64641602 13.11352539 -4.32641602 13.11352539 C-4.35328154 11.13443141 -4.37274977 9.15523568 -4.38891602 7.17602539 C-4.40051758 6.07387695 -4.41211914 4.97172852 -4.42407227 3.83618164 C-4.28065981 -0.16215774 -4.08949628 0.13956813 0 0 Z " fill="#2A2728" transform="translate(658.326416015625,316.886474609375)"/>
<path d="M0 0 C0.99 -0.33 1.98 -0.66 3 -1 C3 2.63 3 6.26 3 10 C2.34 10 1.68 10 1 10 C-2 5.61538462 -2 5.61538462 -2 3 C-6.03038366 1.65653878 -9.79838392 1.73323073 -14 2 C-16.17500647 3.00488226 -16.17500647 3.00488226 -17 5 C-17.47752677 7.54316738 -17.47752677 7.54316738 -16 10 C-11.7440402 12.66468279 -6.97906481 14.00825183 -2.1875 15.375 C1.11253929 16.453859 2.04812953 17.05047732 4.5625 19.6875 C6.86998687 25.00475235 6.7882698 28.91108502 4.75 34.3125 C2.29851151 38.0772859 0.23313019 39.5889566 -4 41 C-10.12925207 41.61767656 -14.53424001 40.79102638 -20 38 C-20 38.66 -20 39.32 -20 40 C-20.99 40 -21.98 40 -23 40 C-23 36.37 -23 32.74 -23 29 C-22.01 29 -21.02 29 -20 29 C-19.0234375 30.79036458 -18.046875 32.58072917 -17.0703125 34.37109375 C-16.08589976 36.16618315 -16.08589976 36.16618315 -14 37 C-12.19156337 37.14716542 -10.37668434 37.2210887 -8.5625 37.25 C-7.59441406 37.27578125 -6.62632812 37.3015625 -5.62890625 37.328125 C-3.02177564 37.17175816 -3.02177564 37.17175816 -1.08984375 35.921875 C0.63740796 32.87596876 -0.31306611 30.30977236 -1 27 C-2.18078125 26.62488281 -3.3615625 26.24976563 -4.578125 25.86328125 C-6.1357026 25.34721638 -7.69297881 24.83024119 -9.25 24.3125 C-10.02730469 24.06822266 -10.80460938 23.82394531 -11.60546875 23.57226562 C-16.41658951 21.94799836 -19.2961238 20.54139413 -22 16 C-23.40068698 12.02755986 -23.23021815 8.74820897 -22 4.75 C-16.16222991 -3.27693387 -8.85750802 -3.01960501 0 0 Z " fill="#272626" transform="translate(617,318)"/>
<path d="M0 0 C3.63 0 7.26 0 11 0 C11 0.99 11 1.98 11 3 C9.68 3 8.36 3 7 3 C7.01571045 3.91289795 7.0314209 4.8257959 7.04760742 5.76635742 C7.0988697 9.1676201 7.13641439 12.56846963 7.16479492 15.9699707 C7.17984066 17.43943782 7.20028238 18.90886034 7.22631836 20.37817383 C7.26288955 22.4957177 7.27976801 24.61266565 7.29296875 26.73046875 C7.3086792 28.00301514 7.32438965 29.27556152 7.34057617 30.58666992 C6.9741322 34.25925286 6.20866624 36.08184139 4 39 C-1.37869944 42.99954573 -7.58500894 42.65028676 -14 42 C-17.2818812 40.86831683 -19.15619001 40.21331682 -21.13623047 37.36621094 C-22.34581689 34.05266894 -22.24651601 30.86876676 -22.1953125 27.390625 C-22.19106766 26.30041046 -22.19106766 26.30041046 -22.18673706 25.18817139 C-22.17557523 22.87527749 -22.15047851 20.56277612 -22.125 18.25 C-22.11496501 16.67839102 -22.10584006 15.10677596 -22.09765625 13.53515625 C-22.07564904 9.68995378 -22.04114715 5.84504336 -22 2 C-23.65 2 -25.3 2 -27 2 C-27 1.67 -27 1.34 -27 1 C-21.06 1 -15.12 1 -9 1 C-9 1.33 -9 1.66 -9 2 C-10.65 2 -12.3 2 -14 2 C-13.90627112 6.34200946 -13.80013498 10.68348678 -13.68261719 15.02490234 C-13.64439334 16.50105536 -13.60952897 17.97729943 -13.578125 19.45361328 C-13.53233014 21.57878094 -13.47436163 23.70332542 -13.4140625 25.828125 C-13.3826416 27.1059082 -13.3512207 28.38369141 -13.31884766 29.70019531 C-13.02488248 32.74248726 -12.70224419 34.499947 -11 37 C-7.86967764 38.56516118 -4.40926916 38.540337 -1 38 C1.22038587 37.00823896 1.22038587 37.00823896 3 35 C3.42714081 32.43505382 3.6047623 30.27677795 3.609375 27.70703125 C3.62591125 27.00100266 3.64244751 26.29497406 3.65948486 25.56755066 C3.70801288 23.31577908 3.72934438 21.06468291 3.75 18.8125 C3.77815599 17.28447114 3.80808291 15.75647381 3.83984375 14.22851562 C3.91377194 10.48573272 3.96331623 6.74332576 4 3 C2.68 3 1.36 3 0 3 C0 2.01 0 1.02 0 0 Z " fill="#221F20" transform="translate(381,317)"/>
<path d="M0 0 C6.27 0 12.54 0 19 0 C19 0.99 19 1.98 19 3 C17.68 3.33 16.36 3.66 15 4 C15.5053125 4.84304688 16.010625 5.68609375 16.53125 6.5546875 C17.1809375 7.65039062 17.830625 8.74609375 18.5 9.875 C19.1496875 10.96554687 19.799375 12.05609375 20.46875 13.1796875 C22 16 22 16 22 18 C22.66 18 23.32 18 24 18 C24.226875 17.195625 24.45375 16.39125 24.6875 15.5625 C26.33631588 11.08714261 28.60544412 7.11278682 31 3 C29.35 3 27.7 3 26 3 C26 2.01 26 1.02 26 0 C29.96 0 33.92 0 38 0 C38 0.99 38 1.98 38 3 C37.38793701 3.09933838 36.77587402 3.19867676 36.14526367 3.30102539 C32.40364978 4.5201264 31.07291975 8.14546067 29.3125 11.4375 C28.91039307 12.18507568 28.50828613 12.93265137 28.09399414 13.70288086 C24.01304378 21.94607541 23.73534079 29.94865508 24 39 C25.65 39 27.3 39 29 39 C29 39.66 29 40.32 29 41 C22.73 41 16.46 41 10 41 C10 40.34 10 39.68 10 39 C11.65 39 13.3 39 15 39 C15.41306592 28.61260693 14.62619663 20.49126139 9.1875 11.4375 C8.74873535 10.7060376 8.3099707 9.9745752 7.85791016 9.22094727 C5.58129982 5.38764948 5.58129982 5.38764948 1.84106445 3.30102539 C1.23351318 3.20168701 0.62596191 3.10234863 0 3 C0 2.01 0 1.02 0 0 Z " fill="#2A2728" transform="translate(695,317)"/>
<path d="M0 0 C10 0 10 0 12.5625 1.8125 C15.67326503 6.54627288 15.21863368 11.29225964 15.25 16.75 C15.270625 17.63171875 15.29125 18.5134375 15.3125 19.421875 C15.34606025 25.05999742 14.77332476 29.04948571 12 34 C9 36 9 36 0 36 C0 24.12 0 12.24 0 0 Z " fill="#FCFBFC" transform="translate(151,320)"/>
<path d="M0 0 C5.94 0 11.88 0 18 0 C18 0.99 18 1.98 18 3 C16.35 3 14.7 3 13 3 C13.39832031 3.89460938 13.79664063 4.78921875 14.20703125 5.7109375 C17.28293314 12.70197602 20.05426997 19.59257163 22 27 C22.66 27 23.32 27 24 27 C24.226875 25.824375 24.45375 24.64875 24.6875 23.4375 C26.22010836 16.45686044 28.671259 9.74623825 31 3 C29.35 3 27.7 3 26 3 C26 2.01 26 1.02 26 0 C29.96 0 33.92 0 38 0 C38 0.99 38 1.98 38 3 C37.37397888 3.09071274 36.74795776 3.18142548 36.10296631 3.27488708 C35.06199799 3.63381798 35.06199799 3.63381798 34 4 C32.70748147 6.82580408 31.70542306 9.4663876 30.765625 12.41015625 C30.48273621 13.25219101 30.19984741 14.09422577 29.90838623 14.96177673 C29.00678786 17.65715612 28.12823989 20.35943016 27.25 23.0625 C26.64342812 24.889171 26.03537361 26.71535039 25.42578125 28.54101562 C23.93324558 33.02181668 22.46134123 37.50893338 21 42 C20.34 42 19.68 42 19 42 C18.78384033 41.45698242 18.56768066 40.91396484 18.3449707 40.35449219 C12.78947945 26.38480724 12.78947945 26.38480724 7.0078125 12.5078125 C6 10 6 10 5 6.734375 C4.67 5.83203125 4.34 4.9296875 4 4 C1.96756452 3.03122943 1.96756452 3.03122943 0 3 C0 2.01 0 1.02 0 0 Z " fill="#2F2C2D" transform="translate(465,317)"/>
<path d="M0 0 C6.27 0 12.54 0 19 0 C19 0.99 19 1.98 19 3 C17.35 3 15.7 3 14 3 C14 14.88 14 26.76 14 39 C15.65 39 17.3 39 19 39 C19 39.66 19 40.32 19 41 C12.73 41 6.46 41 0 41 C0 40.34 0 39.68 0 39 C1.65 39 3.3 39 5 39 C5 27.12 5 15.24 5 3 C3.35 3 1.7 3 0 3 C0 2.01 0 1.02 0 0 Z " fill="#323030" transform="translate(441,317)"/>
<path d="M0 0 C6.27 0 12.54 0 19 0 C19 0.99 19 1.98 19 3 C17.35 3 15.7 3 14 3 C14 14.88 14 26.76 14 39 C15.65 39 17.3 39 19 39 C19 39.66 19 40.32 19 41 C13.06 41 7.12 41 1 41 C1 40.34 1 39.68 1 39 C2.32 39 3.64 39 5 39 C5 27.12 5 15.24 5 3 C3.35 3 1.7 3 0 3 C0 2.01 0 1.02 0 0 Z " fill="#302D2E" transform="translate(183,317)"/>
<path d="M0 0 C5.94 0 11.88 0 18 0 C18 0.99 18 1.98 18 3 C16.68 3 15.36 3 14 3 C14 14.88 14 26.76 14 39 C15.32 39 16.64 39 18 39 C18 39.66 18 40.32 18 41 C12.06 41 6.12 41 0 41 C0 40.34 0 39.68 0 39 C1.65 39 3.3 39 5 39 C5 26.79 5 14.58 5 2 C3.35 2 1.7 2 0 2 C0 1.34 0 0.68 0 0 Z " fill="#312E2F" transform="translate(630,317)"/>
<path d="M0 0 C5.94 0 11.88 0 18 0 C18 0.66 18 1.32 18 2 C16.35 2 14.7 2 13 2 C13 14.21 13 26.42 13 39 C14.65 39 16.3 39 18 39 C18 39.66 18 40.32 18 41 C12.06 41 6.12 41 0 41 C0 40.34 0 39.68 0 39 C1.65 39 3.3 39 5 39 C5 26.79 5 14.58 5 2 C3.35 2 1.7 2 0 2 C0 1.34 0 0.68 0 0 Z " fill="#262324" transform="translate(67,317)"/>
<path d="M0 0 C7.92 0 15.84 0 24 0 C24 0.33 24 0.66 24 1 C20.37 1 16.74 1 13 1 C13.14053872 3.62538284 13.28718947 6.25017427 13.4375 8.875 C13.47681641 9.62136719 13.51613281 10.36773437 13.55664062 11.13671875 C13.71573624 15.19986864 13.71573624 15.19986864 15 19 C14.34 19 13.68 19 13 19 C13 25.27 13 31.54 13 38 C14.98 38 16.96 38 19 38 C19 38.66 19 39.32 19 40 C12.73 40 6.46 40 0 40 C0 39.34 0 38.68 0 38 C1.65 38 3.3 38 5 38 C5 26.12 5 14.24 5 2 C3.35 2 1.7 2 0 2 C0 1.34 0 0.68 0 0 Z " fill="#262324" transform="translate(549,318)"/>
<path d="M0 0 C3.96 0 7.92 0 12 0 C12 0.99 12 1.98 12 3 C10.68 3 9.36 3 8 3 C8 15.54 8 28.08 8 41 C6.35 41 4.7 41 3 41 C0.98511344 38.93742382 -0.59214994 37.06801192 -2.25 34.75 C-2.69601563 34.16347656 -3.14203125 33.57695312 -3.6015625 32.97265625 C-5.75290668 30.07160121 -7.54239852 27.61854339 -8 24 C-7.34 23.34 -6.68 22.68 -6 22 C-5.34 20.68 -4.68 19.36 -4 18 C-1.36 20.97 1.28 23.94 4 27 C4.33 19.08 4.66 11.16 5 3 C3.35 3 1.7 3 0 3 C0 2.01 0 1.02 0 0 Z " fill="#252324" transform="translate(119,317)"/>
<path d="M0 0 C10.89 0 21.78 0 33 0 C33 2.97 33 5.94 33 9 C31.02 9 29.04 9 27 9 C28.32 8.67 29.64 8.34 31 8 C31 6.02 31 4.04 31 2 C27.56183853 2.1098283 24.12477652 2.24046863 20.6875 2.375 C19.22280273 2.42140625 19.22280273 2.42140625 17.72851562 2.46875 C16.32182617 2.52675781 16.32182617 2.52675781 14.88671875 2.5859375 C14.02264404 2.6173584 13.15856934 2.6487793 12.26831055 2.68115234 C9.72257555 2.87188037 9.72257555 2.87188037 7 5 C7.73431244 5.54217667 7.73431244 5.54217667 8.48345947 6.0953064 C10.69864314 8.87745833 10.32853472 10.95242747 10.26464844 14.47509766 C10.25693924 15.12741867 10.24923004 15.77973969 10.24128723 16.451828 C10.21202848 18.60642067 10.1609983 20.75989883 10.109375 22.9140625 C10.08387595 24.40951596 10.05957973 25.90499038 10.03643799 27.40048218 C9.98488068 30.53286579 9.92337658 33.66483603 9.85400391 36.796875 C9.76504038 40.81979947 9.69363678 44.84278217 9.62871933 48.86615944 C9.56607756 52.69474786 9.49411486 56.52314543 9.421875 60.3515625 C9.40892143 61.08623371 9.39596786 61.82090492 9.38262177 62.5778389 C9.34458484 64.64660498 9.29985569 66.7151103 9.25292969 68.78369141 C9.22833679 69.96266998 9.2037439 71.14164856 9.17840576 72.35635376 C9 75 9 75 8 76 C5.64686445 76.07271741 3.29166332 76.08370868 0.9375 76.0625 C-0.99802734 76.04896484 -0.99802734 76.04896484 -2.97265625 76.03515625 C-3.97167969 76.02355469 -4.97070312 76.01195312 -6 76 C-6 75.67 -6 75.34 -6 75 C-1.71 75 2.58 75 7 75 C7 53.22 7 31.44 7 9 C4.69 9 2.38 9 0 9 C0 6.03 0 3.06 0 0 Z " fill="#8A2A2E" transform="translate(382,141)"/>
<path d="M0 0 C5 0 5 0 6.76098633 1.46875 C7.27943115 2.1390625 7.79787598 2.809375 8.33203125 3.5 C8.90244141 4.221875 9.47285156 4.94375 10.06054688 5.6875 C10.92776367 6.8321875 10.92776367 6.8321875 11.8125 8 C12.7087207 9.1446875 12.7087207 9.1446875 13.62304688 10.3125 C15.09614922 12.19807101 16.55403194 14.09359109 18 16 C14.125 17 14.125 17 13 17 C13.33 18.98 13.66 20.96 14 23 C13.01 23 12.02 23 11 23 C8.04851522 19.5236814 5.60129702 15.75269078 3 12 C2.67 20.58 2.34 29.16 2 38 C3.65 38 5.3 38 7 38 C7 38.66 7 39.32 7 40 C3.04 40 -0.92 40 -5 40 C-5 39.34 -5 38.68 -5 38 C-3.02 37.505 -3.02 37.505 -1 37 C-0.67 24.79 -0.34 12.58 0 0 Z " fill="#2F2D2E" transform="translate(401,318)"/>
<path d="M0 0 C3 1 3 1 4.6875 4.25 C6.86117071 10.71289259 7.44370378 18.1673102 5.015625 24.61328125 C3.80236188 26.72151315 2.83576486 28.40095219 1 30 C-1 30 -3 30 -5 30 C-4.94818033 25.74900017 -4.8531128 21.5000407 -4.75 17.25 C-4.72873047 15.44015625 -4.72873047 15.44015625 -4.70703125 13.59375 C-4.67480469 12.43359375 -4.64257812 11.2734375 -4.609375 10.078125 C-4.58842773 9.00981445 -4.56748047 7.94150391 -4.54589844 6.84082031 C-3.88461606 3.39954938 -2.66017624 2.1967309 0 0 Z " fill="#252223" transform="translate(170,323)"/>
<path d="M0 0 C3.96 0 7.92 0 12 0 C12 0.99 12 1.98 12 3 C10.35 3 8.7 3 7 3 C7 15.87 7 28.74 7 42 C1.18988017 40.83797603 0.31799884 39.76765653 -2.90625 35.2109375 C-4.62861435 31.72930099 -4.06719639 29.65895905 -3 26 C0 26 0 26 3 27 C3.33 19.08 3.66 11.16 4 3 C2.68 3 1.36 3 0 3 C0 2.01 0 1.02 0 0 Z " fill="#201F20" transform="translate(278,317)"/>
<path d="M0 0 C2 3 2 3 1.875 6.0625 C2.07459621 12.34978058 4.53267808 17.79901712 8 23 C8 23.66 8 24.32 8 25 C3.38 25.33 -1.24 25.66 -6 26 C-6.66 28.31 -7.32 30.62 -8 33 C-6.68 33 -5.36 33 -4 33 C-4 33.66 -4 34.32 -4 35 C-7.96 35 -11.92 35 -16 35 C-16 34.34 -16 33.68 -16 33 C-15.08758545 32.92495239 -15.08758545 32.92495239 -14.15673828 32.84838867 C-11.76100637 32.16942737 -11.76100637 32.16942737 -10.65966797 29.5949707 C-10.08176514 28.02622192 -10.08176514 28.02622192 -9.4921875 26.42578125 C-8.84830078 24.71165039 -8.84830078 24.71165039 -8.19140625 22.96289062 C-7.75699219 21.75826172 -7.32257813 20.55363281 -6.875 19.3125 C-6.43285156 18.12720703 -5.99070313 16.94191406 -5.53515625 15.72070312 C-3.59980244 10.50811121 -1.73983693 5.2812597 0 0 Z " fill="#3C3C3C" transform="translate(223,323)"/>
<path d="M0 0 C0.99 0.33 1.98 0.66 3 1 C4.3515625 3.765625 4.3515625 3.765625 5.625 7.25 C6.05039062 8.38953125 6.47578125 9.5290625 6.9140625 10.703125 C8 14 8 14 9 19 C2.565 19.495 2.565 19.495 -4 20 C-4.66 22.31 -5.32 24.62 -6 27 C-4.68 27 -3.36 27 -2 27 C-2 27.66 -2 28.32 -2 29 C-5.96 29 -9.92 29 -14 29 C-14 28.34 -14 27.68 -14 27 C-13.07405029 26.88434692 -13.07405029 26.88434692 -12.12939453 26.76635742 C-9.85691279 26.19667401 -9.85691279 26.19667401 -8.84326172 24.14575195 C-8.54178223 23.35128662 -8.24030273 22.55682129 -7.9296875 21.73828125 C-7.42115234 20.43020508 -7.42115234 20.43020508 -6.90234375 19.09570312 C-6.56332031 18.17724609 -6.22429687 17.25878906 -5.875 16.3125 C-5.52824219 15.41337891 -5.18148438 14.51425781 -4.82421875 13.58789062 C-3.10326296 9.09428384 -1.47398989 4.58152528 0 0 Z " fill="#626161" transform="translate(306,329)"/>
<path d="M0 0 C0.99 -0.33 1.98 -0.66 3 -1 C3 2.63 3 6.26 3 10 C2.34 10 1.68 10 1 10 C-2 5.61538462 -2 5.61538462 -2 3 C-6.03038366 1.65653878 -9.79838392 1.73323073 -14 2 C-16.17500647 3.00488226 -16.17500647 3.00488226 -17 5 C-17.23684105 7.56900326 -17.23684105 7.56900326 -16 10 C-13.03292954 11.85916824 -13.03292954 11.85916824 -10 13 C-12 14.33333333 -14 15.66666667 -16 17 C-16 18.32 -16 19.64 -16 21 C-18.97343996 19.97467587 -19.99860466 19.00202083 -21.8125 16.375 C-23.27804699 12.20976118 -23.42535651 9.1896843 -22 5 C-15.56513939 -3.00009697 -9.38259355 -3.19861144 0 0 Z " fill="#2F2D2E" transform="translate(617,318)"/>
<path d="M0 0 C3.63 0 7.26 0 11 0 C11 0.99 11 1.98 11 3 C9.68 3 8.36 3 7 3 C7.02356567 4.36934692 7.02356567 4.36934692 7.04760742 5.76635742 C7.0988697 9.1676201 7.13641439 12.56846963 7.16479492 15.9699707 C7.17984066 17.43943782 7.20028238 18.90886034 7.22631836 20.37817383 C7.26288955 22.4957177 7.27976801 24.61266565 7.29296875 26.73046875 C7.31653442 28.63928833 7.31653442 28.63928833 7.34057617 30.58666992 C6.97327808 34.26781303 6.23359337 36.08697412 4 39 C1.125 40.9375 1.125 40.9375 -2 42 C-4.875 41.1875 -4.875 41.1875 -7 40 C-7 39.67 -7 39.34 -7 39 C-4.98177083 38.54427083 -2.96354167 38.08854167 -0.9453125 37.6328125 C1.20719964 37.09525572 1.20719964 37.09525572 3 35 C3.24501495 32.56823603 3.37324921 30.24135116 3.4140625 27.8046875 C3.43342865 27.09724396 3.4527948 26.38980042 3.4727478 25.66091919 C3.53257652 23.39906915 3.57894101 21.1371683 3.625 18.875 C3.66317686 17.3424256 3.70222842 15.80987272 3.7421875 14.27734375 C3.83828039 10.51840376 3.92229849 6.75936332 4 3 C2.68 3 1.36 3 0 3 C0 2.01 0 1.02 0 0 Z " fill="#626262" transform="translate(381,317)"/>
<path d="M0 0 C2.93119624 0.31688608 4.54385806 0.52631414 6.625 2.6875 C8.2891643 5.48632178 8.49493469 7.51490283 8.6875 10.75 C8.75324219 11.73484375 8.81898438 12.7196875 8.88671875 13.734375 C8.92410156 14.48203125 8.96148438 15.2296875 9 16 C9.99 16.33 10.98 16.66 12 17 C12 17.66 12 18.32 12 19 C10.58506449 19.10884119 9.16767057 19.18597617 7.75 19.25 C6.96109375 19.29640625 6.1721875 19.3428125 5.359375 19.390625 C2.04762731 18.8423224 0.96058891 17.6896968 -1 15 C-1.42578125 12.08984375 -1.42578125 12.08984375 -1.3125 8.9375 C-1.28800781 7.89464844 -1.26351562 6.85179687 -1.23828125 5.77734375 C-1 3 -1 3 0 0 Z " fill="#252122" transform="translate(575,339)"/>
<path d="M0 0 C6.8359375 -0.29296875 6.8359375 -0.29296875 9 0 C11.01696222 3.02544334 11.25811096 3.61067382 11.1875 7 C11.17783203 8.0209375 11.17783203 8.0209375 11.16796875 9.0625 C11 11 11 11 10 14 C6.78548731 15.60725635 3.56387464 15.05748185 0 15 C0 10.05 0 5.1 0 0 Z " fill="#FBFAFB" transform="translate(563,320)"/>
<path d="M0 0 C1.65 0 3.3 0 5 0 C3.68 0.33 2.36 0.66 1 1 C2.52555966 5.81122847 2.52555966 5.81122847 6 9 C5.67 10.32 5.34 11.64 5 13 C4.34 13 3.68 13 3 13 C3 21.58 3 30.16 3 39 C4.65 39 6.3 39 8 39 C8 39.66 8 40.32 8 41 C4.04 41 0.08 41 -4 41 C-4 40.34 -4 39.68 -4 39 C-2.68 39 -1.36 39 0 39 C0 26.13 0 13.26 0 0 Z " fill="#5A5959" transform="translate(96,317)"/>
<path d="M0 0 C2.31 0 4.62 0 7 0 C7 0.33 7 0.66 7 1 C5.02 1 3.04 1 1 1 C1.00444122 1.73027405 1.00888245 2.4605481 1.01345825 3.21295166 C1.05355086 10.09883988 1.08399251 16.98471062 1.10362434 23.87068558 C1.11405661 27.41074864 1.12820554 30.95071516 1.15087891 34.49072266 C1.17678851 38.56153281 1.18647738 42.63224172 1.1953125 46.703125 C1.21079636 48.60798676 1.21079636 48.60798676 1.22659302 50.55133057 C1.22681961 52.32271393 1.22681961 52.32271393 1.22705078 54.12988281 C1.231492 55.16912903 1.23593323 56.20837524 1.24050903 57.27911377 C0.83644093 61.85034886 -0.48427113 63.55010886 -3.9375 66.5625 C-4.948125 67.366875 -5.95875 68.17125 -7 69 C-7.46188721 69.54374268 -7.92377441 70.08748535 -8.3996582 70.64770508 C-10.58841011 72.49720878 -11.84551008 72.27197063 -14.66796875 72.07421875 C-15.56064453 72.01943359 -16.45332031 71.96464844 -17.37304688 71.90820312 C-18.76620117 71.79895508 -18.76620117 71.79895508 -20.1875 71.6875 C-21.12787109 71.62626953 -22.06824219 71.56503906 -23.03710938 71.50195312 C-25.35904592 71.34872889 -27.67969379 71.17619892 -30 71 C-30 74.96 -30 78.92 -30 83 C-28.02 83 -26.04 83 -24 83 C-24 83.33 -24 83.66 -24 84 C-26.31 84 -28.62 84 -31 84 C-31 79.38 -31 74.76 -31 70 C-29.67226563 70.04382813 -28.34453125 70.08765625 -26.9765625 70.1328125 C-25.19270643 70.1328125 -23.40884889 70.13006056 -21.625 70.125 C-20.75488281 70.16109375 -19.88476562 70.1971875 -18.98828125 70.234375 C-13.23384959 70.14912416 -9.98552765 68.70933228 -5.74023438 64.79296875 C-0.83568227 59.64936233 0.17122352 55.86948528 0.28543091 48.87155151 C0.2408223 47.01314133 0.2408223 47.01314133 0.1953125 45.1171875 C0.20335907 43.82177032 0.21140564 42.52635315 0.21969604 41.19168091 C0.24032825 37.78095918 0.20187098 34.3734861 0.15020752 30.9631958 C0.10804234 27.470224 0.12297955 23.97751892 0.1328125 20.484375 C0.14376966 13.65546211 0.09217425 6.82828 0 0 Z " fill="#FBE0DF" transform="translate(439,166)"/>
<path d="M0 0 C1.47583955 0.0001591 2.95168467 0.00585225 4.42749023 0.01586914 C5.20293686 0.01728409 5.97838348 0.01869904 6.77732849 0.02015686 C9.26361893 0.02577194 11.74982059 0.03832693 14.23608398 0.05102539 C15.91772331 0.05603845 17.59936405 0.06060169 19.28100586 0.06469727 C23.41189965 0.07574626 27.54272674 0.09302094 31.67358398 0.11352539 C31.67358398 0.44352539 31.67358398 0.77352539 31.67358398 1.11352539 C21.27858398 1.60852539 21.27858398 1.60852539 10.67358398 2.11352539 C10.67358398 14.32352539 10.67358398 26.53352539 10.67358398 39.11352539 C10.34358398 39.11352539 10.01358398 39.11352539 9.67358398 39.11352539 C9.67358398 27.23352539 9.67358398 15.35352539 9.67358398 3.11352539 C3.30184807 3.5187438 3.30184807 3.5187438 0.86108398 5.30102539 C-0.75072081 7.7611485 -1.51393877 10.30110416 -2.32641602 13.11352539 C-2.98641602 13.11352539 -3.64641602 13.11352539 -4.32641602 13.11352539 C-4.35328154 11.13443141 -4.37274977 9.15523568 -4.38891602 7.17602539 C-4.40051758 6.07387695 -4.41211914 4.97172852 -4.42407227 3.83618164 C-4.28065981 -0.16215774 -4.08949628 0.13956813 0 0 Z " fill="#4A4849" transform="translate(658.326416015625,316.886474609375)"/>
<path d="M0 0 C0.66 0 1.32 0 2 0 C3.19984601 3.12040043 4.38274177 6.24695531 5.5625 9.375 C5.90474609 10.26445312 6.24699219 11.15390625 6.59960938 12.0703125 C6.91865234 12.92109375 7.23769531 13.771875 7.56640625 14.6484375 C7.86490479 15.43395996 8.16340332 16.21948242 8.47094727 17.02880859 C9 19 9 19 8 21 C6.68 20.34 5.36 19.68 4 19 C4 17.35 4 15.7 4 14 C3.34 14 2.68 14 2 14 C2 14.66 2 15.32 2 16 C1.34 16 0.68 16 0 16 C0.33 16.99 0.66 17.98 1 19 C0.34 19 -0.32 19 -1 19 C-1.66 16.36 -2.32 13.72 -3 11 C-2.34 11 -1.68 11 -1 11 C-1.20625 9.9275 -1.4125 8.855 -1.625 7.75 C-1.9876191 4.12380904 -1.98362069 2.91708924 0 0 Z " fill="#2C292A" transform="translate(226,317)"/>
<path d="M0 0 C3.96 0 7.92 0 12 0 C12 0.99 12 1.98 12 3 C10.35 3 8.7 3 7 3 C7 15.87 7 28.74 7 42 C5.68 41.67 4.36 41.34 3 41 C3.99 41 4.98 41 6 41 C5.88652381 39.02013918 5.7589065 37.04108402 5.625 35.0625 C5.52058594 33.40927734 5.52058594 33.40927734 5.4140625 31.72265625 C5.27742188 30.82417969 5.14078125 29.92570312 5 29 C4.34 28.67 3.68 28.34 3 28 C3.33 19.75 3.66 11.5 4 3 C2.68 3 1.36 3 0 3 C0 2.01 0 1.02 0 0 Z " fill="#6D6C6C" transform="translate(278,317)"/>
<path d="M0 0 C3.96 0 7.92 0 12 0 C12 0.99 12 1.98 12 3 C10.68 3 9.36 3 8 3 C8 15.54 8 28.08 8 41 C7.67 41 7.34 41 7 41 C6.95101563 40.14535156 6.90203125 39.29070312 6.8515625 38.41015625 C6.77679688 37.30542969 6.70203125 36.20070313 6.625 35.0625 C6.52058594 33.40927734 6.52058594 33.40927734 6.4140625 31.72265625 C6.27742188 30.82417969 6.14078125 29.92570312 6 29 C5.34 28.67 4.68 28.34 4 28 C4.33 19.75 4.66 11.5 5 3 C3.35 3 1.7 3 0 3 C0 2.01 0 1.02 0 0 Z " fill="#6E6E6E" transform="translate(423,317)"/>
<path d="M0 0 C3.96 0 7.92 0 12 0 C12 0.99 12 1.98 12 3 C10.68 3 9.36 3 8 3 C8 15.54 8 28.08 8 41 C7.67 41 7.34 41 7 41 C6.67 37.04 6.34 33.08 6 29 C5.01 29 4.02 29 3 29 C3.33 28.34 3.66 27.68 4 27 C4.15306901 25.18828902 4.24946661 23.3716206 4.31640625 21.5546875 C4.35830078 20.47832031 4.40019531 19.40195312 4.44335938 18.29296875 C4.48267578 17.16503906 4.52199219 16.03710938 4.5625 14.875 C4.62727539 13.17150391 4.62727539 13.17150391 4.69335938 11.43359375 C4.7996604 8.62252232 4.90169405 5.81136055 5 3 C3.35 3 1.7 3 0 3 C0 2.01 0 1.02 0 0 Z " fill="#727272" transform="translate(119,317)"/>
<path d="M0 0 C0.99 0 1.98 0 3 0 C3.9765625 1.79036458 4.953125 3.58072917 5.9296875 5.37109375 C6.91410024 7.16618315 6.91410024 7.16618315 9 8 C10.80948495 8.12176503 12.62396271 8.17545792 14.4375 8.1875 C15.40558594 8.20167969 16.37367188 8.21585937 17.37109375 8.23046875 C20.23266727 8.19149451 20.23266727 8.19149451 23 6 C23.66 6.33 24.32 6.66 25 7 C24 10 24 10 22 11.1875 C14.96802487 13.09199327 9.42118169 12.27890129 3 9 C3 9.66 3 10.32 3 11 C2.01 11 1.02 11 0 11 C0 7.37 0 3.74 0 0 Z " fill="#393939" transform="translate(594,347)"/>
<path d="M0 0 C10.56 0 21.12 0 32 0 C32.9681648 3.8726592 33.07622858 7.03611362 33 11 C32.34 11 31.68 11 31 11 C30.525625 10.030625 30.05125 9.06125 29.5625 8.0625 C28.29806053 5.19522563 28.29806053 5.19522563 27 4 C22.67509147 3.5347708 18.34064463 3.29499527 14 3 C14 8.28 14 13.56 14 19 C13.67 19 13.34 19 13 19 C13 13.39 13 7.78 13 2 C8.71 1.67 4.42 1.34 0 1 C0 0.67 0 0.34 0 0 Z " fill="#5B5A5B" transform="translate(508,317)"/>
<path d="M0 0 C0.33 0 0.66 0 1 0 C1 4.95 1 9.9 1 15 C0.01 15.495 0.01 15.495 -1 16 C-1.33 16.66 -1.66 17.32 -2 18 C-2.99 18 -3.98 18 -5 18 C-5.33 19.98 -5.66 21.96 -6 24 C8.85 23.505 8.85 23.505 24 23 C24 20.69 24 18.38 24 16 C21.525 15.505 21.525 15.505 19 15 C19 14.67 19 14.34 19 14 C21.31 14 23.62 14 26 14 C26 17.63 26 21.26 26 25 C15.11 25 4.22 25 -7 25 C-7 21.04 -7 17.08 -7 13 C-4.69 13 -2.38 13 0 13 C0 8.71 0 4.42 0 0 Z " fill="#7D2727" transform="translate(389,236)"/>
<path d="M0 0 C2.875 0.25 2.875 0.25 6 1 C8.16898181 3.85911239 8 5.28443578 8 9 C9.65 9 11.3 9 13 9 C13 9.66 13 10.32 13 11 C7.06 11 1.12 11 -5 11 C-5 10.34 -5 9.68 -5 9 C-3.35 9 -1.7 9 0 9 C-0.185625 8.443125 -0.37125 7.88625 -0.5625 7.3125 C-1.07551165 4.600867 -0.6640724 2.65628961 0 0 Z " fill="#232323" transform="translate(318,347)"/>
<path d="M0 0 C3.96 0 7.92 0 12 0 C12 0.99 12 1.98 12 3 C11.38125 3.05542969 10.7625 3.11085938 10.125 3.16796875 C7.7696049 3.81393863 7.7696049 3.81393863 6.875 6.30078125 C6.441875 7.79158203 6.441875 7.79158203 6 9.3125 C5.67 10.38757813 5.34 11.46265625 5 12.5703125 C4.67 13.70210938 4.34 14.83390625 4 16 C3.34871364 18.2337087 2.68275613 20.46320853 2 22.6875 C1.71125 23.68136719 1.4225 24.67523438 1.125 25.69921875 C0 28 0 28 -2.125 28.83203125 C-2.74375 28.88746094 -3.3625 28.94289063 -4 29 C-4 28.34 -4 27.68 -4 27 C-3.34 27 -2.68 27 -2 27 C-1.773125 25.824375 -1.54625 24.64875 -1.3125 23.4375 C0.22010836 16.45686044 2.671259 9.74623825 5 3 C3.35 3 1.7 3 0 3 C0 2.01 0 1.02 0 0 Z " fill="#444444" transform="translate(491,317)"/>
<path d="M0 0 C2.38125464 2.38125464 3.00186241 4.33857567 4.125 7.5 C4.65480469 8.96953125 4.65480469 8.96953125 5.1953125 10.46875 C6 13 6 13 6 15 C2.37 15 -1.26 15 -5 15 C-3.35 10.05 -1.7 5.1 0 0 Z " fill="#EFEEEF" transform="translate(308,330)"/>
<path d="M0 0 C0.89203125 0.11085938 1.7840625 0.22171875 2.703125 0.3359375 C3.37859375 0.43132812 4.0540625 0.52671875 4.75 0.625 C3 6.375 3 6.375 0.75 8.625 C-1.97869407 8.59212417 -4.5466618 8.06102229 -7.25 7.625 C-7.91 5.645 -8.57 3.665 -9.25 1.625 C-5.9353333 -0.40407167 -3.8184021 -0.50242133 0 0 Z " fill="#222121" transform="translate(609.25,332.375)"/>
<path d="M0 0 C0.99 0.33 1.98 0.66 3 1 C3.94921875 3.50390625 3.94921875 3.50390625 4.6875 6.5625 C5.06455078 8.08037109 5.06455078 8.08037109 5.44921875 9.62890625 C5.63097656 10.41136719 5.81273437 11.19382812 6 12 C4.68 11.67 3.36 11.34 2 11 C1.67 12.32 1.34 13.64 1 15 C-0.65 14.67 -2.3 14.34 -4 14 C-3.46148032 8.72250715 -2.22656164 4.74354436 0 0 Z " fill="#322D2F" transform="translate(311,317)"/>
<path d="M0 0 C2.52475462 2.52475462 3.04307871 4.73497997 4.125 8.125 C4.47820312 9.22070312 4.83140625 10.31640625 5.1953125 11.4453125 C5.46085938 12.28835938 5.72640625 13.13140625 6 14 C2.37 14 -1.26 14 -5 14 C-2.05357143 3.82142857 -2.05357143 3.82142857 0 0 Z " fill="#F4F3F4" transform="translate(223,331)"/>
<path d="M0 0 C3.96 0 7.92 0 12 0 C12 0.99 12 1.98 12 3 C11.38866211 3.08628662 10.77732422 3.17257324 10.14746094 3.26147461 C7.35695011 4.22114892 6.9505349 5.21584984 5.640625 7.81640625 C5.05087891 8.96206055 5.05087891 8.96206055 4.44921875 10.13085938 C4.05347656 10.93330078 3.65773438 11.73574219 3.25 12.5625 C2.83878906 13.36880859 2.42757812 14.17511719 2.00390625 15.00585938 C0.99014482 16.99801846 -0.01039352 18.99576178 -1 21 C-1.33 20.34 -1.66 19.68 -2 19 C-2.66 18.67 -3.32 18.34 -4 18 C-3.34 18 -2.68 18 -2 18 C-1.6596875 16.7934375 -1.6596875 16.7934375 -1.3125 15.5625 C0.33631588 11.08714261 2.60544412 7.11278682 5 3 C3.35 3 1.7 3 0 3 C0 2.01 0 1.02 0 0 Z " fill="#3C3C3C" transform="translate(721,317)"/>
<path d="M0 0 C0.33 0 0.66 0 1 0 C1 2.97 1 5.94 1 9 C2.98 8.34 4.96 7.68 7 7 C7.33 4.69 7.66 2.38 8 0 C8.33 0 8.66 0 9 0 C9.33 3.63 9.66 7.26 10 11 C10.99 11.33 11.98 11.66 13 12 C13 12.66 13 13.32 13 14 C5.12844037 14.60550459 5.12844037 14.60550459 1.4375 12.625 C-0.79015889 8.55710116 -0.31179274 4.53831648 0 0 Z " fill="#3B3A3B" transform="translate(574,344)"/>
<path d="M0 0 C-0.33 0.66 -0.66 1.32 -1 2 C-0.01 2.66 0.98 3.32 2 4 C1.01 5.485 1.01 5.485 0 7 C-0.66 7 -1.32 7 -2 7 C-2.391875 6.525625 -2.78375 6.05125 -3.1875 5.5625 C-5.49778743 3.28690739 -5.49778743 3.28690739 -12 3 C-12 8.94 -12 14.88 -12 21 C-12.33 21 -12.66 21 -13 21 C-13.02895976 17.87501937 -13.04678483 14.7500731 -13.0625 11.625 C-13.07087891 10.73554688 -13.07925781 9.84609375 -13.08789062 8.9296875 C-13.09111328 8.07890625 -13.09433594 7.228125 -13.09765625 6.3515625 C-13.10289307 5.56604004 -13.10812988 4.78051758 -13.11352539 3.97119141 C-13 2 -13 2 -12 0 C-3.89667897 -1.46125461 -3.89667897 -1.46125461 0 0 Z " fill="#484647" transform="translate(575,335)"/>
<path d="M0 0 C6.27 0 12.54 0 19 0 C19 0.99 19 1.98 19 3 C17.88625 2.95875 16.7725 2.9175 15.625 2.875 C11.95633975 2.58878141 11.95633975 2.58878141 10 5 C10 4.34 10 3.68 10 3 C9.34 3 8.68 3 8 3 C8.33 3.99 8.66 4.98 9 6 C7.68 6 6.36 6 5 6 C4.67 5.34 4.34 4.68 4 4 C1.97536745 3.34786708 1.97536745 3.34786708 0 3 C0 2.01 0 1.02 0 0 Z " fill="#4E4D4E" transform="translate(695,317)"/>
<path d="M0 0 C0.66 0 1.32 0 2 0 C2 5.28 2 10.56 2 16 C1.34 16 0.68 16 0 16 C-0.66 14.02 -1.32 12.04 -2 10 C-4.97 9.505 -4.97 9.505 -8 9 C-8 8.01 -8 7.02 -8 6 C-6.576875 5.9071875 -6.576875 5.9071875 -5.125 5.8125 C-4.09375 5.544375 -3.0625 5.27625 -2 5 C-0.54708727 2.53744315 -0.54708727 2.53744315 0 0 Z " fill="#282828" transform="translate(530,330)"/>
<path d="M0 0 C4.87665542 -0.19506622 8.41360334 0.43645568 13 2 C13.99 1.67 14.98 1.34 16 1 C16 4.63 16 8.26 16 12 C15.34 12 14.68 12 14 12 C11 7.61538462 11 7.61538462 11 5 C10.37351562 4.89042969 9.74703125 4.78085937 9.1015625 4.66796875 C7.87566406 4.43013672 7.87566406 4.43013672 6.625 4.1875 C5.81289063 4.03667969 5.00078125 3.88585937 4.1640625 3.73046875 C2 3 2 3 0 0 Z " fill="#484848" transform="translate(604,316)"/>
<path d="M0 0 C0.33 0.66 0.66 1.32 1 2 C5.62 2 10.24 2 15 2 C15 2.33 15 2.66 15 3 C8.565 3.495 8.565 3.495 2 4 C1.34 6.31 0.68 8.62 0 11 C1.32 11 2.64 11 4 11 C4 11.66 4 12.32 4 13 C0.04 13 -3.92 13 -8 13 C-8 12.34 -8 11.68 -8 11 C-7.38640625 10.93941406 -6.7728125 10.87882812 -6.140625 10.81640625 C-3.77820953 10.1788835 -3.77820953 10.1788835 -2.734375 7.71484375 C-2.24710938 6.34005859 -2.24710938 6.34005859 -1.75 4.9375 C-1.41484375 4.01839844 -1.0796875 3.09929687 -0.734375 2.15234375 C-0.49203125 1.44207031 -0.2496875 0.73179687 0 0 Z " fill="#616060" transform="translate(215,345)"/>
<path d="M0 0 C3.375 0.3125 3.375 0.3125 7 1 C7.66 1.99 8.32 2.98 9 4 C8.01 4.33 7.02 4.66 6 5 C4.30117552 7.49759982 4.30117552 7.49759982 3 10 C0.69 9.34 -1.62 8.68 -4 8 C-3.34 7.67 -2.68 7.34 -2 7 C-1.22227595 4.66682784 -0.57584432 2.38564077 0 0 Z " fill="#2C2A2B" transform="translate(612,334)"/>
<path d="M0 0 C0.66 0.99 1.32 1.98 2 3 C1.3203125 5.91796875 1.3203125 5.91796875 0.125 9.1875 C-0.26429688 10.27417969 -0.65359375 11.36085938 -1.0546875 12.48046875 C-1.52261719 13.72763672 -1.52261719 13.72763672 -2 15 C1.3 15.33 4.6 15.66 8 16 C7.67 16.66 7.34 17.32 7 18 C3.04 18 -0.92 18 -5 18 C-4.42934122 11.58008874 -2.32655091 5.98410537 0 0 Z " fill="#424242" transform="translate(306,329)"/>
<path d="M0 0 C2.05452171 3.08178257 2.95908485 5.75698992 4.0234375 9.2578125 C4.86775819 11.21318098 4.86775819 11.21318098 7.1015625 11.7421875 C7.72804687 11.82726562 8.35453125 11.91234375 9 12 C9 12.66 9 13.32 9 14 C5.7 14 2.4 14 -1 14 C-0.67 13.34 -0.34 12.68 0 12 C-0.66 12 -1.32 12 -2 12 C-2 10 -2 10 0 8 C-0.66 8 -1.32 8 -2 8 C-1.34 5.36 -0.68 2.72 0 0 Z " fill="#282828" transform="translate(237,344)"/>
<path d="M0 0 C2.35171131 0.59861742 4.6859378 1.26924352 7 2 C7.33 2.66 7.66 3.32 8 4 C7.34 4 6.68 4 6 4 C6.57344937 6.86724686 6.8614515 7.8614515 9 10 C5.86650268 11.04449911 5.01031744 10.93423645 2 10 C1.11064623 6.696686 0.53725895 3.37705625 0 0 Z " fill="#212020" transform="translate(413,334)"/>
<path d="M0 0 C2.475 0.99 2.475 0.99 5 2 C5 2.66 5 3.32 5 4 C6.98 4 8.96 4 11 4 C11 4.66 11 5.32 11 6 C4.73 6 -1.54 6 -8 6 C-8 5.34 -8 4.68 -8 4 C-6.02 4 -4.04 4 -2 4 C-1.34 2.68 -0.68 1.36 0 0 Z " fill="#211F20" transform="translate(713,352)"/>
<path d="M0 0 C0.94616328 3.42984189 1 6.44175575 1 10 C1.66 10 2.32 10 3 10 C3 10.66 3 11.32 3 12 C-0.08888522 14.05925681 -0.70935927 14.2390374 -4.1875 14.125 C-6.0746875 14.063125 -6.0746875 14.063125 -8 14 C-8 13.34 -8 12.68 -8 12 C-6.35 12 -4.7 12 -3 12 C-3.03480469 11.38511719 -3.06960937 10.77023437 -3.10546875 10.13671875 C-3.13253906 9.32847656 -3.15960938 8.52023437 -3.1875 7.6875 C-3.22230469 6.88699219 -3.25710937 6.08648437 -3.29296875 5.26171875 C-2.93801608 2.52148416 -2.10633718 1.70828921 0 0 Z " fill="#201F1F" transform="translate(236,344)"/>
<path d="M0 0 C0.33 0 0.66 0 1 0 C1.33 8.25 1.66 16.5 2 25 C3.65 25.33 5.3 25.66 7 26 C7 26.66 7 27.32 7 28 C3.04 28 -0.92 28 -5 28 C-5 27.34 -5 26.68 -5 26 C-3.68 25.67 -2.36 25.34 -1 25 C-0.67 16.75 -0.34 8.5 0 0 Z " fill="#212020" transform="translate(401,330)"/>
<path d="M0 0 C-0.33 0.99 -0.66 1.98 -1 3 C2.04913228 4.01111093 2.04913228 4.01111093 5 3 C5 5.64 5 8.28 5 11 C2.27425729 10.62669176 1.19177915 10.20805399 -0.703125 8.15234375 C-1.46882813 7.05599609 -1.46882813 7.05599609 -2.25 5.9375 C-2.77078125 5.20402344 -3.2915625 4.47054688 -3.828125 3.71484375 C-4.21484375 3.14894531 -4.6015625 2.58304687 -5 2 C-2 0 -2 0 0 0 Z " fill="#303030" transform="translate(425,348)"/>
<path d="M0 0 C0.33 0 0.66 0 1 0 C1 4.95 1 9.9 1 15 C0.01 15.495 0.01 15.495 -1 16 C-1.33 16.66 -1.66 17.32 -2 18 C-2.99 18 -3.98 18 -5 18 C-5.33 20.31 -5.66 22.62 -6 25 C-6.33 25 -6.66 25 -7 25 C-7 21.04 -7 17.08 -7 13 C-4.69 13 -2.38 13 0 13 C0 8.71 0 4.42 0 0 Z " fill="#93393C" transform="translate(389,236)"/>
<path d="M0 0 C-0.309375 0.7425 -0.61875 1.485 -0.9375 2.25 C-1.8094925 4.50692176 -2.47667007 6.6450153 -3 9 C-5.93200474 6.14723863 -8.64315404 3.34920216 -11 0 C-9.54263913 -0.19491452 -8.08405407 -0.38069358 -6.625 -0.5625 C-5.81289062 -0.66691406 -5.00078125 -0.77132813 -4.1640625 -0.87890625 C-2 -1 -2 -1 0 0 Z " fill="#2A2A2A" transform="translate(115,335)"/>
<path d="M0 0 C3.63 0 7.26 0 11 0 C11 0.33 11 0.66 11 1 C9.02 1 7.04 1 5 1 C5 10.9 5 20.8 5 31 C4.67 31 4.34 31 4 31 C4 21.76 4 12.52 4 3 C2.68 3 1.36 3 0 3 C0 2.01 0 1.02 0 0 Z " fill="#7C7C7C" transform="translate(381,317)"/>
<path d="M0 0 C1.65 1.65 3.3 3.3 5 5 C2.8971062 7.49231858 1.67044692 8.85282873 -1.5625 9.5625 C-4 9 -4 9 -5.8125 6.5 C-6.204375 5.675 -6.59625 4.85 -7 4 C-6.34 3.34 -5.68 2.68 -5 2 C-3 3 -3 3 -2 5 C0.18490007 2.32357511 0.18490007 2.32357511 0 0 Z " fill="#2E2C2D" transform="translate(266,326)"/>
<path d="M0 0 C0.70125 0.78375 1.4025 1.5675 2.125 2.375 C5.09157086 5.08360818 7.1582516 6.01722715 11 7 C10.67 7.66 10.34 8.32 10 9 C8.41753293 9.08153933 6.83383727 9.13943557 5.25 9.1875 C4.36828125 9.22230469 3.4865625 9.25710938 2.578125 9.29296875 C-0.44671583 8.94923684 -1.75583602 7.99772541 -4 6 C-3.01 5.67 -2.02 5.34 -1 5 C-0.67 3.35 -0.34 1.7 0 0 Z " fill="#2E2E2E" transform="translate(367,350)"/>
<path d="M0 0 C1.98 0 3.96 0 6 0 C6 0.66 6 1.32 6 2 C4.68 2 3.36 2 2 2 C1.67 11.9 1.34 21.8 1 32 C0.67 32 0.34 32 0 32 C0 21.44 0 10.88 0 0 Z " fill="#1F1F1F" transform="translate(386,318)"/>
<path d="M0 0 C0.99 0 1.98 0 3 0 C5 5.625 5 5.625 5 9 C4.34 9 3.68 9 3 9 C3 9.66 3 10.32 3 11 C2.01 11 1.02 11 0 11 C0 7.37 0 3.74 0 0 Z " fill="#414141" transform="translate(594,347)"/>
<path d="M0 0 C5.75 1.625 5.75 1.625 8 5 C6.71034824 6.37562854 5.37310707 7.70766393 4 9 C3.34 9 2.68 9 2 9 C0 2.25 0 2.25 0 0 Z " fill="#2E2C2D" transform="translate(163,318)"/>
<path d="M0 0 C0.33 0.66 0.66 1.32 1 2 C2.32 1.34 3.64 0.68 5 0 C5.33 0.99 5.66 1.98 6 3 C0.5 7 0.5 7 -4 7 C-4 4 -4 4 -2 1.8125 C-1.34 1.214375 -0.68 0.61625 0 0 Z " fill="#333333" transform="translate(164,351)"/>
<path d="M0 0 C0.66 0 1.32 0 2 0 C3.125 3.3125 3.125 3.3125 4 7 C3.01 8.485 3.01 8.485 2 10 C1.34 10 0.68 10 0 10 C-2.21538462 4.58461538 -2.21538462 4.58461538 -1.125 1.625 C-0.75375 1.08875 -0.3825 0.5525 0 0 Z " fill="#332F30" transform="translate(226,317)"/>
<path d="M0 0 C3.96 0 7.92 0 12 0 C12 0.99 12 1.98 12 3 C8.04 3 4.08 3 0 3 C0 2.01 0 1.02 0 0 Z " fill="#555555" transform="translate(721,317)"/>
<path d="M0 0 C0.66 0.99 1.32 1.98 2 3 C1.67 3.66 1.34 4.32 1 5 C-5.93 4.505 -5.93 4.505 -13 4 C-13 3.01 -13 2.02 -13 1 C-8.71 1.33 -4.42 1.66 0 2 C0 1.34 0 0.68 0 0 Z " fill="#363536" transform="translate(229,343)"/>
<path d="M0 0 C0.99 0.66 1.98 1.32 3 2 C3.1875 5.125 3.1875 5.125 3 8 C2.34 8 1.68 8 1 8 C0.67 8.99 0.34 9.98 0 11 C-2 10 -2 10 -2.75 8.0625 C-2.8325 7.381875 -2.915 6.70125 -3 6 C-2.34 5.34 -1.68 4.68 -1 4 C-0.3574765 1.93125966 -0.3574765 1.93125966 0 0 Z " fill="#1F1D1E" transform="translate(114,335)"/>
<path d="M0 0 C1.32 0.33 2.64 0.66 4 1 C4 2.32 4 3.64 4 5 C3.34 5 2.68 5 2 5 C2 5.66 2 6.32 2 7 C0.35 6.67 -1.3 6.34 -3 6 C-2.01 4.02 -1.02 2.04 0 0 Z " fill="#211F20" transform="translate(618,338)"/>
<path d="M0 0 C1.47230195 2.34816041 2.06413673 3.53461766 1.6796875 6.32421875 C1.41414063 7.10410156 1.14859375 7.88398438 0.875 8.6875 C0.62492187 9.47511719 0.37484375 10.26273437 0.1171875 11.07421875 C-1 13 -1 13 -3.1171875 13.76953125 C-3.73851562 13.84558594 -4.35984375 13.92164063 -5 14 C-5 13.34 -5 12.68 -5 12 C-4.34 12 -3.68 12 -3 12 C-2.86722656 11.38511719 -2.73445313 10.77023437 -2.59765625 10.13671875 C-2.42105469 9.32847656 -2.24445313 8.52023437 -2.0625 7.6875 C-1.88847656 6.88699219 -1.71445312 6.08648437 -1.53515625 5.26171875 C-1 3 -1 3 0 0 Z " fill="#3E3D3D" transform="translate(492,332)"/>
<path d="M0 0 C0.66 0 1.32 0 2 0 C2 3.63 2 7.26 2 11 C1.34 11 0.68 11 0 11 C-1.28571429 3.57142857 -1.28571429 3.57142857 0 0 Z " fill="#333333" transform="translate(618,317)"/>
<path d="M0 0 C0.99 0.33 1.98 0.66 3 1 C2.67 8.92 2.34 16.84 2 25 C1.67 25 1.34 25 1 25 C0.67 16.75 0.34 8.5 0 0 Z " fill="#2C2C2C" transform="translate(255,327)"/>
<path d="M0 0 C0 0.66 0 1.32 0 2 C-3.96 2 -7.92 2 -12 2 C-12 1.34 -12 0.68 -12 0 C-7.91556885 -1.53166168 -4.20544343 -0.63081652 0 0 Z " fill="#232323" transform="translate(304,356)"/>
<path d="M0 0 C0 0.66 0 1.32 0 2 C-3.96 2 -7.92 2 -12 2 C-12 1.34 -12 0.68 -12 0 C-7.91556885 -1.53166168 -4.20544343 -0.63081652 0 0 Z " fill="#202020" transform="translate(104,356)"/>
<path d="M0 0 C4.29 0.33 8.58 0.66 13 1 C12.67 1.66 12.34 2.32 12 3 C8.04 3 4.08 3 0 3 C0 2.01 0 1.02 0 0 Z " fill="#3C3B3B" transform="translate(301,344)"/>
<path d="M0 0 C0.33 2.97 0.66 5.94 1 9 C0.01 9 -0.98 9 -2 9 C-2.66 6.36 -3.32 3.72 -4 1 C-2 0 -2 0 0 0 Z " fill="#404040" transform="translate(690,321)"/>
<path d="M0 0 C0.99 0.33 1.98 0.66 3 1 C2.67 1.66 2.34 2.32 2 3 C-4.27 3 -10.54 3 -17 3 C-17 2.67 -17 2.34 -17 2 C-15.41058594 1.90912109 -15.41058594 1.90912109 -13.7890625 1.81640625 C-12.40102779 1.73199873 -11.01300768 1.64735083 -9.625 1.5625 C-8.92632812 1.52318359 -8.22765625 1.48386719 -7.5078125 1.44335938 C-3.62639508 1.25719866 -3.62639508 1.25719866 0 0 Z " fill="#87252B" transform="translate(426,233)"/>
<path d="M0 0 C0 0.66 0 1.32 0 2 C-3.96 2 -7.92 2 -12 2 C-12 1.34 -12 0.68 -12 0 C-7.66726186 -0.92844389 -4.33273814 -0.92844389 0 0 Z " fill="#212121" transform="translate(219,356)"/>
<path d="M0 0 C0.33 0.99 0.66 1.98 1 3 C1.99 3 2.98 3 4 3 C3.67 4.32 3.34 5.64 3 7 C2.01 7 1.02 7 0 7 C-0.66 5.68 -1.32 4.36 -2 3 C-1.34 2.01 -0.68 1.02 0 0 Z " fill="#2B2A2A" transform="translate(277,347)"/>
<path d="M0 0 C0.99 0 1.98 0 3 0 C2.67 1.98 2.34 3.96 2 6 C0.02 5.34 -1.96 4.68 -4 4 C-3.34 3.67 -2.68 3.34 -2 3 C-1.67 2.34 -1.34 1.68 -1 1 C-0.67 0.67 -0.34 0.34 0 0 Z " fill="#1F1D1E" transform="translate(427,347)"/>
<path d="M0 0 C0.33 0 0.66 0 1 0 C1 1.65 1 3.3 1 5 C1.99 5.33 2.98 5.66 4 6 C3.34 7.98 2.68 9.96 2 12 C1.34 12 0.68 12 0 12 C0 8.04 0 4.08 0 0 Z " fill="#545153" transform="translate(654,318)"/>
<path d="M0 0 C0 0.99 0 1.98 0 3 C-2.25 3.6875 -2.25 3.6875 -5 4 C-7.3125 2.5625 -7.3125 2.5625 -9 1 C-5.8035914 -0.06546953 -3.34252724 -0.07427838 0 0 Z " fill="#262626" transform="translate(690,318)"/>
<path d="M0 0 C3.44216672 2.6598561 3.99504674 5.90288286 5 10 C4.01 10.495 4.01 10.495 3 11 C1.4375 9.75 1.4375 9.75 0 8 C0.375 6.0625 0.375 6.0625 1 4 C0.62092718 1.81296615 0.62092718 1.81296615 0 0 Z " fill="#353334" transform="translate(171,323)"/>
<path d="M0 0 C3.16115776 1.36983503 3.9927092 1.9890638 6 5 C6.125 8.1875 6.125 8.1875 6 11 C0 3.28571429 0 3.28571429 0 0 Z " fill="#444041" transform="translate(577,319)"/>
<path d="M0 0 C0.66 0 1.32 0 2 0 C2 4.29 2 8.58 2 13 C1.67 13 1.34 13 1 13 C1 10.69 1 8.38 1 6 C0.34 6 -0.32 6 -1 6 C-0.67 4.02 -0.34 2.04 0 0 Z " fill="#383838" transform="translate(540,345)"/>
<path d="M0 0 C3.73639216 1.24546405 4.18756513 2.63404953 6 6 C5.34 6.66 4.68 7.32 4 8 C4 7.34 4 6.68 4 6 C3.34 6 2.68 6 2 6 C2 5.34 2 4.68 2 4 C1.34 4 0.68 4 0 4 C0 2.68 0 1.36 0 0 Z " fill="#2E2C2D" transform="translate(260,320)"/>
<path d="M0 0 C-0.66 1.65 -1.32 3.3 -2 5 C-3.65 3.35 -5.3 1.7 -7 0 C-3.86650268 -1.04449911 -3.01031744 -0.93423645 0 0 Z " fill="#2C292A" transform="translate(577,319)"/>
<path d="M0 0 C3.63 0 7.26 0 11 0 C11 0.33 11 0.66 11 1 C9.02 1 7.04 1 5 1 C4.67 1.99 4.34 2.98 4 4 C2.68 3.67 1.36 3.34 0 3 C0 2.01 0 1.02 0 0 Z " fill="#5A5A5A" transform="translate(381,317)"/>
<path d="M0 0 C0.99 0.99 1.98 1.98 3 3 C2.01 3 1.02 3 0 3 C-0.33 3.66 -0.66 4.32 -1 5 C-2.65 5 -4.3 5 -6 5 C-6 4.01 -6 3.02 -6 2 C-5.01 2.33 -4.02 2.66 -3 3 C-2.67 2.34 -2.34 1.68 -2 1 C-1.34 0.67 -0.68 0.34 0 0 Z " fill="#232122" transform="translate(270,332)"/>
<path d="M0 0 C1.65 1.65 3.3 3.3 5 5 C3.02 5.99 3.02 5.99 1 7 C0.34 6.34 -0.32 5.68 -1 5 C-0.625 2.375 -0.625 2.375 0 0 Z M-4 6 C-2.68 6.33 -1.36 6.66 0 7 C-0.99 7.495 -0.99 7.495 -2 8 C-2.66 7.34 -3.32 6.68 -4 6 Z " fill="#3D3D3D" transform="translate(367,350)"/>
<path d="M0 0 C2.1385485 2.1385485 2.42655063 3.13275314 3 6 C1.35 6.66 -0.3 7.32 -2 8 C-1.125 1.125 -1.125 1.125 0 0 Z " fill="#1F1D1E" transform="translate(276,342)"/>
<path d="M0 0 C1.74627478 2.61941217 2.38722388 4.03824877 3 7 C1.35 7.33 -0.3 7.66 -2 8 C-1.34 5.36 -0.68 2.72 0 0 Z " fill="#343333" transform="translate(237,344)"/>
<path d="M0 0 C1.875 0.3125 1.875 0.3125 4 1 C4.66 1.99 5.32 2.98 6 4 C4.35 4.33 2.7 4.66 1 5 C0.67 3.35 0.34 1.7 0 0 Z " fill="#343233" transform="translate(419,338)"/>
<path d="M0 0 C1.65 1.65 3.3 3.3 5 5 C4.67 5.66 4.34 6.32 4 7 C2.68 7 1.36 7 0 7 C0 4.69 0 2.38 0 0 Z " fill="#EBEAEB" transform="translate(403,329)"/>
<path d="M0 0 C0.33 1.32 0.66 2.64 1 4 C1.66 4 2.32 4 3 4 C3 4.66 3 5.32 3 6 C1.02 6 -0.96 6 -3 6 C-3 4.35 -3 2.7 -3 1 C-2.34 1.66 -1.68 2.32 -1 3 C-0.67 2.01 -0.34 1.02 0 0 Z " fill="#8A2025" transform="translate(385,144)"/>
<path d="M0 0 C1.98 0 3.96 0 6 0 C6.33 1.32 6.66 2.64 7 4 C4.69 3.67 2.38 3.34 0 3 C0 2.01 0 1.02 0 0 Z " fill="#414141" transform="translate(522,336)"/>
<path d="M0 0 C2.1519437 3.22791555 2.20086443 4.28400809 2 8 C1.01 8.33 0.02 8.66 -1 9 C-1.33 7.02 -1.66 5.04 -2 3 C-1.34 3 -0.68 3 0 3 C0 2.01 0 1.02 0 0 Z " fill="#1D1B1C" transform="translate(409,326)"/>
<path d="M0 0 C1.5625 1.8125 1.5625 1.8125 3 4 C2.67 4.99 2.34 5.98 2 7 C1.34 7 0.68 7 0 7 C-0.66 5.35 -1.32 3.7 -2 2 C-1.34 1.34 -0.68 0.68 0 0 Z " fill="#1F1D1E" transform="translate(170,323)"/>
<path d="M0 0 C1.98 0 3.96 0 6 0 C6.33 1.32 6.66 2.64 7 4 C6.01 4.495 6.01 4.495 5 5 C4.67 4.34 4.34 3.68 4 3 C1.97536745 2.34786708 1.97536745 2.34786708 0 2 C0 1.34 0 0.68 0 0 Z " fill="#3E3E3E" transform="translate(695,318)"/>
<path d="M0 0 C0.33 0 0.66 0 1 0 C1 2.31 1 4.62 1 7 C-0.65 6.67 -2.3 6.34 -4 6 C-3.34 5.34 -2.68 4.68 -2 4 C-1.30251417 2.68252676 -0.63040043 1.35085807 0 0 Z " fill="#2C2B2B" transform="translate(283,351)"/>
<path d="M0 0 C0.66 0 1.32 0 2 0 C2.33 0.99 2.66 1.98 3 3 C2.01 3.99 1.02 4.98 0 6 C-0.66 4.68 -1.32 3.36 -2 2 C-1.34 2 -0.68 2 0 2 C0 1.34 0 0.68 0 0 Z " fill="#2E2C2D" transform="translate(273,343)"/>
<path d="M0 0 C1.98 0 3.96 0 6 0 C6 0.66 6 1.32 6 2 C4.68 2 3.36 2 2 2 C1.67 2.99 1.34 3.98 1 5 C0.67 5 0.34 5 0 5 C0 3.35 0 1.7 0 0 Z " fill="#383838" transform="translate(386,318)"/>
</svg>
