<?xml version="1.0" encoding="UTF-8"?>
<svg version="1.1" xmlns="http://www.w3.org/2000/svg" width="1320" height="404">
<path d="M0 0 C435.6 0 871.2 0 1320 0 C1320 133.32 1320 266.64 1320 404 C884.4 404 448.8 404 0 404 C0 270.68 0 137.36 0 0 Z " fill="#002D72" transform="translate(0,0)"/>
<path d="M0 0 C1.87115982 -0.00101212 1.87115982 -0.00101212 3.78012085 -0.00204468 C72.98529004 0.05738274 72.98529004 0.05738274 94 11.25 C96.55058471 15.07587706 96.28806554 18.19137448 96.265625 22.625 C96.26753845 23.46353516 96.2694519 24.30207031 96.27142334 25.16601562 C96.27278624 26.95150043 96.26908249 28.7369951 96.26074219 30.52246094 C96.25025801 33.18448913 96.26051997 35.84580845 96.2734375 38.5078125 C96.28701819 53.74987909 95.43393389 69.05169233 91.9375 83.9375 C91.72907471 84.83484863 91.52064941 85.73219727 91.3059082 86.65673828 C87.12978264 103.63350108 80.36158927 119.92617835 72 135.25 C71.43796875 136.30058594 70.8759375 137.35117188 70.296875 138.43359375 C63.25336928 151.08886453 53.94442397 161.82084045 44 172.25 C43.26136719 173.04148437 42.52273437 173.83296875 41.76171875 174.6484375 C31.89402843 184.93103984 16.70447762 198.42442368 2.4375 201.8125 C-12.79994261 201.98402843 -30.76081679 181.98464375 -41 172.25 C-42.02480469 171.321875 -42.02480469 171.321875 -43.0703125 170.375 C-65.92942239 148.95056228 -79.02674409 118.9613172 -87 89.25 C-87.20109375 88.50476074 -87.4021875 87.75952148 -87.609375 86.99169922 C-91.96995946 70.5253368 -93.37376066 54.13990893 -93.37060547 37.15234375 C-93.37506572 34.46033265 -93.41180658 31.76985743 -93.44921875 29.078125 C-93.45507388 27.34896383 -93.45905198 25.61979505 -93.4609375 23.890625 C-93.47530853 23.09481018 -93.48967957 22.29899536 -93.50448608 21.47906494 C-93.47379266 17.75998598 -93.14752445 15.49151052 -91.19238281 12.29077148 C-88.24494631 9.54716105 -85.21070198 8.84625455 -81.375 8.0625 C-80.71371094 7.91103516 -80.05242187 7.75957031 -79.37109375 7.60351562 C-77.25222439 7.12565161 -75.12818105 6.68443247 -73 6.25 C-72.20972412 6.0842749 -71.41944824 5.9185498 -70.60522461 5.74780273 C-64.69873488 4.53085869 -58.78142276 3.54278916 -52.8125 2.6875 C-51.98169922 2.56181641 -51.15089844 2.43613281 -50.29492188 2.30664062 C-33.60892315 -0.09866183 -16.8208644 0.00817307 0 0 Z " fill="#F7F8FA" transform="translate(196,87.75)"/>
<path d="M0 0 C0.27942546 2.98181421 0.37164659 5.75296831 0.328125 8.734375 C0.32625183 9.60515686 0.32437866 10.47593872 0.32244873 11.37310791 C0.31571751 13.21915502 0.30178189 15.06518761 0.28125 16.91113281 C0.250278 19.72474563 0.24029664 22.53779659 0.234375 25.3515625 C0.22519701 27.1458401 0.21481872 28.94011204 0.203125 30.734375 C0.19887512 31.57208435 0.19462524 32.4097937 0.19024658 33.27288818 C0.1376402 37.62002806 -0.13838804 41.71956702 -1 46 C-2.81306131 45.88342415 -4.625439 45.75621041 -6.4375 45.625 C-7.44683594 45.55539063 -8.45617187 45.48578125 -9.49609375 45.4140625 C-13 45 -13 45 -16.875 44.09375 C-64.0787573 33.26688383 -118.12900596 36.15224033 -165.42210388 45.04438782 C-168.70534451 45.65198285 -171.64318208 46 -175 46 C-178.74946291 38.50107418 -177.21848587 27.57299308 -177.24023438 19.3112793 C-177.25008706 17.04245274 -177.28127262 14.77448009 -177.3125 12.50585938 C-177.31901853 11.05729697 -177.32427349 9.6087282 -177.328125 8.16015625 C-177.3374707 6.85699463 -177.34681641 5.55383301 -177.35644531 4.21118164 C-177 1 -177 1 -175.71020508 -0.88330078 C-172.62169978 -2.8999779 -169.01194816 -3.30575603 -165.4375 -3.9375 C-164.51098633 -4.1015332 -163.58447266 -4.26556641 -162.62988281 -4.43457031 C-159.42341286 -4.98019823 -156.21257655 -5.49162499 -153 -6 C-151.87803223 -6.18771973 -150.75606445 -6.37543945 -149.60009766 -6.56884766 C-112.01075161 -12.66567514 -33.68911816 -22.45941211 0 0 Z " fill="#053175" transform="translate(286,104)"/>
<path d="M0 0 C0 42.9 0 85.8 0 130 C-33.44029176 116.6238833 -57.20346148 80.7747477 -71.07470703 49.16308594 C-76.70642028 35.99765601 -80.40854716 22.22758843 -82 8 C-71.84753502 5.87230255 -61.69719953 3.8557939 -51.4375 2.3125 C-50.2633252 2.13400513 -50.2633252 2.13400513 -49.06542969 1.9519043 C-32.51117224 -0.46501729 -17.02654597 0 0 0 Z " fill="#022F73" transform="translate(194,151)"/>
<path d="M0 0 C5.92809728 1.34129282 10.42938825 2.09004478 16.33203125 0.37890625 C23.53999686 -1.67229673 30.37693832 -2.41110319 37.83203125 -2.37109375 C38.55261719 -2.37496094 39.27320313 -2.37882812 40.015625 -2.3828125 C48.17009991 -2.36806661 56.0730266 -1.99279553 62.33203125 3.75390625 C64.81681968 7.89865707 66.64840028 12.18895498 68.45849609 16.66064453 C69.93144042 20.19027692 71.61388286 23.61973141 73.26953125 27.06640625 C76.33203125 33.45023171 76.33203125 33.45023171 76.33203125 35.75390625 C69.84966093 35.41761155 63.41988922 34.93072298 56.98950195 34.04589844 C41.26121325 31.89458438 25.82047766 31.23891444 9.95703125 31.31640625 C8.74865601 31.31745361 7.54028076 31.31850098 6.29528809 31.31958008 C-12.98042475 31.35389772 -31.83721994 32.45470845 -50.88964844 35.38671875 C-53.66796875 35.75390625 -53.66796875 35.75390625 -57.66796875 35.75390625 C-56.68550831 29.85778004 -54.35152303 24.5883762 -52.01489258 19.11572266 C-51.23749424 17.27058113 -50.50033946 15.40865273 -49.76367188 13.546875 C-46.74196837 6.48465608 -44.35994797 2.42562833 -37.11303711 -0.52929688 C-25.09361314 -4.05291433 -12.03153591 -2.79520531 0 0 Z " fill="#F8F9FB" transform="translate(188.66796875,104.24609375)"/>
<path d="M0 0 C7.56029913 3.94565524 13.14517333 10.25637256 16.23046875 18.1640625 C19.91426095 29.99097431 20.34957462 45.45044826 14.84765625 56.671875 C10.85368866 62.82682988 5.31382203 67.1571124 -1.76953125 69.1640625 C-10.26993074 70.00934032 -18.15896733 69.6163074 -25.1484375 64.3828125 C-31.83032079 58.30637168 -37.23154323 49.26061362 -37.93066406 40.03857422 C-37.97646608 37.37193799 -38.00483705 34.70605977 -38.01953125 32.0390625 C-38.04015625 31.12640625 -38.06078125 30.21375 -38.08203125 29.2734375 C-38.13161354 20.57174646 -36.30299856 12.89346743 -30.7578125 6.02734375 C-22.01096229 -2.16960625 -11.06031469 -4.18921654 0 0 Z " fill="#012E73" transform="translate(844.76953125,125.8359375)"/>
<path d="M0 0 C7.52253453 6.32270375 11.8802297 15.32680358 13 25 C13.87811468 36.67307119 13.49127316 47.27406481 6.42578125 57.21484375 C1.70261175 62.42244089 -3.94507859 65.41915991 -10.890625 66.4140625 C-19.72278551 66.84434724 -26.04327274 64.25330908 -32.8125 58.6875 C-42.10353351 47.27280169 -44.93237158 35.64168709 -44 21 C-42.56368841 12.430819 -38.53851598 4.42384262 -31.5625 -0.9375 C-21.13517305 -7.55440332 -10.28812336 -5.91782026 0 0 Z " fill="#022F73" transform="translate(423,129)"/>
<path d="M0 0 C6.24024258 5.17807363 11.31288472 12.01681155 12.25390625 20.2109375 C12.67718918 28.86775618 10.27340307 36.65085713 4.75 43.375 C-0.42491508 48.79422438 -7.1910997 53.41504183 -14.76171875 54.3359375 C-24.42627771 54.46497033 -32.27826937 52.40571014 -39.46875 45.70703125 C-46.30017191 38.09138999 -48.48164119 30.62847624 -48.3125 20.51171875 C-47.6094608 12.61131573 -43.79055161 6.32571375 -38 1 C-25.59377504 -8.35429362 -13.01858119 -8.33506723 0 0 Z " fill="#EDF0F5" transform="translate(177,170)"/>
<path d="M0 0 C11.22 0 22.44 0 34 0 C34 0.99 34 1.98 34 3 C33.04287109 3.29003906 33.04287109 3.29003906 32.06640625 3.5859375 C31.24011719 3.84632812 30.41382813 4.10671875 29.5625 4.375 C28.32693359 4.75785156 28.32693359 4.75785156 27.06640625 5.1484375 C24.82201984 5.80882227 24.82201984 5.80882227 24 8 C23.84479443 10.32273159 23.74980833 12.64959313 23.68359375 14.9765625 C23.64548584 16.23033691 23.60737793 17.48411133 23.56811523 18.77587891 C23.50346069 21.17619385 23.50346069 21.17619385 23.4375 23.625 C23.293125 28.69875 23.14875 33.7725 23 39 C48.245 38.505 48.245 38.505 74 38 C74.04125 33.2975 74.0825 28.595 74.125 23.75 C74.14320801 22.27241211 74.16141602 20.79482422 74.18017578 19.27246094 C74.1851709 18.10489258 74.19016602 16.93732422 74.1953125 15.734375 C74.20578613 14.54038086 74.21625977 13.34638672 74.22705078 12.11621094 C74.00899331 9.12343081 73.67289822 7.4592782 72 5 C70.06018382 4.09390008 70.06018382 4.09390008 67.875 3.75 C66.59625 3.5025 65.3175 3.255 64 3 C64 2.01 64 1.02 64 0 C74.89 0 85.78 0 97 0 C97 0.99 97 1.98 97 3 C94.98177083 3.45572917 92.96354167 3.91145833 90.9453125 4.3671875 C88.79280036 4.90474428 88.79280036 4.90474428 87 7 C86.69182771 10.13710974 86.69182771 10.13710974 86.74121094 13.88061523 C86.7377063 14.58809906 86.73420166 15.29558289 86.73059082 16.02450562 C86.72176966 18.36930072 86.7276245 20.71379543 86.734375 23.05859375 C86.73302831 24.68522703 86.73108774 26.31185992 86.72857666 27.93849182 C86.72562476 31.3507164 86.72992457 34.76283639 86.73925781 38.17504883 C86.75064339 42.55117606 86.74409905 46.92705774 86.73211288 51.30317593 C86.72488833 54.66345573 86.72718511 58.02367726 86.73236847 61.38395882 C86.73370379 62.99751883 86.73206136 64.61108412 86.72740936 66.22463799 C86.72233531 68.47989804 86.73006688 70.73475986 86.74121094 72.98999023 C86.74280212 74.27413315 86.74439331 75.55827606 86.74603271 76.8813324 C86.75949926 80.16502949 86.75949926 80.16502949 89 83 C90.96361864 83.57748803 90.96361864 83.57748803 93.125 83.6875 C94.40375 83.790625 95.6825 83.89375 97 84 C97 85.32 97 86.64 97 88 C86.11 88 75.22 88 64 88 C64 86.68 64 85.36 64 84 C65.093125 83.9175 66.18625 83.835 67.3125 83.75 C70.91746832 83.34686203 70.91746832 83.34686203 72.7121582 81.42871094 C74.47677964 78.10085234 74.37438023 75.06162054 74.29296875 71.390625 C74.28994751 70.74593262 74.28692627 70.10124023 74.28381348 69.43701172 C74.26818112 67.04117704 74.226297 64.64557154 74.1875 62.25 C74.125625 56.8875 74.06375 51.525 74 46 C57.5 46 41 46 24 46 C23.95875 51.548125 23.9175 57.09625 23.875 62.8125 C23.85679199 64.56022705 23.83858398 66.3079541 23.81982422 68.10864258 C23.81398239 69.49560234 23.8088861 70.88256554 23.8046875 72.26953125 C23.7893396 73.34769104 23.7893396 73.34769104 23.77368164 74.44763184 C23.77236943 78.19333046 23.86584213 79.79876319 26 83 C28.18505129 83.79437923 28.18505129 83.79437923 30.625 84.1875 C31.85089844 84.42533203 31.85089844 84.42533203 33.1015625 84.66796875 C34.04128906 84.83232422 34.04128906 84.83232422 35 85 C35 85.99 35 86.98 35 88 C24.11 88 13.22 88 2 88 C2 86.68 2 85.36 2 84 C3.11375 83.7525 4.2275 83.505 5.375 83.25 C8.94658201 82.40462451 8.94658201 82.40462451 10.21038818 80.34216309 C11.2564097 77.23943219 11.25446276 74.55122521 11.25878906 71.27539062 C11.2622937 70.60823532 11.26579834 69.94108002 11.26940918 69.25370789 C11.27819187 67.05444855 11.27238975 64.85551245 11.265625 62.65625 C11.26697265 61.12455178 11.26891402 59.59285398 11.27142334 58.06115723 C11.2743699 54.85339275 11.27009204 51.64573978 11.26074219 48.43798828 C11.24934787 44.32881037 11.25590985 40.21989373 11.26788712 36.1107254 C11.27511836 32.94856807 11.27281198 29.78647256 11.26763153 26.62431335 C11.26629853 25.10926787 11.2679305 23.59421676 11.27259064 22.07917786 C11.27767672 19.96083739 11.26991677 17.8429185 11.25878906 15.72460938 C11.25719788 14.51977905 11.25560669 13.31494873 11.25396729 12.0736084 C11.00972321 9.11767392 10.66554761 7.42814767 9 5 C6.82791412 4.08839907 6.82791412 4.08839907 4.375 3.75 C3.55773437 3.60046875 2.74046875 3.4509375 1.8984375 3.296875 C0.95871094 3.14992188 0.95871094 3.14992188 0 3 C0 2.01 0 1.02 0 0 Z " fill="#F7F8FA" transform="translate(699,109)"/>
<path d="M0 0 C9.24 0 18.48 0 28 0 C28 0.99 28 1.98 28 3 C26.865625 3.309375 25.73125 3.61875 24.5625 3.9375 C21.21224901 4.62924531 21.21224901 4.62924531 20 6 C19.91251793 7.92667507 19.89302666 9.85651861 19.90234375 11.78515625 C19.90484131 12.83840088 19.90733887 13.89164551 19.90991211 14.97680664 C19.91901611 16.32508545 19.92812012 17.67336426 19.9375 19.0625 C19.958125 23.331875 19.97875 27.60125 20 32 C33.86 32 47.72 32 62 32 C62.04125 27.75125 62.0825 23.5025 62.125 19.125 C62.14320801 17.7858252 62.16141602 16.44665039 62.18017578 15.06689453 C62.1851709 14.01614746 62.19016602 12.96540039 62.1953125 11.8828125 C62.20578613 10.80402832 62.21625977 9.72524414 62.22705078 8.61376953 C62.26839977 5.83955978 62.26839977 5.83955978 60 4 C57.68234271 3.28072705 55.34904126 2.6090107 53 2 C53 1.34 53 0.68 53 0 C62.24 0 71.48 0 81 0 C81 0.66 81 1.32 81 2 C80.030625 2.309375 79.06125 2.61875 78.0625 2.9375 C75.15934208 3.69523342 75.15934208 3.69523342 74 5 C73.9059933 6.96369153 73.88256619 8.93079199 73.88647461 10.89672852 C73.88655014 12.15796036 73.88662567 13.4191922 73.88670349 14.71864319 C73.8918109 16.10539794 73.89702691 17.49215229 73.90234375 18.87890625 C73.90420799 20.28995209 73.90563186 21.70099857 73.90663147 23.11204529 C73.91045621 26.83240535 73.9202861 30.5527266 73.93133545 34.27307129 C73.94155052 38.06680781 73.94612929 41.86055058 73.95117188 45.65429688 C73.96190842 53.10288231 73.9789843 60.55143572 74 68 C76.97 68.99 79.94 69.98 83 71 C83 71.99 83 72.98 83 74 C73.43 74 63.86 74 54 74 C54 73.01 54 72.02 54 71 C54.56589844 70.79503906 55.13179688 70.59007812 55.71484375 70.37890625 C56.44832031 70.10949219 57.18179688 69.84007812 57.9375 69.5625 C58.66839844 69.29566406 59.39929688 69.02882813 60.15234375 68.75390625 C61.98305678 68.14613052 61.98305678 68.14613052 63 67 C63.15858842 64.85613343 63.25129298 62.70733162 63.31640625 60.55859375 C63.35451416 59.38353271 63.39262207 58.20847168 63.43188477 56.99780273 C63.47498779 55.49290283 63.51809082 53.98800293 63.5625 52.4375 C63.706875 47.673125 63.85125 42.90875 64 38 C49.48 38 34.96 38 20 38 C20.103125 42.723125 20.20625 47.44625 20.3125 52.3125 C20.33739502 53.79919189 20.36229004 55.28588379 20.38793945 56.81762695 C20.42105225 57.98769287 20.45416504 59.15775879 20.48828125 60.36328125 C20.51446533 61.56251221 20.54064941 62.76174316 20.56762695 63.99731445 C20.76132391 66.96718731 20.76132391 66.96718731 22.33276367 68.87182617 C24.75245215 70.50916406 27.13686708 70.68187412 30 71 C30 71.99 30 72.98 30 74 C20.76 74 11.52 74 2 74 C2 73.01 2 72.02 2 71 C4.31 70.01 6.62 69.02 9 68 C9.0231271 59.80309439 9.04091696 51.60620232 9.05181217 43.40927219 C9.0570402 39.60348423 9.06413638 35.79771852 9.07543945 31.99194336 C9.0862712 28.32207456 9.09227744 24.65222722 9.09487724 20.98234367 C9.09673097 19.57925008 9.1003506 18.17615771 9.10573006 16.7730732 C9.11294419 14.8143032 9.11340809 12.8555118 9.11352539 10.89672852 C9.115746 9.77976089 9.11796661 8.66279327 9.12025452 7.51197815 C9.28510776 5.06094586 9.28510776 5.06094586 8 4 C5.67182036 3.63239269 3.3381615 3.29758419 1 3 C0.67 2.01 0.34 1.02 0 0 Z " fill="#EFF2F6" transform="translate(448,123)"/>
<path d="M0 0 C8.14007253 5.46744084 13.48802877 14.55342508 15.39453125 24.0859375 C16.58017466 37.60227237 13.79132527 48.68432266 5.14453125 59.3984375 C-0.5337066 65.4984873 -8.90645729 70.08983926 -17.31665039 70.82543945 C-30.83649735 71.2132216 -41.51601231 70.65346053 -52.29296875 61.55078125 C-59.46490708 54.72903522 -63.52123315 46.71946496 -64.60546875 36.78515625 C-64.87411504 24.91434824 -61.83321114 16.08044755 -55.04296875 6.4609375 C-51.46690017 2.80359464 -47.71598345 0.19220686 -43.29296875 -2.3515625 C-42.58785156 -2.76921875 -41.88273438 -3.186875 -41.15625 -3.6171875 C-27.94938515 -10.16299835 -12.11852904 -7.14311933 0 0 Z M-48.109375 8.23046875 C-51.6051486 15.37199963 -52.85061597 21.97449888 -52.79296875 29.8984375 C-52.78724854 30.8164917 -52.78152832 31.7345459 -52.77563477 32.68041992 C-52.49521485 43.41851992 -49.64314477 52.22207196 -41.98046875 60.06640625 C-41.42359375 60.58847656 -40.86671875 61.11054688 -40.29296875 61.6484375 C-39.05546875 62.8240625 -39.05546875 62.8240625 -37.79296875 64.0234375 C-31.3040182 68.24125536 -23.83413707 68.57066955 -16.29296875 67.6484375 C-8.26570437 65.12654799 -3.35466036 60.64282194 0.95703125 53.609375 C6.20844225 42.9971486 4.73515928 28.57464616 1.74609375 17.484375 C-1.19090696 9.4683505 -6.63960832 2.43292846 -14.38671875 -1.3828125 C-26.96735641 -6.16699865 -40.1184179 -3.04648941 -48.109375 8.23046875 Z " fill="#F5F6F9" transform="translate(859.29296875,127.3515625)"/>
<path d="M0 0 C0.83942139 0.00161133 1.67884277 0.00322266 2.54370117 0.00488281 C8.93826768 0.13132379 14.1024342 1.10762345 19.6875 4.375 C20.739375 4.973125 21.79125 5.57125 22.875 6.1875 C30.67982302 12.2579179 36.05177439 18.66561762 38.6875 28.375 C38.99103203 31.48378439 39.01233896 34.56574359 39 37.6875 C39.01611328 38.49123047 39.03222656 39.29496094 39.04882812 40.12304688 C39.05765421 51.09387473 34.93870356 59.2389038 27.6875 67.375 C19.07918687 74.98685245 10.12162054 77.95119162 -1.25 77.8125 C-2.56931519 77.80005249 -2.56931519 77.80005249 -3.9152832 77.78735352 C-14.80879201 77.50336836 -22.36984777 73.82981179 -30.3125 66.375 C-38.2672335 57.85333672 -40.89275618 48.92605028 -40.71484375 37.49023438 C-40.50627695 32.17652116 -39.93498548 27.98661597 -37.3125 23.375 C-36.69181641 22.16457031 -36.69181641 22.16457031 -36.05859375 20.9296875 C-30.90558577 11.52228874 -23.37971503 4.8159209 -13.1796875 1.29296875 C-8.69772854 0.2290694 -4.58876996 -0.00915283 0 0 Z M-22.3125 12.375 C-29.39352894 22.51758787 -30.7070387 33.4848158 -28.8125 45.5625 C-26.34295086 56.5632189 -21.80972538 64.93300122 -12.1875 71.125 C-6.08780417 74.87500755 -0.35049816 75.11313151 6.6875 74.375 C15.09208712 71.83463045 20.78352779 66.58836257 25.00390625 59.01171875 C29.93378701 47.69188803 29.15282834 32.73064771 24.6875 21.375 C20.26117741 12.82266579 14.32096801 7.43631457 5.265625 4.1015625 C-4.91673857 1.23198731 -15.37969195 4.42215286 -22.3125 12.375 Z " fill="#F7F8FA" transform="translate(408.3125,120.625)"/>
<path d="M0 0 C8.58 0 17.16 0 26 0 C26 0.99 26 1.98 26 3 C25.43410156 3.19335938 24.86820313 3.38671875 24.28515625 3.5859375 C23.18494141 3.97652344 23.18494141 3.97652344 22.0625 4.375 C21.33160156 4.63023438 20.60070313 4.88546875 19.84765625 5.1484375 C17.81317884 5.85271413 17.81317884 5.85271413 17 8 C16.87922947 10.15411574 16.82253978 12.31191961 16.79467773 14.46923828 C16.78477814 15.13277313 16.77487854 15.79630798 16.76467896 16.47994995 C16.73305084 18.67670097 16.70830146 20.87347363 16.68359375 23.0703125 C16.66302534 24.59203661 16.6420289 26.113755 16.62062073 27.63546753 C16.56538829 31.6434465 16.51598422 35.65147713 16.46777344 39.6595459 C16.41756695 43.74833787 16.36187644 47.83705468 16.30664062 51.92578125 C16.19904472 59.95045732 16.09760296 67.9751962 16 76 C15.01 76 14.02 76 13 76 C11.125 74.015625 11.125 74.015625 9 71.25 C5.60016639 66.9476047 2.10694204 62.82944071 -1.625 58.8125 C-5.23039976 54.92262616 -8.78284642 50.9992058 -12.2578125 46.9921875 C-14.31500399 44.63979365 -16.40596915 42.31965034 -18.5 40 C-24.04128436 33.8502976 -29.48401133 27.66055911 -34.71875 21.24609375 C-35.52248047 20.26181396 -36.32621094 19.27753418 -37.15429688 18.26342773 C-37.76337891 17.51649658 -38.37246094 16.76956543 -39 16 C-39.05080039 22.72604133 -39.08577579 29.45203298 -39.10986328 36.17822266 C-39.11990733 38.46535084 -39.13354508 40.75246623 -39.15087891 43.03955078 C-39.17519708 46.33108686 -39.18649924 49.62245282 -39.1953125 52.9140625 C-39.20563507 53.93303619 -39.21595764 54.95200989 -39.22659302 56.00186157 C-39.22738776 61.05531632 -39.08672618 65.29201203 -37 70 C-35.03177114 71.96822886 -31.65191291 71.66248381 -29 72 C-29 72.99 -29 73.98 -29 75 C-37.58 75 -46.16 75 -55 75 C-54.67 74.01 -54.34 73.02 -54 72 C-51.66666667 71.33333333 -49.33333333 70.66666667 -47 70 C-45.95151082 66.85453246 -45.85449466 64.59424537 -45.82299805 61.29101562 C-45.81016281 60.11970093 -45.79732758 58.94838623 -45.78410339 57.74157715 C-45.77671646 56.47591919 -45.76932953 55.21026123 -45.76171875 53.90625 C-45.753647 52.60804321 -45.74557526 51.30983643 -45.73725891 49.97229004 C-45.72225132 47.22518037 -45.71240239 44.47809641 -45.70483398 41.73095703 C-45.69374415 38.20998529 -45.65930686 34.68964114 -45.61966228 31.16889191 C-45.58727015 27.81053569 -45.58272521 24.45225043 -45.57421875 21.09375 C-45.55671066 19.82809204 -45.53920258 18.56243408 -45.52116394 17.25842285 C-45.52408951 16.08710815 -45.52701508 14.91579346 -45.5300293 13.70898438 C-45.52416306 12.67656616 -45.51829681 11.64414795 -45.51225281 10.58044434 C-45.76774332 7.89412818 -45.76774332 7.89412818 -47.79499817 6.21740723 C-50.74086455 4.59096004 -53.74710118 3.81322471 -57 3 C-57 2.34 -57 1.68 -57 1 C-39.22560408 -0.79882422 -39.22560408 -0.79882422 -34.53515625 2.9921875 C-33 5.6875 -33 5.6875 -31.625 8.71875 C-29.63984348 12.72723912 -27.08584672 15.49580752 -24 18.6875 C-22.94516999 19.79804174 -21.89047849 20.90871506 -20.8359375 22.01953125 C-20.0929541 22.79611084 -20.0929541 22.79611084 -19.33496094 23.58837891 C-17.71068626 25.30592759 -16.16074536 27.07809997 -14.625 28.875 C-10.59942389 33.53514969 -6.35496383 37.99232521 -2.14013672 42.48046875 C1.59472647 46.4659331 5.25204004 50.49598582 8.765625 54.6796875 C9.98507446 56.13751383 9.98507446 56.13751383 12 57 C11.90590109 51.18308105 11.79968611 45.36655092 11.68261719 39.55004883 C11.64451765 37.57452323 11.60963287 35.59893274 11.578125 33.62329102 C11.53205841 30.77076142 11.47413583 27.91867125 11.4140625 25.06640625 C11.40251129 24.19415909 11.39096008 23.32191193 11.37905884 22.42323303 C11.24911018 16.92834122 11.043031 11.16575323 9 6 C5.81237635 3.87491756 3.73487777 3.4979837 0 3 C0 2.01 0 1.02 0 0 Z " fill="#F1F4F7" transform="translate(1102,122)"/>
<path d="M0 0 C16.00533926 -1.92261262 16.00533926 -1.92261262 20.73632812 1.11474609 C23.72844058 4.09159267 25.81276788 7.65929033 27.92919922 11.28564453 C29.5611376 13.89838309 31.58922844 16.06710422 33.6875 18.3125 C34.42613281 19.11558594 35.16476562 19.91867188 35.92578125 20.74609375 C36.95251953 21.86177734 36.95251953 21.86177734 38 23 C39.12957658 24.28766631 40.25479091 25.57917618 41.375 26.875 C44.8233949 30.83664437 48.37885542 34.69761952 51.93725586 38.56005859 C55.17582223 42.08172623 58.35066246 45.64936593 61.46484375 49.28125 C63.23694454 51.26528141 65.11358919 53.12495748 67 55 C67.10138675 48.23743488 67.17145971 41.47506561 67.21972656 34.71191406 C67.23984688 32.41105831 67.26714634 30.11025371 67.30175781 27.80957031 C67.35025612 24.50312683 67.37296478 21.19735915 67.390625 17.890625 C67.42159271 16.3466806 67.42159271 16.3466806 67.45318604 14.77154541 C67.53994699 9.22295637 67.53994699 9.22295637 65.17871094 4.36621094 C62.47143225 2.6685494 60.15948006 2.28722546 57 2 C57 1.34 57 0.68 57 0 C65.58 0 74.16 0 83 0 C83 0.66 83 1.32 83 2 C81.88625 2.226875 80.7725 2.45375 79.625 2.6875 C75.92437744 3.58012584 75.92437744 3.58012584 74.78762817 6.16789246 C73.87737662 9.44092201 73.75995305 12.22772348 73.77294922 15.6262207 C73.77265717 16.27068649 73.77236511 16.91515228 73.77206421 17.57914734 C73.77344995 19.69483221 73.78897493 21.81015842 73.8046875 23.92578125 C73.80842033 25.39836942 73.81126603 26.87096009 73.81326294 28.34355164 C73.82087817 32.20857672 73.84050837 36.07345013 73.8626709 39.93841553 C73.88317492 43.88665719 73.89227438 47.8349235 73.90234375 51.78320312 C73.9237564 59.52220437 73.95786667 67.26108088 74 75 C69.29611904 74.15731777 67.32286612 71.25119671 64.4375 67.6875 C63.37159673 66.40604849 62.30385036 65.12612808 61.234375 63.84765625 C60.42709961 62.87916748 60.42709961 62.87916748 59.60351562 61.89111328 C57.2071419 59.06493927 54.70770737 56.34059275 52.1875 53.625 C48.63898692 49.78946106 45.14523299 45.9172546 41.72265625 41.96875 C39.77840864 39.74675273 37.79663036 37.56144777 35.8125 35.375 C31.39970834 30.49730283 27.13151619 25.50330859 22.89770508 20.47021484 C21.61929463 18.96223879 20.31235483 17.47852963 19 16 C18.67 16 18.34 16 18 16 C17.92379987 22.72600022 17.87133708 29.45188868 17.83520508 36.17822266 C17.82013884 38.46537435 17.79968203 40.75249725 17.77368164 43.03955078 C17.73720394 46.33112707 17.72025166 49.62232062 17.70703125 52.9140625 C17.69154739 53.93303619 17.67606354 54.95200989 17.66011047 56.00186157 C17.65885004 61.34492937 17.74116028 65.50463204 21 70 C24.59385054 70.97873538 24.59385054 70.97873538 28 71 C28.33 71.99 28.66 72.98 29 74 C20.42 74 11.84 74 3 74 C3 73.01 3 72.02 3 71 C4.7015625 70.5978125 4.7015625 70.5978125 6.4375 70.1875 C8.2009375 69.5996875 8.2009375 69.5996875 10 69 C11.03850206 65.88449382 11.14518853 63.66797863 11.17700195 60.39868164 C11.19625481 58.67658226 11.19625481 58.67658226 11.21589661 56.91969299 C11.22328354 55.67904587 11.23067047 54.43839874 11.23828125 53.16015625 C11.246353 51.88651718 11.25442474 50.61287811 11.26274109 49.30064392 C11.27657963 46.60477053 11.2875975 43.90901934 11.29516602 41.21313477 C11.30624474 37.76175727 11.34066866 34.31102199 11.38033772 30.85987186 C11.41277179 27.56419699 11.41727894 24.26846641 11.42578125 20.97265625 C11.44328934 19.73403336 11.46079742 18.49541046 11.47883606 17.21925354 C11.47591049 16.06803513 11.47298492 14.91681671 11.4699707 13.73071289 C11.47583694 12.71828018 11.48170319 11.70584747 11.48774719 10.66273499 C10.86241512 7.24888941 9.70748704 6.11190622 7 4 C3.36456099 2.72234735 3.36456099 2.72234735 0 2 C0 1.34 0 0.68 0 0 Z " fill="#F2F4F8" transform="translate(534,123)"/>
<path d="M0 0 C7.92 0 15.84 0 24 0 C24.495 1.485 24.495 1.485 25 3 C24.41734375 3.11214844 23.8346875 3.22429687 23.234375 3.33984375 C11.38226009 6.19106007 3.00941187 14.81936188 -5.6875 22.875 C-6.74928467 23.85678223 -6.74928467 23.85678223 -7.83251953 24.85839844 C-8.48978027 25.48004883 -9.14704102 26.10169922 -9.82421875 26.7421875 C-10.41291748 27.2976123 -11.00161621 27.85303711 -11.6081543 28.42529297 C-13.23827653 30.06260053 -13.23827653 30.06260053 -14 33 C-12.52635095 35.38688271 -12.52635095 35.38688271 -10.3125 37.875 C-9.48621094 38.84824219 -8.65992188 39.82148438 -7.80859375 40.82421875 C-3.89215282 45.28999315 0.14610866 49.6426472 4.203125 53.98046875 C6.49221356 56.4342675 8.69956009 58.94433939 10.875 61.5 C15.67050254 66.9905029 19.76251599 70.40775352 27 72 C27 72.99 27 73.98 27 75 C18.42 75 9.84 75 1 75 C0.67 74.01 0.34 73.02 0 72 C2.97 71.505 2.97 71.505 6 71 C0.54909309 63.75534417 -5.46776873 57.17733851 -11.71899414 50.62304688 C-12.65473267 49.63981445 -12.65473267 49.63981445 -13.609375 48.63671875 C-14.50366211 47.69965088 -14.50366211 47.69965088 -15.41601562 46.74365234 C-17 45 -17 45 -19.078125 42.14453125 C-21.4746416 39.47036944 -23.61127074 39.01897446 -27 38 C-26.8816491 42.07530467 -26.75739376 46.15038235 -26.62768555 50.2253418 C-26.58439782 51.61135983 -26.54271836 52.99742906 -26.50268555 54.38354492 C-26.44483416 56.37691798 -26.38070224 58.37010565 -26.31640625 60.36328125 C-26.27974854 61.56251221 -26.24309082 62.76174316 -26.20532227 63.99731445 C-26.12266975 67.04994349 -26.12266975 67.04994349 -25 70 C-22.90280128 71.02281518 -22.90280128 71.02281518 -20.4375 71.6875 C-19.61121094 71.93886719 -18.78492188 72.19023437 -17.93359375 72.44921875 C-17.29550781 72.63097656 -16.65742187 72.81273437 -16 73 C-16 73.66 -16 74.32 -16 75 C-25.24 75 -34.48 75 -44 75 C-44 74.01 -44 73.02 -44 72 C-42.865625 71.71125 -41.73125 71.4225 -40.5625 71.125 C-39.386875 70.75375 -38.21125 70.3825 -37 70 C-35.78064241 67.56128482 -35.87310248 65.99135193 -35.87060547 63.26586914 C-35.86745331 62.28046646 -35.86430115 61.29506378 -35.86105347 60.27980042 C-35.8630777 59.20906784 -35.86510193 58.13833527 -35.8671875 57.03515625 C-35.86623077 55.93207626 -35.86527405 54.82899628 -35.86428833 53.69248962 C-35.86360641 51.34959863 -35.86546149 49.00670575 -35.86962891 46.66381836 C-35.87493137 43.1085168 -35.86970812 39.55334424 -35.86328125 35.99804688 C-35.86394292 33.71874972 -35.86522593 31.43945265 -35.8671875 29.16015625 C-35.86415115 27.58138451 -35.86415115 27.58138451 -35.86105347 25.97071838 C-35.05545547 14.81643856 -35.05545547 14.81643856 -38 5 C-40.32817964 4.63239269 -42.6618385 4.29758419 -45 4 C-45 3.01 -45 2.02 -45 1 C-35.76 1 -26.52 1 -17 1 C-17.33 1.99 -17.66 2.98 -18 4 C-20.32206525 4.70491267 -22.65593068 5.37212429 -25 6 C-26.34106405 8.6821281 -26.21450419 10.88398032 -26.31640625 13.8828125 C-26.35830078 15.04941406 -26.40019531 16.21601563 -26.44335938 17.41796875 C-26.48267578 18.64128906 -26.52199219 19.86460937 -26.5625 21.125 C-26.60568359 22.35605469 -26.64886719 23.58710938 -26.69335938 24.85546875 C-26.79968704 27.90352853 -26.90171781 30.9516719 -27 34 C-21.75008598 32.69423838 -18.66815294 30.23244859 -14.98046875 26.44140625 C-14.43642899 25.89645004 -13.89238922 25.35149384 -13.3318634 24.7900238 C-12.19018521 23.64233035 -11.05334446 22.48980657 -9.92114258 21.33276367 C-8.18606609 19.5610358 -6.43537418 17.80597731 -4.68164062 16.05273438 C-3.57196611 14.93323308 -2.46320931 13.81282122 -1.35546875 12.69140625 C-0.83260788 12.16631973 -0.30974701 11.64123322 0.22895813 11.10023499 C2.52938105 8.73879748 3.9425674 7.17229781 5 4 C2.525 3.505 2.525 3.505 0 3 C0 2.01 0 1.02 0 0 Z " fill="#F4F6F9" transform="translate(978,122)"/>
<path d="M0 0 C11.55 0 23.1 0 35 0 C35 0.99 35 1.98 35 3 C32.98177083 3.42317708 30.96354167 3.84635417 28.9453125 4.26953125 C26.62953451 4.92308838 26.62953451 4.92308838 25 8 C24.80296713 10.44871575 24.71972409 12.78538606 24.72875977 15.234375 C24.72091965 16.33506569 24.72091965 16.33506569 24.71292114 17.45799255 C24.70267899 19.05232606 24.69690036 20.64669303 24.69503975 22.24105835 C24.69137258 24.77324929 24.67463212 27.30504975 24.65428162 29.8371582 C24.59893353 37.03703501 24.56833387 44.23697143 24.54370117 51.43701172 C24.52771932 55.84319619 24.4973799 60.24910876 24.45893669 64.65515137 C24.44736824 66.3262643 24.44135706 67.99742613 24.44125557 69.6685791 C24.44016503 82.85836231 23.63863022 95.3232514 15 106 C7.96734361 112.08740687 1.26248199 114.23664037 -7.92578125 114.16796875 C-10 114 -10 114 -11 113 C-11.1875 110.5625 -11.1875 110.5625 -11 108 C-9 106 -9 106 -5.41015625 105.98046875 C-3.2213648 106.07091468 -1.03887667 106.18915008 1.14648438 106.34179688 C3.54813527 106.47992359 3.54813527 106.47992359 7 106 C14.3907919 96.60728468 12.28433352 79.22427443 12.23046875 67.83203125 C12.2292729 66.13669368 12.22882464 64.44135543 12.2290802 62.74601746 C12.22753098 59.22736344 12.21935546 55.70881344 12.20581055 52.19018555 C12.18867811 47.68343025 12.1850012 43.17678701 12.18575573 38.67000294 C12.18548408 35.184473 12.18000594 31.69896748 12.17275429 28.21344566 C12.16957915 26.55047477 12.16760292 24.88750112 12.16686058 23.22452736 C12.16469289 20.91111121 12.15594357 18.59781432 12.14526367 16.28442383 C12.14145187 14.97065262 12.13764008 13.65688141 12.13371277 12.30329895 C12.10584383 8.8479272 12.10584383 8.8479272 11 5 C7.37 4.34 3.74 3.68 0 3 C0 2.01 0 1.02 0 0 Z " fill="#FCFCFD" transform="translate(334,109)"/>
<path d="M0 0 C4.09058595 3.0473097 6.35924874 5.07774623 8 10 C8.61987875 16.66581941 9.20484605 23.438752 5 29 C-0.18111888 34.81436675 -6.44055389 37.55484862 -14.1953125 38.17578125 C-15.79791693 38.18551367 -17.40076344 38.10429804 -19 38 C-18.67 37.01 -18.34 36.02 -18 35 C-16.109375 34.26171875 -16.109375 34.26171875 -13.75 33.6875 C-8.76513495 32.19521556 -6.90150588 30.26158677 -4 26 C-1.67579178 21.35158356 -2.58561305 15.05897407 -3 10 C-4.2408143 6.28430067 -6.36936112 4.44606165 -9.5625 2.1875 C-13.30078606 0.36628372 -16.07605813 -0.11589535 -20.1875 -0.0625 C-21.08855469 -0.05347656 -21.98960937 -0.04445313 -22.91796875 -0.03515625 C-23.94857422 -0.01775391 -23.94857422 -0.01775391 -25 0 C-25.04632222 8.03196908 -25.08186855 16.06388243 -25.10362434 24.09595203 C-25.11406556 27.8254906 -25.12823083 31.55493783 -25.15087891 35.28442383 C-25.17259539 38.88298631 -25.18456608 42.4814609 -25.18975449 46.08008385 C-25.1934524 47.45362418 -25.20067345 48.82715966 -25.21146011 50.20066261 C-25.22595829 52.12306662 -25.22681678 54.04555891 -25.22705078 55.96801758 C-25.23371262 57.61015984 -25.23371262 57.61015984 -25.24050903 59.28547668 C-25.19890615 62.22066905 -25.19890615 62.22066905 -23 65 C-21.04614933 65.78988145 -21.04614933 65.78988145 -18.875 66.1875 C-16.956875 66.5896875 -16.956875 66.5896875 -15 67 C-15 67.99 -15 68.98 -15 70 C-24.57 70 -34.14 70 -44 70 C-44 69.01 -44 68.02 -44 67 C-41.36 66.01 -38.72 65.02 -36 64 C-36 42.88 -36 21.76 -36 0 C-38.97 -0.33 -41.94 -0.66 -45 -1 C-45 -1.99 -45 -2.98 -45 -4 C-30.79630615 -6.60162112 -12.73108492 -7.81552871 0 0 Z " fill="#F2F4F8" transform="translate(921,127)"/>
<path d="M0 0 C2.60227767 4.37182648 2.17087946 9.04449555 2 14 C0.1875 13.9375 0.1875 13.9375 -2 13 C-2.68725809 11.26549149 -3.37298073 9.53031478 -4.04296875 7.7890625 C-5.7892621 4.5245631 -8.62183903 3.10001774 -12 2 C-16.85091197 1.18167224 -20.0575787 1.50308695 -24.4375 3.8125 C-27.82696859 6.7059488 -28.90766009 8.22170646 -29.4375 12.6875 C-29.27187348 17.73565839 -27.21674594 21.18654326 -24 25 C-20.27542872 27.88531684 -16.15122424 30.05897113 -12.03710938 32.33398438 C-4.24595097 36.88549905 -0.09885422 42.55946959 3 51 C4.05821147 57.10420932 2.80050144 61.78472271 -0.46875 66.98828125 C-4.41186375 72.16864752 -8.38577724 74.11532848 -14.75 75.375 C-20.65483482 76.15097954 -26.1419791 76.05167619 -32 75 C-32.70511719 74.89429688 -33.41023438 74.78859375 -34.13671875 74.6796875 C-36 74.1875 -36 74.1875 -39 72 C-41.23148285 66.48927712 -42.18607448 60.93249209 -42 55 C-41.01 55 -40.02 55 -39 55 C-38.68546875 55.67546875 -38.3709375 56.3509375 -38.046875 57.046875 C-34.35261264 64.82026914 -34.35261264 64.82026914 -27.875 70.25 C-22.07133611 71.76399927 -16.91479443 71.95739721 -11.5 69.25 C-8.50990209 66.55891188 -7.23086476 64.62679122 -6.6640625 60.6328125 C-6.57395396 54.84784431 -6.89031484 51.39640738 -11 47 C-15.42247153 43.4547129 -20.0777746 40.27344082 -24.80078125 37.14453125 C-31.65549859 32.54425428 -36.0103383 28.29025707 -38 20 C-38.66651336 14.09659598 -37.95116091 10.72685824 -34.56640625 5.828125 C-26.10701489 -4.04468088 -11.60082532 -4.25363595 0 0 Z " fill="#F4F6F9" transform="translate(1169,123)"/>
<path d="M0 0 C2.91418995 4.00701118 2.18710672 9.22877867 2 14 C1.01 14 0.02 14 -1 14 C-1.5878125 12.39125 -1.5878125 12.39125 -2.1875 10.75 C-3.74862329 7.09504784 -5.62901161 5.19114245 -9 3 C-14.12789443 1.29070186 -18.41244889 1.38261901 -23.375 3.3125 C-26.21698375 4.89220247 -26.21698375 4.89220247 -28 8 C-28.74669979 13.72146593 -28.54363327 18.27515563 -25 23 C-25 23.66 -25 24.32 -25 25 C-24.31808594 25.24363281 -23.63617187 25.48726562 -22.93359375 25.73828125 C-12.67189165 30.15176963 -3.65359279 36.5453194 1.875 46.3125 C3.74750405 52.45015216 4.07632037 58.26148643 1.5 64.25 C-1.7706855 69.93915013 -6.63272043 73.0612512 -12.625 75.4375 C-20.82975663 77.03286934 -29.782792 76.21526786 -37 72 C-40.10858428 68.89141572 -40.88211273 65.11091901 -41.125 60.76171875 C-41.125 58.84069391 -41.06736293 56.9198434 -41 55 C-38 56 -38 56 -37.0078125 57.671875 C-36.71648438 58.35765625 -36.42515625 59.0434375 -36.125 59.75 C-33.66570974 64.98772506 -30.42405967 68.76134265 -25 71 C-19.13285916 71.74549479 -13.94442895 71.49727901 -9 68 C-5.88654189 64.47141414 -5.37992661 61.02028177 -5.61523438 56.44873047 C-6.37881384 51.58914794 -9.10226127 47.54919947 -12.89160156 44.45581055 C-15.01445325 43.05852532 -17.1722536 41.76730401 -19.375 40.5 C-26.76896881 35.99301318 -33.68126003 31.36442607 -37 23 C-37.63151796 17.31633839 -37.76308763 11.90771906 -35.625 6.5625 C-25.86949715 -2.96072897 -12.82452259 -5.28068577 0 0 Z " fill="#F6F7FA" transform="translate(658,123)"/>
<path d="M0 0 C6.17940954 2.47176381 11.36682622 5.14436995 16 10 C17.56335149 14.19305431 17.54794135 18.08984337 17.4609375 22.53125 C17.47672348 24.31698425 17.47672348 24.31698425 17.49282837 26.13879395 C17.50028801 28.64679387 17.48016673 31.15501008 17.43408203 33.66259766 C17.37512047 37.49217511 17.43353395 41.30757994 17.50390625 45.13671875 C17.49663685 47.58076032 17.4825422 50.02479311 17.4609375 52.46875 C17.48320404 53.60542114 17.50547058 54.74209229 17.52841187 55.91320801 C17.36898228 60.85473802 17.12397437 63.82205935 13.62921143 67.48461914 C9.2282698 70.77407938 5.11677382 72.95329047 0 75 C0 50.25 0 25.5 0 0 Z " fill="#002D72" transform="translate(202,206)"/>
<path d="M0 0 C9.57 0 19.14 0 29 0 C29 0.66 29 1.32 29 2 C28.43410156 2.13277344 27.86820313 2.26554687 27.28515625 2.40234375 C26.55167969 2.57894531 25.81820313 2.75554687 25.0625 2.9375 C24.33160156 3.11152344 23.60070313 3.28554687 22.84765625 3.46484375 C21.00030102 3.83887569 21.00030102 3.83887569 20 5 C19.90079333 6.92232287 19.87200637 8.84831279 19.87060547 10.77319336 C19.86745331 12.00794907 19.86430115 13.24270477 19.86105347 14.51487732 C19.86284345 15.87319982 19.86489445 17.231522 19.8671875 18.58984375 C19.86651434 19.97367876 19.86554421 21.35751366 19.86428833 22.74134827 C19.86281144 25.64585492 19.8649653 28.55033089 19.86962891 31.45483398 C19.87532089 35.18196786 19.87205052 38.90902964 19.86605644 42.63616085 C19.86244606 45.49541265 19.86359171 48.35464731 19.86618423 51.21389961 C19.86685246 52.58825247 19.86602872 53.96260687 19.86370468 55.33695793 C19.86117099 57.25710903 19.86571608 59.17726556 19.87060547 61.09741211 C19.87140106 62.19137802 19.87219666 63.28534393 19.87301636 64.41246033 C19.82517128 66.98603819 19.82517128 66.98603819 21 69 C22.88764903 69.68472665 22.88764903 69.68472665 25.0625 70.125 C25.79597656 70.29257813 26.52945312 70.46015625 27.28515625 70.6328125 C28.13400391 70.81457031 28.13400391 70.81457031 29 71 C29 71.99 29 72.98 29 74 C19.43 74 9.86 74 0 74 C0 73.01 0 72.02 0 71 C0.56589844 70.81824219 1.13179687 70.63648438 1.71484375 70.44921875 C2.44832031 70.19785156 3.18179688 69.94648438 3.9375 69.6875 C4.66839844 69.44386719 5.39929688 69.20023437 6.15234375 68.94921875 C8.35932024 68.08759559 8.35932024 68.08759559 9 65 C9.10345951 63.09906071 9.14854243 61.19472661 9.16113281 59.29101562 C9.17554413 57.53404358 9.17554413 57.53404358 9.19024658 55.74157715 C9.19449646 54.47591919 9.19874634 53.21026123 9.203125 51.90625 C9.20882507 50.60804321 9.21452515 49.30983643 9.22039795 47.97229004 C9.23089431 45.22517506 9.23674646 42.47808924 9.24023438 39.73095703 C9.24572824 36.21010002 9.26978039 32.68962796 9.29820633 29.16889191 C9.3212955 25.8105182 9.32327913 22.45219902 9.328125 19.09375 C9.3404718 17.82809204 9.3528186 16.56243408 9.36553955 15.25842285 C9.36253845 14.08710815 9.35953735 12.91579346 9.35644531 11.70898438 C9.36191376 10.16035706 9.36191376 10.16035706 9.36749268 8.58044434 C9.20324613 5.98051964 9.20324613 5.98051964 7.67694092 4.18615723 C5.2617439 2.4778064 2.89649178 2.32183242 0 2 C0 1.34 0 0.68 0 0 Z " fill="#F7F8FA" transform="translate(1010,123)"/>
<path d="M0 0 C5.28 0.33 10.56 0.66 16 1 C16 16.18 16 31.36 16 47 C11.93055359 45.37222144 9.23249847 43.93468079 5.75 41.4375 C4.87859375 40.81746094 4.0071875 40.19742188 3.109375 39.55859375 C1 38 1 38 0 37 C-0.08858646 34.26105915 -0.11523479 31.5474673 -0.09765625 28.80859375 C-0.0962413 27.98875504 -0.09482635 27.16891632 -0.09336853 26.32423401 C-0.08775289 23.69528618 -0.07519779 21.06642227 -0.0625 18.4375 C-0.05748701 16.65950643 -0.05292376 14.88151154 -0.04882812 13.10351562 C-0.03777839 8.73564455 -0.02050331 4.36783652 0 0 Z " fill="#012D72" transform="translate(235,152)"/>
<path d="M0 0 C3.04221065 -0.08132642 6.0822238 -0.14065374 9.125 -0.1875 C9.9809375 -0.21263672 10.836875 -0.23777344 11.71875 -0.26367188 C16.93341197 -0.32384105 20.4811298 0.09300095 25 3 C27.37040308 5.37040308 27.34465793 6.06302753 27.4375 9.3125 C27.36965601 13.13643375 27.10089495 13.86989862 24.625 17.0625 C22 19 22 19 20 19 C24.46080806 26.22470931 28.7997766 33.12610415 35 39 C32.09283662 39.42543854 29.88979526 39.511937 27.2890625 38.015625 C22.7936659 34.39489833 19.85272383 30.07929609 16.87109375 25.171875 C14.51931841 22.44204809 12.44330056 21.86927644 9 21 C9.06001504 23.27156921 9.14879968 25.54239274 9.25 27.8125 C9.29640625 29.07707031 9.3428125 30.34164063 9.390625 31.64453125 C9.69418945 35.47888681 9.69418945 35.47888681 14 38 C9.05 38 4.1 38 -1 38 C2 36 2 36 4 36 C3.67 25.11 3.34 14.22 3 3 C2.01 2.67 1.02 2.34 0 2 C0 1.34 0 0.68 0 0 Z " fill="#EDF0F5" transform="translate(775,233)"/>
<path d="M0 0 C3.83186479 1.46759941 6.90804475 3.16609796 10.25 5.5625 C11.55710938 6.49255859 11.55710938 6.49255859 12.890625 7.44140625 C15 9 15 9 16 10 C16.08858646 12.73894085 16.11523479 15.4525327 16.09765625 18.19140625 C16.0962413 19.01124496 16.09482635 19.83108368 16.09336853 20.67576599 C16.08775289 23.30471382 16.07519779 25.93357773 16.0625 28.5625 C16.05748701 30.34049357 16.05292376 32.11848846 16.04882812 33.89648438 C16.03777839 38.26435545 16.02050331 42.63216348 16 47 C15.47434448 46.73526886 14.94868896 46.47053772 14.40710449 46.19778442 C13.35383972 45.66893143 13.35383972 45.66893143 12.27929688 45.12939453 C11.18282837 44.57665863 11.18282837 44.57665863 10.06420898 44.01275635 C8.56288163 43.27616484 7.03167938 42.59954262 5.48632812 41.96044922 C2.86573352 40.57881206 1.6226546 39.51346307 0 37 C-1.00604291 30.68411261 -0.75227077 24.49602691 -0.5 18.125 C-0.45984579 16.36987233 -0.42334838 14.61465694 -0.390625 12.859375 C-0.30271886 8.57074468 -0.16483465 4.28633495 0 0 Z " fill="#043074" transform="translate(218,179)"/>
<path d="M0 0 C3.83186479 1.46759941 6.90804475 3.16609796 10.25 5.5625 C11.55710938 6.49255859 11.55710938 6.49255859 12.890625 7.44140625 C15 9 15 9 16 10 C16.08858646 12.73894085 16.11523479 15.4525327 16.09765625 18.19140625 C16.0962413 19.01124496 16.09482635 19.83108368 16.09336853 20.67576599 C16.08775289 23.30471382 16.07519779 25.93357773 16.0625 28.5625 C16.05748701 30.34049357 16.05292376 32.11848846 16.04882812 33.89648438 C16.03777839 38.26435545 16.02050331 42.63216348 16 47 C9.76722458 44.62154502 4.25632556 42.32063073 0 37 C-1.81110395 30.90161509 -1.03205295 24.26578114 -0.6875 18 C-0.63226105 16.2540604 -0.58208169 14.50795296 -0.53710938 12.76171875 C-0.4164813 8.50363809 -0.22710415 4.25367653 0 0 Z " fill="#FDFDFE" transform="translate(235,190)"/>
<path d="M0 0 C7.875 0 7.875 0 11.9375 1.5 C12.70964844 1.7784375 13.48179687 2.056875 14.27734375 2.34375 C14.84582031 2.5603125 15.41429687 2.776875 16 3 C15.28970512 20.40222461 8.40584136 38.33379712 1 54 C0.67 54 0.34 54 0 54 C0 36.18 0 18.36 0 0 Z " fill="#0E3879" transform="translate(267,156)"/>
<path d="M0 0 C3.59849323 -0.62830834 5.54292383 -0.92750824 9 0 C11.61385786 2.39603638 13.56728894 4.98888567 15.66796875 7.84375 C18.02561463 11.03466771 20.55374972 13.90454414 23.25 16.8125 C26.63349185 20.46689234 29.80147195 24.16176634 33 28 C33 19.42 33 10.84 33 2 C31.35 2 29.7 2 28 2 C28 1.34 28 0.68 28 0 C32.29 0 36.58 0 41 0 C40.01 0.99 39.02 1.98 38 3 C36.55919816 6.64872355 36.88698353 10.51985041 36.90234375 14.390625 C36.90446617 15.44754547 36.90446617 15.44754547 36.90663147 16.52581787 C36.91221067 18.76725584 36.92475927 21.00859243 36.9375 23.25 C36.94251769 24.77343605 36.94708013 26.29687368 36.95117188 27.8203125 C36.96217326 31.54690772 36.97942354 35.27344396 37 39 C34.12494775 37.71712498 32.27456552 36.47736114 30.265625 34.05859375 C29.77771484 33.47907959 29.28980469 32.89956543 28.78710938 32.30249023 C28.27986328 31.68704346 27.77261719 31.07159668 27.25 30.4375 C26.18297535 29.16609257 25.11526592 27.89525954 24.046875 26.625 C23.52802734 26.00496094 23.00917969 25.38492187 22.47460938 24.74609375 C19.95382146 21.76121376 17.3367979 18.86421698 14.71875 15.96484375 C12.73758171 13.70000818 10.86553607 11.36055771 9 9 C8.97107615 13.12498538 8.95322733 17.24994485 8.9375 21.375 C8.92912109 22.550625 8.92074219 23.72625 8.91210938 24.9375 C8.90888672 26.05898438 8.90566406 27.18046875 8.90234375 28.3359375 C8.89710693 29.37282715 8.89187012 30.4097168 8.88647461 31.47802734 C8.82859185 33.9959668 8.82859185 33.9959668 10 36 C11.32 36.66 12.64 37.32 14 38 C9.38 38 4.76 38 0 38 C1.32 37.34 2.64 36.68 4 36 C4 25.11 4 14.22 4 3 C2.68 2.34 1.36 1.68 0 1 C0 0.67 0 0.34 0 0 Z " fill="#F4F5F8" transform="translate(518,233)"/>
<path d="M0 0 C5.28 0 10.56 0 16 0 C16 9.24 16 18.48 16 28 C12.535 26.02 12.535 26.02 9 24 C8.12472656 23.64679688 7.24945313 23.29359375 6.34765625 22.9296875 C3.42599707 21.58122942 1.92630402 20.61977347 0 18 C-1.14952361 12.09059713 -0.50545833 5.95317591 0 0 Z " fill="#022F73" transform="translate(202,150)"/>
<path d="M0 0 C8.91 0 17.82 0 27 0 C27 2.64 27 5.28 27 8 C25 7 25 7 24 4 C21.29816945 2.64908472 18.88191794 2.66141942 15.875 2.4375 C13.93625 2.293125 11.9975 2.14875 10 2 C10 6.95 10 11.9 10 17 C13.63 17 17.26 17 21 17 C21.33 15.35 21.66 13.7 22 12 C22.33 12 22.66 12 23 12 C23 15.96 23 19.92 23 24 C21 23 21 23 20 20 C16.7 19.67 13.4 19.34 10 19 C10.14024219 21.47960136 10.2869185 23.95852402 10.4375 26.4375 C10.47681641 27.14455078 10.51613281 27.85160156 10.55664062 28.58007812 C10.47624438 32.08690419 10.47624438 32.08690419 12 35 C14.09790198 35.20481609 16.20550472 35.31406354 18.3125 35.375 C19.46363281 35.42398438 20.61476563 35.47296875 21.80078125 35.5234375 C25.19746378 35.30811159 25.19746378 35.30811159 27.29296875 32.4765625 C27.85628906 31.65929687 28.41960938 30.84203125 29 30 C29.66 30 30.32 30 31 30 C30.34 32.64 29.68 35.28 29 38 C19.1 38 9.2 38 -1 38 C0.32 37.34 1.64 36.68 3 36 C5.72384082 33.27615918 4.27441269 25.34875356 4.29516602 21.41748047 C4.3123791 19.14098901 4.35624946 16.86594989 4.40039062 14.58984375 C4.41051731 13.14584404 4.4190335 11.70183195 4.42578125 10.2578125 C4.44036377 8.9392627 4.45494629 7.62071289 4.4699707 6.26220703 C4.32062393 2.50477081 4.32062393 2.50477081 0 0 Z " fill="#EFF2F6" transform="translate(711,233)"/>
<path d="M0 0 C3.80498516 1.03311112 6.15726496 1.68336209 8.32763672 5.07421875 C9.48772333 7.68428558 10.4872092 10.306561 11.4375 13 C11.78748047 13.91523437 12.13746094 14.83046875 12.49804688 15.7734375 C15 22.45184075 15 22.45184075 15 26 C13.783125 25.79503906 12.56625 25.59007812 11.3125 25.37890625 C-5.43228664 22.74535179 -22.08629283 22.28875505 -39 22 C-39 21.34 -39 20.68 -39 20 C-23.98438595 16.73235342 -9.25507958 15.83318457 6 18 C5.566875 16.86820313 5.13375 15.73640625 4.6875 14.5703125 C4.12482714 13.0886073 3.56233657 11.60683286 3 10.125 C2.57074219 9.00544922 2.57074219 9.00544922 2.1328125 7.86328125 C0 2.2265625 0 2.2265625 0 0 Z " fill="#0A3577" transform="translate(240,108)"/>
<path d="M0 0 C4.95 0 9.9 0 15 0 C13.68 0.99 12.36 1.98 11 3 C10.40100824 5.50273679 10.40100824 5.50273679 10.50390625 8.33203125 C10.50326172 9.37810547 10.50261719 10.42417969 10.50195312 11.50195312 C10.52193359 12.59443359 10.54191406 13.68691406 10.5625 14.8125 C10.55186523 16.43381836 10.55186523 16.43381836 10.54101562 18.08789062 C10.59481387 24.82922453 11.15841692 29.61195864 15.625 34.9375 C19.44999121 36.64868028 23.00093903 35.95741791 27 35 C30.77269113 33.0652866 31.675422 30.93450799 33 27 C33.43036837 22.96611025 33.37020156 18.92967764 33.375 14.875 C33.41173828 13.22951172 33.41173828 13.22951172 33.44921875 11.55078125 C33.45308594 10.50019531 33.45695312 9.44960937 33.4609375 8.3671875 C33.47326416 6.93028564 33.47326416 6.93028564 33.48583984 5.46435547 C33.17371884 2.43358289 33.17371884 2.43358289 29 0 C33.29 0 37.58 0 42 0 C40.02 0.99 40.02 0.99 38 2 C37.9906543 2.6798999 37.98130859 3.3597998 37.97167969 4.06030273 C37.91748724 7.18672895 37.83393761 10.31173648 37.75 13.4375 C37.73582031 14.50677734 37.72164063 15.57605469 37.70703125 16.67773438 C37.45727228 24.84485276 36.33748912 31.40150923 30.65234375 37.53125 C25.71071761 40.26770277 20.4726694 39.68150223 15 39 C10.35269847 36.83660101 8.27072408 34.52181422 6 30 C5.56762695 26.95385742 5.56762695 26.95385742 5.48828125 23.60546875 C5.45283203 22.40341797 5.41738281 21.20136719 5.38085938 19.96289062 C5.35830078 18.71701172 5.33574219 17.47113281 5.3125 16.1875 C5.27833984 14.92228516 5.24417969 13.65707031 5.20898438 12.35351562 C5.12662871 9.23576555 5.05743471 6.11829241 5 3 C2.525 2.01 2.525 2.01 0 1 C0 0.67 0 0.34 0 0 Z " fill="#FAFBFC" transform="translate(444,233)"/>
<path d="M0 0 C1 2 1 2 0.56274414 3.78759766 C0.30614014 4.48933105 0.04953613 5.19106445 -0.21484375 5.9140625 C-0.48876953 6.67460938 -0.76269531 7.43515625 -1.04492188 8.21875 C-1.33947266 9.0128125 -1.63402344 9.806875 -1.9375 10.625 C-2.22818359 11.42679688 -2.51886719 12.22859375 -2.81835938 13.0546875 C-3.53882525 15.03892138 -4.26855138 17.01978837 -5 19 C-4.25878906 18.67644531 -3.51757812 18.35289063 -2.75390625 18.01953125 C2.53595098 16.58284786 7.60445975 16.66087148 13.0625 16.6875 C14.17689453 16.69023926 15.29128906 16.69297852 16.43945312 16.69580078 C24.12149866 16.79333989 31.79448628 17.02499623 39 20 C39.495 20.99 39.495 20.99 40 22 C39.00371582 22.01458252 38.00743164 22.02916504 36.98095703 22.04418945 C11.31334539 22.20961866 11.31334539 22.20961866 -14 26 C-13.02991538 22.98763196 -12.02525765 19.99375235 -11 17 C-10.63648438 15.89398438 -10.27296875 14.78796875 -9.8984375 13.6484375 C-6.3952102 3.63598787 -6.3952102 3.63598787 -2.6875 1.1875 C-1.800625 0.795625 -0.91375 0.40375 0 0 Z " fill="#0D3879" transform="translate(154,108)"/>
<path d="M0 0 C5.77442064 3.20801147 10.78735215 6.11824096 16 10 C15.38924188 12.83471432 14.52863332 15.11979849 13.109375 17.64453125 C12.72910156 18.32193359 12.34882813 18.99933594 11.95703125 19.69726562 C11.35955078 20.74430664 11.35955078 20.74430664 10.75 21.8125 C10.36714844 22.49892578 9.98429687 23.18535156 9.58984375 23.89257812 C6.99208879 28.48426206 4.18879957 32.79408332 1 37 C0.67 37 0.34 37 0 37 C0 24.79 0 12.58 0 0 Z " fill="#053175" transform="translate(251,200)"/>
<path d="M0 0 C4.29 0 8.58 0 13 0 C13 0.66 13 1.32 13 2 C12.01 2 11.02 2 10 2 C11.45206085 5.9398418 12.9127154 9.87644251 14.375 13.8125 C14.99375 15.49182617 14.99375 15.49182617 15.625 17.20507812 C16.22441406 18.81479492 16.22441406 18.81479492 16.8359375 20.45703125 C17.38580322 21.9416687 17.38580322 21.9416687 17.94677734 23.45629883 C18.97536077 26.17342471 18.97536077 26.17342471 21 29 C24.63 20.09 28.26 11.18 32 2 C30.68 2 29.36 2 28 2 C28 1.34 28 0.68 28 0 C31.96 0 35.92 0 40 0 C38.8555542 1.05513794 38.8555542 1.05513794 37.68798828 2.1315918 C35.00057136 4.99939029 33.60011459 7.33687221 31.9921875 10.89453125 C31.22455078 12.57579102 31.22455078 12.57579102 30.44140625 14.29101562 C29.92449219 15.45310547 29.40757812 16.61519531 28.875 17.8125 C28.35035156 18.96298828 27.82570313 20.11347656 27.28515625 21.29882812 C24.64389419 27.13300825 22.15171278 32.96778451 20 39 C19.34 39 18.68 39 18 39 C17.63237549 37.98574951 17.26475098 36.97149902 16.88598633 35.92651367 C15.51469116 32.15735406 14.12099674 28.39680888 12.72045898 24.63842773 C12.11797863 23.01210338 11.52155825 21.38352048 10.93139648 19.75268555 C10.08087605 17.40570695 9.20872716 15.06777557 8.33203125 12.73046875 C8.07347855 12.00224411 7.81492584 11.27401947 7.54853821 10.52372742 C5.82931754 6.02226921 4.29164378 4.13827825 0 2 C0 1.34 0 0.68 0 0 Z " fill="#F0F2F6" transform="translate(640,233)"/>
<path d="M0 0 C11.55 0 23.1 0 35 0 C35 2.97 35 5.94 35 9 C33 8 33 8 32 5 C28.07854902 3.03927451 23.36631 3.39693727 19 3 C19.33 13.89 19.66 24.78 20 36 C21.65 36.66 23.3 37.32 25 38 C25 38.33 25 38.66 25 39 C19.39 39 13.78 39 8 39 C12 37 12 37 14 37 C14 25.78 14 14.56 14 3 C10.04 3.66 6.08 4.32 2 5 C1.34 6.32 0.68 7.64 0 9 C-0.66 9 -1.32 9 -2 9 C-1.34 6.03 -0.68 3.06 0 0 Z " fill="#EBEFF4" transform="translate(948,232)"/>
<path d="M0 0 C1.35439668 2.70879335 1.06501451 5.00933268 1 8 C0.34 8 -0.32 8 -1 8 C-1.66 6.02 -2.32 4.04 -3 2 C-6.63 2 -10.26 2 -14 2 C-14.80015588 6.58088213 -14.80015588 6.58088213 -14 11 C-11.4448422 13.43842471 -8.79686663 15.22098732 -5.796875 17.078125 C-2.33311764 19.45824877 0.52972716 21.85986003 1.4609375 26.09765625 C1.14866085 33.23743605 1.14866085 33.23743605 -1 36 C-4.99706867 39.61025557 -9.32406706 39.506792 -14.46484375 39.34765625 C-17 39 -17 39 -19.625 37.375 C-21.25083694 34.56673619 -21.70770032 32.21529643 -22 29 C-21.34 29 -20.68 29 -20 29 C-18.64721885 30.98689731 -17.31431695 32.98745218 -16 35 C-13.77109005 36.11445498 -12.46944894 36.16480286 -10 36.1875 C-9.29875 36.20167969 -8.5975 36.21585937 -7.875 36.23046875 C-5.75475062 36.16512323 -5.75475062 36.16512323 -4 34 C-3.45179323 29.1865294 -3.45179323 29.1865294 -5.4375 24.9375 C-8.50335744 22.61941267 -11.69776061 20.56681743 -14.9765625 18.5625 C-17.22274523 16.82799596 -18.03119621 15.64538653 -19 13 C-19.77894737 5.98947368 -19.77894737 5.98947368 -16.6875 2.0625 C-11.87609944 -1.6299702 -5.717129 -2.19889577 0 0 Z " fill="#F4F6F9" transform="translate(861,233)"/>
<path d="M0 0 C4.29 0 8.58 0 13 0 C12.34 1.32 11.68 2.64 11 4 C12.00787541 6.60515164 13.03627093 8.82847536 14.375 11.25 C14.71789063 11.8996875 15.06078125 12.549375 15.4140625 13.21875 C16.26183672 14.82010131 17.12908679 16.41111444 18 18 C20.59037598 14.79509037 22.37943156 11.44649547 24.1875 7.75 C24.98220703 6.13351563 24.98220703 6.13351563 25.79296875 4.484375 C26.19128906 3.66453125 26.58960938 2.8446875 27 2 C26.01 2 25.02 2 24 2 C24 1.34 24 0.68 24 0 C27.63 0 31.26 0 35 0 C35 0.66 35 1.32 35 2 C33.92685547 2.55107422 33.92685547 2.55107422 32.83203125 3.11328125 C28.85835408 5.76057238 27.05325017 9.11140008 24.6875 13.1875 C24.23310547 13.91775391 23.77871094 14.64800781 23.31054688 15.40039062 C19.13155805 22.49524535 19.38944713 27.94723563 21 36 C22.65 36.33 24.3 36.66 26 37 C26 37.33 26 37.66 26 38 C20.72 38 15.44 38 10 38 C11.98 37.505 11.98 37.505 14 37 C15.74072426 24.06061631 11.76664644 13.45318749 4 3 C2.68 2.01 1.36 1.02 0 0 Z " fill="#F4F6F9" transform="translate(1014,233)"/>
<path d="M0 0 C4.09872907 1.63949163 6.80766128 3.10151612 10.3125 5.625 C11.19550781 6.25664062 12.07851562 6.88828125 12.98828125 7.5390625 C13.65214844 8.02117187 14.31601563 8.50328125 15 9 C13.49561323 14.02408413 10.4696835 17.10680573 6.9375 20.8125 C6.10508789 21.7087207 6.10508789 21.7087207 5.25585938 22.62304688 C3.86343678 24.1070539 2.43471147 25.55683662 1 27 C0.67 27 0.34 27 0 27 C0 18.09 0 9.18 0 0 Z " fill="#053174" transform="translate(235,228)"/>
<path d="M0 0 C4.95 0 9.9 0 15 0 C15 0.66 15 1.32 15 2 C13.68 2.33 12.36 2.66 11 3 C11 13.89 11 24.78 11 36 C12.32 36.66 13.64 37.32 15 38 C10.05 38 5.1 38 0 38 C1.32 37.01 2.64 36.02 4 35 C4.35711867 32.42202563 4.46813593 30.27685887 4.390625 27.70703125 C4.38213531 26.64798836 4.38213531 26.64798836 4.37347412 25.56755066 C4.35110411 23.31517374 4.30091199 21.06439497 4.25 18.8125 C4.22993556 17.28452821 4.21168468 15.75653144 4.1953125 14.22851562 C4.15123802 10.48506244 4.08221074 6.74280205 4 3 C2.68 2.67 1.36 2.34 0 2 C0 1.34 0 0.68 0 0 Z " fill="#ECEFF4" transform="translate(897,233)"/>
<path d="M0 0 C4.95 0 9.9 0 15 0 C15 0.66 15 1.32 15 2 C13.35 2 11.7 2 10 2 C10.33 13.22 10.66 24.44 11 36 C12.32 36.66 13.64 37.32 15 38 C10.05 38 5.1 38 0 38 C1.32 37.34 2.64 36.68 4 36 C4 25.11 4 14.22 4 3 C2.68 2.67 1.36 2.34 0 2 C0 1.34 0 0.68 0 0 Z " fill="#EBEFF4" transform="translate(593,233)"/>
<path d="M0 0 C8.18464193 -0.60181191 8.18464193 -0.60181191 11.625 1.9375 C13.53973532 6.20213776 13.31142243 9.5514494 12 14 C10.4375 16.0625 10.4375 16.0625 8 17 C5.36 17 2.72 17 0 17 C0 11.39 0 5.78 0 0 Z " fill="#043074" transform="translate(784,235)"/>
<path d="M0 0 C2.02532117 3.97563044 3 6.5050702 3 11 C-0.63 11 -4.26 11 -8 11 C-8.33 7.7 -8.66 4.4 -9 1 C-3.375 -1.125 -3.375 -1.125 0 0 Z " fill="#163F7E" transform="translate(182,181)"/>
<path d="M0 0 C3.3 0 6.6 0 10 0 C10.33 2.97 10.66 5.94 11 9 C8.49698229 10.18198059 6.60398817 11.0172568 3.8125 10.9375 C2 10 2 10 0.75 7.75 C0 5 0 5 0 0 Z " fill="#053175" transform="translate(133,196)"/>
<path d="M0 0 C3.3 0 6.6 0 10 0 C10.32613618 4.67461851 9.70582788 7.16674383 7 11 C4.69 10.67 2.38 10.34 0 10 C-1.2380014 6.42355152 -0.74926071 3.66305234 0 0 Z " fill="#073376" transform="translate(174,196)"/>
<path d="M0 0 C2.31 0.33 4.62 0.66 7 1 C7.95024979 4.69541586 7.95024979 7.30458414 7 11 C3.7 11 0.4 11 -3 11 C-2.53199289 6.94393835 -2.12046792 3.53411321 0 0 Z " fill="#043074" transform="translate(136,181)"/>
<path d="M0 0 C3.96 0 7.92 0 12 0 C10.94232422 0.85658203 10.94232422 0.85658203 9.86328125 1.73046875 C5.57555007 6.01819993 3.58159796 11.84347249 1.1875 17.3125 C0.68541016 18.43462891 0.18332031 19.55675781 -0.33398438 20.71289062 C-1.56627818 23.47088153 -2.78783837 26.23311624 -4 29 C-4.66 28.67 -5.32 28.34 -6 28 C-3.24892128 19.09945121 0.40298363 10.58356509 4 2 C2.68 2 1.36 2 0 2 C0 1.34 0 0.68 0 0 Z " fill="#EAEEF3" transform="translate(668,233)"/>
<path d="M0 0 C3.49892037 3.49892037 3.38818101 4.17959089 3.4765625 8.91015625 C3.5075 10.06451172 3.5384375 11.21886719 3.5703125 12.40820312 C3.59738281 14.21708008 3.59738281 14.21708008 3.625 16.0625 C3.67586422 18.44930329 3.7303641 20.83603277 3.7890625 23.22265625 C3.80662598 24.28234619 3.82418945 25.34203613 3.84228516 26.43383789 C3.83123011 28.98871347 3.83123011 28.98871347 5 31 C6.32 31.66 7.64 32.32 9 33 C4.38 33 -0.24 33 -5 33 C-3.68 32.34 -2.36 31.68 -1 31 C-0.67 20.77 -0.34 10.54 0 0 Z " fill="#C0CBDC" transform="translate(523,238)"/>
<path d="M0 0 C2.97 0 5.94 0 9 0 C9 2.64 9 5.28 9 8 C5.7 8 2.4 8 -1 8 C-0.67 5.36 -0.34 2.72 0 0 Z " fill="#0A3577" transform="translate(148,184)"/>
<path d="M0 0 C3.3 0 6.6 0 10 0 C10 2.64 10 5.28 10 8 C7.03 8 4.06 8 1 8 C0.67 5.36 0.34 2.72 0 0 Z " fill="#0D3779" transform="translate(147,196)"/>
<path d="M0 0 C6.15234375 -0.09765625 6.15234375 -0.09765625 8 0 C9 1 9 1 9.0625 4.5625 C9.041875 5.696875 9.02125 6.83125 9 8 C6.03 8 3.06 8 0 8 C0 5.36 0 2.72 0 0 Z " fill="#043074" transform="translate(161,184)"/>
<path d="M0 0 C4.29 0 8.58 0 13 0 C11.515 1.485 11.515 1.485 10 3 C7.38728177 11.41875874 7.38167844 20.25152846 7 29 C6.67 29 6.34 29 6 29 C5.67 20.09 5.34 11.18 5 2 C3.35 2 1.7 2 0 2 C0 1.34 0 0.68 0 0 Z " fill="#E9EDF3" transform="translate(546,233)"/>
<path d="M0 0 C2.97 0 5.94 0 9 0 C8.67 2.64 8.34 5.28 8 8 C5.36 8 2.72 8 0 8 C0 5.36 0 2.72 0 0 Z " fill="#063275" transform="translate(161,196)"/>
<path d="M0 0 C-0.61875 0.7425 -1.2375 1.485 -1.875 2.25 C-3.60437281 4.48801188 -4.86106661 6.43739987 -6 9 C-8.64 8.67 -11.28 8.34 -14 8 C-12.61220551 4.65927822 -11.18411804 3.09800579 -8.125 1.1875 C-7.44695312 0.74792969 -6.76890625 0.30835938 -6.0703125 -0.14453125 C-3.59237953 -1.16843185 -2.47510086 -0.90457722 0 0 Z " fill="#1B4381" transform="translate(153,170)"/>
<path d="M0 0 C3.63 0 7.26 0 11 0 C11 0.66 11 1.32 11 2 C10.25363281 2.40863281 9.50726562 2.81726563 8.73828125 3.23828125 C5.33074831 5.4305742 4.12444935 7.65541589 2.1875 11.1875 C1.58292969 12.27417969 0.97835938 13.36085937 0.35546875 14.48046875 C-0.31548828 15.72763672 -0.31548828 15.72763672 -1 17 C-1.66 16.67 -2.32 16.34 -3 16 C-1.50829734 11.0276578 0.60457417 6.58154261 3 2 C2.01 2 1.02 2 0 2 C0 1.34 0 0.68 0 0 Z " fill="#E3E8EF" transform="translate(1038,233)"/>
<path d="M0 0 C4.29 0 8.58 0 13 0 C11.02 0.99 11.02 0.99 9 2 C8.67 9.92 8.34 17.84 8 26 C7.67 26 7.34 26 7 26 C6.67 22.37 6.34 18.74 6 15 C5.67 15 5.34 15 5 15 C4.96132813 13.75283203 4.96132813 13.75283203 4.921875 12.48046875 C4.86515625 11.39378906 4.8084375 10.30710938 4.75 9.1875 C4.70359375 8.10855469 4.6571875 7.02960938 4.609375 5.91796875 C4.22710157 2.48235677 4.22710157 2.48235677 0 0 Z " fill="#D0D8E5" transform="translate(473,233)"/>
<path d="M0 0 C2.48915593 3.05234484 4.24510056 6.49020112 6 10 C2.06946815 9.43450607 -0.53407537 8.28617442 -3.8125 6.0625 C-4.60269531 5.53785156 -5.39289063 5.01320312 -6.20703125 4.47265625 C-6.79871094 3.98667969 -7.39039063 3.50070313 -8 3 C-8 2.34 -8 1.68 -8 1 C-3.04347826 -0.65217391 -3.04347826 -0.65217391 0 0 Z " fill="#153E7D" transform="translate(147,209)"/>
<path d="M0 0 C0 2.97 0 5.94 0 9 C-2 8 -2 8 -3 5 C-5.65223421 3.6738829 -7.92232966 3.68041289 -10.8828125 3.46484375 C-12.04941406 3.37783203 -13.21601562 3.29082031 -14.41796875 3.20117188 C-15.64128906 3.11416016 -16.86460937 3.02714844 -18.125 2.9375 C-19.97158203 2.80118164 -19.97158203 2.80118164 -21.85546875 2.66210938 C-24.90339115 2.43764997 -27.95154703 2.21711458 -31 2 C-31 1.67 -31 1.34 -31 1 C-26.74585666 0.85737335 -22.49170617 0.71496224 -18.23754883 0.57275391 C-16.78930464 0.52431112 -15.34106244 0.47580867 -13.89282227 0.42724609 C-11.8152721 0.35759166 -9.73771494 0.28814942 -7.66015625 0.21875 C-6.40855713 0.17685547 -5.15695801 0.13496094 -3.86743164 0.09179688 C-1 0 -1 0 0 0 Z " fill="#C0CBDC" transform="translate(983,232)"/>
<path d="M0 0 C2.33944736 0.28730055 4.6739143 0.61936779 7 1 C5.49048817 5.22663314 2.8148346 6.83078032 -1 9 C-2.65743071 9.37657977 -4.32383886 9.71826833 -6 10 C-5.18957164 8.51969728 -4.37659652 7.04078858 -3.5625 5.5625 C-2.88380859 4.32693359 -2.88380859 4.32693359 -2.19140625 3.06640625 C-1 1 -1 1 0 0 Z " fill="#113B7B" transform="translate(171,209)"/>
<path d="M0 0 C1.35439668 2.70879335 1.06501451 5.00933268 1 8 C0.34 8 -0.32 8 -1 8 C-1.66 6.02 -2.32 4.04 -3 2 C-6.63 2 -10.26 2 -14 2 C-14.33 4.31 -14.66 6.62 -15 9 C-16.5625 7.1875 -16.5625 7.1875 -18 5 C-17 2 -17 2 -14.375 0.3125 C-9.67442691 -1.51550065 -4.78691377 -1.84112068 0 0 Z " fill="#D2D9E6" transform="translate(861,233)"/>
<path d="M0 0 C9.71428571 2.71428571 9.71428571 2.71428571 13 8 C10.69 8.66 8.38 9.32 6 10 C4.02 6.7 2.04 3.4 0 0 Z " fill="#0F397A" transform="translate(165,169)"/>
<path d="M0 0 C2.31 0 4.62 0 7 0 C7 3.3 7 6.6 7 10 C3.60582235 6.87378374 1.3937282 4.43458973 0 0 Z " fill="#234A85" transform="translate(150,207)"/>
<path d="M0 0 C0.33 0 0.66 0 1 0 C1 2.97 1 5.94 1 9 C-1.31 9 -3.62 9 -6 9 C-2.25 2.25 -2.25 2.25 0 0 Z " fill="#113B7B" transform="translate(156,171)"/>
<path d="M0 0 C0.66 0 1.32 0 2 0 C1.49487476 6.22987798 -1.32604123 11.45474233 -4 17 C-4.66 16.67 -5.32 16.34 -6 16 C-4.25192871 10.53262809 -2.34205919 5.24175152 0 0 Z " fill="#DFE5ED" transform="translate(668,245)"/>
<path d="M0 0 C0.66 0 1.32 0 2 0 C3.36363208 1.97946592 4.69418644 3.9819245 6 6 C7.62351109 7.79394446 7.62351109 7.79394446 9 9 C7.25 9.75 7.25 9.75 5 10 C1.93720523 7.81228945 1.10127524 6.43885938 0.25 2.75 C0.1675 1.8425 0.085 0.935 0 0 Z " fill="#D8DEE9" transform="translate(839,262)"/>
<path d="M0 0 C0.75 1.6875 0.75 1.6875 1 4 C-1.42050749 7.91005056 -3.61750634 9.66090471 -8 11 C-7.61121002 8.18127263 -7.29189635 7.22804402 -5 5.4375 C-4.34 4.963125 -3.68 4.48875 -3 4 C-2.67 3.01 -2.34 2.02 -2 1 C-1.34 0.67 -0.68 0.34 0 0 Z " fill="#E3E8EF" transform="translate(478,261)"/>
<path d="M0 0 C0.33 0 0.66 0 1 0 C1 3.96 1 7.92 1 12 C0.34 11.67 -0.32 11.34 -1 11 C-1.20625 10.34 -1.4125 9.68 -1.625 9 C-2.79365917 6.82949501 -2.79365917 6.82949501 -4.90625 6.515625 C-6.93030541 6.27330851 -8.96572061 6.13124383 -11 6 C-11 5.67 -11 5.34 -11 5 C-7.7 5 -4.4 5 -1 5 C-0.67 3.35 -0.34 1.7 0 0 Z " fill="#E4E9F0" transform="translate(733,245)"/>
<path d="M0 0 C3.08089673 2.77280706 4.68775452 5.06326356 6 9 C4.02 9 2.04 9 0 9 C0 6.03 0 3.06 0 0 Z " fill="#0B3678" transform="translate(161,171)"/>
<path d="M0 0 C1.98 0 3.96 0 6 0 C3.375 5.75 3.375 5.75 0 8 C0 5.36 0 2.72 0 0 Z " fill="#063275" transform="translate(161,208)"/>
<path d="M0 0 C-3.26545761 1.88391785 -6.28111761 2.49287967 -10 3 C-10.33 5.31 -10.66 7.62 -11 10 C-12.5625 8.1875 -12.5625 8.1875 -14 6 C-13 3 -13 3 -10.375 1.3125 C-6.67051902 -0.12813149 -3.93906235 -0.23634374 0 0 Z " fill="#C9D2E1" transform="translate(857,232)"/>
<path d="M0 0 C0 2.97 0 5.94 0 9 C-2 8 -2 8 -3 5 C-5.50447516 3.78130071 -5.50447516 3.78130071 -8 3 C-8 2.67 -8 2.34 -8 2 C-1.125 0 -1.125 0 0 0 Z " fill="#F0F3F7" transform="translate(983,232)"/>
<path d="M0 0 C1.32 0.33 2.64 0.66 4 1 C4.33 1.99 4.66 2.98 5 4 C4.01 4.33 3.02 4.66 2 5 C0.79117904 7.00016466 0.79117904 7.00016466 0 9 C-0.66 9 -1.32 9 -2 9 C-1.34 6.03 -0.68 3.06 0 0 Z " fill="#DFE5ED" transform="translate(948,232)"/>
<path d="M0 0 C1.98 0 3.96 0 6 0 C6 2.64 6 5.28 6 8 C4 7 4 7 3 4 C2.01 3.34 1.02 2.68 0 2 C0 1.34 0 0.68 0 0 Z " fill="#DFE5ED" transform="translate(732,233)"/>
</svg>
