<?xml version="1.0" encoding="UTF-8"?>
<svg version="1.1" xmlns="http://www.w3.org/2000/svg" width="3000" height="2000">
<path d="M0 0 C130.02 0 260.04 0 394 0 C394 130.02 394 260.04 394 394 C263.98 394 133.96 394 0 394 C0 263.98 0 133.96 0 0 Z " fill="#57068C" transform="translate(346,803)"/>
<path d="M0 0 C5.94 0 11.88 0 18 0 C19.9027937 5.56419104 21.80522335 11.12850408 23.70678711 16.69311523 C24.35144065 18.57925242 24.99629157 20.46532215 25.64135742 22.35131836 C27.48342575 27.73725706 29.32116618 33.12463668 31.15325928 38.51397705 C31.95609781 40.87110357 32.76413705 43.22639397 33.57275391 45.58154297 C34.03446513 46.93837946 34.49591009 48.29530661 34.95703125 49.65234375 C35.35510986 50.81628662 35.75318848 51.98022949 36.16333008 53.17944336 C37 56 37 56 37 59 C37.66 59 38.32 59 39 59 C39.10404144 58.4138089 39.20808289 57.8276178 39.3152771 57.22366333 C40.59013204 50.42524154 42.42085516 43.90425401 44.4765625 37.3046875 C44.80667328 36.23123077 45.13678406 35.15777405 45.47689819 34.05178833 C46.52167678 30.6580904 47.57321966 27.26653366 48.625 23.875 C49.33899158 21.56003455 50.05253765 19.24493164 50.765625 16.9296875 C52.50444675 11.28458248 54.25242013 5.64242942 56 0 C63.26 0 70.52 0 78 0 C72.94688779 19.91520693 65.53509715 39.26828328 58.88745117 58.69384766 C58.43909157 60.00438614 58.43909157 60.00438614 57.98167419 61.34140015 C57.41995801 62.9829709 56.8579396 64.62443828 56.29554749 66.26577759 C54.72579857 70.85316075 53.18066185 75.44781372 51.66099548 80.05204773 C50.28542571 84.1058489 48.61811556 88.03840674 47 92 C41.06 92 35.12 92 29 92 C28.14277344 89.62167969 27.28554687 87.24335937 26.40234375 84.79296875 C25.54515932 82.41620343 24.68775053 80.03951916 23.83032227 77.6628418 C23.24740715 76.04671482 22.66471481 74.43050746 22.08227539 72.81420898 C17.77316399 60.8568912 13.4078819 48.92125995 9 37 C8.76418716 37.6742955 8.52837433 38.348591 8.28541565 39.0433197 C6.06646144 45.38667692 3.8447586 51.72906376 1.61993504 58.07036495 C0.47613225 61.33080074 -0.66659072 64.59160674 -1.80688477 67.85327148 C-3.11678072 71.59991108 -4.43130373 75.34491865 -5.74609375 79.08984375 C-6.15653427 80.26586655 -6.56697479 81.44188934 -6.98985291 82.65354919 C-7.37017166 83.73459427 -7.75049042 84.81563934 -8.14233398 85.92944336 C-8.47764633 86.88652695 -8.81295868 87.84361053 -9.15843201 88.82969666 C-10 91 -10 91 -11 92 C-12.34267413 92.08631874 -13.68974322 92.10706473 -15.03515625 92.09765625 C-15.84404297 92.09443359 -16.65292969 92.09121094 -17.48632812 92.08789062 C-18.33646484 92.07951172 -19.18660156 92.07113281 -20.0625 92.0625 C-20.91650391 92.05798828 -21.77050781 92.05347656 -22.65039062 92.04882812 C-24.76695663 92.03700373 -26.88348685 92.01906769 -29 92 C-36.43679659 70.80182169 -43.85031539 49.5955525 -51.22366333 28.37521362 C-51.99255846 26.16288996 -52.76198988 23.95075262 -53.5319519 21.73880005 C-54.61397757 18.62978139 -55.69399152 15.52007136 -56.7734375 12.41015625 C-57.10089462 11.47034912 -57.42835175 10.53054199 -57.76573181 9.56225586 C-58.06137527 8.70905762 -58.35701874 7.85585938 -58.66162109 6.97680664 C-58.9213974 6.22919571 -59.18117371 5.48158478 -59.44882202 4.71131897 C-60 3 -60 3 -60 2 C-52.08 2 -44.16 2 -36 2 C-30.72 20.48 -25.44 38.96 -20 58 C-15.66182616 45.27292904 -15.66182616 45.27292904 -11.32568359 32.54516602 C-7.61836034 21.67194971 -3.84319487 10.82598433 0 0 Z " fill="#56058B" transform="translate(1104,954)"/>
<path d="M0 0 C0.33 0.66 0.66 1.32 1 2 C2.20914062 1.79117188 3.41828125 1.58234375 4.6640625 1.3671875 C17.02932731 -0.11806484 17.02932731 -0.11806484 22.04833984 3.46044922 C26.11918399 7.62211698 29.21288797 12.49786963 32.31738281 17.39941406 C35.06683851 21.648863 38.14589986 25.64500462 41.1875 29.6875 C42.24629198 31.12684899 43.30226129 32.5682784 44.35546875 34.01171875 C49.2281339 40.68095069 54.11555378 47.33939151 59 54 C59.33 36.18 59.66 18.36 60 0 C66.93 0 73.86 0 81 0 C81 30.36 81 60.72 81 92 C63 92 63 92 59.01171875 89.1484375 C57.75195312 87.31640625 57.75195312 87.31640625 56.6875 85.375 C55.87945637 84.13245458 55.07086677 82.89026403 54.26171875 81.6484375 C53.8961084 81.03838867 53.53049805 80.42833984 53.15380859 79.79980469 C51.96398613 77.94382264 50.65030244 76.32840257 49.20703125 74.6640625 C47 72 47 72 47 70 C46.34 70 45.68 70 45 70 C43.44140625 68.0859375 43.44140625 68.0859375 41.5625 65.375 C38.25885763 60.71493512 34.85004023 56.17258494 31.3125 51.6875 C30.86140869 51.11370605 30.41031738 50.53991211 29.94555664 49.94873047 C27.02066407 46.24504572 24.02431332 42.62917598 21 39 C20.67 56.49 20.34 73.98 20 92 C13.4 92 6.8 92 0 92 C-0.15299084 80.15240353 -0.30175099 68.30477503 -0.4429636 56.4570322 C-0.50869826 50.95626181 -0.57632213 45.45552789 -0.64819336 39.95483398 C-0.71742302 34.65108267 -0.7817819 29.34729299 -0.84269524 24.04343987 C-0.86685926 22.01512424 -0.89280902 19.98682911 -0.92053413 17.95855904 C-0.95892633 15.12808568 -0.99109412 12.29760742 -1.02172852 9.46704102 C-1.03467453 8.61971909 -1.04762054 7.77239716 -1.06095886 6.8993988 C-1.07900573 4.93291036 -1.04525569 2.96605046 -1 1 C-0.67 0.67 -0.34 0.34 0 0 Z " fill="#56058B" transform="translate(1847,954)"/>
<path d="M0 0 C6.93 0 13.86 0 21 0 C21 30.36 21 60.72 21 92 C3 92 3 92 -1.1015625 89.2890625 C-2.44213867 87.53051758 -2.44213867 87.53051758 -3.625 85.625 C-4.09333252 84.98522217 -4.56166504 84.34544434 -5.04418945 83.6862793 C-5.97698473 82.40723247 -6.88759564 81.11164901 -7.77294922 79.79931641 C-9.44035483 77.35427476 -11.30431616 75.0936953 -13.1875 72.8125 C-14.12335937 71.62914062 -14.12335937 71.62914062 -15.078125 70.421875 C-17.17343124 67.78144843 -19.30139624 65.17001977 -21.4375 62.5625 C-22.18515625 61.64984375 -22.9328125 60.7371875 -23.703125 59.796875 C-25.25298512 57.90963037 -26.80512329 56.02425456 -28.359375 54.140625 C-29.12765625 53.20734375 -29.8959375 52.2740625 -30.6875 51.3125 C-31.37199219 50.48363281 -32.05648437 49.65476562 -32.76171875 48.80078125 C-35.58854108 45.26355331 -38.28319192 41.62241077 -41 38 C-41.33 55.82 -41.66 73.64 -42 92 C-47.94 92 -53.88 92 -60 92 C-60 62.3 -60 32.6 -60 2 C-42 2 -42 2 -36.5 7.1875 C-35.15209961 8.96020508 -35.15209961 8.96020508 -34.21484375 10.51953125 C-32.03704332 13.9871628 -29.59594372 17.16239242 -27.0625 20.375 C-26.22857495 21.46469915 -25.39656156 22.55586375 -24.56640625 23.6484375 C-21.10712187 28.18184366 -17.56613165 32.65046627 -14.03125 37.125 C-9.65239312 42.72271395 -5.33318607 48.36685811 -1 54 C-0.67 36.18 -0.34 18.36 0 0 Z " fill="#56058B" transform="translate(900,954)"/>
<path d="M0 0 C8.023125 -0.061875 16.04625 -0.12375 24.3125 -0.1875 C26.82270752 -0.21481201 29.33291504 -0.24212402 31.91918945 -0.27026367 C33.94221518 -0.27903778 35.96524627 -0.28667952 37.98828125 -0.29296875 C39.01159546 -0.30831665 40.03490967 -0.32366455 41.0892334 -0.33947754 C51.00661886 -0.34302411 59.95494027 0.9118271 67.28125 8.04296875 C74.13156077 15.8429817 76.51470482 23.70590355 76 34 C75.979375 35.155 75.95875 36.31 75.9375 37.5 C73.41074954 46.93320172 65.05903943 53.25140774 57 58 C58.42239667 60.08370042 59.84529913 62.16705289 61.26879883 64.25 C62.46602001 66.0020787 63.66247024 67.75468445 64.8581543 69.5078125 C68.46940929 74.79436138 72.12555354 80.03464887 75.92578125 85.1875 C77 87 77 87 77 90 C69.42593609 91.19876572 61.4453559 92.26170245 54 90 C48.49117914 85.78479161 45.44110651 79.50380701 42.34326172 73.43359375 C40.57335953 70.2270534 38.41757342 67.43826959 36.12133789 64.59375 C35 63 35 63 35 61 C30.05 61 25.1 61 20 61 C20 70.57 20 80.14 20 90 C13.4 90 6.8 90 0 90 C0 60.3 0 30.6 0 0 Z M21 18 C21 26.25 21 34.5 21 43 C25.95 43.0928125 25.95 43.0928125 31 43.1875 C32.02351563 43.21481201 33.04703125 43.24212402 34.1015625 43.27026367 C41.1333708 43.33353362 46.95186085 42.59091828 52.5 37.875 C54.60842856 33.83384527 54.90360364 30.46301626 54 26 C52.29536261 22.57621767 50.02855835 20.48010239 46.53125 18.84765625 C41.53772953 17.64899038 36.73734787 17.78990716 31.625 17.875 C28.11875 17.91625 24.6125 17.9575 21 18 Z " fill="#56058B" transform="translate(2224,956)"/>
<path d="M0 0 C8.064375 -0.04125 16.12875 -0.0825 24.4375 -0.125 C26.96591553 -0.14320801 29.49433105 -0.16141602 32.09936523 -0.18017578 C34.12743925 -0.18602288 36.15551564 -0.19111792 38.18359375 -0.1953125 C39.21713989 -0.20554443 40.25068604 -0.21577637 41.31555176 -0.22631836 C51.22499642 -0.22868028 59.47164534 0.54297895 66.81640625 7.79296875 C73.78819451 15.31784251 76.22160023 22.76728364 76 33 C74.38558009 42.51306938 69.79130078 49.40000256 62 55 C59.0625 56.375 59.0625 56.375 57 57 C59.8688247 62.70745125 63.25962213 67.90188271 67 73.0625 C77 86.85954797 77 86.85954797 77 90 C73.22942453 90.11597653 69.45930607 90.18717396 65.6875 90.25 C64.61564453 90.28351563 63.54378906 90.31703125 62.43945312 90.3515625 C60.89741211 90.37089844 60.89741211 90.37089844 59.32421875 90.390625 C58.37635498 90.41157227 57.42849121 90.43251953 56.4519043 90.45410156 C54 90 54 90 52.16723633 88.10058594 C51 86 51 86 51 84 C50.34 84 49.68 84 49 84 C47.5546875 81.98046875 47.5546875 81.98046875 45.875 79.1875 C45.24335937 78.19363281 44.61171875 77.19976563 43.9609375 76.17578125 C42.68084285 74.10263991 41.45355225 71.99568392 40.2890625 69.85546875 C38.39295021 66.69666159 36.82684829 64.37751901 34 62 C28.60615685 60.72279933 24.70670815 60.84714175 19 61 C19 70.57 19 80.14 19 90 C12.73 90 6.46 90 0 90 C0 60.3 0 30.6 0 0 Z M21 18 C21 26.25 21 34.5 21 43 C25.95 43.0928125 25.95 43.0928125 31 43.1875 C32.02351563 43.21481201 33.04703125 43.24212402 34.1015625 43.27026367 C41.13817014 43.3335768 47.00601699 42.61973513 52.5 37.8125 C54.49344353 34.07479338 54.69880604 31.15073949 54 27 C52.35640671 23.3019151 50.45782834 21.09565354 47 19 C43.8840911 18.01183344 41.05503588 17.88340095 37.796875 17.90234375 C36.91354492 17.90484131 36.03021484 17.90733887 35.12011719 17.90991211 C34.00797852 17.91901611 32.89583984 17.92812012 31.75 17.9375 C26.42875 17.9684375 26.42875 17.9684375 21 18 Z " fill="#56058B" transform="translate(1476,956)"/>
<path d="M0 0 C8.75919957 7.54149094 14.98882561 17.46434868 16.47265625 29.12890625 C17.59008322 44.25407851 13.8393317 55.10944936 5.22265625 67.31640625 C-4.08294239 76.83349577 -15.58662141 82.14505474 -28.85961914 82.37036133 C-43.72574523 82.42429669 -54.55391844 78.89535308 -65.80078125 68.875 C-70.52734375 64.0949696 -70.52734375 64.0949696 -70.52734375 61.12890625 C-71.18734375 60.79890625 -71.84734375 60.46890625 -72.52734375 60.12890625 C-73.4589729 58.10021848 -74.29954432 56.02921222 -75.08984375 53.94140625 C-75.52425781 52.81347656 -75.95867187 51.68554688 -76.40625 50.5234375 C-80.59115223 37.85207849 -78.83184962 24.84950802 -73.27734375 12.87890625 C-67.56254387 2.31159877 -58.82242019 -5.10860391 -47.27734375 -8.74609375 C-30.59848807 -13.28964409 -13.63894574 -10.65603962 0 0 Z M-49.52734375 15.12890625 C-55.92001308 24.03814676 -57.4510315 31.19860123 -56.52734375 42.12890625 C-54.72702637 48.74311576 -51.13408437 54.75655814 -45.3359375 58.5703125 C-37.41745064 62.91990387 -29.50599369 64.2962119 -20.6953125 61.98828125 C-13.392033 59.09328757 -8.23180207 53.53782289 -4.77734375 46.62890625 C-1.97825889 38.43269091 -2.52420547 29.24724337 -6.1328125 21.41796875 C-10.04555739 14.99536789 -15.24842607 10.26238212 -22.52734375 8.12890625 C-32.19286109 6.05188307 -42.42929213 7.78848214 -49.52734375 15.12890625 Z " fill="#56058B" transform="translate(1429.52734375,964.87109375)"/>
<path d="M0 0 C22.77 0 45.54 0 69 0 C69 5.94 69 11.88 69 18 C53.16 18 37.32 18 21 18 C21 23.28 21 28.56 21 34 C34.53 34 48.06 34 62 34 C62 39.94 62 45.88 62 52 C48.47 52 34.94 52 21 52 C21 58.6 21 65.2 21 72 C36.84 72 52.68 72 69 72 C69 77.94 69 83.88 69 90 C46.23 90 23.46 90 0 90 C0 60.3 0 30.6 0 0 Z " fill="#57058B" transform="translate(2125,956)"/>
<path d="M0 0 C22.77 0 45.54 0 69 0 C69 5.94 69 11.88 69 18 C52.83 18 36.66 18 20 18 C20 23.28 20 28.56 20 34 C33.86 34 47.72 34 62 34 C62 39.94 62 45.88 62 52 C48.14 52 34.28 52 20 52 C20 58.6 20 65.2 20 72 C36.17 72 52.34 72 69 72 C69 77.94 69 83.88 69 90 C46.23 90 23.46 90 0 90 C0 60.3 0 30.6 0 0 Z " fill="#56058B" transform="translate(954,956)"/>
<path d="M0 0 C0.66 0 1.32 0 2 0 C8.7362873 14.39657861 15.9847355 32.85494004 14 49 C12.34078505 52.49620294 9.90113594 54.49819123 7 57 C4.9923009 59.01701059 3.05672002 61.09788286 1.125 63.1875 C0.34999146 64.02015381 0.34999146 64.02015381 -0.44067383 64.86962891 C-13.85652892 79.50167002 -23.78660831 96.68717043 -23.43359375 116.93359375 C-22.87270675 124.21437291 -20.28915819 131.11751456 -18 138 C-17.64756422 139.3284118 -17.30144331 140.65909701 -17 142 C-30.58029869 137.76375757 -45.09993336 128.9907012 -52.109375 116.0703125 C-57.58151102 103.34999632 -57.57619797 90.62697424 -52.6015625 77.72265625 C-46.62093691 63.35493307 -37.14942105 50.70837325 -25.9609375 39.9765625 C-14.96927814 28.89732019 -4.38889745 15.16164575 0 0 Z " fill="#FDFCFD" transform="translate(557,866)"/>
<path d="M0 0 C6.6 0 13.2 0 20 0 C20.33 11.55 20.66 23.1 21 35 C29.25147657 26.80635912 29.25147657 26.80635912 36.90234375 18.31640625 C40.53650703 14.30326132 44.42548305 10.53674429 48.2902832 6.74682617 C48.88284912 6.16263916 49.47541504 5.57845215 50.0859375 4.9765625 C50.6226709 4.45143066 51.1594043 3.92629883 51.71240234 3.38525391 C53.11276003 2.0089621 53.11276003 2.0089621 54 0 C62.58 0 71.16 0 80 0 C78.02 2.31 76.04 4.62 74 7 C73.46375 7.64066406 72.9275 8.28132812 72.375 8.94140625 C68.48015623 13.53333853 64.27254375 17.76436083 60 22 C54.20697532 27.7402673 54.20697532 27.7402673 48.5625 33.625 C47.76005859 34.47964844 47.76005859 34.47964844 46.94140625 35.3515625 C45.79890431 36.95878803 45.79890431 36.95878803 46.2722168 38.85839844 C47.09293209 41.27346538 48.16749633 42.87962749 49.703125 44.9140625 C50.26507568 45.6663916 50.82702637 46.4187207 51.40600586 47.19384766 C52.01452393 47.99612793 52.62304199 48.7984082 53.25 49.625 C54.52820906 51.33268599 55.8055313 53.04103607 57.08203125 54.75 C57.73381348 55.62011719 58.3855957 56.49023438 59.05712891 57.38671875 C62.06472142 61.43211587 65.00097658 65.52787743 67.9375 69.625 C71.78947881 74.99906187 75.68718934 80.29094122 79.92578125 85.37109375 C81 87 81 87 81 90 C60.18427651 92.66837291 60.18427651 92.66837291 53.86376953 88.63769531 C50.18189924 84.84502067 47.85322877 80.22809358 45.43798828 75.56835938 C42.81570996 70.8847655 39.49176761 66.7040923 36.25 62.4375 C35.04490456 60.81265748 33.84160018 59.18648406 32.640625 57.55859375 C31.76066853 56.37220898 30.88056418 55.18593378 30 54 C28.515 54.495 28.515 54.495 27 55 C27 55.66 27 56.32 27 57 C26.02804687 57.57105469 25.05609375 58.14210938 24.0546875 58.73046875 C21.53878011 60.74423001 21.03671769 61.81108352 20.41113281 65.02978516 C20.18406478 68.80003913 20.11747227 72.53546324 20.125 76.3125 C20.104375 77.62541016 20.08375 78.93832031 20.0625 80.29101562 C20.01543014 83.5270685 20.00425002 86.76360761 20 90 C13.4 90 6.8 90 0 90 C0 60.3 0 30.6 0 0 Z " fill="#56058B" transform="translate(1581,956)"/>
<path d="M0 0 C6.6 0 13.2 0 20 0 C20.01458252 1.65451172 20.02916504 3.30902344 20.04418945 5.01367188 C20.10230564 11.17144017 20.17953872 17.3288479 20.26245117 23.48632812 C20.29725787 26.14782607 20.32368761 28.80903143 20.34643555 31.47070312 C20.38009589 35.30368497 20.43242014 39.13603516 20.48828125 42.96875 C20.49467117 44.15239136 20.5010611 45.33603271 20.50764465 46.55554199 C20.64735889 54.46483911 21.06093074 60.85587939 26.6875 66.875 C32.66923473 70.71233926 37.94742076 71.48264913 44.953125 70.4921875 C47.6683832 69.8392819 49.72281419 68.5871295 52 67 C52.66 67 53.32 67 54 67 C55.94096704 62.21228131 57.12787576 58.43232413 57.20532227 53.2434082 C57.22526749 52.06241043 57.24521271 50.88141266 57.26576233 49.66462708 C57.28247482 48.38955795 57.29918732 47.11448883 57.31640625 45.80078125 C57.33718735 44.49545944 57.35796844 43.19013763 57.37937927 41.84526062 C57.43452273 38.37817647 57.48396595 34.91103354 57.53222656 31.44384766 C57.5824981 27.90456931 57.63815463 24.36537611 57.69335938 20.82617188 C57.8008464 13.88418687 57.90181454 6.94212273 58 0 C65.26 0 72.52 0 80 0 C80.06826783 7.20733273 80.12309593 14.41448342 80.15543652 21.62207317 C80.17097274 24.97030543 80.19365263 28.31812527 80.22631836 31.66625977 C80.26306131 35.531474 80.27980858 39.3963606 80.29296875 43.26171875 C80.30845261 44.44142746 80.32393646 45.62113617 80.33988953 46.83659363 C80.34249539 59.94913075 78.32524126 71.22658997 69.1484375 80.96484375 C59.08504551 90.44688441 48.27902889 91.48342957 35.0703125 91.265625 C24.89160653 90.88265635 17.48539446 87.78225307 10.1953125 80.609375 C0.37731005 68.93957849 -0.33385741 54.79591905 -0.1953125 40.13671875 C-0.1924826 38.97872269 -0.18965271 37.82072662 -0.18673706 36.62763977 C-0.17566968 32.98081493 -0.15059122 29.33424881 -0.125 25.6875 C-0.1149528 23.19336296 -0.10583002 20.69922201 -0.09765625 18.20507812 C-0.07577458 12.13662123 -0.04133973 6.06835426 0 0 Z " fill="#56058B" transform="translate(1736,956)"/>
<path d="M0 0 C13.06028984 -0.44329966 24.52513277 2.92040102 35.3671875 10.1484375 C33.77095606 14.54227456 31.58694417 18.43839557 29.2421875 22.4609375 C28.86964844 23.10611328 28.49710938 23.75128906 28.11328125 24.41601562 C27.20086537 25.99519695 26.28443241 27.57205614 25.3671875 29.1484375 C21.99658599 28.56729931 20.71815815 27.54619363 18.3671875 25.1484375 C12.21323492 21.65783489 5.57525658 18.63357542 -1.6328125 19.1484375 C-4.5458983 19.96979628 -7.44646405 20.96208905 -9.6328125 23.1484375 C-10.13416449 25.52065706 -10.13416449 25.52065706 -9.6328125 28.1484375 C-6.29902292 31.25917064 -3.07174252 33.00870608 1.1796875 34.5859375 C2.3140625 35.00875 3.4484375 35.4315625 4.6171875 35.8671875 C7.92434544 36.99713313 11.23449052 38.00324446 14.58959961 38.97412109 C23.02999741 41.44481808 30.23136415 43.92320344 34.8046875 51.8984375 C38.02939846 59.42276307 38.15403541 67.48113951 35.3671875 75.1484375 C31.73719113 82.84628972 26.3435054 88.11210225 18.5546875 91.5234375 C6.57198306 95.44624858 -7.20871788 94.15415638 -18.6328125 89.1484375 C-24.05096492 86.36493612 -29.02165156 83.14477698 -33.6328125 79.1484375 C-32.77871423 74.64423767 -30.15533781 72.11826417 -27.0703125 68.8984375 C-26.55017578 68.34414063 -26.03003906 67.78984375 -25.49414062 67.21875 C-24.21350265 65.85586922 -22.9240076 64.50132067 -21.6328125 63.1484375 C-20.97796875 63.61894531 -20.323125 64.08945312 -19.6484375 64.57421875 C-10.12966878 71.06795504 -1.54715221 73.89895301 9.9921875 72.765625 C12.69084862 72.0643282 14.26476441 70.94912394 16.3671875 69.1484375 C15.8721875 65.1884375 15.8721875 65.1884375 15.3671875 61.1484375 C10.7639793 59.56406779 6.1553408 58.06020359 1.46484375 56.75390625 C-22.08910865 50.16848402 -22.08910865 50.16848402 -28.6328125 40.1484375 C-31.76171231 32.40068559 -31.64820467 24.01227427 -28.65234375 16.2421875 C-24.64121915 8.0047822 -17.94228716 4.48575704 -9.6328125 1.1484375 C-6.32960003 0.32263438 -3.37736145 0.19041504 0 0 Z " fill="#56058B" transform="translate(2356.6328125,953.8515625)"/>
<path d="M0 0 C7.26 0 14.52 0 22 0 C18.62524958 11.24916806 18.62524958 11.24916806 17.20996094 14.96459961 C16.89242859 15.803452 16.57489624 16.64230438 16.2477417 17.50657654 C15.91333069 18.37967972 15.57891968 19.2527829 15.234375 20.15234375 C14.87788879 21.0919545 14.52140259 22.03156525 14.15411377 22.99964905 C13.02266111 25.98018097 11.88656831 28.95891555 10.75 31.9375 C9.26417822 35.84189869 7.78029748 39.74703294 6.296875 43.65234375 C5.93344498 44.60810806 5.57001495 45.56387238 5.1955719 46.54859924 C2.52812453 53.57505602 -0.08301828 60.62095842 -2.67085266 67.67706299 C-4.69998488 73.20440914 -6.78139774 78.70829435 -8.9375 84.1875 C-9.948125 86.765625 -10.95875 89.34375 -12 92 C-17.94 92 -23.88 92 -30 92 C-31.258125 89.504375 -32.51625 87.00875 -33.8125 84.4375 C-34.20284424 83.66591553 -34.59318848 82.89433105 -34.99536133 82.09936523 C-41 70.1373445 -41 70.1373445 -41 66 C-41.66 65.67 -42.32 65.34 -43 65 C-43.86279297 63.38720703 -43.86279297 63.38720703 -44.7421875 61.2578125 C-45.08064697 60.45134277 -45.41910645 59.64487305 -45.76782227 58.81396484 C-46.13319092 57.92660645 -46.49855957 57.03924805 -46.875 56.125 C-49.59884148 49.61782239 -52.3642957 43.13514224 -55.26171875 36.703125 C-55.67300018 35.78833878 -55.67300018 35.78833878 -56.09259033 34.85507202 C-57.45172568 31.8342201 -58.81680515 28.81623104 -60.18896484 25.80126953 C-60.68477051 24.69895996 -61.18057617 23.59665039 -61.69140625 22.4609375 C-62.35958374 20.98826416 -62.35958374 20.98826416 -63.04125977 19.48583984 C-64 17 -64 17 -64 14 C-64.66 13.67 -65.32 13.34 -66 13 C-67.32 9.37 -68.64 5.74 -70 2 C-61.75 2 -53.5 2 -45 2 C-40.52576839 12.36927444 -36.6413632 22.9270914 -32.78686523 33.53930664 C-31.677931 36.58881423 -30.56083185 39.635253 -29.44335938 42.68164062 C-28.73648425 44.62221563 -28.03008633 46.56296454 -27.32421875 48.50390625 C-26.98992355 49.41322403 -26.65562836 50.32254181 -26.311203 51.25941467 C-25.85491264 52.52234596 -25.85491264 52.52234596 -25.3894043 53.81079102 C-25.12024704 54.54959 -24.85108978 55.28838898 -24.57377625 56.04957581 C-24 58 -24 58 -24 61 C-23.34 61 -22.68 61 -22 61 C-21.90557617 60.20215088 -21.81115234 59.40430176 -21.71386719 58.58227539 C-20.8126349 54.05977832 -19.24504993 49.97303604 -17.578125 45.68359375 C-17.2362616 44.7906813 -16.89439819 43.89776886 -16.54217529 42.97779846 C-15.45005733 40.12897394 -14.3501695 37.28322352 -13.25 34.4375 C-12.52552544 32.55163052 -11.8015622 30.66556453 -11.078125 28.77929688 C-9.36414761 24.31377259 -7.64425601 19.8505612 -5.92163086 15.3883667 C-4.6064133 11.980037 -3.29530213 8.57013841 -1.984375 5.16015625 C-1.32953125 3.45730469 -0.6746875 1.75445313 0 0 Z " fill="#56058B" transform="translate(2077,954)"/>
<path d="M0 0 C21.18179592 -2.34285321 21.18179592 -2.34285321 26.87402344 1.14990234 C29.8863742 4.42349552 31.36002312 8.48255744 32.95117188 12.58056641 C34.99636306 17.29840734 37.85789536 21.57611534 40.5625 25.9375 C41.60834317 27.67405336 42.65155692 29.41219465 43.69140625 31.15234375 C44.13685791 31.89476318 44.58230957 32.63718262 45.04125977 33.40209961 C45.51583618 34.1930603 45.51583618 34.1930603 46 35 C48.35531693 32.01654015 50.20242433 28.95428314 51.99609375 25.60546875 C52.55490234 24.56712891 53.11371094 23.52878906 53.68945312 22.45898438 C54.26630859 21.37939453 54.84316406 20.29980469 55.4375 19.1875 C56.58129301 17.05559334 57.72580642 14.92407301 58.87109375 12.79296875 C59.37568115 11.8496167 59.88026855 10.90626465 60.40014648 9.93432617 C62.21980576 6.59684947 64.11402516 3.30045596 66 0 C74.25 0 82.5 0 91 0 C89.64976025 3.37559937 88.49530366 6.05188917 86.671875 9.08984375 C86.2085376 9.86360352 85.7452002 10.63736328 85.26782227 11.43457031 C84.76694092 12.26053711 84.26605957 13.08650391 83.75 13.9375 C83.22784912 14.80342773 82.70569824 15.66935547 82.16772461 16.56152344 C76.953768 25.16151556 71.5568614 33.64337348 66.12890625 42.109375 C65.60079346 42.95435547 65.07268066 43.79933594 64.52856445 44.66992188 C63 47 63 47 61.50854492 48.78320312 C56.11123963 55.6186981 57.2148133 64.71827729 57.1875 73 C57.16432995 74.64977226 57.13895943 76.29951517 57.11132812 77.94921875 C57.04470469 81.96681381 57.02341579 85.98099958 57 90 C49.41 90 41.82 90 34 90 C34.1134375 87.61910156 34.226875 85.23820312 34.34375 82.78515625 C35.01299385 61.33000901 32.87286406 48.01336757 19.15234375 30.77832031 C15.70284822 26.32559128 12.75365205 21.5717893 9.75 16.8125 C8.72711038 15.23363052 7.70128785 13.65665539 6.671875 12.08203125 C6.21619141 11.38158691 5.76050781 10.68114258 5.29101562 9.95947266 C4.09715735 8.1474631 2.87170417 6.36100835 1.640625 4.57421875 C0 2 0 2 0 0 Z " fill="#56058B" transform="translate(1249,956)"/>
<path d="M0 0 C0.33 0 0.66 0 1 0 C1.46509837 25.86463694 -6.01718562 50.80110192 -23.796875 69.93359375 C-37.43823437 83.02113724 -54.7687865 85.4322083 -72.828125 85.10546875 C-74.21880161 85.07241717 -75.60945268 85.03810522 -77 85 C-77.31970184 79.97054427 -76.23192371 75.94800164 -74.4375 71.3125 C-74.03313721 70.25857056 -74.03313721 70.25857056 -73.62060547 69.18334961 C-65.75367124 49.43477202 -51.13754055 38.03266717 -33.25 27.75 C-26.13278757 23.64149879 -19.39310518 19.36229071 -13 14.1875 C-12.37254883 13.68508789 -11.74509766 13.18267578 -11.09863281 12.66503906 C-7.14532077 9.35151946 -4.1269912 5.75256451 -1.1640625 1.5324707 C-0.77992188 1.02675537 -0.39578125 0.52104004 0 0 Z " fill="#FDFCFD" transform="translate(630,923)"/>
<path d="M0 0 C7.92 0 15.84 0 24 0 C25.10859375 2.10761719 26.2171875 4.21523438 27.359375 6.38671875 C28.44371951 8.43939456 29.52987691 10.49110115 30.61621094 12.54272461 C31.36680821 13.96262062 32.11553431 15.3835075 32.86230469 16.80541992 C33.93968133 18.8560268 35.02386834 20.90290638 36.109375 22.94921875 C36.43871033 23.5796257 36.76804565 24.21003265 37.10736084 24.85954285 C39.08421606 28.56731278 41.2735642 31.80412924 44 35 C44.31638428 34.47269287 44.63276855 33.94538574 44.95874023 33.40209961 C45.40419189 32.65968018 45.84964355 31.91726074 46.30859375 31.15234375 C46.80270752 30.32573242 47.29682129 29.49912109 47.8059082 28.64746094 C48.90155599 26.82766588 50.00836118 25.01454584 51.12573242 23.20800781 C53.71040441 19.00014245 56.13511532 14.91499876 57.9921875 10.33203125 C61.44151432 2.29973484 61.44151432 2.29973484 65 0 C72.51608504 -1.7785836 80.40632541 -0.91824789 88 0 C87.33821959 3.64756213 85.77094439 6.27733199 83.82421875 9.41015625 C83.16647461 10.47395508 82.50873047 11.53775391 81.83105469 12.63378906 C81.11671972 13.77680726 80.40219764 14.91970854 79.6875 16.0625 C78.96088719 17.23251408 78.23465296 18.40276334 77.50878906 19.57324219 C75.34736115 23.05397155 73.17483434 26.52763053 71 30 C70.07598389 31.47605713 70.07598389 31.47605713 69.13330078 32.98193359 C59.47280712 48.39109166 59.47280712 48.39109166 56.88476562 51.72412109 C54.63073554 55.64181225 54.39798267 58.84296321 54.390625 63.2421875 C54.37408875 64.01055939 54.35755249 64.77893127 54.34051514 65.57058716 C54.29224065 68.00547439 54.27071129 70.43973811 54.25 72.875 C54.22182292 74.53388519 54.19189306 76.19274159 54.16015625 77.8515625 C54.08321081 81.90132269 54.04250631 85.94914893 54 90 C47.73 90 41.46 90 35 90 C35.1134375 87.84726563 35.226875 85.69453125 35.34375 83.4765625 C36.06056467 62.58432166 32.85770079 49.97413556 20.09619141 32.85986328 C16.9425183 28.55726291 14.17131825 24.03921966 11.375 19.5 C10.42124858 17.99093572 9.46563233 16.48304779 8.5078125 14.9765625 C0 1.52338483 0 1.52338483 0 0 Z " fill="#57058B" transform="translate(2566,954)"/>
<path d="M0 0 C3 1 3 1 4.28125 3.44921875 C9.11214022 16.28514179 11.80863975 28.23591915 11 42 C11.01160156 42.78375 11.02320313 43.5675 11.03515625 44.375 C10.83586337 46.86373055 10.49882481 47.97812489 9 50 C4.5761052 53.16251142 -0.14334536 55.57690051 -5 58 C-24.01992398 67.90828501 -38.15595262 79.72964224 -45.4375 100.3125 C-46.93134864 105.21521909 -47.65948676 109.89230139 -48 115 C-51.32567493 113.33716253 -51.84952723 109.64448603 -53.0625 106.3125 C-53.33126953 105.60416016 -53.60003906 104.89582031 -53.87695312 104.16601562 C-58.63595435 91.31315195 -58.70109465 77.5530314 -53 65 C-45.95584231 51.05756954 -35.08631642 39.80973447 -22.8125 30.375 C-12.06159693 22.05874384 -5.92305183 12.17851983 0 0 Z " fill="#FCFBFD" transform="translate(596,891)"/>
<path d="M0 0 C24.42 0 48.84 0 74 0 C74 5.94 74 11.88 74 18 C65.09 18 56.18 18 47 18 C47 41.76 47 65.52 47 90 C40.4 90 33.8 90 27 90 C27 66.24 27 42.48 27 18 C18.09 18 9.18 18 0 18 C0 12.06 0 6.12 0 0 Z " fill="#56058B" transform="translate(2473,956)"/>
<path d="M0 0 C3.48193616 2.77916005 4.86160022 6.70410246 6.5625 10.6875 C6.86607422 11.37005859 7.16964844 12.05261719 7.48242188 12.75585938 C8.37710593 14.82006508 9.20576911 16.8951896 10 19 C10.25974609 19.68320312 10.51949219 20.36640625 10.78710938 21.0703125 C11.9985539 24.8384474 12.13727179 26.6746431 10.5859375 30.3515625 C9.85632813 31.43179688 9.12671875 32.51203125 8.375 33.625 C1.06710728 45.28964201 -2.06109112 58.29421896 0 72 C2.18003152 81.14491957 6.61868312 89.11378772 13 96 C13.55558594 96.62261719 14.11117187 97.24523437 14.68359375 97.88671875 C18.46736093 101.91516372 22.59572015 104.91285365 27.27734375 107.8359375 C27.84582031 108.22007812 28.41429687 108.60421875 29 109 C29 109.33 29 109.66 29 110 C14.13800101 111.01331811 -0.80939661 107.49343407 -12.49609375 97.96484375 C-17.87299619 92.95876217 -21.303745 87.80936558 -24 81 C-24.47759766 79.84757813 -24.47759766 79.84757813 -24.96484375 78.671875 C-29.30983378 66.57798569 -27.78022138 52.4585286 -23.07421875 40.68359375 C-20.55073086 35.70085221 -17.06527126 31.55894141 -13.5625 27.25 C-6.94735317 19.10556284 -2.39379875 10.29333461 0 0 Z " fill="#FCFBFD" transform="translate(498,899)"/>
<path d="M0 0 C11.22 0 22.44 0 34 0 C32.8532173 17.20174056 32.8532173 17.20174056 31.73046875 25.11328125 C31.60946304 25.99932037 31.48845734 26.8853595 31.36378479 27.79824829 C31.10743458 29.67371656 30.84898284 31.54889871 30.58850098 33.42379761 C29.90014831 38.38250375 29.22886505 43.34350945 28.55859375 48.3046875 C28.42446075 49.29627365 28.29032776 50.2878598 28.15213013 51.30949402 C26.73613768 61.84609267 25.48927571 72.4005179 24.29370117 82.96411133 C23.87453058 86.64428302 23.44022918 90.32229358 23 94 C22.85240234 95.29953613 22.70480469 96.59907227 22.55273438 97.93798828 C22.39611328 99.19724121 22.23949219 100.45649414 22.078125 101.75390625 C21.9430957 102.88256104 21.80806641 104.01121582 21.66894531 105.17407227 C20.97018028 108.12597201 20.48545317 109.29704654 18 111 C13.57894737 110.57894737 13.57894737 110.57894737 12 109 C11.58000177 106.02142489 11.21869438 103.05429841 10.89257812 100.06494141 C10.78674911 99.12661469 10.6809201 98.18828796 10.57188416 97.2215271 C10.2207776 94.09866317 9.87596547 90.97513786 9.53125 87.8515625 C9.28880136 85.68212037 9.04599877 83.51271777 8.80285645 81.34335327 C8.29252037 76.78208964 7.7850312 72.22052162 7.27978516 67.65869141 C6.6346015 61.83352952 5.98472995 56.0089041 5.33298492 50.18447304 C4.70998513 44.61534643 4.08923969 39.04596925 3.46875 33.4765625 C3.35112808 32.42224659 3.23350616 31.36793068 3.11231995 30.2816658 C2.77613308 27.2642459 2.44152769 24.24665486 2.10742188 21.22900391 C1.96088417 19.91612396 1.96088417 19.91612396 1.81138611 18.57672119 C1.12858335 12.38796385 0.56398418 6.20382602 0 0 Z " fill="#FCFBFD" transform="translate(525,1038)"/>
<path d="M0 0 C7.26 0 14.52 0 22 0 C22 29.7 22 59.4 22 90 C14.74 90 7.48 90 0 90 C0 60.3 0 30.6 0 0 Z " fill="#57068C" transform="translate(1961,954)"/>
<path d="M0 0 C6.93 0 13.86 0 21 0 C21 29.7 21 59.4 21 90 C14.07 90 7.14 90 0 90 C0 60.3 0 30.6 0 0 Z " fill="#56058C" transform="translate(2425,954)"/>
<path d="M0 0 C18.15 0 36.3 0 55 0 C55 5.94 55 11.88 55 18 C36.85 18 18.7 18 0 18 C0 12.06 0 6.12 0 0 Z " fill="#F5F0F8" transform="translate(513,1014)"/>
</svg>
