<?xml version="1.0" encoding="UTF-8"?>
<svg version="1.1" xmlns="http://www.w3.org/2000/svg" width="252" height="208">
<path d="M0 0 C0.38768005 1.86140442 0.38768005 1.86140442 0.40405273 4.15161133 C0.41673691 5.01043411 0.42942108 5.8692569 0.44248962 6.75410461 C0.43955399 7.6873204 0.43661835 8.62053619 0.43359375 9.58203125 C0.4388356 10.54719162 0.44407745 11.51235199 0.44947815 12.50675964 C0.45591534 14.55877725 0.45453954 16.61083168 0.44604492 18.6628418 C0.43763632 21.762254 0.46610631 24.85975935 0.49804688 27.95898438 C0.56514235 46.5076038 -2.64280669 60.18471812 -15.5625 74.25 C-22.32524969 80.71378667 -32.12059666 86.9710259 -41.7265625 87.328125 C-50.78880918 86.02017187 -58.31684444 80.9735541 -65 75 C-65.62648438 74.45472656 -66.25296875 73.90945312 -66.8984375 73.34765625 C-76.3568713 64.57072532 -81.78686493 52.58484015 -82.3190918 39.72949219 C-82.44080219 33.713786 -82.3502481 27.70285863 -82.25 21.6875 C-82.229897 19.57879307 -82.21165298 17.47006756 -82.1953125 15.36132812 C-82.15163518 10.24041942 -82.0828186 5.12041912 -82 0 C-76.1837474 -3.07810338 -70.70138404 -5.64768689 -64.3125 -7.25 C-63.09175781 -7.56453125 -61.87101562 -7.8790625 -60.61328125 -8.203125 C-40.89313369 -12.552217 -17.20147559 -11.4676504 0 0 Z " fill="#9F1010" transform="translate(167,11)"/>
<path d="M0 0 C0 32.01 0 64.02 0 97 C-14.47415024 93.78352217 -24.54695014 86.48892854 -33.46484375 74.53515625 C-37.76806781 67.42881423 -41.13708331 58.8016583 -41.11352539 50.41503906 C-41.11344986 49.51440735 -41.11337433 48.61377563 -41.11329651 47.68585205 C-41.10813522 46.72217712 -41.10297394 45.7585022 -41.09765625 44.765625 C-41.0962413 43.77246277 -41.09482635 42.77930054 -41.09336853 41.75604248 C-41.08777588 38.58733088 -41.0752247 35.41869021 -41.0625 32.25 C-41.05748405 30.10026144 -41.05292131 27.95052177 -41.04882812 25.80078125 C-41.03780886 20.53383001 -41.021078 15.26692007 -41 10 C-35.1837474 6.92189662 -29.70138404 4.35231311 -23.3125 2.75 C-22.09175781 2.43546875 -20.87101562 2.1209375 -19.61328125 1.796875 C-12.80987488 0.29644808 -7.09119883 0 0 0 Z " fill="#990000" transform="translate(126,1)"/>
<path d="M0 0 C2.64 0 5.28 0 8 0 C9.62885718 8.37532947 11.14778719 16.75279587 12.4375 25.1875 C13.44708359 31.75943058 14.59818046 38.28737667 15.875 44.8125 C18.54936582 58.48910388 20.75308516 72.24804898 23 86 C18.42842101 89.62424908 14.15463886 92.70516279 8.6875 94.875 C7.68074219 95.28492187 6.67398438 95.69484375 5.63671875 96.1171875 C3 97 3 97 0 97 C0 64.99 0 32.98 0 0 Z " fill="#F8EDED" transform="translate(126,1)"/>
<path d="M0 0 C2.475 0.495 2.475 0.495 5 1 C8.44597541 11.46818648 11.5769167 21.9298984 14.17236328 32.64208984 C15.50180938 38.09740314 16.95831375 43.49412557 18.5625 48.875 C18.76705811 49.56384277 18.97161621 50.25268555 19.18237305 50.96240234 C20.18219839 54.31167734 21.20255909 57.65385508 22.23828125 60.9921875 C22.80095703 62.85230469 22.80095703 62.85230469 23.375 64.75 C23.88160156 66.38195312 23.88160156 66.38195312 24.3984375 68.046875 C25.04394738 71.21574169 25.04196965 72.95424256 24 76 C22.4765625 78.203125 22.4765625 78.203125 20.625 80.25 C20.01914063 80.93578125 19.41328125 81.6215625 18.7890625 82.328125 C17 84 17 84 14 85 C13.90643723 84.44671021 13.81287445 83.89342041 13.71647644 83.32336426 C12.72829488 77.48140027 11.73810339 71.63977933 10.74682617 65.79833984 C10.3788141 63.62817702 10.01128767 61.45793177 9.64428711 59.28759766 C7.10442013 44.23344495 7.10442013 44.23344495 4.34375 29.21875 C3.12758065 22.83313526 2.14323439 16.44613567 1.3125 10 C1.18294922 9.02289063 1.05339844 8.04578125 0.91992188 7.0390625 C0.60943799 4.69318424 0.30277137 2.34688377 0 0 Z " fill="#F8EEEE" transform="translate(134,1)"/>
<path d="M0 0 C3.89569135 -0.08732726 7.79112982 -0.14050185 11.6875 -0.1875 C12.79029297 -0.21263672 13.89308594 -0.23777344 15.02929688 -0.26367188 C16.09599609 -0.27333984 17.16269531 -0.28300781 18.26171875 -0.29296875 C19.24100342 -0.3086792 20.22028809 -0.32438965 21.22924805 -0.34057617 C24.4966933 0.06105271 26.35539654 1.07199121 29 3 C30.55024464 6.10048928 30.28992015 8.57894218 30 12 C28 14.9375 28 14.9375 26 17 C26.61875 17.2475 27.2375 17.495 27.875 17.75 C30.52534901 19.30902883 31.14374887 20.04204154 32 23 C32.16285945 27.39720518 31.78525836 30.14930345 28.75 33.4375 C24.55959339 35.81841285 20.67793729 36.12685851 15.91796875 36.09765625 C14.98662109 36.09443359 14.05527344 36.09121094 13.09570312 36.08789062 C11.65614258 36.07532227 11.65614258 36.07532227 10.1875 36.0625 C8.71893555 36.05573242 8.71893555 36.05573242 7.22070312 36.04882812 C4.81373889 36.03708684 2.40690143 36.02066419 0 36 C0 34.68 0 33.36 0 32 C1.65 32 3.3 32 5 32 C5 22.43 5 12.86 5 3 C3.35 3 1.7 3 0 3 C0 2.01 0 1.02 0 0 Z M12 3 C12 7.29 12 11.58 12 16 C13.44375 15.87625 14.8875 15.7525 16.375 15.625 C17.18710938 15.55539063 17.99921875 15.48578125 18.8359375 15.4140625 C21.20334191 15.17107412 21.20334191 15.17107412 23 13 C23.50007794 9.54213985 23.50007794 9.54213985 23 6 C21.53958234 3.88329643 21.53958234 3.88329643 19 3 C15.33285151 2.74936268 15.33285151 2.74936268 12 3 Z M12 19 C12 23.29 12 27.58 12 32 C13.588125 32.0825 15.17625 32.165 16.8125 32.25 C18.15248047 32.31960937 18.15248047 32.31960937 19.51953125 32.390625 C22.12216522 32.22600531 22.12216522 32.22600531 23.83203125 30.2109375 C25.59331075 26.87687664 24.9238665 24.56348508 24 21 C19.7975546 18.19836974 16.99895065 18.85510288 12 19 Z " fill="#000000" transform="translate(126,114)"/>
<path d="M0 0 C0.99 0 1.98 0 3 0 C3 2.97 3 5.94 3 9 C9.27 9 15.54 9 22 9 C22 9.99 22 10.98 22 12 C21.34 12 20.68 12 20 12 C21.32 15.3 22.64 18.6 24 22 C25.94268841 19.08596738 27.46395304 16.14191424 29 13 C28.01 12.67 27.02 12.34 26 12 C26 11.01 26 10.02 26 9 C29.3 9 32.6 9 36 9 C35.67 10.32 35.34 11.64 35 13 C34.34 13.33 33.68 13.66 33 14 C31.84351827 16.22757764 31.84351827 16.22757764 30.7578125 18.953125 C30.33113281 19.96503906 29.90445313 20.97695312 29.46484375 22.01953125 C28.57829046 24.15708102 27.69285629 26.29509532 26.80859375 28.43359375 C26.37933594 29.45066406 25.95007813 30.46773437 25.5078125 31.515625 C25.12254395 32.44665039 24.73727539 33.37767578 24.34033203 34.33691406 C22.86005237 37.27805989 21.22838668 39.5774918 19 42 C15.35814676 43.0405295 13.60702852 43.20234284 10 42 C9.375 39.625 9.375 39.625 9 37 C9.66 36.34 10.32 35.68 11 35 C13.5625 35.25 13.5625 35.25 16 36 C16.33 36.66 16.66 37.32 17 38 C19.02426226 35.24700333 20.06094354 33.74522184 19.77734375 30.27734375 C18.28676068 23.99292567 15.74540313 18.24908247 12 13 C8.57503885 11.43135694 6.84128154 11.64542017 3 12 C3 17.61 3 23.22 3 29 C4.32 29 5.64 29 7 29 C7.33 27.02 7.66 25.04 8 23 C8.99 23 9.98 23 11 23 C11.21231713 26.11398457 11.21590497 28.45304074 10.0625 31.375 C7.13825494 33.67895066 4.69210174 33.4395601 1.05859375 33.43359375 C-1 33 -1 33 -3 30 C-3.22705078 28.00708008 -3.22705078 28.00708008 -3.1953125 25.76953125 C-3.18886719 24.96708984 -3.18242187 24.16464844 -3.17578125 23.33789062 C-3.15902344 22.50451172 -3.14226562 21.67113281 -3.125 20.8125 C-3.11597656 19.96751953 -3.10695312 19.12253906 -3.09765625 18.25195312 C-3.07410703 16.16784757 -3.03823647 14.08388783 -3 12 C-4.32 12 -5.64 12 -7 12 C-6 9 -6 9 -4.0625 7.6875 C-1.35105287 5.46904326 -0.88674882 3.32530806 0 0 Z " fill="#990000" transform="translate(196,165)"/>
<path d="M0 0 C4.33333333 0 8.66666667 0 13 0 C13.9590625 -0.05220703 13.9590625 -0.05220703 14.9375 -0.10546875 C20.53753974 -0.3281976 20.53753974 -0.3281976 22.9375 1.375 C25.30791615 5.00034235 25.32508981 8.4061041 25.5625 12.625 C25.60568359 13.33140625 25.64886719 14.0378125 25.69335938 14.765625 C25.79944751 16.51018537 25.90022889 18.25506697 26 20 C27.65 20 29.3 20 31 20 C31.33 14.39 31.66 8.78 32 3 C30.68 3 29.36 3 28 3 C28 2.01 28 1.02 28 0 C31.3 0 34.6 0 38 0 C38.33 6.6 38.66 13.2 39 20 C39.66 20.33 40.32 20.66 41 21 C41 21.99 41 22.98 41 24 C32.75 24 24.5 24 16 24 C16 23.01 16 22.02 16 21 C16.66 20.67 17.32 20.34 18 20 C18 15.05 18 10.1 18 5 C16.35 5 14.7 5 13 5 C10.64880601 8.52679099 10.78556548 10.02879485 10.875 14.1875 C10.90207031 15.81751953 10.90207031 15.81751953 10.9296875 17.48046875 C10.95289063 18.31191406 10.97609375 19.14335937 11 20 C11.66 20.33 12.32 20.66 13 21 C13 21.99 13 22.98 13 24 C9.04 24 5.08 24 1 24 C1 23.01 1 22.02 1 21 C1.66 20.67 2.32 20.34 3 20 C3.33 14.39 3.66 8.78 4 3 C2.68 3 1.36 3 0 3 C0 2.01 0 1.02 0 0 Z " fill="#990000" transform="translate(53,174)"/>
<path d="M0 0 C0.99 0 1.98 0 3 0 C3 2.97 3 5.94 3 9 C5.31 9 7.62 9 10 9 C10 9.99 10 10.98 10 12 C7.36 12 4.72 12 2 12 C2.33 17.61 2.66 23.22 3 29 C4.32 29 5.64 29 7 29 C7.33 27.02 7.66 25.04 8 23 C8.99 23 9.98 23 11 23 C11.0825 21.783125 11.165 20.56625 11.25 19.3125 C11.75252176 15.20493085 13.03023215 12.96976785 16 10 C19.71710563 8.14144718 23.95277281 8.42091561 28 9 C31.34625024 11.52676039 32.67977847 13.03933542 34 17 C34.36928024 22.63152372 34.14319824 26.11058051 31 31 C26.76447144 33.82368571 22.97522686 33.66653757 18 33 C15.06576805 31.20353146 13.52794645 30.0558929 12 27 C11.54625 27.804375 11.0925 28.60875 10.625 29.4375 C9 32 9 32 7 33 C5.125 33.203125 5.125 33.203125 3 33.25 C2.29875 33.27578125 1.5975 33.3015625 0.875 33.328125 C0.25625 33.21984375 -0.3625 33.1115625 -1 33 C-3.06723714 29.89914429 -3.24497423 29.27068319 -3.1953125 25.76953125 C-3.18886719 24.96708984 -3.18242187 24.16464844 -3.17578125 23.33789062 C-3.15902344 22.50451172 -3.14226563 21.67113281 -3.125 20.8125 C-3.11597656 19.96751953 -3.10695313 19.12253906 -3.09765625 18.25195312 C-3.07410703 16.16784757 -3.03823647 14.08388783 -3 12 C-4.32 12 -5.64 12 -7 12 C-6 9 -6 9 -4.0625 7.6875 C-1.35105287 5.46904326 -0.88674882 3.32530806 0 0 Z M18 14 C16.85887262 19.19949168 16.23998264 24.24663677 19 29 C20.04862094 30.25156054 20.04862094 30.25156054 22.375 30.3125 C25.08653221 30.27101404 25.08653221 30.27101404 26.640625 28.29296875 C28.21895172 25.63067626 28.40310598 24.0729206 28.375 21 C28.38273437 20.154375 28.39046875 19.30875 28.3984375 18.4375 C27.92111235 15.51739321 27.03360854 14.12582468 25 12 C21.51617922 11.49017257 20.53475768 11.46524232 18 14 Z " fill="#000000" transform="translate(34,117)"/>
<path d="M0 0 C2.74818774 1.33298999 2.74818774 1.33298999 7.375 -0.0625 C7.375 4.2275 7.375 8.5175 7.375 12.9375 C6.385 12.9375 5.395 12.9375 4.375 12.9375 C3.941875 12.009375 3.50875 11.08125 3.0625 10.125 C1.23597979 6.5395312 1.23597979 6.5395312 -1.625 3.9375 C-5.22540463 3.03739884 -7.07526831 2.7542561 -10.625 3.9375 C-10.955 6.2475 -11.285 8.5575 -11.625 10.9375 C-10.82835937 11.11925781 -10.03171875 11.30101563 -9.2109375 11.48828125 C4.55543973 14.75402767 4.55543973 14.75402767 8.25 19.1875 C9.70517877 22.74460366 9.84388682 25.11942158 9.375 28.9375 C6.29807692 34.47596154 6.29807692 34.47596154 3.375 35.9375 C1.25264193 36.0604938 -0.87411463 36.11305682 -3 36.125 C-4.71316406 36.14626953 -4.71316406 36.14626953 -6.4609375 36.16796875 C-9.46436816 35.94920034 -11.10425934 35.50830637 -13.625 33.9375 C-13.625 34.5975 -13.625 35.2575 -13.625 35.9375 C-14.615 35.9375 -15.605 35.9375 -16.625 35.9375 C-17.94786246 30.97676578 -17.71393197 26.02638488 -17.625 20.9375 C-15.71875 21.2265625 -15.71875 21.2265625 -13.625 21.9375 C-12.59398053 24.25729381 -11.59563483 26.59179915 -10.625 28.9375 C-8.10668141 31.72563844 -6.8531079 31.91348864 -3.0625 32.3125 C0.24781147 32.18639371 0.24781147 32.18639371 2.3125 30.8125 C3.80306408 28.1820928 3.44352468 25.91227734 3.375 22.9375 C2.58996094 22.76734375 1.80492188 22.5971875 0.99609375 22.421875 C-5.19652791 20.99339295 -10.37010339 19.55753989 -15.625 15.9375 C-17.35507568 12.47734865 -17.1085273 8.72077445 -16.625 4.9375 C-12.80955505 -1.37771922 -6.88436492 -2.78652866 0 0 Z " fill="#000000" transform="translate(18.625,114.0625)"/>
<path d="M0 0 C0.33 6.93 0.66 13.86 1 21 C2.32 19.68 3.64 18.36 5 17 C4.01 16.67 3.02 16.34 2 16 C2 15.01 2 14.02 2 13 C6.62 13 11.24 13 16 13 C16 13.99 16 14.98 16 16 C14.6078125 16.6496875 14.6078125 16.6496875 13.1875 17.3125 C10.47033617 18.7509985 9.03268761 19.82081239 7 22 C8.07218761 23.63237552 9.15821244 25.25566803 10.25 26.875 C10.85328125 27.77992188 11.4565625 28.68484375 12.078125 29.6171875 C13.96990937 31.96269251 15.22728914 32.932629 18 34 C18 34.99 18 35.98 18 37 C13.71 37 9.42 37 5 37 C5.33 35.35 5.66 33.7 6 32 C4.62831762 29.80961577 4.62831762 29.80961577 3 28 C3 27.34 3 26.68 3 26 C2.34 26.33 1.68 26.66 1 27 C1 28.98 1 30.96 1 33 C1.66 33.33 2.32 33.66 3 34 C3 34.99 3 35.98 3 37 C-1.29 37 -5.58 37 -10 37 C-10 36.01 -10 35.02 -10 34 C-8.02 33.505 -8.02 33.505 -6 33 C-6 23.43 -6 13.86 -6 4 C-7.32 4 -8.64 4 -10 4 C-10 3.01 -10 2.02 -10 1 C-8 0 -8 0 0 0 Z " fill="#000000" transform="translate(233,113)"/>
<path d="M0 0 C5.61 0 11.22 0 17 0 C17 0.99 17 1.98 17 3 C15.35 3 13.7 3 12 3 C12.02274013 7.2720236 12.09996726 11.54135129 12.1875 15.8125 C12.19330078 17.02744141 12.19910156 18.24238281 12.20507812 19.49414062 C12.23408203 20.65751953 12.26308594 21.82089844 12.29296875 23.01953125 C12.31653442 24.62985229 12.31653442 24.62985229 12.34057617 26.27270508 C12.74953214 29.20719678 12.74953214 29.20719678 15.40869141 30.86474609 C19.43287635 32.62774402 21.74147225 31.9075551 26 31 C29.64501124 27.35498876 29.12816757 22.555337 29.13671875 17.6640625 C29.13091797 16.53097656 29.13091797 16.53097656 29.125 15.375 C29.12886719 14.611875 29.13273437 13.84875 29.13671875 13.0625 C29.13097136 9.78648638 29.04287441 7.12862324 28 4 C25.98491642 3.26676204 25.98491642 3.26676204 24 3 C24 2.01 24 1.02 24 0 C28.62 0 33.24 0 38 0 C38 0.99 38 1.98 38 3 C36.35 3.33 34.7 3.66 33 4 C33.01571045 4.69561035 33.0314209 5.3912207 33.04760742 6.10791016 C33.11022863 9.28018971 33.14907677 12.45233885 33.1875 15.625 C33.21263672 16.71941406 33.23777344 17.81382812 33.26367188 18.94140625 C33.35925518 29.4555694 33.35925518 29.4555694 30 34 C26.69379388 36.54776685 23.12700583 36.33162214 19.0625 36.375 C17.25458984 36.41753906 17.25458984 36.41753906 15.41015625 36.4609375 C11.32869208 35.90926193 9.7885857 35.0030923 7 32 C4.11723415 26.45887523 4.77755531 20.2115451 4.875 14.125 C4.88402344 13.05507812 4.89304687 11.98515625 4.90234375 10.8828125 C4.92580658 8.25497561 4.95863541 5.62760594 5 3 C3.35 3 1.7 3 0 3 C0 2.01 0 1.02 0 0 Z " fill="#990000" transform="translate(19,162)"/>
<path d="M0 0 C0.66 0 1.32 0 2 0 C3.62885718 8.37532947 5.14778719 16.75279587 6.4375 25.1875 C7.44711257 31.75961923 8.6024131 38.28646197 9.875 44.8125 C10.20390218 46.54802998 10.53199135 48.28371418 10.859375 50.01953125 C11.6000127 53.94586062 12.37622426 57.86354747 13.17001343 61.77946472 C13.7140615 64.50529892 14.22850749 67.2362427 14.73736572 69.96884155 C14.99438731 71.31560471 15.26328088 72.6601599 15.54437256 74.00210571 C17.77018398 84.67744868 17.77018398 84.67744868 15.84667969 87.98046875 C13.71272384 89.83517901 11.87910226 91 9 91 C6.54149658 70.3106314 4.10701709 49.6183823 1.95007324 28.89505005 C1.77642343 27.22844371 1.60123705 25.56199669 1.42443848 23.89572144 C0.58077979 15.91955935 -0.24818903 8.03397074 0 0 Z " fill="#FAF2F2" transform="translate(132,1)"/>
<path d="M0 0 C0.99 0 1.98 0 3 0 C3.13051758 1.27077393 3.26103516 2.54154785 3.39550781 3.85083008 C4.01121117 9.83830828 4.63027371 15.82543701 5.25 21.8125 C5.36193695 22.89556427 5.4738739 23.97862854 5.58920288 25.09451294 C6.74813193 36.29044548 7.9166666 47.48419378 9.22265625 58.6640625 C9.31628448 59.46710312 9.40991272 60.27014374 9.50637817 61.09751892 C9.93960922 64.79824382 10.38032102 68.49790058 10.83105469 72.1965332 C11.62139642 78.85241006 12.19866642 85.29684796 12 92 C9.03 92.99 9.03 92.99 6 94 C5.15256842 89.41231523 4.71298236 84.86003074 4.42749023 80.2097168 C4.37857635 79.4527652 4.32966248 78.6958136 4.27926636 77.91592407 C4.11929222 75.42720816 3.96380107 72.93823615 3.80859375 70.44921875 C3.69810958 68.70814339 3.58743455 66.96708012 3.47657776 65.22602844 C3.24516807 61.58057712 3.01596057 57.93499584 2.78833008 54.28930664 C2.49760639 49.63569748 2.20159961 44.98244264 1.90394497 40.32927227 C1.67451748 36.73386058 1.44783683 33.13827966 1.22197151 29.54264259 C1.11394975 27.82792815 1.00511125 26.11326494 0.89541435 24.39865685 C-0.15529723 7.92932756 -0.15529723 7.92932756 0 0 Z " fill="#9D0C0C" transform="translate(129,1)"/>
<path d="M0 0 C0.66 0 1.32 0 2 0 C5.50326112 13.42554106 8.57518358 26.95314131 11.5607605 40.50183105 C12.38224372 44.22786147 13.21446827 47.95099079 14.06542969 51.67041016 C14.95946363 55.58039357 15.82994053 59.49498433 16.68515015 63.41363525 C17.01872352 64.92354059 17.3603236 66.43169608 17.71011353 67.93792725 C18.19704794 70.04172498 18.65448869 72.14996618 19.10546875 74.26171875 C19.37512451 75.46787842 19.64478027 76.67403809 19.92260742 77.91674805 C20 81 20 81 18.1809082 83.42114258 C16 85 16 85 14 85 C13.90643723 84.44671021 13.81287445 83.89342041 13.71647644 83.32336426 C12.72829488 77.48140027 11.73810339 71.63977933 10.74682617 65.79833984 C10.3788141 63.62817702 10.01128767 61.45793177 9.64428711 59.28759766 C7.10442013 44.23344495 7.10442013 44.23344495 4.34375 29.21875 C3.12758065 22.83313526 2.14323439 16.44613567 1.3125 10 C1.18294922 9.02289063 1.05339844 8.04578125 0.91992188 7.0390625 C0.60943799 4.69318424 0.30277137 2.34688377 0 0 Z " fill="#9F0F0F" transform="translate(134,1)"/>
<path d="M0 0 C4 0 8 0 12 0 C13.98853612 -0.12625626 15.97707974 -0.25274542 17.96484375 -0.390625 C21.12880771 0.21666175 22.15418147 1.38065664 24 4 C24.2906124 6.89449949 24.38186045 9.37949935 24.25 12.25 C24.23195313 12.99507812 24.21390625 13.74015625 24.1953125 14.5078125 C24.14835649 16.33909701 24.07661652 18.16971649 24 20 C25.32 20.33 26.64 20.66 28 21 C28 21.99 28 22.98 28 24 C23.71 24 19.42 24 15 24 C15 23.01 15 22.02 15 21 C16.32 20.67 17.64 20.34 19 20 C18.85930804 17.87465341 18.71229079 15.74972471 18.5625 13.625 C18.48128906 12.44164062 18.40007812 11.25828125 18.31640625 10.0390625 C18.18915064 7.08481099 18.18915064 7.08481099 17 5 C14.58380177 4.74969023 14.58380177 4.74969023 12 5 C9.73045369 8.40431947 9.63450051 10.16524202 9.375 14.1875 C9.30023438 15.27417969 9.22546875 16.36085937 9.1484375 17.48046875 C9.09945312 18.31191406 9.05046875 19.14335937 9 20 C10.32 20.33 11.64 20.66 13 21 C13 21.99 13 22.98 13 24 C8.71 24 4.42 24 0 24 C0 23.01 0 22.02 0 21 C1.32 20.67 2.64 20.34 4 20 C3.67 14.72 3.34 9.44 3 4 C2.01 3.67 1.02 3.34 0 3 C0 2.01 0 1.02 0 0 Z " fill="#000000" transform="translate(68,126)"/>
<path d="M0 0 C3.96 0 7.92 0 12 0 C12 0.99 12 1.98 12 3 C11.34 3 10.68 3 10 3 C11.32 6.3 12.64 9.6 14 13 C15.77706209 10.33440687 16.87548273 7.9719385 18 5 C17.34 4.34 16.68 3.68 16 3 C16 2.01 16 1.02 16 0 C19.3 0 22.6 0 26 0 C25.67 1.32 25.34 2.64 25 4 C24.01 4.495 24.01 4.495 23 5 C21.84351827 7.22757764 21.84351827 7.22757764 20.7578125 9.953125 C20.33113281 10.96503906 19.90445313 11.97695312 19.46484375 13.01953125 C18.57829046 15.15708102 17.69285629 17.29509532 16.80859375 19.43359375 C16.37933594 20.45066406 15.95007813 21.46773437 15.5078125 22.515625 C15.12254395 23.44665039 14.73727539 24.37767578 14.34033203 25.33691406 C12.86005237 28.27805989 11.22838668 30.5774918 9 33 C5.35814676 34.0405295 3.60702852 34.20234284 0 33 C-0.625 30.625 -0.625 30.625 -1 28 C-0.34 27.34 0.32 26.68 1 26 C3.5625 26.25 3.5625 26.25 6 27 C6.33 27.66 6.66 28.32 7 29 C9.01830442 26.25510599 10.05274182 24.73522092 9.8046875 21.27734375 C8.8690649 17.46672549 7.35149315 14.15253562 5.5625 10.6875 C5.24990234 10.05521484 4.93730469 9.42292969 4.61523438 8.77148438 C2.98166575 5.26308521 2.98166575 5.26308521 0 3 C0 2.01 0 1.02 0 0 Z " fill="#000000" transform="translate(93,126)"/>
<path d="M0 0 C3 1.4375 3 1.4375 5 4 C5.70121335 7.06319516 5.86032055 9.83393252 6 13 C0.72 13 -4.56 13 -10 13 C-7.81453197 18.91314023 -7.81453197 18.91314023 -4.625 20.125 C-1.04370577 19.95446218 0.34594603 18.30483634 3 16 C3.99 16 4.98 16 6 16 C5.69025617 18.89094238 4.95829554 20.04691751 3 22.25 C-1.07880642 24.62930375 -4.38182981 24.82138054 -9 24 C-12.39635488 22.12116539 -13.64790119 20.70419763 -15.375 17.25 C-16.42047755 11.81351675 -16.14355171 7.73377194 -13.0625 3.0625 C-9.19487089 -0.80512911 -5.23375363 -0.61467227 0 0 Z M-9 5 C-9.64767793 7.57061311 -9.64767793 7.57061311 -10 10 C-6.7 10 -3.4 10 0 10 C-0.27540704 6.18186553 -0.27540704 6.18186553 -2 3 C-5.961168 2.60909667 -5.961168 2.60909667 -9 5 Z " fill="#990000" transform="translate(132,174)"/>
<path d="M0 0 C3.4569073 1.87249145 4.62931689 3.25863377 6.375 6.75 C7.42047755 12.18648325 7.14355171 16.26622806 4.0625 20.9375 C1.10371926 23.89628074 -0.72211901 24.21555486 -4.8125 24.375 C-8.81089176 24.34610989 -9.73676341 24.19877048 -13.0625 21.6875 C-16.19774753 17.33860827 -16.56384891 13.23291353 -16 8 C-12.82338165 -0.16844719 -8.12670958 -1.03855713 0 0 Z M-8.640625 4.70703125 C-10.21895172 7.36932374 -10.40310598 8.9270794 -10.375 12 C-10.38273438 12.845625 -10.39046875 13.69125 -10.3984375 14.5625 C-9.92111235 17.48260679 -9.03360854 18.87417532 -7 21 C-4.45741537 21.50014953 -4.45741537 21.50014953 -2 21 C1.2603722 17.7396278 0.95786886 13.4659007 1 9 C0.05993155 5.65775212 0.05993155 5.65775212 -2 3 C-5.7563419 2.49611711 -5.7563419 2.49611711 -8.640625 4.70703125 Z " fill="#000000" transform="translate(194,126)"/>
<path d="M0 0 C2.82424288 2.19022918 4.41508603 3.83017207 6 7 C6.52802088 11.81278044 6.85640895 16.38923205 4.125 20.5625 C1.89284028 23.12291851 1.09716319 23.86406828 -2.20703125 24.2734375 C-9.29132231 24.54958678 -9.29132231 24.54958678 -13.0625 21.625 C-16.57477085 16.86643949 -16.66739992 12.81082861 -16 7 C-12.87134838 -0.42869414 -7.38848163 -1.06877407 0 0 Z M-8 3 C-10.30821663 6.46232494 -10.27000989 7.91798316 -10.25 12 C-10.25515625 13.051875 -10.2603125 14.10375 -10.265625 15.1875 C-10.20467017 18.20650379 -10.20467017 18.20650379 -8 21 C-5 21.5 -5 21.5 -2 21 C0.30821663 17.53767506 0.27000989 16.08201684 0.25 12 C0.25515625 10.948125 0.2603125 9.89625 0.265625 8.8125 C0.20467017 5.79349621 0.20467017 5.79349621 -2 3 C-5 2.5 -5 2.5 -8 3 Z " fill="#000000" transform="translate(218,126)"/>
<path d="M0 0 C1.90845703 0.04060547 1.90845703 0.04060547 3.85546875 0.08203125 C5.31919922 0.13423828 5.31919922 0.13423828 6.8125 0.1875 C6.8125 3.1575 6.8125 6.1275 6.8125 9.1875 C5.8225 9.1875 4.8325 9.1875 3.8125 9.1875 C3.379375 8.3625 2.94625 7.5375 2.5 6.6875 C1.943125 5.8625 1.38625 5.0375 0.8125 4.1875 C-2.31385209 3.77003392 -2.31385209 3.77003392 -5.1875 4.1875 C-5.1875 5.1775 -5.1875 6.1675 -5.1875 7.1875 C-4.15689453 7.46013672 -4.15689453 7.46013672 -3.10546875 7.73828125 C-2.20441406 7.98964844 -1.30335938 8.24101562 -0.375 8.5 C0.51832031 8.74363281 1.41164062 8.98726562 2.33203125 9.23828125 C4.91825708 10.22797082 6.16736354 10.97969472 7.8125 13.1875 C8.19475342 16.69148971 8.28954296 19.17802707 6.76953125 22.39453125 C4.30186592 24.65532643 2.48711118 24.60225698 -0.78320312 24.5390625 C-1.81864258 24.48878906 -1.81864258 24.48878906 -2.875 24.4375 C-3.9278418 24.41042969 -3.9278418 24.41042969 -5.00195312 24.3828125 C-6.73105436 24.33576213 -8.45945205 24.26401873 -10.1875 24.1875 C-10.1875 20.8875 -10.1875 17.5875 -10.1875 14.1875 C-9.1975 14.1875 -8.2075 14.1875 -7.1875 14.1875 C-6.5275 16.1675 -5.8675 18.1475 -5.1875 20.1875 C-2.5475 20.1875 0.0925 20.1875 2.8125 20.1875 C3.1425 18.8675 3.4725 17.5475 3.8125 16.1875 C3.20921875 16.06632813 2.6059375 15.94515625 1.984375 15.8203125 C0.78554687 15.56894531 0.78554687 15.56894531 -0.4375 15.3125 C-1.22640625 15.15007812 -2.0153125 14.98765625 -2.828125 14.8203125 C-5.18353118 14.18856448 -7.09559364 13.43709008 -9.1875 12.1875 C-10.71241998 9.13766004 -10.42312548 6.5451631 -10.1875 3.1875 C-7.70608912 -0.79366471 -4.32416783 -0.11901379 0 0 Z " fill="#990000" transform="translate(169.1875,173.8125)"/>
<path d="M0 0 C0.99 0 1.98 0 3 0 C5.47210423 7.51602879 7.93299355 15.03560081 10.38006496 22.55981255 C11.51696228 26.05435977 12.65752932 29.5476144 13.80688477 33.03808594 C14.91814246 36.41333368 16.01923442 39.79174926 17.11366463 43.17248917 C17.7321873 45.07442565 18.36090611 46.97303667 18.98985291 48.87155151 C23.63970547 63.30420037 23.63970547 63.30420037 23 69 C21.50291443 70.76998901 21.50291443 70.76998901 20 72 C16.89631426 64.44018446 14.8531883 56.7371294 12.92480469 48.8190918 C11.55652591 43.20738397 10.11870294 37.6250845 8.5625 32.0625 C8.36253418 31.34763428 8.16256836 30.63276855 7.95654297 29.89624023 C6.77124236 25.6852057 5.5637361 21.48071336 4.3515625 17.27734375 C3.93668579 15.83572876 3.93668579 15.83572876 3.51342773 14.36499023 C2.97140257 12.4848054 2.42673033 10.60538124 1.87915039 8.72680664 C1.51164673 7.4543811 1.51164673 7.4543811 1.13671875 6.15625 C0.91717529 5.40150391 0.69763184 4.64675781 0.47143555 3.86914062 C0 2 0 2 0 0 Z " fill="#A01313" transform="translate(139,2)"/>
<path d="M0 0 C1.5240413 0.40477556 3.04409347 0.82457462 4.5625 1.25 C5.83287109 1.59804687 5.83287109 1.59804687 7.12890625 1.953125 C10 3 10 3 17 7 C17 16.24 17 25.48 17 35 C14.34186018 31.45581358 12.55951008 28.29887604 10.64453125 24.3359375 C10.33803146 23.70265533 10.03153168 23.06937317 9.71574402 22.41690063 C9.07245743 21.08494387 8.43132555 19.75194454 7.79223633 18.41796875 C6.81103844 16.37195231 5.82105316 14.33035826 4.83007812 12.2890625 C4.20520088 10.99244196 3.58083388 9.69557537 2.95703125 8.3984375 C2.38960205 7.21942871 1.82217285 6.04041992 1.23754883 4.82568359 C0 2 0 2 0 0 Z " fill="#9A0404" transform="translate(150,4)"/>
<path d="M0 0 C0.99 0.33 1.98 0.66 3 1 C4.03875742 3.44215241 4.88750971 5.79152219 5.6875 8.3125 C7.91150393 14.9731358 10.34466122 21.49934665 13 28 C24.69819563 56.79298007 24.69819563 56.79298007 22.5625 62.6875 C22.13130859 63.89986328 22.13130859 63.89986328 21.69140625 65.13671875 C21.46324219 65.75160156 21.23507813 66.36648437 21 67 C19.33344429 63.88666683 18.20243565 60.77275124 17.13647461 57.40869141 C16.60098244 55.72641953 16.60098244 55.72641953 16.05467224 54.01016235 C15.67440384 52.8028244 15.29413544 51.59548645 14.90234375 50.3515625 C14.50801651 49.10627777 14.11368927 47.86099304 13.70741272 46.57797241 C12.87392411 43.94428005 12.04292962 41.30981677 11.21362305 38.67480469 C10.15392957 35.30862991 9.08756158 31.94461365 8.01923275 28.58117104 C6.99723865 25.36001879 5.98135326 22.13694976 4.96484375 18.9140625 C4.58255112 17.71077301 4.20025848 16.50748352 3.80638123 15.26773071 C3.4525386 14.1399118 3.09869598 13.0120929 2.73413086 11.85009766 C2.42261581 10.86288727 2.11110077 9.87567688 1.79014587 8.85855103 C0.97768508 5.91927016 0.44812993 3.01452719 0 0 Z " fill="#F9F1F1" transform="translate(142,2)"/>
<path d="M0 0 C3.96 0 7.92 0 12 0 C11.773125 1.03125 11.54625 2.0625 11.3125 3.125 C10.96098535 7.4837817 11.76055351 9.32730775 14 13 C16.46278801 10.53721199 16.99771255 8.29323018 18 5 C17.34 4.34 16.68 3.68 16 3 C16 2.01 16 1.02 16 0 C19.3 0 22.6 0 26 0 C25.67 1.32 25.34 2.64 25 4 C24.01 4.495 24.01 4.495 23 5 C21.97255095 6.91859405 21.97255095 6.91859405 21.0546875 9.25390625 C20.70019531 10.10791016 20.34570312 10.96191406 19.98046875 11.84179688 C19.61566406 12.73962891 19.25085938 13.63746094 18.875 14.5625 C18.50246094 15.46419922 18.12992188 16.36589844 17.74609375 17.29492188 C16.82469328 19.52754609 15.90963984 21.76256414 15 24 C13.12719727 23.74780273 13.12719727 23.74780273 11 23 C9.85913086 21.26586914 9.85913086 21.26586914 8.96484375 19.03515625 C8.63033203 18.23529297 8.29582031 17.43542969 7.95117188 16.61132812 C7.61666016 15.77021484 7.28214844 14.92910156 6.9375 14.0625 C6.26729536 12.40422224 5.58922569 10.7490958 4.90234375 9.09765625 C4.60835693 8.36039307 4.31437012 7.62312988 4.01147461 6.86352539 C3.00737421 4.66788134 3.00737421 4.66788134 0 3 C0 2.01 0 1.02 0 0 Z " fill="#990000" transform="translate(92,174)"/>
<path d="M0 0 C2.97 0 5.94 0 9 0 C9.33 0.66 9.66 1.32 10 2 C10.66 1.34 11.32 0.68 12 0 C15.5625 -0.1875 15.5625 -0.1875 19 0 C20 1 20 1 20.0625 4.0625 C20.041875 5.031875 20.02125 6.00125 20 7 C18.35 7.33 16.7 7.66 15 8 C14.67 6.68 14.34 5.36 14 4 C13.34 4 12.68 4 12 4 C10.29915181 9.32932432 9.47986031 14.43109483 9 20 C10.65 20.33 12.3 20.66 14 21 C14 21.99 14 22.98 14 24 C9.38 24 4.76 24 0 24 C0 23.01 0 22.02 0 21 C1.32 20.67 2.64 20.34 4 20 C3.67 14.72 3.34 9.44 3 4 C2.01 3.67 1.02 3.34 0 3 C0 2.01 0 1.02 0 0 Z " fill="#000000" transform="translate(158,126)"/>
<path d="M0 0 C2.97 0 5.94 0 9 0 C9.33 0.66 9.66 1.32 10 2 C10.66 1.34 11.32 0.68 12 0 C15.5625 -0.1875 15.5625 -0.1875 19 0 C20 1 20 1 20.0625 4.0625 C20.041875 5.031875 20.02125 6.00125 20 7 C18.35 7.33 16.7 7.66 15 8 C14.67 6.68 14.34 5.36 14 4 C13.34 4 12.68 4 12 4 C10.29915181 9.32932432 9.47986031 14.43109483 9 20 C10.65 20.33 12.3 20.66 14 21 C14 21.99 14 22.98 14 24 C9.38 24 4.76 24 0 24 C0 23.01 0 22.02 0 21 C1.32 20.67 2.64 20.34 4 20 C3.67 14.72 3.34 9.44 3 4 C2.01 3.67 1.02 3.34 0 3 C0 2.01 0 1.02 0 0 Z " fill="#990000" transform="translate(138,174)"/>
<path d="M0 0 C2.97 0 5.94 0 9 0 C9 6.6 9 13.2 9 20 C10.32 20.33 11.64 20.66 13 21 C13 21.99 13 22.98 13 24 C8.71 24 4.42 24 0 24 C0 23.01 0 22.02 0 21 C1.32 20.67 2.64 20.34 4 20 C3.67 14.72 3.34 9.44 3 4 C2.01 3.67 1.02 3.34 0 3 C0 2.01 0 1.02 0 0 Z " fill="#990000" transform="translate(178,174)"/>
<path d="M0 0 C3.71772498 1.23924166 4.20923435 2.79880729 5.93180847 6.16744995 C6.28817886 6.89336334 6.64454926 7.61927673 7.01171875 8.3671875 C7.38480667 9.11654572 7.75789459 9.86590393 8.14228821 10.63796997 C8.93012506 12.23090635 9.7123806 13.82661333 10.48950195 15.42480469 C11.67144157 17.84215663 12.8861319 20.24097201 14.10351562 22.640625 C18.13116324 30.76691992 21.54039369 37.6752776 20 47 C17.34024398 43.78600595 15.82776251 40.54207461 14.2578125 36.6875 C13.88243851 35.77315186 13.88243851 35.77315186 13.4994812 34.84033203 C12.70252922 32.89573323 11.91358218 30.94800589 11.125 29 C10.603406 27.72243507 10.08127501 26.44508924 9.55859375 25.16796875 C8.78532898 23.27812979 8.01306299 21.38792738 7.24468994 19.49609375 C5.17636885 14.40525317 3.04038641 9.34466324 0.87841797 4.29296875 C0 2 0 2 0 0 Z " fill="#F8EDED" transform="translate(147,3)"/>
<path d="M0 0 C0.66 0 1.32 0 2 0 C2.33 1.65 2.66 3.3 3 5 C5.31 5 7.62 5 10 5 C9.01 5.804375 9.01 5.804375 8 6.625 C5.68975201 8.89958592 5.68975201 8.89958592 5.75 12.25 C5.87375 13.61125 5.87375 13.61125 6 15 C5.0925 14.62875 4.185 14.2575 3.25 13.875 C0.11902985 12.69640701 0.11902985 12.69640701 -2.375 13.875 C-2.91125 14.24625 -3.4475 14.6175 -4 15 C-3.9175 14.0925 -3.835 13.185 -3.75 12.25 C-3.68975201 8.89958592 -3.68975201 8.89958592 -6 6.625 C-6.66 6.08875 -7.32 5.5525 -8 5 C-4.535 4.505 -4.535 4.505 -1 4 C-0.67 2.68 -0.34 1.36 0 0 Z " fill="#F1DCDC" transform="translate(106,35)"/>
<path d="M0 0 C1.65 0 3.3 0 5 0 C5.33 1.65 5.66 3.3 6 5 C4.35 5.66 2.7 6.32 1 7 C0.34 6.34 -0.32 5.68 -1 5 C-0.625 2.375 -0.625 2.375 0 0 Z " fill="#990000" transform="translate(182,162)"/>
<path d="M0 0 C1.65 0.33 3.3 0.66 5 1 C5 2.65 5 4.3 5 6 C3.1875 6.6875 3.1875 6.6875 1 7 C-0.75 5.5625 -0.75 5.5625 -2 4 C-1.34 2.68 -0.68 1.36 0 0 Z " fill="#990000" transform="translate(86,162)"/>
<path d="M0 0 C3 1 3 1 4.16796875 2.77734375 C4.50441406 3.49019531 4.84085938 4.20304688 5.1875 4.9375 C5.70376953 6.00291016 5.70376953 6.00291016 6.23046875 7.08984375 C7 9 7 9 7 11 C6.01 11.33 5.02 11.66 4 12 C3.3291288 10.3767313 2.66342971 8.75132422 2 7.125 C1.62875 6.22007813 1.2575 5.31515625 0.875 4.3828125 C0 2 0 2 0 0 Z " fill="#F4E3E3" transform="translate(147,3)"/>
<path d="M0 0 C0.99 0 1.98 0 3 0 C3.66 2.64 4.32 5.28 5 8 C4.01 8.33 3.02 8.66 2 9 C1.34 6.03 0.68 3.06 0 0 Z " fill="#A72424" transform="translate(139,2)"/>
<path d="M0 0 C0.66 0 1.32 0 2 0 C2.99 2.64 3.98 5.28 5 8 C4.01 8.33 3.02 8.66 2 9 C1.34 6.03 0.68 3.06 0 0 Z " fill="#A31A1A" transform="translate(145,3)"/>
</svg>
