<?xml version="1.0" encoding="UTF-8"?>
<svg version="1.1" xmlns="http://www.w3.org/2000/svg" width="900" height="500">
<path d="M0 0 C297 0 594 0 900 0 C900 165 900 330 900 500 C603 500 306 500 0 500 C0 335 0 170 0 0 Z " fill="#0076B5" transform="translate(0,0)"/>
<path d="M0 0 C297 0 594 0 900 0 C900 165 900 330 900 500 C603 500 306 500 0 500 C0 335 0 170 0 0 Z M18 43 C18 179.29 18 315.58 18 456 C302.79 456 587.58 456 881 456 C881 319.71 881 183.42 881 43 C596.21 43 311.42 43 18 43 Z " fill="#FFFFFF" transform="translate(0,0)"/>
<path d="M0 0 C11.88 0 23.76 0 36 0 C36 12.37677898 36 12.37677898 35.57275391 17.56274414 C35.47910553 18.72508072 35.38545715 19.8874173 35.28897095 21.0849762 C35.18587616 22.30603561 35.08278137 23.52709503 34.9765625 24.78515625 C34.87032562 26.08086044 34.76408875 27.37656464 34.65463257 28.71153259 C34.4304306 31.44228748 34.20322279 34.17276912 33.97363281 36.90307617 C33.68422576 40.34606047 33.40100507 43.78951775 33.11980629 47.233181 C32.05174521 60.29423005 30.95809872 73.34298307 29.40625 86.35668945 C28.17791185 97.37260908 27.8801498 108.42374497 27.75 119.5 C27.72856934 120.50305176 27.70713867 121.50610352 27.68505859 122.53955078 C27.6449246 131.45672979 29.35484425 138.90323277 35 146 C43.00158004 153.58044425 49.94048123 155.45589167 60.7265625 155.24609375 C70.21681216 154.53262629 79.11966052 150.69993783 86.0078125 144.06640625 C94.14733984 134.46458288 96.82688128 122.64820272 97.71875 110.41015625 C97.78155151 109.58801132 97.84435303 108.76586639 97.90905762 107.91880798 C98.1089384 105.30024865 98.30489977 102.68141957 98.5 100.0625 C98.69522842 97.44716219 98.89141038 94.83191689 99.09094238 92.21690369 C99.21482835 90.5932049 99.33629241 88.9693189 99.45495605 87.3452301 C99.77289319 83.17659253 100.28726453 79.12334698 101 75 C101.15722522 73.29253742 101.28828473 71.58248497 101.39453125 69.87109375 C101.46099854 68.85708496 101.52746582 67.84307617 101.59594727 66.79833984 C101.66740967 65.6892627 101.73887207 64.58018555 101.8125 63.4375 C102.66333703 50.93165529 103.69418213 38.44424926 104.7918396 25.95779419 C104.97238987 23.90134517 105.15144494 21.84476434 105.32901001 19.78805542 C105.58093932 16.87653654 105.83843073 13.96556475 106.09765625 11.0546875 C106.17365051 10.16945908 106.24964478 9.28423065 106.32794189 8.37217712 C106.88531488 2.22937025 106.88531488 2.22937025 108 0 C119.88 0 131.76 0 144 0 C144 9.71794724 144 9.71794724 143 14 C142.82207664 15.72363451 142.67408006 17.45053667 142.55102539 19.17895508 C142.4774733 20.18803421 142.4039212 21.19711334 142.32814026 22.23677063 C142.21405067 23.86173714 142.21405067 23.86173714 142.09765625 25.51953125 C141.92777157 27.84570584 141.75784842 30.17187762 141.58789062 32.49804688 C141.32562178 36.13980224 141.06470048 39.78164945 140.80493164 43.42358398 C139.93858365 55.51529123 139.05222469 67.55569725 137.4309082 79.5715332 C136.73671832 85.09476754 136.41226323 90.6338609 136.0625 96.1875 C134.31161631 120.60127824 131.69368407 144.11920267 116 164 C115.18982422 165.07894531 115.18982422 165.07894531 114.36328125 166.1796875 C102.74141807 180.64370124 85.83440979 188.0045565 68 191 C67.20207031 191.18046875 66.40414062 191.3609375 65.58203125 191.546875 C49.13560418 194.4330861 30.69532734 190.59545228 17 181 C1.61238904 169.16337619 -6.3328249 153.01663631 -9 134 C-9.40677014 129.34147108 -9.47293933 124.73317003 -9.43359375 120.05859375 C-9.43109556 119.40067778 -9.42859737 118.7427618 -9.42602348 118.06490898 C-9.31250809 97.7238344 -7.20644785 77.45498916 -5.34979248 57.21606445 C-4.8661666 51.90737905 -4.39999595 46.59715962 -3.93164062 41.28710938 C-3.24546478 33.54098256 -2.55433177 25.7953334 -1.84790039 18.05102539 C-1.77668976 17.26403763 -1.70547913 16.47704987 -1.6321106 15.66621399 C-1.15205509 10.43399254 -0.58047641 5.22428767 0 0 Z " fill="#FCFDFE" transform="translate(165,156)"/>
<path d="M0 0 C1.32 0 2.64 0 4 0 C11.9442821 22.62937952 19.80488637 45.28457626 27.5 68 C32.75993914 83.52631023 38.07731426 99.02976944 43.5 114.5 C49.16271679 130.6606665 54.73263638 146.85162849 60.25 163.0625 C60.61875244 164.14402344 60.98750488 165.22554687 61.36743164 166.33984375 C62.41889594 169.4250831 63.46772425 172.51120496 64.515625 175.59765625 C64.82433533 176.50310684 65.13304565 177.40855743 65.45111084 178.34144592 C65.7434259 179.20466965 66.03574097 180.06789337 66.33691406 180.95727539 C66.58701233 181.6936171 66.8371106 182.4299588 67.0947876 183.18861389 C68.46307899 187.43821918 69.71714804 191.72382679 71 196 C58.13 196 45.26 196 32 196 C30.35 190.06 28.7 184.12 27 178 C26.401875 176.205625 25.80375 174.41125 25.1875 172.5625 C24 169 24 169 24 166 C0.9 166 -22.2 166 -46 166 C-46.66 167.98 -47.32 169.96 -48 172 C-48.83938838 173.95746827 -49.70771404 175.90273037 -50.6015625 177.8359375 C-51.04322754 178.7954834 -51.48489258 179.7550293 -51.93994141 180.74365234 C-52.49601074 181.94199707 -53.05208008 183.1403418 -53.625 184.375 C-55.39875 188.21125 -57.1725 192.0475 -59 196 C-71.87 196 -84.74 196 -98 196 C-91.93444807 183.07341391 -85.68323137 170.26226755 -79.26074219 157.50976562 C-78.14881251 155.29624179 -77.04434932 153.07932001 -75.9453125 150.859375 C-72.73219351 144.37269459 -69.4500936 137.92818438 -66.08206558 131.5203867 C-58.90098507 117.84980882 -51.96396786 104.06186899 -45.07138538 90.24416471 C-43.47939579 87.05379251 -41.88503149 83.86460733 -40.29095459 80.67527771 C-37.29354309 74.67738716 -34.29816584 68.67848327 -31.303581 62.67918104 C-27.88540887 55.83153056 -24.4648747 48.98506089 -21.04417467 42.13867295 C-14.02688323 28.09372974 -7.01245213 14.04736011 0 0 Z " fill="#FBFDFE" transform="translate(689,148)"/>
<path d="M0 0 C-0.6876472 15.05710246 -2.38571249 30.02038383 -4 45 C-5.10988281 43.88625 -5.10988281 43.88625 -6.2421875 42.75 C-19.12184595 29.90682783 -32.41186461 23.82670823 -50.8125 23.5625 C-68.047128 23.68104506 -82.87345807 29.15388146 -95.4296875 41.19140625 C-109.37680171 56.43149001 -113.87939692 76.76393754 -113.12744141 96.90527344 C-112.27038784 110.99247569 -107.44874764 123.79985158 -96.89453125 133.42578125 C-83.45187614 144.59565756 -67.69955956 144.89939923 -51 144 C-37.76723528 142.37634789 -24.86400697 134.43763755 -15.0390625 125.78515625 C-13 124 -13 124 -11 123 C-11.24073163 127.15900665 -11.48937145 131.31745151 -11.74462891 135.47558594 C-11.8300152 136.88334052 -11.91342352 138.2912168 -11.99462891 139.69921875 C-12.23182605 143.79892253 -12.50835286 147.89268881 -12.84136963 151.98577881 C-12.99874678 153.98408711 -13.1281521 155.98453376 -13.25732422 157.98486328 C-14.09473988 166.90374656 -14.09473988 166.90374656 -16.46728516 169.77685547 C-18.39747028 171.05894924 -20.19310588 171.85045523 -22.375 172.625 C-23.45322021 173.08060303 -23.45322021 173.08060303 -24.55322266 173.54541016 C-26.68391082 174.42581676 -28.83039366 175.221325 -31 176 C-32.11375 176.42796875 -33.2275 176.8559375 -34.375 177.296875 C-44.46326213 180.9223442 -54.11712821 182.34983712 -64.8125 182.25 C-65.87130371 182.24250732 -66.93010742 182.23501465 -68.02099609 182.22729492 C-91.64688007 181.90243448 -110.89146153 174.14883094 -128.15234375 157.984375 C-136.92868402 148.87783579 -143.68678258 136.16519728 -147 124 C-147.29648437 122.92878906 -147.59296875 121.85757813 -147.8984375 120.75390625 C-155.04328601 89.78197119 -148.64071315 56.83412736 -132 30 C-117.83334561 8.91301787 -97.48720104 -5.6026386 -72.71875 -11.30859375 C-45.94982048 -16.2855901 -23.5828296 -12.79122521 0 0 Z " fill="#FCFDFE" transform="translate(467,166)"/>
<path d="M0 0 C12.21 0 24.42 0 37 0 C36.59322664 5.4262031 36.18501913 10.8522596 35.77319336 16.27807617 C35.63368422 18.12176301 35.4950008 19.96551253 35.35717773 21.80932617 C35.15828967 24.46810772 34.95637825 27.12664551 34.75390625 29.78515625 C34.66321617 31.01057884 34.66321617 31.01057884 34.57069397 32.26075745 C34.21587075 36.87613986 33.66811321 41.41729841 33 46 C32.82293893 48.03335172 32.66801042 50.0687509 32.53515625 52.10546875 C32.45845703 53.24298584 32.38175781 54.38050293 32.30273438 55.55249023 C32.22345703 56.75204346 32.14417969 57.95159668 32.0625 59.1875 C31.49703566 67.45316442 30.88629144 75.69979214 30 83.9375 C29.12164809 92.13373395 28.53975337 100.33746063 28 108.5625 C27.3575489 118.3334533 26.57497232 128.06027819 25.46484375 137.7890625 C24.90593958 142.85207678 24.46116822 147.92714959 24 153 C47.1 153 70.2 153 94 153 C94 164.70944538 92.34218473 176.36773233 91 188 C55.69 188 20.38 188 -16 188 C-15.35545911 178.3318867 -14.67135313 168.68589578 -13.8359375 159.03515625 C-13.72188622 157.70598264 -13.60794752 156.37679937 -13.49411011 155.04760742 C-13.18696883 151.46617345 -12.87795133 147.88490372 -12.5684967 144.30366898 C-12.30687957 141.27349749 -12.04634485 138.24323326 -11.78575134 135.21297359 C-8.9972551 102.79499627 -6.15671615 70.38152843 -3.31232071 37.96841621 C-2.20173764 25.31283628 -1.09823834 12.65665852 0 0 Z " fill="#FBFDFD" transform="translate(495,156)"/>
<path d="M0 0 C0.33 0 0.66 0 1 0 C1.17015625 0.93199219 1.3403125 1.86398438 1.515625 2.82421875 C2.93609001 10.29677137 4.64046906 17.46696795 6.97265625 24.71875 C8.0392629 28.12540241 8.97044271 31.54691823 9.875 35 C12.45221264 44.70244757 15.24210206 54.34735721 18 64 C3.15 64 -11.7 64 -27 64 C-26.28753354 60.43766772 -25.76560627 58.13512621 -24.3293457 54.98266602 C-23.98841385 54.22740128 -23.64748199 53.47213654 -23.29621887 52.69398499 C-22.92647446 51.888759 -22.55673004 51.08353302 -22.17578125 50.25390625 C-21.79189743 49.40634262 -21.40801361 48.55877899 -21.01249695 47.68553162 C-19.78406837 44.97559582 -18.54861825 42.26893569 -17.3125 39.5625 C-15.70223547 36.02312892 -14.09476697 32.48249391 -12.48828125 28.94140625 C-12.09915558 28.08447174 -11.71002991 27.22753723 -11.30911255 26.34463501 C-7.36460211 17.63745546 -3.52082776 8.88842934 0 0 Z " fill="#0377B6" transform="translate(686,218)"/>
</svg>
